<?xml version="1.0" encoding="UTF-8"?>
<!-- Generated by Pixelmator Pro 3.6.14 -->
<svg width="500" height="500" viewBox="0 0 500 500" xmlns="http://www.w3.org/2000/svg">
    <g id="Group-copy">
        <linearGradient id="linearGradient1" x1="100.272414" y1="137.849753" x2="352.737093" y2="366.548968" gradientUnits="userSpaceOnUse">
            <stop offset="1e-05" stop-color="#a0bd5b" stop-opacity="1"/>
            <stop offset="1" stop-color="#90ad4a" stop-opacity="1"/>
        </linearGradient>
        <path id="Path" fill="url(#linearGradient1)" stroke="none" d="M 481.604004 292.498779 C 479.804077 309.965057 471.510132 326.271332 459.789978 339.455139 C 457.426758 342.133057 454.911102 344.680878 452.287445 347.076904 C 450.249298 348.941803 448.146027 350.71991 445.988251 352.411163 C 417.918396 368.500519 386.347168 378.475159 354.103058 381.185638 C 348.714935 381.6409 343.293976 381.890381 337.883606 381.944519 C 338.241486 383.006989 338.609924 384.091187 338.89209 385.197083 C 339.293396 386.78009 339.542725 388.384674 339.423096 389.945862 C 339.347382 390.791534 339.173737 391.604675 338.870392 392.417847 C 338.035553 394.564514 336.463257 396.11496 334.826385 397.643555 C 333.644257 398.738617 332.41925 399.801086 331.421875 401.047943 C 328.982452 404.094604 327.410156 408.767395 325.870697 412.35611 C 325.318024 413.624542 324.775909 414.969055 323.800262 415.944702 C 322.542419 417.202423 320.840424 417.657837 319.029388 417.766235 C 317.804382 417.842041 316.53595 417.766235 315.343231 417.646973 C 313.901184 417.516876 312.448547 417.375916 311.082703 416.877106 C 310.052521 416.508514 309.076843 415.87973 308.393951 415.044891 C 308.165771 414.773834 307.981537 414.481079 307.830139 414.166626 C 307.623688 413.722198 307.482849 413.245087 307.428864 412.757263 C 304.436218 414.188324 301.140228 415.001465 297.82309 415.066589 C 296.001465 415.109863 294.028412 414.84967 292.748871 413.570404 C 292.369293 413.180115 292.076538 412.724701 291.881195 412.236877 C 286.948364 413.602966 280.421509 412.919922 279.380707 407.303741 C 279.326721 407.021851 279.283325 406.729095 279.261597 406.43634 C 279.055664 403.877686 280.074738 401.340698 281.451691 399.172302 C 282.915466 396.841278 284.833954 394.813843 287.056885 393.176697 L 287.056885 393.176697 C 289.539703 391.344482 292.40213 390.02182 295.426544 389.349609 C 297.269867 388.937622 299.199493 388.753265 300.945435 388.026794 C 302.690826 387.289612 304.306519 385.847565 304.555878 383.96109 C 304.750671 382.464905 304.046051 381.001282 303.330322 379.678589 C 303.308624 379.646027 303.286926 379.613464 303.276337 379.581055 C 298.267242 378.84375 293.279846 377.922211 288.325287 376.859711 C 277.331451 374.463562 266.500671 371.24353 255.983795 367.221252 C 255.398285 367.004333 254.81279 366.776672 254.238403 366.538208 C 248.112823 364.142181 242.073547 361.464111 236.197311 358.526001 C 232.586868 364.814392 227.979065 370.603912 223.26326 376.13327 C 219.815338 380.166412 216.27002 384.123749 212.648987 388.005096 C 209.450409 391.420319 206.187256 394.759705 202.847855 398.023132 C 196.429535 404.311371 189.13295 409.64563 184.481735 417.495178 C 183.831116 418.59021 183.202194 419.73938 182.19371 420.530762 C 180.047028 422.211304 176.978683 421.712616 174.322739 421.127106 C 173.13002 420.866913 171.850479 420.541626 170.831406 419.912842 C 170.224197 419.544312 169.71492 419.056335 169.357056 418.416687 C 168.446503 416.747009 169.075424 414.665466 169.877441 412.941498 C 169.899155 412.898193 169.920853 412.865662 169.931442 412.822235 C 167.806473 413.592102 165.638092 414.307587 163.404587 414.350983 C 160.922287 414.394409 158.276398 413.47287 156.888855 411.412872 C 156.194824 410.382813 155.880371 409.179382 155.869781 407.954224 C 154.752777 408.268677 153.614578 408.485474 152.454681 408.518036 C 150.437714 408.561462 148.302155 407.932526 147.000916 406.403931 C 145.775909 404.972717 145.429153 402.945282 145.743607 401.080505 C 146.00354 399.49762 146.675873 398.023132 147.489014 396.635345 C 147.619247 396.386017 147.770645 396.1474 147.911987 395.908875 C 150.286301 392.049255 153.462646 388.536469 157.593475 386.649872 C 162.396637 384.4599 167.882706 384.665833 173.13002 384.134583 C 177.42337 383.690033 181.500198 382.551727 184.54631 379.797852 C 185.467987 378.98468 186.292236 378.008881 187.01857 376.870575 C 190.900055 370.679749 194.401962 364.261414 197.513718 357.65863 C 199.08548 354.341064 200.55983 350.936676 201.449203 347.358795 C 202.349167 343.683502 201.958481 340.745239 201.351273 337.069824 C 200.147964 329.729858 198.511093 322.476685 196.8414 315.234222 C 192.146774 295.003296 186.823227 274.067505 190.444778 253.196854 C 193.404602 236.164246 202.099823 220.768677 208.680679 204.776855 C 211.543091 197.848999 214.014816 190.509003 215.424576 183.082306 L 215.424576 183.082306 C 215.489166 182.713593 215.554276 182.345001 215.630508 181.987274 C 217.26738 172.663116 217.191681 163.241577 214.079926 154.361969 C 213.364197 152.302124 212.377945 150.177002 210.524017 149.027832 C 208.930023 148.030334 207.780716 148.192993 206.78334 148.810913 C 205.623444 149.504822 204.668961 150.805939 203.422241 151.651489 C 200.711761 153.472992 197.166443 154.524628 194.054688 155.381195 C 192.265884 155.869019 190.455368 156.248596 188.644852 156.552063 C 184.731064 157.224243 180.751648 157.538696 176.794449 157.712219 C 176.707642 157.712219 176.621338 157.712219 176.534531 157.712219 C 175.8405 157.744781 175.157578 157.766357 174.463547 157.788055 C 169.584686 157.93985 164.727539 157.99411 159.848679 157.907288 L 159.848679 157.907288 C 154.850708 157.842316 149.852203 157.657959 144.865356 157.376068 L 144.865356 157.376068 C 137.991226 156.985748 131.11763 156.411102 124.254608 155.67392 C 120.145485 155.22937 116.036362 154.741547 111.938347 154.199463 C 99.697792 152.594879 87.478943 150.545746 75.303497 148.290527 C 70.24041 147.358154 65.199028 146.37149 60.146534 145.363281 C 51.80917 143.704437 43.493511 141.991455 35.199291 140.267487 C 34.754868 140.169952 34.288475 140.072418 33.844051 139.985718 C 33.518742 139.920624 33.193432 139.844788 32.857533 139.768799 C 28.770113 138.825562 24.19486 137.134308 20.746943 134.510498 C 19.825539 133.81662 18.99069 133.046875 18.274956 132.201172 C 17.732861 131.583252 17.25588 130.921783 16.854866 130.217163 C 16.800604 129.523254 16.757195 128.84021 16.746342 128.157166 C 16.410179 117.18515 21.126514 106.050507 29.594109 99.089935 C 34.852276 94.764038 41.531059 92.205353 48.296135 91.739227 C 50.345406 91.576569 52.405262 91.619843 54.432827 91.85849 C 57.1973 92.172791 59.918896 92.866699 62.499142 93.950897 C 69.687202 96.964966 75.433731 102.570282 81.971169 106.809387 C 89.755844 111.872589 98.797829 114.940796 108.046272 115.829926 C 112.686378 116.285187 117.369896 116.198517 121.977707 115.526306 C 122.661148 115.428772 123.332939 115.320374 124.005264 115.201019 C 125.95713 114.843262 127.355247 113.108582 127.344658 111.124573 C 127.322952 105.801147 128.656494 100.325928 130.955093 95.588043 C 133.026077 91.294678 136.527985 87.565002 140.799637 85.526703 C 142.133163 84.887085 143.542404 84.420959 145.027878 84.149902 C 145.1147 84.128204 145.212097 84.11734 145.309509 84.106476 C 151.587021 83.05484 158.634262 86.274872 161.073685 92.161957 C 166.538055 91.739227 171.796478 92.086121 177.239136 92.736603 C 178.062881 85.440033 185.923264 80.084167 193.209259 79.151672 C 193.642822 79.097534 194.065811 79.054108 194.488785 79.021576 C 195.182297 78.978271 195.876328 78.956573 196.548645 78.978271 C 211.879257 79.303467 221.97261 95.935059 229.063248 107.991241 C 229.248016 108.327271 229.432236 108.641724 229.62706 108.966919 C 231.817139 112.707458 233.692764 116.59964 235.297348 120.600403 C 236.067078 122.476013 236.761108 124.373352 237.39003 126.303253 C 238.810379 130.553192 239.970276 134.922516 240.913651 139.324249 C 241.466339 141.904633 241.932724 144.517578 242.344589 147.130493 C 243.082031 151.868408 243.602417 156.628021 243.960297 161.355072 C 243.981995 161.593567 244.003693 161.821198 244.014282 162.059845 C 244.133926 163.55603 244.220215 165.073792 244.296448 166.569977 C 244.610916 172.153595 244.762314 177.758911 244.86026 183.353363 L 244.86026 183.353363 C 244.892548 184.957947 244.903656 186.540802 244.925369 188.123688 C 245.033371 195.019135 245.120178 201.914703 245.380646 208.777588 C 245.456345 210.718323 245.553757 212.658936 245.662277 214.588837 C 246.085266 221.80957 246.789886 228.986908 248.036591 236.12085 C 248.069412 236.40274 248.134537 236.684631 248.177948 236.966553 C 248.394455 238.191681 248.633209 239.41684 248.904266 240.631104 C 250.866714 249.922577 253.956238 259.073212 258.379822 267.50824 C 259.030426 268.765808 259.724457 270.012665 260.461365 271.237793 C 261.480988 273.005035 262.597473 274.739716 263.757355 276.420258 C 268.560516 283.326538 274.935425 288.519867 281.950378 292.878204 C 283.533264 293.875702 285.148438 294.808105 286.785828 295.718781 C 290.244324 297.648682 293.811371 299.437622 297.378387 301.183167 C 303.861847 304.359863 310.562317 307.113647 317.403107 309.422974 C 318.78006 309.889221 320.168121 310.344635 321.555634 310.7565 C 325.090363 311.851563 328.667999 312.838196 332.278442 313.705597 C 333.94812 314.10675 335.639526 314.486206 337.330933 314.843933 C 342.805878 315.993225 348.335358 316.849792 353.908264 317.43515 L 353.908264 317.43515 C 355.295776 317.586975 356.661621 317.717041 358.049683 317.814575 C 367.189575 318.562744 376.394104 318.55191 385.534027 317.749634 C 385.728821 317.727905 385.902466 317.717041 386.097809 317.706207 C 387.182007 317.608643 388.244476 317.500275 389.328674 317.370178 C 397.308167 316.459351 405.2771 314.833069 412.714478 311.992493 C 413.8638 311.548096 414.991394 311.092651 416.09729 310.593994 C 420.238708 308.761627 424.163605 306.495728 427.795746 303.730957 C 429.465454 302.451691 431.070038 301.042175 432.566071 299.524292 C 433.28183 298.797974 433.975311 298.049805 434.637054 297.28009 C 438.594238 292.69397 441.662598 287.327148 443.386292 281.645996 C 443.483704 281.342529 443.570526 281.028076 443.657349 280.713623 C 443.700745 280.572662 443.733032 280.431702 443.776459 280.279907 C 443.971802 279.542725 444.145447 278.816284 444.286255 278.068237 L 444.286255 278.068237 C 445.186218 273.525421 445.207916 268.863464 444.11261 264.309814 C 444.058624 264.060455 443.9935 263.800262 443.906677 263.550903 C 443.548798 262.195679 443.082947 260.862152 442.529724 259.571899 C 440.773224 255.484482 438.10614 251.819901 434.821289 248.795105 L 434.821289 248.795105 C 433.802216 247.841003 432.706909 246.962753 431.568726 246.160461 C 428.836548 244.209 425.811584 242.691101 422.613037 241.704437 C 421.485413 241.335876 420.314941 241.064819 419.15451 240.858765 C 418.406494 240.717804 417.658447 240.609406 416.899323 240.533569 C 414.221649 240.262512 411.532898 240.381775 408.898102 240.837036 C 407.467163 241.086517 406.046814 241.444244 404.658752 241.888824 C 401.840302 242.788635 399.129822 244.089615 396.657562 245.726761 C 394.510895 247.136261 392.526733 248.784256 390.781342 250.649033 C 388.634644 252.94751 386.845856 255.549591 385.512299 258.411865 C 387.257721 253.424622 389.295868 249.131134 391.562164 245.434006 C 404.485657 224.400818 424.803101 223.002167 441.011963 227.881012 C 442.898193 228.43396 444.709229 229.084442 446.46521 229.800049 C 451.159851 231.708252 455.334106 234.08255 458.630066 236.511139 C 462.543854 239.384277 465.980652 242.7995 468.940491 246.594162 C 478.850128 259.289978 483.327698 276.322723 481.65802 292.509613 Z"/>
        <path id="path1" fill="#f6e0a4" stroke="none" d="M 304.544739 383.92865 C 304.306519 385.815155 302.690826 387.25708 300.934296 387.994385 C 299.188904 388.720703 297.259277 388.90506 295.415955 389.317078 C 293.746246 389.685638 292.119965 390.249451 290.591095 391.008331 C 290.461395 391.073456 290.309448 391.149292 290.17923 391.214386 C 289.084442 391.7565 288.032532 392.406982 287.056885 393.133423 L 287.056885 393.133423 C 286.222015 393.154999 285.387177 393.165863 284.552338 393.176697 C 284.194458 393.176697 283.826019 393.176697 283.45755 393.176697 C 279.305023 393.220123 275.087372 393.230957 270.837433 393.176697 C 268.885559 393.154999 266.912537 393.133423 264.950073 393.090027 C 263.117859 393.046631 261.263947 393.003326 259.410004 392.938232 C 255.723862 392.81897 252.016022 392.656311 248.307648 392.417847 C 241.596558 392.005829 234.874893 391.398621 228.196106 390.509644 C 226.374481 390.271149 224.542267 390.010956 222.721161 389.739929 C 221.744965 389.588104 220.769302 389.43631 219.79364 389.262787 C 217.397614 388.861664 215.001602 388.417114 212.627274 387.940125 C 214.079926 386.378815 215.521988 384.817627 216.952927 383.234772 C 219.08902 380.871155 221.181168 378.496857 223.241547 376.068298 C 227.968475 370.538818 232.56517 364.749268 236.175613 358.460907 C 237.520264 359.13324 238.875504 359.794556 240.230743 360.434204 C 244.816849 362.6026 249.489761 364.619141 254.21669 366.473083 C 265.286224 370.809845 276.702545 374.268494 288.314697 376.794617 C 293.269257 377.86795 298.245544 378.778748 303.265198 379.51593 C 303.286926 379.548492 303.308624 379.581055 303.319733 379.613464 C 304.035461 380.947144 304.740082 382.399902 304.544739 383.896118 Z"/>
        <path id="path2" fill="#f6e0a4" stroke="none" d="M 445.977661 352.411163 C 431.590424 363.741028 414.644653 371.666382 397.232483 377.466797 C 378.465057 383.711731 359.058167 387.593231 339.412506 389.934998 C 339.618439 387.300476 338.772461 384.524902 337.873016 381.944519 C 343.282867 381.901245 348.693237 381.651764 354.092468 381.185638 C 386.325439 378.464294 417.907806 368.500519 445.977661 352.411163 Z"/>
        <path id="path3" fill="#eef5ff" stroke="none" d="M 75.249504 148.279694 C 71.975227 152.789948 68.180557 156.942352 63.876087 160.465973 C 63.843792 160.346741 63.832676 160.249176 63.800385 160.129944 C 62.705074 155.17511 61.490654 150.231262 60.092533 145.352417 C 64.678642 146.263092 69.253632 147.163055 73.839737 148.008636 C 74.306129 148.106293 74.771988 148.192993 75.249504 148.279694 Z"/>
        <path id="path4" fill="#eef5ff" stroke="none" d="M 124.200615 155.663086 C 121.728363 159.089172 118.681717 162.005585 115.201508 164.390747 C 115.158104 164.271484 115.115219 164.130554 115.071808 164.011292 C 113.954796 160.758728 112.903427 157.484436 111.884354 154.188599 C 115.765312 154.708984 119.636208 155.164398 123.52829 155.587128 C 123.745338 155.619659 123.972977 155.641388 124.200615 155.663086 Z"/>
        <path id="path5" fill="#eef5ff" stroke="none" d="M 159.805267 157.896454 C 156.216537 161.99472 152.172531 165.952057 147.976578 169.367279 C 147.900879 169.128784 147.82518 168.890167 147.760056 168.651672 C 146.610748 164.932831 145.635086 161.159882 144.821945 157.365204 C 149.396927 157.625397 153.950745 157.79892 158.53685 157.874878 C 158.959839 157.874878 159.382294 157.874878 159.805267 157.896454 Z"/>
        <path id="path6" fill="#eef5ff" stroke="none" d="M 188.60144 156.530365 C 186.595581 160.140808 184.18898 163.480042 181.435089 166.591675 C 181.391678 166.515839 181.348267 166.43988 181.315445 166.364044 C 179.710861 163.480042 178.106277 160.585358 176.491119 157.701355 C 180.177261 157.549561 183.863403 157.278503 187.506668 156.703857 C 187.875122 156.660583 188.232986 156.595459 188.60144 156.530365 Z"/>
        <path id="path7" fill="#304220" stroke="none" d="M 139.249054 107.06958 C 139.70433 108.435669 140.420059 109.769318 141.612778 110.571625 C 143.737747 111.991852 146.794983 111.178711 148.540375 109.313934 C 150.275192 107.438293 150.925812 104.80365 151.121155 102.255829 C 151.272568 100.293396 151.175156 98.265961 150.394302 96.455444 C 148.811432 92.823425 143.997681 91.305542 141.168091 94.558105 C 138.447021 97.680573 138.012924 103.329163 139.260178 107.06958 Z"/>
        <path id="path8" fill="#304220" stroke="none" d="M 189.425171 107.936981 C 190.054092 109.378906 190.965164 110.766693 192.352707 111.525726 C 194.813828 112.870087 198.109818 111.699097 199.844635 109.498291 C 201.579437 107.297333 202.045303 104.3591 202.02359 101.572784 C 202.001892 99.426117 201.709137 97.225159 200.679474 95.32785 C 198.608505 91.522308 193.165848 90.318878 190.357956 94.12439 C 187.658066 97.778107 187.701477 103.968811 189.425171 107.926117 Z"/>
        <path id="path9" fill="#ffffff" stroke="none" d="M 146.036362 102.082336 C 145.700195 104.521759 144.149612 106.332397 142.577332 106.115479 C 141.005569 105.898682 140.008194 103.74118 140.34436 101.301727 C 140.679993 98.862305 142.230576 97.051666 143.802872 97.268585 C 145.374634 97.485352 146.371994 99.642883 146.036362 102.082336 Z"/>
        <path id="path10" fill="#ffffff" stroke="none" d="M 196.559235 101.95224 C 196.559235 104.695251 195.128296 106.928619 193.361191 106.928619 C 191.593552 106.928619 190.162613 104.706116 190.162613 101.95224 C 190.162613 99.198486 191.593552 96.97583 193.361191 96.97583 C 195.128296 96.97583 196.559235 99.198486 196.559235 101.95224 Z"/>
        <path id="path11" fill="#5e782f" stroke="none" d="M 169.899155 412.789825 C 170.896515 409.352905 172.967499 406.197845 175.688553 403.790985 C 178.431854 401.394958 181.814667 399.757813 185.338287 399.161469 C 183.765991 400.018005 182.226532 400.852875 180.762756 401.785248 C 179.31012 402.728485 177.911469 403.725861 176.631927 404.875183 C 175.330688 405.991913 174.160217 407.249481 173.043198 408.572296 C 171.937302 409.905823 170.918228 411.32605 169.899155 412.800659 Z"/>
        <path id="path12" fill="#5e782f" stroke="none" d="M 155.83696 407.921814 C 155.523041 405.341431 156.542114 402.663391 158.048752 400.549255 C 159.545334 398.370026 161.572372 396.591949 163.773575 395.182556 C 165.985367 393.805634 168.424805 392.688873 170.993927 392.157654 C 173.552994 391.604675 176.089844 391.442017 178.637787 391.127563 C 176.220062 392.027527 173.672119 392.515381 171.286682 393.241821 C 168.901779 393.957428 166.657166 395.063202 164.553894 396.396851 C 162.450638 397.708679 160.531586 399.313263 158.948715 401.221466 C 157.365845 403.118774 156.151413 405.363007 155.848083 407.921814 Z"/>
        <path id="path13" fill="#8aa851" stroke="none" d="M 145.17981 353.885651 C 144.897644 354.221802 144.616013 354.557861 144.323257 354.893982 C 139.335876 360.737793 134.142563 366.397247 128.743301 371.872467 C 127.463776 373.184296 126.163063 374.474426 124.851234 375.764679 C 118.725128 381.770996 111.775826 386.845093 107.330536 394.326019 C 106.712738 395.377655 106.10553 396.472687 105.162155 397.220703 C 103.39505 398.608521 100.966209 399.49762 98.700424 399.345825 C 98.342552 399.324127 97.995804 399.280701 97.648521 399.204865 C 95.838013 398.814575 93.799858 396.841278 92.911011 395.204132 C 92.650551 394.510254 92.520325 393.838043 92.498619 393.176697 C 90.297943 393.979004 88.04274 394.759705 85.700722 394.792145 C 83.228996 394.835571 80.583633 393.924866 79.18499 391.864868 C 78.502075 390.867371 78.198204 389.718201 78.165909 388.536469 C 77.43959 388.774963 76.702148 388.948486 75.693657 388.970032 C 73.677216 389.013458 71.552238 388.384674 70.24041 386.855927 C 69.774017 386.302979 69.427269 385.66333 69.221336 384.980286 C 68.852348 383.885254 68.798355 382.670959 68.993698 381.532501 C 69.286453 379.678589 70.164177 377.965607 71.150963 376.360901 C 73.525276 372.501251 76.712738 369.942566 80.832977 368.056091 C 85.635605 365.855164 90.178833 365.117859 95.426147 364.586609 C 101.020737 364.012085 106.235229 362.244843 109.31469 357.333435 C 113.065948 351.33783 116.481049 345.136292 119.505981 338.739532 C 119.603386 338.5336 119.711914 338.327515 119.798737 338.121582 C 120.329712 337.015686 120.839516 335.888123 121.327614 334.760498 C 122.303276 332.516296 123.148712 330.20697 123.734222 327.83252 C 123.767044 327.734985 123.777626 327.626587 123.799332 327.539886 C 124.644768 323.994568 125.013756 320.752838 124.438835 317.196655 C 127.063026 327.051941 131.269562 336.38678 137.395126 344.65918 C 139.834564 347.955139 142.425919 351.034241 145.146988 353.918213 Z"/>
        <path id="path14" fill="#5e782f" stroke="none" d="M 92.509735 393.176697 C 92.086754 391.160126 92.780785 389.013458 93.69133 387.213654 C 94.591293 385.370605 95.816307 383.646759 97.312363 382.204712 C 98.819534 380.773621 100.543228 379.581055 102.408272 378.735352 C 104.262192 377.857086 106.202942 377.239166 108.197678 376.881409 C 106.398285 377.813812 104.620064 378.702789 102.939781 379.721985 C 101.258965 380.741089 99.697792 381.901245 98.310265 383.245605 C 96.900497 384.568298 95.729485 386.118622 94.667 387.766602 C 93.604515 389.425446 92.704552 391.149292 92.509735 393.176697 Z"/>
        <path id="path15" fill="#5e782f" stroke="none" d="M 78.187614 388.536469 C 77.818634 385.945251 78.827118 383.245605 80.33429 381.10968 C 81.830353 378.919708 83.85791 377.119904 86.069702 375.699554 C 88.292084 374.31189 90.731514 373.184296 93.31176 372.642212 C 95.881424 372.0784 98.429375 371.926575 100.987915 371.60144 C 98.559601 372.512085 96.000534 372.978241 93.593925 373.726379 C 92.390091 374.105835 91.219612 374.528687 90.113716 375.092468 C 88.986115 375.634583 87.880219 376.230804 86.839439 376.913849 C 84.725052 378.236664 82.806015 379.862946 81.223137 381.78186 C 79.650848 383.700897 78.436958 385.956085 78.187614 388.54718 Z"/>
        <path id="path16" fill="#eef5ff" stroke="none" d="M 32.792419 139.747101 C 30.049385 144.669373 27.002745 149.396423 23.609354 153.895844 C 23.565945 153.689789 23.533386 153.483856 23.489977 153.277771 C 22.308378 147.054535 21.375858 140.788025 20.682093 134.499664 C 23.988663 137.036621 28.34713 138.684631 32.315437 139.649567 C 32.477962 139.692963 32.629631 139.725403 32.781567 139.768799 Z"/>
        <path id="path17" fill="#304220" stroke="none" d="M 38.397602 111.189545 C 37.79039 110.007813 36.890427 109.151276 35.741123 108.511627 C 34.678902 107.915283 33.345367 107.633362 32.1418 107.687653 C 30.808266 107.752625 29.203684 108.067078 28.15205 108.966919 C 27.653364 109.400604 27.393169 109.910156 27.588249 110.571625 C 27.967823 111.840027 29.886862 112.01355 30.884232 111.536438 C 31.090166 111.438904 31.296099 111.308807 31.491444 111.189545 C 30.992493 111.493164 31.328655 111.287079 31.458885 111.222107 C 31.567146 111.167847 31.675671 111.124573 31.784195 111.081146 C 31.784195 111.081146 31.784195 111.081146 31.784195 111.081146 C 31.968424 111.059448 32.174355 110.983612 32.347733 110.95105 C 32.358585 110.95105 32.369434 110.95105 32.380287 110.95105 C 32.434551 110.95105 32.499664 110.95105 32.543076 110.95105 C 32.564781 110.95105 32.640484 110.95105 32.727303 110.95105 C 32.759861 110.95105 32.781567 110.95105 32.814125 110.961914 C 32.911533 110.983612 33.009205 110.994354 33.106876 111.016052 C 33.182579 111.03775 33.60556 111.113708 33.258549 111.048615 C 32.933235 110.983612 33.258549 111.059448 33.345367 111.09201 C 33.453629 111.135284 33.5513 111.189545 33.659824 111.232971 C 33.735527 111.287079 33.822346 111.34137 33.898315 111.406342 C 33.995724 111.4823 34.082542 111.547302 34.180214 111.62326 C 34.277622 111.70993 34.310181 111.720795 34.299328 111.699097 C 34.429558 111.829193 34.559525 112.035248 34.646343 112.132782 C 34.776573 112.306305 34.895687 112.479797 35.015064 112.664032 C 35.025917 112.696594 35.047619 112.718292 35.058208 112.750854 C 35.10162 112.837555 35.145027 112.935089 35.188438 113.021912 C 35.535191 113.694092 36.110107 114.214478 36.83643 114.409576 C 37.053478 114.593933 37.432522 114.593933 37.638454 114.398712 C 38.05085 114.257751 38.354191 114.040985 38.581829 113.628967 C 38.733765 113.347076 38.831173 113.097748 38.842289 112.761566 C 38.842289 112.230347 38.614651 111.666656 38.375896 111.200409 Z"/>
        <path id="path18" fill="#304220" stroke="none" d="M 66.597679 114.181915 C 65.014275 112.794128 62.791893 112.132782 60.710335 112.317139 C 59.517616 112.425537 58.368313 112.718292 57.32753 113.30368 C 56.265045 113.900024 55.028919 114.767426 54.812397 116.046692 C 54.736168 116.502106 55.235382 116.903259 55.59272 117.065918 C 56.059113 117.271851 56.720322 117.315247 57.175594 117.065918 C 57.750515 116.762299 57.956448 116.491272 58.41172 116.144257 C 58.595947 116.003418 58.791294 115.873199 58.975521 115.743103 C 58.986637 115.743103 59.030048 115.710663 59.062344 115.688965 C 59.159748 115.634705 59.257687 115.591431 59.355095 115.53717 C 59.528736 115.45047 59.712963 115.385376 59.89719 115.320374 C 59.951187 115.320374 60.233353 115.233551 60.298466 115.222717 C 60.428169 115.190277 61.003086 115.146881 60.558399 115.168579 C 60.677509 115.168579 61.25243 115.070923 61.317543 115.168579 C 61.317543 115.168579 60.840565 115.092621 61.263016 115.168579 C 61.360954 115.190277 61.458363 115.201019 61.555767 115.222717 C 61.685997 115.244415 62.054455 115.374512 61.913635 115.320374 C 62.054455 115.374512 62.20639 115.428772 62.347206 115.493744 C 62.347206 115.493744 62.412323 115.526306 62.477436 115.558868 C 62.531963 115.591431 62.672783 115.667267 62.705074 115.688965 C 62.878716 115.797363 63.041237 115.905762 63.193172 116.024994 C 63.290581 116.100983 63.387989 116.176819 63.485924 116.263611 C 63.507629 116.274475 63.561626 116.328613 63.594452 116.372009 C 63.626743 116.415283 63.670155 116.45871 63.691856 116.469543 C 63.756973 116.545532 63.822086 116.621368 63.887203 116.697205 C 64.082016 116.935822 64.233955 117.18515 64.451004 117.391083 C 64.906281 117.835663 65.513489 118.19339 66.141876 118.291046 C 67.096367 118.453583 68.072029 117.965759 68.202263 116.946655 C 68.343079 115.786499 67.389114 114.897522 66.597679 114.203644 Z"/>
        <path id="path19" fill="#5e782f" stroke="none" d="M 291.860046 412.204315 C 291.198303 411.033447 291.100891 409.59137 291.220001 408.247009 C 291.371948 406.88089 291.773224 405.579926 292.250183 404.322235 C 293.225861 401.796112 294.700195 399.443359 296.554138 397.459351 C 298.419189 395.486053 300.609253 393.794769 303.048676 392.623779 C 305.47699 391.442017 308.133484 390.715576 310.800537 390.628906 C 308.230896 391.311951 305.813171 392.309448 303.579681 393.610413 C 301.3573 394.922241 299.35144 396.559387 297.606018 398.43515 C 295.82782 400.289063 294.407471 402.457458 293.269257 404.766785 C 292.727173 405.937653 292.195679 407.130249 291.902924 408.377075 C 291.599579 409.623932 291.480469 410.93576 291.848907 412.215149 Z"/>
        <path id="path20" fill="#5e782f" stroke="none" d="M 307.417755 412.735565 C 307.092712 411.532104 307.211823 410.220276 307.417755 409.006012 C 307.645386 407.780853 307.927551 406.544861 308.372223 405.37384 C 309.195953 402.999542 310.442688 400.766052 311.960449 398.749451 C 313.511017 396.754578 315.343231 394.976501 317.414215 393.545441 C 319.474091 392.114227 321.761566 390.997467 324.168701 390.379547 C 321.989197 391.550415 319.95105 392.894806 318.097137 394.434418 C 316.254333 395.984863 314.562927 397.708679 313.109741 399.616882 C 311.646515 401.514221 310.42099 403.595764 309.423615 405.785858 C 308.914337 406.88089 308.491364 408.019348 308.122894 409.168518 C 307.732208 410.317841 307.428864 411.499573 307.439453 412.735565 Z"/>
        <path id="path21" fill="#f6e0a4" stroke="none" d="M 190.401367 253.17514 C 186.779816 274.045837 192.103363 294.970764 196.797989 315.212646 C 198.467682 322.454956 200.104553 329.708252 201.308395 337.048126 C 201.91507 340.723572 202.305756 343.661804 201.405792 347.337219 C 200.527542 350.914978 199.042068 354.319336 197.470306 357.637024 C 196.418411 359.870422 195.323639 362.060486 194.184921 364.239716 C 192.634872 367.232117 190.986877 370.191925 189.25206 373.086761 C 189.046127 373.455353 188.818497 373.834778 188.60144 374.192505 C 188.069931 375.081635 187.527832 375.959747 186.975159 376.838013 C 186.259415 377.976318 185.424576 378.952148 184.503433 379.765259 C 183.961334 379.548492 183.408127 379.320862 182.877151 379.093079 C 181.293747 378.45343 179.754272 377.78125 178.214813 377.065643 C 168.305161 372.533813 159.067825 366.744141 150.860703 359.404266 C 149.602859 358.276672 148.367264 357.105652 147.152847 355.913086 C 146.480515 355.240906 145.819321 354.579529 145.168686 353.885651 C 143.781158 352.421997 142.425919 350.904114 141.11409 349.321228 C 139.845154 347.814209 138.609558 346.242188 137.41684 344.62674 C 132.993256 338.652832 129.556458 332.104309 127.008499 325.219696 C 126.976204 325.154602 126.965088 325.078735 126.932793 325.013641 C 126.488106 323.831909 126.08683 322.628479 125.707787 321.414185 C 125.251984 320.0047 124.840118 318.595306 124.449951 317.153259 C 124.449951 317.153259 124.449951 317.12085 124.449951 317.109985 C 121.642067 306.528259 120.665878 295.328491 121.164558 284.183105 C 121.219086 282.63266 121.316498 281.082214 121.446724 279.542725 C 121.815178 274.80481 122.455215 270.110199 123.322357 265.480835 C 124.655884 258.292603 126.195351 251.744064 127.984161 245.574951 C 128.428848 244.013779 128.905838 242.474182 129.40451 240.967133 C 131.713715 233.789795 134.424194 227.046173 137.687881 220.259125 C 138.338501 218.893036 139.021423 217.516083 139.715454 216.139282 C 141.862122 211.910919 144.214737 207.649994 146.827805 203.204834 C 146.849503 203.161407 146.870682 203.139832 146.881805 203.096436 C 147.564713 201.936279 147.770645 200.657013 147.564713 199.464417 C 147.250259 197.404419 145.76532 195.604645 143.553528 195.019135 C 127.561707 190.86673 111.266022 186.725189 95.089981 182.572632 C 85.386261 180.089935 75.715363 177.596252 66.185287 175.113403 C 58.29261 173.053558 50.096062 170.841766 43.927078 165.518341 C 39.568611 161.745392 36.57597 156.519623 35.329258 150.903473 C 34.722309 148.138733 34.526966 145.276581 34.798012 142.468445 C 34.863129 141.709564 34.971653 140.961395 35.112473 140.213348 C 37.010071 140.603668 38.907402 140.993958 40.804737 141.395081 C 47.211945 142.728638 53.630272 144.040588 60.059711 145.319855 C 60.341877 146.295654 60.612926 147.282318 60.872856 148.268829 C 61.968163 152.29126 62.954418 156.356995 63.843792 160.433563 C 67.324005 157.592987 70.468048 154.329559 73.26535 150.805939 C 73.948257 149.971069 74.587761 149.114532 75.216682 148.247253 C 76.788971 148.529144 78.350136 148.821777 79.933014 149.103668 C 90.547287 151.011871 101.193848 152.757385 111.851532 154.156036 C 112.176575 155.207672 112.502151 156.259308 112.83831 157.300232 C 113.586342 159.663696 114.356071 162.016418 115.16922 164.358307 C 117.673759 162.634369 119.972374 160.639496 121.967117 158.373566 C 122.736847 157.506165 123.474289 156.584625 124.167793 155.630524 C 125.176277 155.738922 126.163063 155.836578 127.171021 155.934143 C 133.036667 156.530365 138.902298 156.996613 144.778534 157.332764 L 144.778534 157.332764 C 144.984467 158.265167 145.190399 159.208405 145.407455 160.129944 C 146.133774 163.230713 146.979202 166.29892 147.933701 169.334717 C 151.240265 166.635101 154.460022 163.610168 157.430954 160.433563 C 158.222397 159.58786 159.013824 158.731293 159.761856 157.864014 L 159.761856 157.864014 C 161.995361 157.907288 164.207153 157.907288 166.440643 157.896454 C 169.075424 157.874878 171.731369 157.831451 174.376724 157.744781 C 175.070755 157.723083 175.753677 157.701355 176.447708 157.668823 C 176.848984 158.395264 177.260849 159.132446 177.662125 159.858887 C 178.908844 162.092255 180.144958 164.325745 181.391678 166.559113 C 183.473236 164.206512 185.359451 161.71283 187.02916 159.078308 C 187.560654 158.221771 188.069931 157.376068 188.558029 156.497925 C 189.675049 156.302704 190.780411 156.096771 191.886307 155.836578 C 192.580338 155.684784 193.284958 155.511292 193.968399 155.316071 C 197.090744 154.459656 200.636063 153.40802 203.335419 151.586517 C 205.655746 150.003632 207.000397 146.837738 210.426071 148.962738 C 212.279999 150.11203 213.266785 152.247864 213.982513 154.296997 C 214.665436 156.259308 215.207535 158.232605 215.60881 160.249176 C 218.579208 174.940033 214.38327 190.660797 208.593857 204.722717 C 202.013016 220.714539 193.31778 236.109985 190.357956 253.142715 Z"/>
        <path id="path22" fill="#6a8735" stroke="none" d="M 247.516205 128.883484 C 246.215485 131.69165 244.578094 134.434662 242.691864 136.960785 C 242.106369 137.763092 241.488037 138.543671 240.848541 139.29184 C 239.916275 134.879089 238.755859 130.52063 237.324921 126.270691 C 237.953827 126.389923 238.582748 126.52002 239.200546 126.66098 C 241.997833 127.268066 244.784027 127.994507 247.516205 128.883484 Z"/>
        <path id="path23" fill="#6a8735" stroke="none" d="M 252.98056 150.903473 C 251.094345 153.451294 249.088486 156.042511 246.866119 158.406128 C 245.922745 159.425201 244.925369 160.411835 243.895172 161.333374 C 243.537308 156.606323 243.016922 151.84671 242.27948 147.108795 C 243.331375 147.423248 244.38327 147.759277 245.424057 148.117157 C 247.971481 148.951874 250.487137 149.895111 252.98056 150.914307 Z"/>
        <path id="path24" fill="#6a8735" stroke="none" d="M 256.081726 172.663116 C 253.490372 176.110901 250.465439 179.103271 247.072052 181.683655 C 246.33461 182.247467 245.564865 182.800415 244.795135 183.331665 C 244.697723 177.737183 244.545792 172.131866 244.231339 166.548401 C 245.250412 166.916992 246.269485 167.318146 247.266861 167.751831 C 250.356903 169.085358 253.306137 170.733368 256.070618 172.663116 Z"/>
        <path id="path25" fill="#6a8735" stroke="none" d="M 256.406769 196.309387 C 254.09758 199.822144 251.310867 203.139832 248.242523 206.110504 C 247.299683 207.032043 246.32402 207.921021 245.326111 208.75589 C 245.055069 201.893005 244.968781 194.997559 244.870834 188.102112 C 245.153 188.253784 245.402344 188.416443 245.662277 188.589966 C 246.226074 188.958527 246.789886 189.337982 247.353683 189.728394 C 250.454315 191.799103 253.479248 194.000061 256.406769 196.309387 Z"/>
        <path id="path26" fill="#6a8735" stroke="none" d="M 260.646149 218.719666 C 257.946259 223.620087 254.737076 228.260468 251.116058 232.564667 C 250.107574 233.778961 249.055664 234.960815 247.993179 236.109985 C 246.746475 228.976074 246.041855 221.798737 245.618866 214.577972 L 248.860855 215.467072 C 252.796341 216.55127 256.731812 217.624603 260.656708 218.719666 Z"/>
        <path id="path27" fill="#6a8735" stroke="none" d="M 268.701324 242.073029 C 266.858521 249.120285 264.3974 256.059143 261.079712 262.542572 C 260.233734 264.223114 259.312592 265.881958 258.336395 267.497375 C 253.913345 259.073212 250.823303 249.922577 248.860855 240.62027 C 250.237793 240.717804 251.603622 240.826202 252.98056 240.913025 C 258.206696 241.29245 263.4646 241.682739 268.701324 242.062195 Z"/>
        <path id="path28" fill="#6a8735" stroke="none" d="M 284.595734 264.060455 C 284.443817 271.638947 283.869415 279.119873 282.850342 286.589966 C 282.568176 288.682373 282.253723 290.764099 281.906982 292.867371 C 274.892029 288.509033 268.51712 283.315704 263.713959 276.409424 C 262.543457 274.728882 261.437561 272.994202 260.418488 271.226929 C 262.065948 270.739136 263.703369 270.25116 265.351349 269.763306 C 271.759094 267.865967 278.177429 265.957794 284.595734 264.060455 Z"/>
        <path id="path29" fill="#6a8735" stroke="none" d="M 317.370819 309.412109 C 310.52951 307.102783 303.82901 304.34903 297.345581 301.172302 C 293.778534 299.426758 290.212036 297.648682 286.752991 295.708069 C 288.628632 294.613037 290.504791 293.507141 292.369293 292.422913 C 298.451477 288.855896 304.534149 285.299744 310.616333 281.732819 C 312.751892 288.487305 314.682037 295.317627 316.102386 302.25647 C 316.589966 304.63092 317.024048 307.016113 317.370819 309.422974 Z"/>
        <path id="path30" fill="#6a8735" stroke="none" d="M 353.853729 317.424316 C 342.8927 316.264282 332.039673 314.030762 321.512238 310.745789 C 323.333862 308.805054 325.198914 306.896851 327.063416 305.010376 C 331.378479 300.673615 335.823761 296.466919 340.398743 292.422913 C 341.851929 293.615509 342.394012 295.230957 343.326263 296.868103 C 345.939331 301.443359 348.411072 306.105408 350.731384 310.843323 C 351.815582 313.022552 352.856354 315.212646 353.853729 317.424316 Z"/>
        <path id="path31" fill="#6a8735" stroke="none" d="M 386.054413 317.695343 C 385.85907 317.717041 385.685425 317.727905 385.490601 317.73877 C 376.350677 318.541046 367.146179 318.55191 358.006256 317.803741 C 359.329193 315.982361 360.641022 314.139282 361.96344 312.31781 C 364.912689 308.252075 367.839691 304.186371 370.777802 300.120667 C 374.659271 304.620056 378.573608 309.07608 382.465668 313.564636 L 386.054413 317.695343 Z"/>
        <path id="path32" fill="#6a8735" stroke="none" d="M 412.671082 311.981628 C 405.244263 314.822205 397.264771 316.448486 389.285278 317.359314 C 389.675446 316.025787 390.054993 314.692139 390.456268 313.347717 C 391.659576 309.217041 392.862885 305.064514 394.066193 300.922943 C 399.118683 304.034576 404.344818 307.016113 409.483612 310.062744 C 410.55722 310.691528 411.61972 311.331177 412.671082 311.970917 Z"/>
        <path id="path33" fill="#6a8735" stroke="none" d="M 432.522675 299.513428 C 431.026611 301.031342 429.422028 302.440857 427.75235 303.720093 C 424.131317 306.495728 420.195313 308.750793 416.053894 310.58313 C 416.281525 309.509796 416.476868 308.436462 416.617676 307.352264 C 417.213776 303.221436 417.257172 299.036469 416.769623 294.894897 C 421.019562 296.477783 425.378021 297.767914 429.779907 298.852112 C 430.69046 299.079895 431.601013 299.296661 432.512085 299.513428 Z"/>
        <path id="path34" fill="#6a8735" stroke="none" d="M 443.354004 281.635132 C 441.629761 287.316284 438.561432 292.69397 434.604248 297.269226 C 434.517426 296.250153 434.398315 295.220093 434.257477 294.211853 C 433.747681 290.438782 432.880554 286.709229 431.655548 283.109619 C 434.810181 283.109619 437.911346 282.730194 440.990265 282.133972 C 441.770599 281.982178 442.573151 281.819519 443.354004 281.635132 Z"/>
        <path id="path35" fill="#6a8735" stroke="none" d="M 444.242828 278.057404 C 443.733032 276.98407 443.147522 275.943146 442.497437 274.945801 C 441.326447 273.145996 439.949493 271.487122 438.377197 270.023499 C 439.667328 268.603271 440.914581 267.085388 442.150177 265.589203 C 442.725067 264.895325 443.299469 264.223114 443.87439 263.550903 C 443.950104 263.800262 444.015198 264.060455 444.080322 264.309814 C 445.17511 268.874329 445.153381 273.525421 444.253418 278.057404 Z"/>
        <path id="path36" fill="#6a8735" stroke="none" d="M 442.486328 259.571899 C 441.684296 259.279144 440.881744 258.997253 440.068604 258.747894 C 438.388306 258.216675 436.675201 257.793823 434.951508 257.457764 C 434.918701 255.311096 434.864685 253.121017 434.821289 250.952637 C 434.799591 250.226181 434.788452 249.510574 434.777863 248.795105 C 438.062744 251.819901 440.729797 255.484482 442.486328 259.571899 Z"/>
        <path id="path37" fill="#6a8735" stroke="none" d="M 431.525299 246.149612 C 431.080627 246.572464 430.636444 246.995316 430.202362 247.429016 C 429.302399 248.339691 428.446381 249.282928 427.643829 250.269592 C 426.754974 248.44809 425.486542 246.669998 424.358948 244.881195 C 423.881439 244.122177 423.426178 243.363281 423.047119 242.593445 C 422.905762 242.300812 422.754364 241.986359 422.569611 241.693604 C 425.768188 242.680237 428.782013 244.198151 431.525299 246.149612 Z"/>
        <path id="path38" fill="#6a8735" stroke="none" d="M 419.111115 240.8479 C 418.525604 241.704437 417.983521 242.593445 417.474243 243.504242 C 416.953857 244.414932 416.476868 245.336472 416.032166 246.290558 C 414.882874 245.336472 413.636169 244.404083 412.378326 243.482544 C 411.196716 242.604279 409.9823 241.726166 408.854706 240.837036 C 411.489471 240.381775 414.178253 240.262512 416.855896 240.533569 C 417.615051 240.609406 418.363068 240.717804 419.111115 240.858765 Z"/>
        <path id="path39" fill="#6a8735" stroke="none" d="M 404.604767 241.87796 C 404.572479 242.972992 404.550751 244.089615 404.517944 245.184662 C 404.496246 245.867706 404.485657 246.529053 404.463959 247.212097 C 403.346924 247.060287 402.20874 246.908615 401.059448 246.70256 C 399.563385 246.442368 398.045624 246.127899 396.603546 245.705048 C 399.075287 244.068039 401.785767 242.766937 404.604767 241.867096 Z"/>
        <path id="path40" fill="#6a8735" stroke="none" d="M 238.495926 112.10025 C 238.495926 112.10025 237.075577 115.873199 235.937378 118.789734 C 235.676926 119.45108 235.427582 120.069153 235.221649 120.589539 C 233.617065 116.577942 231.74144 112.68573 229.551346 108.956177 C 229.356003 108.63089 229.171783 108.316406 228.987549 107.980377 C 229.746689 108.262299 230.49472 108.544189 231.231628 108.836823 C 233.703888 109.823456 236.121613 110.918518 238.484802 112.111084 Z"/>
        <path id="path41" fill="#9bbd5b" stroke="none" opacity="0.35" style="mix-blend-mode:multiply" d="M 444.242828 278.057404 C 445.142792 273.525421 445.16452 268.863464 444.069214 264.309814 C 444.015198 264.060455 443.950104 263.800262 443.863281 263.550903 C 443.505402 262.195679 443.039551 260.862152 442.486328 259.571899 C 440.729797 255.484482 438.062744 251.819901 434.777863 248.795105 L 434.777863 248.795105 C 433.758789 247.841003 432.663483 246.962753 431.525299 246.160461 C 428.793121 244.209 425.768188 242.691101 422.569611 241.704437 C 421.442017 241.335876 420.271545 241.064819 419.111115 240.858765 C 418.363068 240.717804 417.615051 240.609406 416.855896 240.533569 C 414.178253 240.262512 411.489471 240.381775 408.854706 240.837036 C 407.423767 241.086517 406.003418 241.444244 404.615875 241.888824 C 401.796875 242.788635 399.086395 244.089615 396.614136 245.726761 C 391.833221 248.849228 387.875519 253.229401 385.468903 258.411865 C 387.214294 253.424622 389.252441 249.131134 391.518768 245.434006 C 394.402344 243.61264 397.589813 242.149017 400.723267 240.923859 C 407.293549 238.365204 414.275665 236.31604 421.312317 236.868988 C 431.427887 237.671295 440.892853 244.263123 445.16452 253.478745 C 449.067719 261.935486 448.449371 272.278564 443.744171 280.279907 C 443.938965 279.542725 444.11261 278.816284 444.253418 278.068237 L 444.253418 278.068237 Z"/>
        <path id="path42" fill="#9bbd5b" stroke="none" opacity="0.35" style="mix-blend-mode:multiply" d="M 481.604004 292.498779 C 479.446228 313.499542 467.877991 332.83075 452.287445 347.076904 C 450.249298 348.941803 448.146027 350.71991 445.988251 352.411163 C 417.918396 368.500519 386.347168 378.475159 354.103058 381.185638 C 348.714935 381.6409 343.293976 381.890381 337.883606 381.944519 C 335.335663 376.382599 333.188995 370.690613 330.478516 365.291351 C 329.156097 362.635132 327.702911 360.033051 326.054932 357.550232 C 327.302155 358.591125 328.505463 359.696899 329.665375 360.835327 C 334.522522 365.638367 338.588226 371.254395 341.624298 377.369263 C 367.124481 374.691345 392.754364 369.801636 415.793427 358.558594 C 438.843597 347.304688 459.226166 329.09021 469.081818 305.411499 C 476.833679 286.806763 477.148132 264.700104 468.897064 246.572464 C 478.806732 259.268311 483.284302 276.301025 481.614594 292.487915 Z"/>
        <path id="path43" fill="#5e782f" stroke="none" d="M 337.883606 381.933655 C 335.335663 376.371765 333.188995 370.679749 330.478516 365.280518 C 329.156097 362.624268 327.702911 360.022217 326.054932 357.539368 C 324.374634 355.00238 322.477295 352.584656 320.341217 350.351166 C 322.824066 352.140137 325.025269 354.351929 326.900879 356.802185 C 327.909363 358.092316 328.819916 359.436707 329.665375 360.835327 C 330.4245 362.082214 331.11853 363.350616 331.768616 364.640869 C 334.490234 370.170227 336.419861 376.003174 337.894745 381.933655 Z"/>
        <path id="path44" fill="#9bbd5b" stroke="none" opacity="0.35" style="mix-blend-mode:multiply" d="M 288.314697 376.816315 C 288.455536 374.008301 287.58786 371.1026 286.774719 368.348846 C 284.87738 361.886963 283.337921 355.25174 283.175385 348.529785 C 283.11026 345.33136 283.131989 337.904663 285.202942 333.64389 C 285.81015 332.386169 286.623291 331.388672 287.642395 330.868286 C 287.132568 331.94165 286.720703 333.047546 286.40625 334.17511 C 285.690521 336.7771 285.495697 339.530975 285.712219 342.252319 C 285.799042 343.607544 286.004974 344.962769 286.28714 346.307159 C 286.547058 347.65155 286.904938 348.985077 287.327911 350.297058 C 288.986511 355.566193 291.729797 360.445068 294.667908 365.172119 C 297.562622 369.920868 300.728363 374.550385 303.254608 379.548492 C 298.245544 378.811188 293.258148 377.889648 288.303589 376.827148 Z"/>
        <path id="path45" fill="#9bbd5b" stroke="none" opacity="0.35" style="mix-blend-mode:multiply" d="M 348.877472 350.27533 C 347.803864 349.082764 346.719666 347.900879 345.60318 346.751709 C 343.640747 344.7677 341.645996 342.826965 339.553314 340.994598 C 335.400787 337.297607 330.998901 333.89325 326.337097 330.857422 C 324.016785 329.350403 321.642456 327.897644 319.224731 326.542389 C 316.796417 325.197998 314.345886 323.875305 311.809052 322.812836 C 309.271667 321.73938 306.64801 320.904663 303.970367 320.666016 C 301.292175 320.405823 298.571106 320.774536 296.175079 321.945435 C 296.131683 321.977966 296.066559 321.988831 296.023163 322.02124 L 295.838928 321.500854 C 297.985596 320.416687 300.240814 319.679504 302.560608 319.213257 C 310.301849 317.662903 318.736633 319.386749 325.719299 323.278961 C 334.78299 328.342163 341.656586 336.646973 346.936707 345.580841 C 347.749847 346.946777 348.530182 348.367157 348.822937 349.917603 C 348.844635 350.036865 348.866333 350.156097 348.866333 350.286194 Z"/>
        <path id="path46" fill="#9bbd5b" stroke="none" opacity="0.35" style="mix-blend-mode:multiply" d="M 244.469559 330.185242 C 244.469559 332.678955 244.27475 335.172485 244.003693 337.666199 C 243.786652 338.902191 243.656418 340.138184 243.363663 341.363342 L 242.973511 343.195557 L 242.464233 345.006165 C 241.119583 349.83078 238.875504 354.351929 236.186722 358.493469 C 232.576279 364.781799 227.968475 370.57135 223.252136 376.100708 C 219.804214 380.134003 216.258896 384.091187 212.637863 387.972656 C 209.439819 391.387909 206.176132 394.727173 202.836746 397.990601 C 196.418411 404.278809 189.121826 409.613098 184.470612 417.462616 C 183.819992 418.557648 183.191071 419.70697 182.183121 420.498352 C 180.036438 422.178741 176.968094 421.680054 174.311615 421.094543 C 173.119431 420.834351 171.83989 420.509186 170.820816 419.88028 C 176.372009 418.416687 181.348267 414.871399 185.457397 410.76239 C 190.401367 405.81842 194.380264 399.996307 199.042068 394.759705 C 209.558929 382.920319 223.566589 374.051575 231.74144 360.4776 C 241.130707 344.85437 241.553146 324.926941 240.837952 306.528259 L 240.837952 306.506561 C 240.79454 305.530762 240.761719 304.554962 240.718307 303.590027 C 241.672791 307.471497 242.539932 311.374573 243.190552 315.331909 C 243.992584 320.232452 244.534683 325.187134 244.50238 330.196106 Z"/>
        <path id="path47" fill="#5e782f" stroke="none" d="M 244.469559 330.185242 C 244.469559 332.678955 244.27475 335.172485 244.003693 337.666199 C 243.786652 338.902191 243.656418 340.138184 243.363663 341.363342 L 242.973511 343.195557 L 242.464233 345.006165 C 241.119583 349.83078 238.875504 354.351929 236.186722 358.493469 C 238.409103 354.070007 240.263031 349.473053 241.390625 344.71344 C 242.550522 339.964661 243.049744 335.074951 243.049744 330.174377 C 243.114319 325.273834 242.648468 320.373413 242.073547 315.472839 C 241.705093 312.491333 241.271515 309.509796 240.826828 306.517395 L 240.826828 306.495728 C 240.545197 304.598389 240.274139 302.70105 240.003098 300.792847 C 240.241318 301.72522 240.468964 302.635925 240.696594 303.568451 L 240.696594 303.568451 C 241.651093 307.460632 242.518234 311.363708 243.168854 315.321045 C 243.970871 320.221619 244.51297 325.1763 244.480682 330.185242 Z"/>
        <path id="path48" fill="#6a8735" stroke="none" opacity="0.24" style="mix-blend-mode:multiply" d="M 231.242752 108.825958 C 232.901337 112.10025 234.473618 115.417938 235.947968 118.7789 C 235.688034 119.440216 235.438705 120.058289 235.232239 120.578674 C 233.627655 116.567108 231.752029 112.674896 229.561935 108.945343 C 229.367126 108.620026 229.182892 108.305573 228.998138 107.969543 C 229.757278 108.251434 230.50531 108.533325 231.242752 108.825958 Z"/>
        <path id="path49" fill="#6a8735" stroke="none" opacity="0.24" style="mix-blend-mode:multiply" d="M 242.691864 136.971649 C 242.106369 137.773926 241.488037 138.554504 240.848541 139.302673 C 239.916275 134.889954 238.755859 130.531494 237.324921 126.281525 C 237.953827 126.400787 238.582748 126.530884 239.200546 126.671844 C 240.501785 130.065338 241.672791 133.502167 242.691864 136.971649 Z"/>
        <path id="path50" fill="#6a8735" stroke="none" opacity="0.24" style="mix-blend-mode:multiply" d="M 243.895172 161.32254 C 243.537308 156.595459 243.016922 151.835846 242.27948 147.097961 C 243.331375 147.412415 244.38327 147.748444 245.424057 148.106293 C 246.085266 151.510681 246.573364 154.936615 246.866119 158.395264 C 245.922745 159.414337 244.925369 160.401001 243.895172 161.32254 Z"/>
        <path id="path51" fill="#6a8735" stroke="none" opacity="0.24" style="mix-blend-mode:multiply" d="M 247.072052 181.683655 C 246.33461 182.247467 245.564865 182.800415 244.795135 183.331665 C 244.697723 177.737183 244.545792 172.131866 244.231339 166.548401 C 245.250412 166.916992 246.269485 167.318146 247.266861 167.751831 C 247.310272 172.153595 247.180038 176.544617 247.072052 180.94635 C 247.072052 181.195709 247.072052 181.434326 247.072052 181.683655 Z"/>
        <path id="path52" fill="#6a8735" stroke="none" opacity="0.24" style="mix-blend-mode:multiply" d="M 248.242523 206.110504 C 247.299683 207.032043 246.32402 207.921021 245.326111 208.75589 C 245.055069 201.893005 244.968781 194.997559 244.870834 188.102112 C 245.153 188.253784 245.402344 188.416443 245.662277 188.589966 C 246.226074 188.958527 246.789886 189.337982 247.353683 189.728394 C 247.581314 193.219482 247.874069 196.732239 247.993179 200.190735 C 248.058304 202.164032 248.134537 204.137207 248.242523 206.110504 Z"/>
        <path id="path53" fill="#6a8735" stroke="none" opacity="0.24" style="mix-blend-mode:multiply" d="M 251.116058 232.564667 C 250.107574 233.778961 249.055664 234.960815 247.993179 236.109985 C 246.746475 228.976074 246.041855 221.798737 245.618866 214.577972 L 248.860855 215.467072 C 249.33783 221.202362 250.053574 226.92691 251.116058 232.564667 Z"/>
        <path id="path54" fill="#6a8735" stroke="none" opacity="0.24" style="mix-blend-mode:multiply" d="M 261.079712 262.542572 C 260.233734 264.223114 259.312592 265.881958 258.336395 267.497375 C 253.913345 259.073212 250.823303 249.922577 248.860855 240.62027 C 250.237793 240.717804 251.603622 240.826202 252.98056 240.913025 C 253.154205 241.606903 253.33844 242.289948 253.522659 242.972992 C 255.311478 249.358902 257.794312 256.178375 261.079712 262.542572 Z"/>
        <path id="path55" fill="#6a8735" stroke="none" opacity="0.24" style="mix-blend-mode:multiply" d="M 274.143982 279.889618 C 276.897888 282.274902 279.814301 284.508301 282.860931 286.589966 C 282.579285 288.682373 282.264832 290.764099 281.917572 292.867371 C 274.903137 288.509033 268.528229 283.315704 263.725067 276.409424 C 262.554047 274.728882 261.448151 272.994202 260.429077 271.226929 C 262.077087 270.739136 263.713959 270.25116 265.361938 269.763306 C 267.909882 273.557983 270.837433 277.016479 274.155121 279.889618 Z"/>
        <path id="path56" fill="#6a8735" stroke="none" opacity="0.24" style="mix-blend-mode:multiply" d="M 316.091278 302.245636 C 316.579376 304.620056 317.012939 307.005249 317.35968 309.412109 C 310.518921 307.102783 303.81842 304.34903 297.334991 301.172302 C 293.767944 299.426758 290.200928 297.648682 286.742432 295.708069 C 288.618042 294.613037 290.493683 293.507141 292.358704 292.422913 C 298.559998 295.816467 305.076263 298.646179 311.657104 300.901245 C 313.131439 301.410767 314.616913 301.844482 316.091278 302.25647 Z"/>
        <path id="path57" fill="#6a8735" stroke="none" opacity="0.24" style="mix-blend-mode:multiply" d="M 350.731384 310.843323 C 351.815582 313.022552 352.856354 315.212646 353.853729 317.424316 C 342.8927 316.264282 332.039673 314.030762 321.512238 310.745789 C 323.333862 308.805054 325.198914 306.896851 327.063416 305.010376 C 331.259369 306.13797 335.368469 307.655731 339.618439 308.664093 C 343.304565 309.52063 347.001831 310.246948 350.720276 310.843323 Z"/>
        <path id="path58" fill="#6a8735" stroke="none" opacity="0.24" style="mix-blend-mode:multiply" d="M 382.476257 313.564636 L 386.065002 317.695343 C 385.870178 317.717041 385.696533 317.727905 385.50119 317.73877 C 376.361816 318.541046 367.156769 318.55191 358.016846 317.803741 C 359.339783 315.982361 360.651611 314.139282 361.974579 312.31781 C 364.522003 312.588867 367.059357 312.805634 369.6073 313.000854 C 373.878967 313.315308 378.182892 313.532104 382.476257 313.564636 Z"/>
        <path id="path59" fill="#6a8735" stroke="none" opacity="0.24" style="mix-blend-mode:multiply" d="M 401.059448 246.70256 C 399.563385 246.442368 398.045624 246.127899 396.603546 245.705048 C 399.075287 244.068039 401.785767 242.766937 404.604767 241.867096 C 404.572479 242.962158 404.550751 244.078766 404.517944 245.173813 C 403.336334 245.607513 402.176453 246.106323 401.059448 246.691696 Z"/>
        <path id="path60" fill="#6a8735" stroke="none" opacity="0.24" style="mix-blend-mode:multiply" d="M 409.483612 310.073608 C 410.55722 310.702393 411.61972 311.34201 412.671082 311.981628 C 405.244263 314.822205 397.264771 316.448486 389.285278 317.359314 C 389.675446 316.025787 390.054993 314.692139 390.456268 313.347717 C 396.495026 312.98999 402.490387 312.111755 408.302032 310.431335 C 408.692169 310.312073 409.093445 310.203674 409.483612 310.062744 Z"/>
        <path id="path61" fill="#6a8735" stroke="none" opacity="0.24" style="mix-blend-mode:multiply" d="M 417.474243 243.504242 C 416.032166 243.374146 414.601227 243.341583 413.224304 243.406586 C 412.942139 243.406586 412.660492 243.439117 412.378326 243.47168 C 411.196716 242.593445 409.9823 241.715302 408.854706 240.826202 C 411.489471 240.370911 414.178253 240.251678 416.855896 240.522736 C 417.615051 240.598541 418.363068 240.70694 419.111115 240.8479 C 418.525604 241.704437 417.983521 242.593445 417.474243 243.504242 Z"/>
        <path id="path62" fill="#6a8735" stroke="none" opacity="0.24" style="mix-blend-mode:multiply" d="M 423.047119 242.593445 C 422.905762 242.300812 422.754364 241.986359 422.569611 241.693604 C 425.768188 242.680237 428.782013 244.198151 431.525299 246.149612 C 431.080627 246.572464 430.636444 246.995316 430.202362 247.429016 C 428.381256 246.37738 426.407684 245.520828 424.358948 244.870331 C 423.881439 244.111328 423.426178 243.352448 423.047119 242.582703 Z"/>
        <path id="path63" fill="#6a8735" stroke="none" opacity="0.24" style="mix-blend-mode:multiply" d="M 429.790497 298.852112 C 430.70105 299.079895 431.612122 299.296661 432.522675 299.513428 C 431.026611 301.031342 429.422028 302.440857 427.75235 303.720093 C 424.131317 306.495728 420.195313 308.750793 416.053894 310.58313 C 416.281525 309.509796 416.476868 308.436462 416.617676 307.352264 C 421.409729 305.173035 425.908997 302.321594 429.790497 298.852112 Z"/>
        <path id="path64" fill="#6a8735" stroke="none" opacity="0.24" style="mix-blend-mode:multiply" d="M 434.821289 250.952637 C 434.799591 250.226181 434.788452 249.510574 434.777863 248.795105 C 438.062744 251.819901 440.729797 255.484482 442.486328 259.571899 C 441.684296 259.279144 440.881744 258.997253 440.068604 258.747894 C 438.875885 256.02655 437.249603 253.522156 435.179169 251.332077 C 435.059509 251.21283 434.940399 251.082733 434.810181 250.963486 Z"/>
        <path id="path65" fill="#6a8735" stroke="none" opacity="0.24" style="mix-blend-mode:multiply" d="M 440.990265 282.123108 C 441.770599 281.971313 442.573151 281.808655 443.354004 281.624298 C 441.629761 287.305603 438.561432 292.683105 434.604248 297.258362 C 434.517426 296.239319 434.398315 295.209229 434.257477 294.201019 C 435.937775 292.184448 437.423248 290.005188 438.669952 287.66333 C 439.602203 285.906921 440.394165 284.053009 440.990265 282.123108 Z"/>
        <path id="path66" fill="#6a8735" stroke="none" opacity="0.24" style="mix-blend-mode:multiply" d="M 444.242828 278.057404 C 443.733032 276.98407 443.147522 275.943146 442.497437 274.945801 C 442.81189 271.812439 442.703369 268.646545 442.150177 265.578369 C 442.725067 264.88446 443.299469 264.21228 443.87439 263.54007 C 443.950104 263.789429 444.015198 264.049622 444.080322 264.29895 C 445.17511 268.863464 445.153381 273.514587 444.253418 278.04657 Z"/>
        <path id="path67" fill="#edd89e" stroke="none" opacity="0.46" style="mix-blend-mode:multiply" d="M 60.092533 145.352417 C 60.374172 146.328217 60.645218 147.314728 60.905678 148.301392 C 52.18874 146.469177 43.493511 144.517578 34.83057 142.511841 C 34.895687 141.75296 35.004211 141.004791 35.145027 140.256775 C 43.4501 141.980591 51.754642 143.704437 60.092533 145.352417 Z"/>
        <path id="path68" fill="#edd89e" stroke="none" opacity="0.46" style="mix-blend-mode:multiply" d="M 111.884354 154.188599 C 112.209396 155.240234 112.534447 156.29187 112.870605 157.332764 C 99.654381 155.67392 86.448746 153.40802 73.297638 150.827637 C 73.980553 149.992798 74.620583 149.13623 75.249504 148.268829 C 87.424942 150.524017 99.643799 152.573151 111.884354 154.177734 Z"/>
        <path id="path69" fill="#edd89e" stroke="none" opacity="0.46" style="mix-blend-mode:multiply" d="M 144.821945 157.365204 C 145.027878 158.297577 145.23381 159.240845 145.450851 160.162506 C 137.633881 159.837189 129.816376 159.230103 121.999405 158.406128 C 122.769142 157.538696 123.506584 156.617188 124.200615 155.663086 C 131.052505 156.400269 137.937225 156.974915 144.810822 157.365204 L 144.810822 157.365204 Z"/>
        <path id="path70" fill="#edd89e" stroke="none" opacity="0.46" style="mix-blend-mode:multiply" d="M 176.491119 157.690521 C 176.892395 158.416962 177.30426 159.154144 177.705536 159.880615 C 170.961639 160.325012 164.217743 160.509369 157.474365 160.465973 C 158.265808 159.620392 159.057236 158.763855 159.805267 157.896454 L 159.805267 157.896454 C 164.684128 157.972412 169.541275 157.929016 174.420135 157.777191 C 175.114166 157.755493 175.797089 157.733917 176.491119 157.701355 Z"/>
        <path id="path71" fill="#edd89e" stroke="none" opacity="0.46" style="mix-blend-mode:multiply" d="M 215.662796 160.281738 C 215.326645 159.793793 214.936478 159.349365 214.491791 158.948212 C 211.054993 155.847443 205.774857 156.530365 201.19986 157.26767 C 196.494125 158.02655 191.788895 158.633759 187.072571 159.110748 C 187.604065 158.254303 188.113342 157.4086 188.60144 156.530365 C 190.42308 156.226868 192.222473 155.836578 194.01181 155.359467 C 197.134155 154.50293 200.679474 153.451294 203.37883 151.629913 C 205.699158 150.046906 207.043274 146.881165 210.469482 149.006134 C 212.32341 150.155426 213.310196 152.29126 214.025925 154.340393 C 214.708847 156.302704 215.250931 158.276031 215.652222 160.292603 Z"/>
        <path id="path72" fill="#6a8735" stroke="none" opacity="0.24" style="mix-blend-mode:multiply" d="M 332.235016 313.694763 C 328.006775 314.713806 323.604919 315.049988 319.246429 314.984863 C 295.210022 314.605438 272.27948 301.432495 257.631775 282.372467 C 242.973511 263.323151 236.175613 238.928864 236.03479 214.881592 C 235.91568 194.726501 240.241318 174.647278 239.070313 154.513763 C 237.834717 133.28537 230.353378 112.468964 217.777191 95.306122 C 214.38327 90.676605 210.512894 86.101349 205.634033 82.978882 C 203.574188 81.656219 199.55188 80.582855 196.472412 78.934875 C 211.803024 79.260193 221.896896 95.891632 228.987549 107.947845 C 229.171783 108.283875 229.356003 108.598328 229.551346 108.923645 C 231.74144 112.664032 233.617065 116.556244 235.221649 120.556976 C 235.991379 122.432617 236.68541 124.329926 237.314331 126.259827 C 238.73468 130.509766 239.894577 134.879089 240.837952 139.280975 C 241.390625 141.861359 241.857025 144.474152 242.26889 147.087097 C 243.006332 151.825012 243.526718 156.584625 243.884583 161.311676 C 243.905762 161.550171 243.927475 161.777924 243.938583 162.016418 C 244.057693 163.512604 244.144516 165.030518 244.220215 166.526703 C 244.534683 172.110291 244.686615 177.715485 244.784027 183.309937 L 244.784027 183.309937 C 244.816849 184.91452 244.827423 186.497406 244.849136 188.080414 C 244.957657 194.975861 245.044479 201.871277 245.304413 208.734161 C 245.380646 210.674927 245.478058 212.615662 245.586578 214.54541 C 246.009552 221.766174 246.714172 228.943512 247.960892 236.077576 C 247.993179 236.359344 248.058304 236.641235 248.101715 236.923126 C 248.318756 238.148285 248.556976 239.373413 248.828033 240.587708 C 250.790482 249.879288 253.880524 259.029785 258.304108 267.464844 C 258.954742 268.722534 259.648224 269.969238 260.385681 271.194397 C 261.404755 272.961609 262.521759 274.696442 263.681671 276.376831 C 268.484802 283.283142 274.859741 288.47644 281.874146 292.83493 C 283.45755 293.832306 285.072723 294.764709 286.710114 295.675507 C 290.16864 297.605408 293.735657 299.394226 297.302155 301.13974 C 303.786133 304.316467 310.486084 307.070374 317.327393 309.3797 C 318.704346 309.845825 320.091888 310.301208 321.47995 310.713226 C 325.01413 311.808289 328.592285 312.7948 332.202728 313.66217 Z"/>
        <path id="path73" fill="#6a8735" stroke="none" opacity="0.24" style="mix-blend-mode:multiply" d="M 161.008575 92.151245 C 152.031708 86.025513 146.719284 84.941345 140.745117 85.526703 C 142.165466 84.843658 143.672638 84.355835 145.2444 84.106476 C 151.521896 83.05484 158.569138 86.274872 161.008575 92.161957 Z"/>
        <path id="path74" fill="#9bbd5b" stroke="none" opacity="0.35" style="mix-blend-mode:multiply" d="M 145.17981 353.885651 C 144.897644 354.221802 144.616013 354.557861 144.323257 354.893982 C 139.335876 360.737793 134.142563 366.397247 128.743301 371.872467 C 128.699905 359.100647 125.967712 346.730011 121.338203 334.749634 C 122.313866 332.505432 123.159828 330.196106 123.745338 327.821777 C 124.644768 324.157227 125.046051 320.828674 124.449951 317.174957 C 127.073608 327.030212 131.280151 336.365234 137.405716 344.637451 C 139.845154 347.933441 142.436508 351.012512 145.158112 353.896484 Z"/>
        <path id="path75" fill="#9bbd5b" stroke="none" opacity="0.35" style="mix-blend-mode:multiply" d="M 145.17981 353.885651 C 144.897644 354.221802 144.616013 354.557861 144.323257 354.893982 C 139.335876 360.737793 134.142563 366.397247 128.743301 371.872467 C 127.463776 373.184296 126.163063 374.474426 124.851234 375.764679 C 118.725128 381.770996 111.775826 386.845093 107.330536 394.326019 C 106.712738 395.377655 106.10553 396.472687 105.162155 397.220703 C 103.39505 398.608521 100.966209 399.49762 98.700424 399.345825 C 103.6661 396.635345 107.048378 391.637238 110.735046 387.25708 C 115.353447 381.78186 120.796104 377.000671 125.208572 371.341095 C 129.621567 365.681641 133.026077 358.786194 132.58139 351.61972 C 132.049881 343.06543 126.217056 335.671326 123.831627 327.507324 C 124.677589 323.962006 125.046051 320.720276 124.471657 317.164124 C 127.095314 327.019348 131.301849 336.35437 137.427429 344.62674 C 139.866852 347.922607 142.458221 351.001801 145.17981 353.885651 Z"/>
        <path id="path76" fill="#6a8735" stroke="none" opacity="0.24" style="mix-blend-mode:multiply" d="M 481.604004 292.498779 C 479.804077 309.965057 471.510132 326.271332 459.789978 339.455139 C 464.809631 328.667358 468.246979 317.196655 469.64563 305.335541 C 471.564667 289.192078 469.396271 272.538757 463.443817 257.425232 C 459.312988 246.919479 453.089996 238.386749 446.400116 229.800049 C 451.094727 231.708252 455.268982 234.08255 458.564972 236.511139 C 462.478729 239.384277 465.915527 242.7995 468.875366 246.594162 C 478.785004 259.289978 483.262604 276.322723 481.593414 292.509613 Z"/>
        <path id="path77" fill="#6a8735" stroke="none" opacity="0.24" style="mix-blend-mode:multiply" d="M 108.002861 115.829926 C 101.085327 117.174316 93.778152 115.190277 87.478943 111.926849 C 80.627045 108.370697 74.652878 103.383423 68.277962 99.057526 C 63.95179 96.130127 59.322273 93.463074 54.378826 91.85849 C 57.143303 92.172791 59.864368 92.866699 62.445145 93.950897 C 69.633202 96.964966 75.379204 102.570282 81.917168 106.809387 C 89.701324 111.872589 98.743835 114.940796 107.991745 115.829926 Z"/>
        <path id="path78" fill="#6a8735" stroke="none" opacity="0.24" style="mix-blend-mode:multiply" d="M 217.343094 178.647888 C 216.822693 179.786316 216.237717 180.892212 215.587097 181.965576 C 217.223969 172.641541 217.14827 163.219849 214.036514 154.340393 C 213.320786 152.280426 212.334534 150.155426 210.480606 149.006134 C 208.886612 148.008636 207.737305 148.171295 206.739929 148.789337 C 205.580032 149.483124 204.625549 150.78421 203.37883 151.629913 C 200.668365 153.451294 197.123032 154.50293 194.01181 155.359467 C 192.222473 155.847443 190.411957 156.226868 188.60144 156.530365 C 184.687668 157.202667 180.708771 157.516998 176.751053 157.690521 C 185.229752 156.20517 193.415192 152.996002 200.624954 148.301392 C 202.468292 147.097961 204.278793 145.786133 206.328064 144.983826 C 208.377335 144.170685 210.751648 143.910492 212.756989 144.842865 C 214.990479 145.872803 216.356827 148.171295 217.343094 150.426483 C 221.235687 159.305939 221.365921 169.833405 217.343094 178.658722 Z"/>
        <path id="path79" fill="#ebc688" stroke="none" d="M 197.307266 206.533356 C 194.91124 207.064606 192.536926 206.153778 190.217148 205.611694 C 188.048752 205.102173 185.858673 204.668457 183.657471 204.278168 C 175.95961 202.933777 168.153748 202.337433 160.347366 202.478363 C 156.325058 202.543488 152.324463 202.738708 148.312744 203.096436 C 147.82518 203.139832 147.326492 203.183105 146.838394 203.237396 C 146.860092 203.19397 146.881805 203.172272 146.892395 203.128998 C 147.575836 201.968842 147.781769 200.689545 147.575836 199.496857 C 148.183044 199.410156 148.800842 199.33432 149.408051 199.258362 C 157.636887 198.271698 165.909134 198.1633 174.170792 198.900604 C 178.431854 199.269196 182.648987 199.833008 186.856049 200.624451 C 188.840195 200.993042 190.802124 201.405029 192.753983 201.882141 C 194.770432 202.359131 197.047333 202.727844 198.467682 204.375702 C 199.280823 205.318939 198.185516 206.338165 197.296677 206.522522 Z"/>
        <path id="path80" fill="#ebc688" stroke="none" d="M 187.224503 242.918732 C 184.058746 243.08139 181.109512 242.149017 178.019989 241.574341 C 175.168167 241.043121 172.295166 240.631104 169.400467 240.360077 C 158.883606 239.395111 148.280441 240.240814 138.002335 242.669403 C 134.619537 243.47168 131.280151 244.458344 127.995277 245.618362 C 128.439438 244.05719 128.916946 242.517609 129.415634 241.010559 C 137.741882 238.213379 146.480515 236.597961 155.230286 236.055847 C 160.932877 235.687134 166.635986 235.849792 172.30629 236.435303 C 175.049057 236.717194 177.781235 237.129211 180.491714 237.671295 C 181.912064 237.953186 183.321304 238.267517 184.719955 238.603668 C 186.140305 238.961426 187.387024 239.622772 188.54744 240.511871 C 189.934982 241.563507 188.427795 242.85376 187.213913 242.918732 Z"/>
        <path id="path81" fill="#ebc688" stroke="none" d="M 173.455063 271.259521 C 171.720779 273.24353 168.120926 272.874939 165.703201 273.135132 C 162.992722 273.427887 160.293365 273.796478 157.593475 274.21933 C 148.183044 275.704651 138.869476 277.959717 129.849197 281.017212 C 126.932793 282.014709 124.048676 283.066345 121.186264 284.204681 C 121.240791 282.654358 121.338203 281.103912 121.46843 279.564453 C 128.775604 276.767151 136.278641 274.468689 143.88916 272.679718 C 148.627197 271.56311 153.430359 270.652283 158.265808 269.947693 C 160.672943 269.589813 163.090668 269.286194 165.518982 269.036865 C 167.828171 268.79837 171.156982 267.985229 173.151718 269.557251 C 173.672119 269.958527 173.921463 270.717407 173.444473 271.270355 Z"/>
        <path id="path82" fill="#ebc688" stroke="none" d="M 179.808807 302.766022 C 177.629303 304.457428 174.441849 304.685059 171.83989 305.335541 C 169.226822 305.986176 166.635986 306.70166 164.07692 307.503937 C 155.034943 310.322937 146.274582 314.030762 137.969513 318.562744 C 134.207672 320.611877 130.575531 322.866943 127.019615 325.23056 C 126.553223 323.972839 126.119652 322.704285 125.718376 321.425049 C 133.339996 316.28598 141.449722 311.851563 149.906738 308.252075 C 154.492844 306.278931 159.198059 304.598389 163.968399 303.123901 C 166.353821 302.39743 168.739258 301.72522 171.145859 301.129028 C 173.66153 300.500122 176.317474 299.665253 178.908844 300.239899 C 180.13385 300.52179 180.990402 301.844482 179.808807 302.776855 Z"/>
        <path id="path83" fill="#ebc688" stroke="none" d="M 186.996857 335.020691 C 186.508759 335.562805 186.281128 336.137451 185.587631 336.582001 C 185.06723 336.91803 184.470612 337.167511 183.917923 337.427704 C 182.746918 337.969788 181.575912 338.511902 180.404892 339.086426 C 178.095703 340.21402 175.808197 341.428284 173.552994 342.696838 C 165.801147 347.1203 158.525742 352.465424 151.912598 358.450195 C 151.565308 358.764526 151.218567 359.078979 150.871811 359.414978 C 149.613983 358.287537 148.377853 357.116516 147.163437 355.92395 C 151.175156 352.237671 155.425095 348.800842 159.859802 345.667542 C 163.730164 342.9245 167.763062 340.420074 171.905014 338.099915 C 173.943161 336.97229 176.003021 335.898956 178.095703 334.879761 C 179.136475 334.381042 180.177261 333.860657 181.250854 333.405273 C 181.944366 333.11264 182.670685 332.819885 183.429825 332.711365 C 184.047623 332.624695 184.654846 332.754761 185.240341 332.733093 C 186.302826 332.689789 188.037643 333.860657 186.985748 335.031555 Z"/>
        <path id="path84" fill="#ebc688" stroke="none" d="M 194.19603 364.239716 C 192.450104 367.611542 190.585602 370.929077 188.61203 374.192505 C 186.660706 375.764679 184.763367 377.390961 182.898849 379.093079 C 181.315445 378.45343 179.775986 377.78125 178.236511 377.065643 C 181.142334 374.34433 184.167267 371.753082 187.289612 369.31366 C 189.533691 367.546417 191.854019 365.855164 194.206619 364.239716 Z"/>
        <path id="path85" fill="#ebc688" stroke="none" d="M 247.386505 367.221252 C 247.10434 369.22699 245.391235 370.603912 243.992584 371.926575 C 242.626755 373.216858 241.303818 374.539551 240.003098 375.894775 C 235.666336 380.448303 231.708618 385.348877 228.184998 390.531342 C 226.363892 390.292847 224.531677 390.032654 222.710037 389.761627 C 224.781021 386.552307 227.036224 383.440704 229.442825 380.459167 C 231.62233 377.748688 233.931519 375.146606 236.349243 372.653046 C 237.650482 371.308655 238.984024 369.98584 240.349854 368.717438 C 241.705093 367.459717 243.266266 366.288879 245.120178 365.930969 C 245.824799 365.790039 247.549026 366.115356 247.386505 367.221252 Z"/>
        <path id="path86" fill="#ebc688" stroke="none" d="M 276.258392 376.534424 C 275.607758 379.364136 273.320251 381.337433 271.520325 383.516663 C 269.601288 385.815155 267.844788 388.243713 266.2836 390.791534 C 265.817749 391.550415 265.373047 392.320282 264.950073 393.100891 C 263.117859 393.057465 261.263947 393.014191 259.410004 392.949066 C 260.104034 391.593842 260.86264 390.260315 261.643494 388.948486 C 263.280365 386.227142 265.10202 383.614197 267.140167 381.174774 C 268.170349 379.917084 269.276245 378.713654 270.490143 377.629456 C 271.747986 376.490997 273.200623 375.883911 274.784027 375.406799 C 275.510345 375.200867 276.464325 375.699554 276.28009 376.52356 Z"/>
        <path id="path87" fill="#ebc688" stroke="none" d="M 293.670532 386.443939 C 292.423309 388.015961 291.241699 389.566406 290.17923 391.214386 C 289.084442 391.7565 288.032532 392.406982 287.056885 393.133423 L 287.056885 393.133423 C 286.222015 393.154999 285.387177 393.165863 284.552338 393.176697 C 284.194458 393.176697 283.826019 393.176697 283.45755 393.176697 C 284.920776 390.032654 286.796417 386.942627 289.138428 384.449036 C 290.048981 383.4841 291.512756 383.191345 292.737762 383.744293 C 293.778534 384.199707 294.483704 385.435577 293.681122 386.443939 Z"/>
        <path id="path88" fill="#ebc688" stroke="none" d="M 352.845764 381.283173 C 352.563599 382.009644 352.335968 382.746796 352.097198 383.473267 C 351.555115 385.153809 350.839905 386.790802 350.221588 388.46051 C 348.519592 388.731567 346.828186 388.970032 345.12619 389.186951 C 345.299316 388.590607 345.494659 388.005096 345.7117 387.430573 C 346.405212 385.565674 347.218353 383.733459 348.411072 382.118011 C 348.54129 381.922791 348.693237 381.738586 348.844635 381.554199 C 350.178162 381.467529 351.522827 381.380707 352.856354 381.272308 Z"/>
        <path id="path89" fill="#ebc688" stroke="none" d="M 374.008667 378.572693 C 373.824432 379.42926 373.673035 380.296509 373.542786 381.16394 C 373.390869 382.161438 373.26062 383.147949 373.174347 384.156311 C 371.515228 384.5466 369.834961 384.915192 368.154144 385.262207 C 368.19754 383.820129 368.327789 382.378204 368.501404 380.947144 C 368.566528 380.448303 368.631134 379.938782 368.717926 379.450958 C 370.485046 379.169067 372.252686 378.887146 374.019775 378.572693 Z"/>
        <path id="path90" fill="#ebc688" stroke="none" d="M 395.942352 377.878784 C 394.239838 378.442596 392.526733 378.973846 390.80304 379.494232 C 390.759613 379.190765 390.716217 378.876282 390.683929 378.561829 C 390.55368 377.380127 390.466858 376.187531 390.43457 374.9841 C 392.255676 374.517822 394.055603 374.029999 395.866119 373.520325 C 395.822723 374.962402 395.844421 376.415161 395.942352 377.86795 Z"/>
        <path id="path91" fill="#ebc688" stroke="none" d="M 420.520874 368.088501 C 418.731537 368.966797 416.932129 369.801636 415.121613 370.582214 C 415.013092 369.45459 414.92627 368.316284 414.861176 367.177856 C 416.704498 366.483948 418.547302 365.746765 420.357819 364.976898 C 420.401245 366.017822 420.466339 367.047729 420.520874 368.088501 Z"/>
        <path id="path92" fill="#edd89e" stroke="none" opacity="0.46" style="mix-blend-mode:multiply" d="M 445.977661 352.411163 C 438.138977 358.591125 429.541138 363.75177 420.520874 368.099365 C 418.731537 368.977631 416.932129 369.8125 415.121613 370.593079 C 409.277679 373.184296 403.292938 375.46106 397.243073 377.466797 C 396.809479 377.607758 396.386505 377.748688 395.952942 377.889648 C 394.250946 378.45343 392.537842 378.98468 390.813629 379.505066 C 384.991913 381.272308 379.104584 382.81192 373.174347 384.167145 C 371.515228 384.557434 369.834961 384.926025 368.154144 385.273041 C 362.212799 386.530609 356.239166 387.582397 350.232697 388.471375 C 348.530182 388.742401 346.839294 388.980896 345.13678 389.197815 C 343.228851 389.468872 341.331543 389.707336 339.423096 389.934998 C 339.629028 387.300476 338.783569 384.524902 337.883606 381.944519 C 341.537476 381.911957 345.191315 381.792725 348.844635 381.575928 C 350.178162 381.489227 351.522827 381.402405 352.856354 381.294006 C 353.279327 381.25061 353.691193 381.228912 354.114197 381.185638 C 359.003632 380.773621 363.882477 380.18811 368.729065 379.450958 C 370.496155 379.169067 372.263275 378.887146 374.030365 378.572693 C 379.549255 377.58606 385.0242 376.393463 390.456268 374.994812 C 392.277374 374.528687 394.077301 374.040833 395.887817 373.531189 C 402.306152 371.698975 408.648773 369.584717 414.882874 367.177856 C 416.726196 366.483948 418.569 365.746765 420.379517 364.976898 C 429.172699 361.344879 437.737701 357.138214 445.999359 352.40033 Z"/>
        <path id="path93" fill="#edd89e" stroke="none" opacity="0.46" style="mix-blend-mode:multiply" d="M 79.965309 149.147095 L 63.876087 160.465973 C 67.356293 157.625397 70.500343 154.361969 73.297638 150.838348 C 73.980553 150.003632 74.620583 149.147095 75.249504 148.279694 C 76.821259 148.561584 78.382431 148.85434 79.965309 149.13623 Z"/>
        <path id="path94" fill="#edd89e" stroke="none" opacity="0.46" style="mix-blend-mode:multiply" d="M 127.203842 155.966675 L 115.201508 164.390747 C 117.706055 162.666901 120.004669 160.672028 121.999405 158.406128 C 122.769142 157.538696 123.506584 156.617188 124.200615 155.663086 C 125.208572 155.771484 126.195351 155.869019 127.203842 155.966675 Z"/>
        <path id="path95" fill="#edd89e" stroke="none" opacity="0.46" style="mix-blend-mode:multiply" d="M 166.484055 157.918152 L 147.965988 169.367279 C 151.272568 166.667633 154.492844 163.6427 157.463242 160.465973 C 158.254684 159.620392 159.046661 158.763855 159.794678 157.896454 L 159.794678 157.896454 C 162.028183 157.93985 164.239441 157.93985 166.472931 157.929016 Z"/>
        <path id="path96" fill="#edd89e" stroke="none" opacity="0.46" style="mix-blend-mode:multiply" d="M 191.929718 155.869019 L 181.435089 166.591675 C 183.516647 164.239075 185.402863 161.745392 187.072571 159.110748 C 187.604065 158.254303 188.113342 157.4086 188.60144 156.530365 C 189.717926 156.335266 190.823822 156.129211 191.929718 155.869019 Z"/>
        <path id="path97" fill="#edd89e" stroke="none" opacity="0.46" style="mix-blend-mode:multiply" d="M 40.826443 141.438507 C 38.44101 143.921356 36.684494 147.043671 35.556892 150.317963 C 35.48119 150.524017 35.416077 150.740814 35.35096 150.946869 C 34.744015 148.182129 34.548672 145.319855 34.819717 142.511841 C 34.884834 141.75296 34.993359 141.004791 35.134174 140.256775 C 37.031773 140.647064 38.929108 141.037354 40.826443 141.438507 Z"/>
        <path id="path98" fill="#edd89e" stroke="none" opacity="0.46" style="mix-blend-mode:multiply" d="M 32.792419 139.747101 C 30.049385 144.669373 27.002745 149.396423 23.609354 153.895844 C 23.565945 153.689789 23.533386 153.483856 23.489977 153.277771 C 24.660988 151.358887 25.853439 149.428986 27.02445 147.509949 C 28.357983 145.330719 29.637255 143.097351 31.035902 140.961395 C 31.231247 140.679504 31.740786 140.083252 32.304585 139.638702 C 32.46711 139.682129 32.618778 139.714691 32.770714 139.757965 Z"/>
        <path id="path99" fill="#edd89e" stroke="none" opacity="0.46" style="mix-blend-mode:multiply" d="M 75.249504 148.279694 C 71.975227 152.789948 68.180557 156.942352 63.876087 160.465973 C 63.843792 160.346741 63.832676 160.249176 63.800385 160.129944 C 66.619385 157.820618 69.123398 155.131836 71.248375 152.161163 C 72.191742 150.827637 73.059418 149.43985 73.839737 148.008636 C 74.306129 148.106293 74.771988 148.192993 75.249504 148.279694 Z"/>
        <path id="path100" fill="#edd89e" stroke="none" opacity="0.46" style="mix-blend-mode:multiply" d="M 124.200615 155.663086 C 121.728363 159.089172 118.681717 162.005585 115.201508 164.390747 C 115.158104 164.271484 115.115219 164.130554 115.071808 164.011292 C 118.215858 161.571869 120.904633 158.579498 123.539406 155.587128 C 123.755928 155.619659 123.983559 155.641388 124.211197 155.663086 Z"/>
        <path id="path101" fill="#edd89e" stroke="none" opacity="0.46" style="mix-blend-mode:multiply" d="M 159.805267 157.896454 C 156.216537 161.99472 152.172531 165.952057 147.976578 169.367279 C 147.900879 169.128784 147.82518 168.890167 147.760056 168.651672 C 151.4785 165.203888 155.078339 161.593567 158.53685 157.874878 C 158.959839 157.874878 159.382294 157.874878 159.805267 157.896454 Z"/>
        <path id="path102" fill="#edd89e" stroke="none" opacity="0.46" style="mix-blend-mode:multiply" d="M 188.60144 156.530365 C 186.595581 160.140808 184.18898 163.480042 181.435089 166.591675 C 181.391678 166.515839 181.348267 166.43988 181.315445 166.364044 C 183.375839 163.144012 185.446274 159.923889 187.517258 156.703857 C 187.885712 156.660583 188.243576 156.595459 188.61203 156.530365 Z"/>
        <path id="path103" fill="#9bbd5b" stroke="none" opacity="0.35" style="mix-blend-mode:multiply" d="M 339.423096 389.934998 C 339.347382 390.780701 339.173737 391.593842 338.870392 392.406982 C 338.035553 394.55365 336.463257 396.104095 334.826385 397.632721 C 333.644257 398.727753 332.41925 399.790375 331.421875 401.037109 C 328.982452 404.08374 327.410156 408.756531 325.870697 412.345276 C 325.318024 413.613831 324.775909 414.958191 323.800262 415.933868 C 322.542419 417.191559 320.840424 417.646973 319.029388 417.755371 C 319.181335 417.646973 319.333252 417.549316 319.485199 417.430054 C 322.314789 415.315918 323.778534 411.878998 324.960144 408.550598 C 326.141754 405.222046 327.237061 401.720154 329.611359 399.10733 C 331.584412 396.938965 334.284302 395.551147 336.203339 393.339355 C 338.122375 391.116852 339.086914 388.113617 338.902679 385.197083 C 339.303955 386.78009 339.553314 388.384674 339.434204 389.945862 Z"/>
        <path id="path104" fill="#edd89e" stroke="none" opacity="0.46" style="mix-blend-mode:multiply" d="M 304.544739 383.92865 C 304.306519 385.815155 302.690826 387.25708 300.934296 387.994385 C 299.188904 388.720703 297.259277 388.90506 295.415955 389.317078 C 292.391022 389.989258 289.539703 391.301086 287.045746 393.144287 L 287.045746 393.144287 C 286.210907 393.165863 285.376068 393.176697 284.541748 393.187561 C 280.041931 393.230957 275.455811 393.252686 270.826294 393.209259 C 272.322906 391.994995 273.959778 390.910797 275.640045 389.956696 C 280.454315 387.181244 286.254333 384.633301 287.891724 379.331573 C 288.141052 378.507721 288.281891 377.672852 288.325287 376.838013 C 293.279846 377.911346 298.256653 378.822021 303.276337 379.559326 C 303.298035 379.591919 303.319733 379.624329 303.330322 379.656891 C 304.046051 380.990417 304.750671 382.443329 304.555878 383.939392 Z"/>
        <path id="path105" fill="#edd89e" stroke="none" opacity="0.46" style="mix-blend-mode:multiply" d="M 240.230743 360.455902 C 240.078796 360.705261 239.937988 360.95459 239.818878 361.193085 C 237.867004 365.150391 235.666336 368.999329 233.237488 372.685608 C 229.312592 378.648651 224.802719 384.221283 219.782516 389.273651 C 217.38649 388.872498 214.990479 388.427948 212.616165 387.950958 C 216.237717 384.080322 219.79364 380.123138 223.230438 376.07901 C 227.957352 370.549652 232.554581 364.760132 236.165024 358.471741 C 237.50914 359.143951 238.86438 359.80542 240.21962 360.445068 Z"/>
        <path id="path106" fill="#edd89e" stroke="none" opacity="0.46" style="mix-blend-mode:multiply" d="M 162.450638 357.842957 C 170.918228 363.686768 179.906204 368.793274 189.25206 373.075897 C 189.046127 373.444489 188.818497 373.823914 188.60144 374.181671 C 188.069931 375.07077 187.527832 375.948914 186.975159 376.827148 C 186.259415 377.965607 185.424576 378.941284 184.503433 379.754425 C 183.961334 379.537628 183.408127 379.309998 182.877151 379.082214 C 181.293747 378.442596 179.754272 377.770386 178.214813 377.05481 C 168.305161 372.522949 159.067825 366.733276 150.860703 359.393433 C 149.602859 358.265808 148.367264 357.09494 147.152847 355.902222 C 146.480515 355.230042 145.819321 354.568695 145.168686 353.874786 C 142.447632 350.990936 139.856262 347.911743 137.41684 344.615906 C 132.993256 338.641998 129.556458 332.093445 127.008499 325.208862 C 126.976204 325.143738 126.965088 325.067902 126.932793 325.002808 C 137.05896 337.611938 149.137009 348.649048 162.440048 357.832123 Z"/>
        <path id="path107" fill="#edd89e" stroke="none" opacity="0.46" style="mix-blend-mode:multiply" d="M 290.591095 391.008331 C 290.461395 391.073456 290.309448 391.149292 290.17923 391.214386 C 289.084442 391.7565 288.032532 392.406982 287.056885 393.133423 L 287.056885 393.133423 C 286.222015 393.154999 285.387177 393.165863 284.552338 393.176697 C 284.194458 393.176697 283.826019 393.176697 283.45755 393.176697 C 279.305023 393.220123 275.087372 393.230957 270.837433 393.176697 C 268.885559 393.154999 266.912537 393.133423 264.950073 393.090027 C 263.117859 393.046631 261.263947 393.003326 259.410004 392.938232 C 255.723862 392.81897 252.016022 392.656311 248.307648 392.417847 C 241.596558 392.005829 234.874893 391.398621 228.196106 390.509644 C 226.374481 390.271149 224.542267 390.010956 222.721161 389.739929 C 221.744965 389.588104 220.769302 389.43631 219.79364 389.262787 C 217.397614 388.861664 215.001602 388.417114 212.627274 387.940125 C 214.079926 386.378815 215.521988 384.817627 216.952927 383.234772 C 240.751129 389.989258 265.806641 392.352722 290.602203 390.975891 Z"/>
        <path id="path108" fill="#9bbd5b" stroke="none" opacity="0.36" style="mix-blend-mode:screen" d="M 201.438095 331.009247 C 204.148575 346.708313 202.695923 364.716705 191.181686 375.742981 C 183.462128 383.137085 172.65303 386.075348 162.570267 389.577271 C 157.376953 391.387909 152.063995 393.588715 147.456192 396.591949 C 147.586411 396.34259 147.738358 396.104095 147.879166 395.865479 C 150.253479 392.005829 153.430359 388.493073 157.561188 386.606567 C 162.363815 384.416504 167.849884 384.622437 173.097717 384.091187 C 177.391083 383.646759 181.467377 382.508301 184.514023 379.754425 C 185.435684 378.941284 186.259415 377.965607 186.985748 376.827148 C 190.867233 370.636475 194.369141 364.218018 197.480896 357.615326 C 199.053192 354.297638 200.527542 350.89325 201.416382 347.315521 C 202.316345 343.640076 201.926193 340.701965 201.318985 337.02655 C 200.115677 329.686584 198.478271 322.433258 196.808578 315.190918 C 192.114471 294.9599 186.790924 274.024231 190.411957 253.153564 C 193.37178 236.12085 202.067001 220.725372 208.648392 204.733582 C 211.510269 197.805573 213.982513 190.465576 215.391754 183.03891 C 213.288483 217.483673 190.043503 249.445587 191.84343 284.193848 C 192.66716 300.120667 198.738739 315.266785 201.449203 330.976685 Z"/>
        <path id="path109" fill="#9bbd5b" stroke="none" opacity="0.36" style="mix-blend-mode:screen" d="M 119.527687 338.728699 C 118.75795 344.442383 115.960655 349.939178 113.228477 355.121643 C 111.526482 358.374207 109.704857 361.735168 106.723328 363.881836 C 101.410896 367.687378 94.157722 366.538208 87.761108 367.839172 C 79.087578 369.584717 71.812172 376.566956 69.243042 384.980286 C 68.874054 383.885254 68.820061 382.670959 69.015404 381.532501 C 69.308159 379.678589 70.185883 377.965607 71.172668 376.360901 C 73.546982 372.501251 76.734444 369.942566 80.854683 368.056091 C 85.65731 365.855164 90.200539 365.117859 95.447853 364.586609 C 101.042442 364.012085 106.256935 362.244843 109.336395 357.333435 C 113.087654 351.33783 116.502754 345.136292 119.527687 338.739532 Z"/>
        <path id="path110" fill="#9bbd5b" stroke="none" opacity="0.36" style="mix-blend-mode:screen" d="M 48.242138 91.728394 C 40.934437 94.970093 34.147659 99.393555 28.780966 105.280762 C 22.123886 112.588196 17.819679 122.313354 18.210106 132.190338 C 17.668009 131.572388 17.190765 130.911041 16.789751 130.206299 C 16.735489 129.51239 16.69208 128.829346 16.681227 128.146301 C 16.345329 117.174316 21.061399 106.039642 29.528994 99.079102 C 34.787159 94.753174 41.465946 92.194519 48.231022 91.728394 Z"/>
        <path id="path111" fill="#9bbd5b" stroke="none" opacity="0.36" style="mix-blend-mode:screen" d="M 144.973343 84.139038 C 138.587845 86.665161 133.35112 92.140381 131.420959 98.753906 C 130.391296 102.288391 130.250488 106.050507 129.198578 109.574127 C 128.613083 111.525726 127.691414 113.488037 126.000008 114.615631 C 124.818413 115.407074 123.365761 115.678131 121.923706 115.515472 C 122.606621 115.417938 123.278946 115.30954 123.951271 115.190277 C 125.902603 114.832428 127.301247 113.097748 127.290665 111.113708 C 127.268959 105.790314 128.602493 100.315094 130.900574 95.577179 C 132.971542 91.283813 136.473465 87.554138 140.745117 85.515869 C 142.078644 84.876221 143.488403 84.410095 144.973343 84.139038 Z"/>
        <path id="path112" fill="#9bbd5b" stroke="none" opacity="0.36" style="mix-blend-mode:screen" d="M 194.423676 79 C 188.677139 81.428558 180.220673 85.992981 177.174026 92.725739 C 177.998291 85.429169 185.858673 80.073334 193.144135 79.14093 C 193.577713 79.08667 194.000687 79.043274 194.423676 79.010712 Z"/>
        <path id="path113" fill="#9bbd5b" stroke="none" opacity="0.36" style="mix-blend-mode:screen" d="M 440.957458 227.870178 C 433.227295 226.807678 425.356323 226.807678 417.799286 228.639893 C 408.475128 230.895111 399.671906 236.142548 394.283234 244.078766 C 392.884583 246.149612 391.735291 248.361404 390.727325 250.638168 C 388.580658 252.936646 386.791321 255.538742 385.457794 258.401001 C 387.203705 253.413773 389.241852 249.120285 391.50766 245.423279 C 404.431122 224.389954 424.749115 222.991302 440.957458 227.870178 Z"/>
        <path id="path114" fill="#9bbd5b" stroke="none" opacity="0.36" style="mix-blend-mode:screen" d="M 443.625031 287.392273 C 442.269806 295.10083 437.195587 301.801208 430.939789 306.495728 C 424.662292 311.190186 417.246582 314.074188 409.776367 316.426941 C 396.484436 320.622742 382.574188 323.289795 368.642242 322.715149 C 357.789215 322.259888 346.9039 319.755341 337.287537 314.811493 C 342.762482 315.960693 348.291962 316.81723 353.864838 317.402588 L 353.864838 317.402588 C 355.25238 317.554382 356.618744 317.684509 358.006256 317.782166 C 367.146179 318.530212 376.350677 318.519348 385.490601 317.717041 C 385.685425 317.695343 385.85907 317.684509 386.054413 317.673645 C 387.13858 317.576111 388.20108 317.467712 389.285278 317.337616 C 397.264771 316.426941 405.233673 314.800659 412.671082 311.960083 C 413.820374 311.515503 414.947998 311.06012 416.053894 310.561401 C 420.195313 308.729065 424.120209 306.463135 427.75235 303.698547 C 429.422028 302.419128 431.026611 301.009644 432.522675 299.491882 C 433.238403 298.765442 433.931915 298.017273 434.593658 297.247528 C 438.550842 292.661438 441.619171 287.294739 443.342865 281.613586 C 443.440277 281.309967 443.5271 280.995514 443.613922 280.681061 C 444.069214 282.860291 444.015198 285.180481 443.613922 287.370544 Z"/>
        <path id="path115" fill="#9bbd5b" stroke="none" opacity="0.36" style="mix-blend-mode:screen" d="M 323.615509 327.734985 L 320.89444 327.26886 C 320.623383 327.192871 320.362915 327.117035 320.081299 327.041077 C 314.714325 325.534027 308.892639 324.601624 303.786133 326.748322 C 297.887665 329.220306 294.17981 335.497803 293.421204 341.851135 C 292.662048 348.204498 294.418579 354.612122 296.923126 360.488464 C 299.438263 366.364685 302.690826 371.915741 305.151947 377.813812 C 306.084198 380.04718 306.919067 382.475769 306.474915 384.861053 C 305.791473 388.395508 302.463196 390.834961 299.080383 392.092529 C 295.70871 393.35022 292.04425 393.783936 288.769989 395.290955 C 283.966827 397.502625 280.540619 402.143005 279.359009 407.271179 C 279.305023 406.989288 279.261597 406.696655 279.239899 406.403931 C 279.033966 403.845245 280.05304 401.308136 281.429993 399.139771 C 282.893738 396.808838 284.812805 394.781311 287.035156 393.144287 L 287.035156 393.144287 C 289.518005 391.311951 292.380432 389.989258 295.404816 389.317078 C 297.248169 388.90506 299.178314 388.720703 300.923706 387.994385 C 302.669128 387.25708 304.284821 385.815155 304.534149 383.92865 C 304.728973 382.432465 304.024353 380.968719 303.308624 379.646027 C 303.286926 379.613464 303.265198 379.581055 303.254608 379.548492 C 300.446747 374.723755 297.183044 370.191925 294.071289 365.551544 C 291.003479 360.889587 288.108246 356.021484 286.276031 350.654785 C 284.422089 345.342224 283.674072 339.444275 285.137848 333.838989 C 285.159546 333.773987 285.181244 333.719727 285.191833 333.64389 C 285.961578 330.933411 287.187103 328.363892 288.910797 326.130371 C 289.789063 324.991943 290.764709 323.907745 291.892334 322.99707 C 292.423309 322.509216 293.052216 322.129791 293.637726 321.696106 C 294.266632 321.327362 294.88443 320.926208 295.556763 320.64447 C 297.725159 319.603516 300.153992 319.158997 302.550018 319.213257 C 303.070404 319.213257 303.579681 319.245789 304.089478 319.299927 C 306.962463 319.592682 309.71637 320.492645 312.307709 321.609253 C 314.920258 322.736877 317.381409 324.081238 319.810242 325.458191 C 321.100372 326.184631 322.358185 326.943542 323.604919 327.734985 Z"/>
        <path id="path116" fill="#5e782f" stroke="none" d="M 351.230072 352.942383 C 350.460327 352.042572 349.668884 351.153442 348.877472 350.27533 C 347.803864 349.082764 346.719666 347.900879 345.60318 346.751709 C 343.640747 344.7677 341.645996 342.826965 339.553314 340.994598 C 335.400787 337.297607 330.998901 333.89325 326.337097 330.857422 C 324.287811 329.523926 322.206268 328.233765 320.081299 327.041077 C 319.799133 326.867676 319.506897 326.705017 319.224731 326.542389 C 316.796417 325.197998 314.345886 323.875305 311.809052 322.812836 C 309.271667 321.73938 306.64801 320.904663 303.970367 320.666016 C 301.292175 320.405823 298.571106 320.774536 296.175079 321.945435 C 296.131683 321.977966 296.066559 321.988831 296.023163 322.02124 C 292.304199 323.799347 289.409485 327.084473 287.642395 330.87915 C 287.132568 331.952484 286.720703 333.05838 286.40625 334.185974 C 285.690521 336.787933 285.495697 339.541809 285.712219 342.263153 C 285.799042 343.618408 286.004974 344.973633 286.28714 346.317993 C 286.547058 347.662415 286.904938 348.995941 287.327911 350.307892 C 288.986511 355.577026 291.729797 360.455902 294.667908 365.182983 C 297.562622 369.931702 300.728363 374.561249 303.254608 379.559326 C 300.446747 374.734619 297.183044 370.202759 294.071289 365.562408 C 291.003479 360.90033 288.108246 356.032318 286.276031 350.665649 C 284.422089 345.353088 283.674072 339.455139 285.137848 333.849823 C 285.159546 333.784851 285.181244 333.730591 285.191833 333.654724 C 285.961578 330.944275 287.187103 328.374603 288.910797 326.141235 C 289.789063 325.002808 290.764709 323.918579 291.892334 323.007935 C 292.423309 322.520081 293.052216 322.140503 293.637726 321.70694 C 294.266632 321.338196 294.88443 320.937073 295.556763 320.655151 C 297.725159 319.61438 300.153992 319.16983 302.550018 319.224091 C 303.070404 319.224091 303.579681 319.256653 304.089478 319.310791 C 306.962463 319.603516 309.71637 320.503479 312.307709 321.620117 C 314.920258 322.747711 317.381409 324.092102 319.810242 325.469055 C 321.100372 326.195496 322.358185 326.954376 323.604919 327.745819 C 324.732513 328.450562 325.838409 329.187744 326.944305 329.946777 C 331.562683 333.123352 335.932281 336.657837 340.019714 340.485046 C 343.13092 343.45575 346.08017 346.610779 348.812347 349.928345 C 349.636078 350.925842 350.427521 351.934204 351.208374 352.964111 Z"/>
        <path id="path117" fill="#9bbd5b" stroke="none" opacity="0.29" style="mix-blend-mode:screen" d="M 214.307571 259.062378 C 213.66806 261.490936 213.656937 264.461609 215.565399 266.087891 C 217.38649 267.6492 220.205505 267.291321 222.330475 266.196289 C 226.352783 264.114746 228.965851 259.582764 228.759918 255.06163 C 228.662506 252.839111 227.827652 250.529785 226.038315 249.217957 C 220.335724 245.043716 215.391754 254.92067 214.307571 259.062378 Z"/>
        <path id="path118" fill="#9bbd5b" stroke="none" opacity="0.29" style="mix-blend-mode:screen" d="M 223.978455 271.573975 C 223.729126 272.972473 223.946167 274.501221 224.781021 275.661255 C 225.61586 276.821411 227.079636 277.558594 228.477753 277.309235 C 229.930923 277.059906 231.058517 275.878174 231.828262 274.609619 C 232.706512 273.145996 233.259201 271.42218 233.042679 269.730774 C 232.825623 268.03949 231.730316 266.402344 230.115158 265.86026 C 226.840881 264.7435 224.466553 268.906769 223.989578 271.573975 Z"/>
        <path id="path119" fill="#edd89e" stroke="none" opacity="0.46" style="mix-blend-mode:multiply" d="M 156.259949 201.719482 C 156.140839 205.351501 154.232376 208.75589 151.684952 211.347107 C 149.137009 213.949188 145.971252 215.846527 142.794373 217.592072 C 141.11409 218.524445 139.411575 219.413422 137.709595 220.291687 C 140.36554 214.718933 143.390472 209.124451 146.849503 203.237396 C 146.870682 203.19397 146.892395 203.172272 146.903503 203.128998 C 147.586411 201.968842 147.792343 200.689545 147.586411 199.496857 C 147.271957 197.436981 145.786499 195.637207 143.575226 195.051697 C 127.583412 190.899292 111.287727 186.757599 95.111687 182.605194 C 105.899597 184.014709 116.763214 184.881958 127.648003 185.196442 C 133.806396 185.380798 140.159607 185.413208 145.851608 187.798523 C 151.54361 190.172821 156.487579 195.550507 156.271057 201.708649 Z"/>
        <path id="path120" fill="#f6e0a4" stroke="none" opacity="0.24" style="mix-blend-mode:screen" d="M 141.12468 349.332092 C 139.856262 347.825073 138.620132 346.253052 137.427429 344.637451 C 133.004364 338.663696 129.567032 332.115143 127.019615 325.23056 C 126.986794 325.165436 126.976204 325.0896 126.943382 325.024475 C 126.499222 323.842773 126.097946 322.639343 125.718376 321.425049 C 125.2631 320.015533 124.851234 318.606171 124.460541 317.164124 C 124.460541 317.164124 124.460541 317.131531 124.460541 317.12085 C 121.652657 306.539124 120.676994 295.339355 121.175674 284.193848 C 121.229675 282.643494 121.327614 281.093079 121.457314 279.553589 C 121.826294 274.815674 122.465797 270.121033 123.332939 265.491516 C 124.666473 258.303467 126.206474 251.754929 127.995277 245.5858 C 128.439438 244.024643 128.916946 242.485046 129.415634 240.977997 C 131.724838 233.800659 134.435303 227.057037 137.698471 220.269989 C 138.349091 218.9039 139.031998 217.526947 139.726028 216.150146 C 138.685257 222.622711 137.622772 229.084442 136.570877 235.567902 C 133.166885 256.481995 129.751801 277.569458 130.586639 298.743713 C 131.269562 316.036621 134.901703 333.177612 141.12468 349.310394 Z"/>
    </g>
</svg>
