<?xml version="1.0" encoding="UTF-8"?>
<!-- Generated by Pixelmator Pro 3.6.14 -->
<svg width="500" height="500" viewBox="0 0 500 500" xmlns="http://www.w3.org/2000/svg">
    <g id="Group-copy">
        <path id="Path" fill="#fcf0eb" stroke="none" d="M 410.507721 355.302368 C 410.078247 357.030609 408.328094 358.076355 406.654816 358.681885 C 403.506561 359.804749 400.589447 360.212036 397.41864 359.540558 C 397.143433 359.397461 396.835419 359.320313 396.472046 359.331329 C 396.791351 359.419495 397.110626 359.49646 397.41864 359.540558 C 398.728546 360.23407 399.135986 362.490723 398.178131 363.833862 C 397.022491 365.474091 394.875641 365.991455 392.927124 366.398743 C 366.595184 371.792877 339.943939 375.689758 313.160492 378.045563 C 298.728668 379.333588 284.263519 380.15921 269.776581 380.544495 C 268.961975 380.566528 268.158386 380.588562 267.343781 380.610596 C 264.316467 380.676575 261.300201 380.731689 258.283905 380.753723 L 258.283905 380.753723 C 249.906693 380.819702 241.507156 380.643524 233.184769 380.02713 C 226.051361 379.509766 218.939987 378.684143 211.927795 377.374084 C 209.219513 376.878754 206.51149 376.317322 203.825516 375.678741 C 198.508377 374.412872 193.312469 372.838623 188.248779 370.945221 C 174.532379 365.793243 161.905533 358.285583 151.150345 348.014709 C 143.796814 341.00238 137.764252 332.647034 132.612411 323.730286 C 132.381271 323.322998 132.150146 322.91568 131.918747 322.508362 C 127.284256 314.406219 123.354195 305.874756 119.787491 297.508392 C 110.881889 276.702545 103.726448 253.4198 107.271111 230.566406 C 108.834213 220.526764 114.37146 212.611694 118.499596 203.441772 C 123.310387 192.7966 128.781509 182.470886 133.416 171.737732 C 141.518005 153.034363 146.394913 133.483612 148.849762 113.42627 C 149.686401 106.656097 150.247849 99.808899 150.54509 92.92868 C 143.609756 91.893951 137.14772 88.052032 132.898636 82.470734 C 132.348221 80.907623 131.918747 79.41037 131.588699 77.924255 C 130.619827 73.476959 130.641861 69.205719 131.632507 64.39505 C 132.953735 57.966064 134.307739 54.014099 137.335037 48.179596 C 137.764252 47.36499 138.182709 46.275177 137.588211 45.570618 C 137.522095 45.504639 137.455978 45.427521 137.389877 45.372559 C 139.503662 42.741547 142.112503 40.627869 145.01886 38.976624 C 149.378143 36.488708 154.398026 35.035675 159.384842 34.441193 C 162.64328 34.044891 165.934784 34.088959 169.18219 33.626587 C 172.407578 33.175201 175.688049 32.129456 178.099091 29.916748 C 180.509857 27.704071 181.852844 24.093292 180.707932 21.033051 C 184.869125 24.819885 185.782913 31.061676 183.449005 36.180603 C 187.004684 36.301666 190.59343 36.896027 193.389603 39.108734 C 196.174744 41.310394 198.23317 44.447876 199.135941 47.87149 C 196.295685 46.462372 193.114395 46.627533 190.197281 47.904388 C 195.580246 52.032532 198.860733 58.373383 199.146957 65.154572 C 197.957962 62.831818 196.251877 60.740204 194.07225 59.320068 C 199.146957 63.184021 197.914154 79.960785 198.013062 85.398987 C 198.189362 95.328552 197.077515 105.026855 195.007797 114.736328 C 190.802521 134.397278 183.526138 153.265625 180.0914 173.11377 C 178.682297 181.237823 177.955841 189.637207 179.618118 197.706451 C 180.718948 203.089539 182.997757 208.340576 186.454269 212.589783 C 189.283493 216.079346 193.653793 218.005829 198.145294 217.796722 C 208.889481 217.268341 219.688492 217.048096 230.454712 217.158142 C 232.051132 217.180176 233.647293 217.235291 235.232437 217.345337 C 245.778549 218.049896 256.104279 220.724976 265.626678 225.34845 C 279.783295 232.206635 294.215118 240.507019 307.260162 249.148544 C 309.957428 250.942917 312.533203 252.869385 314.988068 254.972031 C 315.472351 255.39035 315.956665 255.80867 316.430206 256.237885 C 317.872375 257.514893 319.259186 258.835968 320.580383 260.212036 C 324.917633 264.659302 328.726471 269.602051 331.952118 274.941223 C 333.680237 277.792358 335.397614 280.65451 337.16983 283.472717 C 340.351379 288.492462 343.874298 293.435211 348.035217 297.640503 C 351.216797 300.865875 354.761169 303.673065 358.801178 305.753662 C 359.616058 306.193878 360.276642 306.920471 360.419647 307.823242 C 360.716888 309.683594 358.779663 310.520233 357.183228 310.872437 C 357.006927 310.916504 356.831177 310.949585 356.643555 310.993652 C 358.163147 312.56778 359.692902 314.131012 361.234497 315.683105 C 361.729553 316.178558 362.235901 316.684875 362.742249 317.180359 C 363.358795 317.785736 363.975311 318.391235 364.6026 318.996643 C 365.153015 319.525146 365.692688 320.053528 366.253845 320.570892 C 378.010986 331.788361 390.82489 341.850037 405.366913 348.994446 C 406.698883 349.65506 408.063629 350.304504 409.131683 351.328217 C 410.188446 352.363098 410.881836 353.904297 410.540527 355.335266 Z"/>
        <path id="path1" fill="#f16547" stroke="none" d="M 131.610474 64.373016 C 130.28952 70.812897 130.685944 76.250977 132.876602 82.448669 C 127.053123 84.364136 117.585815 84.804504 110.265358 83.659698 C 105.16861 82.855988 100.082611 81.138763 95.83326 78.287628 C 93.972908 77.043671 92.266556 75.590485 90.791603 73.895294 C 89.591599 72.530121 88.501778 70.944977 88.215546 69.139587 C 88.039513 68.02774 88.248604 66.816833 88.799026 65.848114 C 88.942276 65.59494 89.107292 65.3638 89.29435 65.154572 C 89.55854 64.85733 89.866806 64.604156 90.230171 64.416962 C 91.297951 63.833618 92.574821 63.844635 93.807892 63.866547 C 101.866096 64.042725 110.243317 63.921631 117.497932 60.399017 C 123.06823 57.690857 126.755875 54.465485 130.52066 50.535431 C 131.291458 49.731842 132.061996 48.906189 132.843536 48.047516 C 133.449051 47.387054 134.065582 46.715546 134.692871 46.022003 C 135.177444 45.493622 135.959 45.086334 136.641373 45.108368 C 136.905563 45.108368 137.14772 45.185364 137.346069 45.339508 C 137.411911 45.405609 137.489044 45.471588 137.544144 45.53772 C 138.138626 46.242249 137.720169 47.332092 137.29097 48.146698 C 134.263657 53.981049 132.909653 57.933136 131.588699 64.362 Z"/>
        <path id="path2" fill="#3d1107" stroke="none" d="M 125.73217 62.611694 C 125.588928 62.358398 125.302696 62.182373 125.016472 62.138275 C 124.521149 62.061279 124.025826 62.083191 123.541519 62.182373 C 123.255287 62.237335 122.969063 62.281403 122.671814 62.314453 C 122.297432 62.347382 121.923317 62.369415 121.570976 62.52356 C 121.262711 62.65564 120.976479 62.930847 120.976479 63.283203 C 120.976479 63.635406 121.262711 63.910614 121.570976 64.042725 C 122.253357 64.350983 123.090004 64.218872 123.816727 64.130859 C 124.147034 64.086792 124.444283 64.020691 124.763298 63.910614 C 125.126663 63.800568 125.423904 63.602356 125.677078 63.327148 C 125.864136 63.129059 125.864136 62.820801 125.73217 62.600677 Z"/>
        <path id="path3" fill="#3d1107" stroke="none" d="M 148.277298 61.962128 C 148.475372 63.261169 148.970703 64.648224 150.093582 65.341766 C 151.271545 66.079224 152.834656 65.848114 154.089752 65.242584 C 155.83992 64.406067 157.26004 62.886902 157.986771 61.09256 C 158.713226 59.28717 158.724243 57.21759 158.030579 55.401154 C 157.458389 53.893036 156.324493 52.516968 154.783157 52.010651 C 149.367126 50.227295 147.7379 58.406433 148.277298 61.973145 Z"/>
        <path id="path4" fill="#ffffff" stroke="none" d="M 155.201614 58.714691 C 155.201614 60.553162 154.122818 62.050262 152.779831 62.050262 C 151.436569 62.050262 150.357773 60.564026 150.357773 58.714691 C 150.357773 56.865234 151.436569 55.390137 152.779831 55.390137 C 154.122818 55.390137 155.201614 56.876251 155.201614 58.714691 Z"/>
        <path id="path5" fill="#f16547" stroke="none" d="M 270.051788 460.079987 C 268.246552 464.219147 264.239624 466.905121 260.276489 469.062866 C 258.338989 470.119629 256.379486 471.099365 254.375885 472.013031 C 245.888474 475.888 236.784515 478.474945 227.526581 479.619843 C 227.526581 479.619843 227.493515 479.619843 227.482498 479.619843 C 226.822159 479.696991 226.161545 479.773987 225.511963 479.839966 C 226.645859 479.212555 227.504532 478.265839 228.121078 477.142975 C 228.385254 476.691589 228.59436 476.196259 228.781418 475.689911 C 229.34285 474.159729 229.464066 472.48645 228.847534 470.978302 C 227.658539 468.028015 224.631241 467.24646 221.857376 466.894226 C 220.029816 466.684998 218.180481 466.596985 216.342163 466.651947 C 215.142151 466.673981 213.931122 466.762146 212.731384 466.905121 C 215.615433 465.881409 218.070282 465.07782 220.965622 464.053986 C 221.603928 463.833893 222.264542 463.591736 222.89209 463.294495 C 224.323242 462.655914 225.61113 461.786346 226.260727 460.410278 C 226.337585 460.234131 226.381668 460.035919 226.392685 459.848846 C 226.656876 453.541077 223.442505 453.838196 219.534485 452.594238 C 219.314377 452.528259 219.094254 452.440247 218.851837 452.363098 C 222.330658 452.330048 226.293503 452.05484 230.355804 451.614624 C 236.476257 450.987061 242.82811 449.996277 248.123199 449.027527 C 249.708344 448.719421 250.886307 447.343353 250.886307 445.725037 C 250.853256 427.693298 246.262848 409.694641 239.18454 392.895844 C 238.86525 392.114288 238.523926 391.34375 238.193619 390.57309 C 236.619507 386.984375 234.946213 383.472748 233.184769 380.02713 C 239.283447 380.467468 245.40416 380.687592 251.535904 380.742706 C 253.781662 380.775635 256.038147 380.775635 258.283905 380.742706 L 258.283905 380.742706 C 259.131561 383.990112 259.946198 387.259583 260.727722 390.529175 C 263.909302 403.882202 266.518158 417.356567 268.55481 430.92984 C 269.4245 436.731262 270.195038 442.543732 270.855652 448.367065 C 271.295868 452.297119 271.670258 456.436279 270.073822 460.06897 Z"/>
        <path id="path6" fill="#d4593e" stroke="none" d="M 212.632217 403.309875 C 212.533035 415.870331 211.509338 428.342896 208.426941 440.485016 C 207.282288 445.020599 205.729935 449.677124 202.361313 452.924561 C 198.519409 456.623352 192.982162 457.856262 187.709366 458.714966 C 185.0121 459.155334 182.315109 459.540588 179.607086 459.870911 C 179.607086 459.870911 179.585052 459.870911 179.574036 459.870911 C 179.486145 459.870911 179.386978 459.892792 179.298828 459.903809 C 173.387466 460.608368 167.431763 461.059753 161.476334 461.224915 C 160.342438 461.257965 159.208542 461.279877 158.074646 461.290894 C 157.392273 461.290894 156.720642 461.290894 156.038254 461.290894 C 156.522568 460.83963 157.061966 460.344177 157.623398 459.848846 C 158.603027 459.00119 159.638016 458.153534 160.496704 457.504059 C 161.355118 456.843597 161.971649 455.896759 162.070831 454.828979 C 162.246872 452.594238 160.342438 451.69162 158.625061 451.075226 C 154.320892 449.534027 149.873459 448.433167 145.349167 447.772705 L 145.327133 447.772705 C 144.809769 447.695557 144.281128 447.618561 143.752747 447.563477 C 147.044235 447.090057 150.203766 446.132324 153.319229 444.998566 C 154.981506 444.4151 156.621735 443.754608 158.261978 443.094147 C 159.087601 442.763824 159.957031 442.400604 160.617645 441.795105 C 161.300293 441.200592 161.795624 440.320007 161.696442 439.428284 C 161.619308 438.470551 160.914886 437.677979 160.188431 437.061432 C 158.272995 435.443237 157.006866 435.564331 153.58342 434.386475 C 153.374054 434.309357 153.142914 434.221313 152.900772 434.144348 C 155.223648 434.177246 157.733597 434.232361 160.342438 434.29834 C 167.949127 434.485535 176.44783 434.639648 183.834396 433.902039 C 186.828644 433.593903 189.283493 431.315094 189.789841 428.342896 C 192.42099 412.821106 191.947433 396.462555 189.789841 380.654541 C 189.723724 380.093109 189.635834 379.542694 189.558701 378.981262 C 189.162292 376.273224 188.733078 373.576233 188.237747 370.91217 C 192.927338 372.662445 197.737854 374.148682 202.647537 375.370605 C 203.032944 375.458618 203.41835 375.557678 203.814499 375.65683 C 206.500473 376.306274 209.197739 376.856689 211.916779 377.35202 C 212.081802 380.412384 212.225037 383.483765 212.345978 386.555023 C 212.566101 392.136353 212.698334 397.717529 212.654251 403.298828 Z"/>
        <path id="path7" fill="#edcec0" stroke="none" opacity="0.42" style="mix-blend-mode:multiply" d="M 314.94397 254.927948 C 307.975586 250.799805 301.062561 246.561615 294.039368 242.554535 C 275.247711 231.810364 254.761276 222.497314 233.129929 222.156006 C 223.321304 222.001862 213.512939 223.719238 203.715317 223.058746 C 193.929001 222.40918 183.603271 218.842468 178.142899 210.674347 C 171.548889 200.821747 173.904831 187.743805 176.513672 176.174011 C 183.074615 147.144928 191.441101 118.30304 195.129013 88.767487 C 196.527084 77.605103 194.567566 66.057343 189.591766 55.973633 C 191.088745 56.094696 192.574982 56.21579 194.07225 56.336853 C 191.352936 51.911469 187.830322 47.981537 183.713196 44.811127 C 186.036072 43.390991 188.733078 42.587402 191.463135 42.466339 C 188.391754 39.141785 183.988403 37.105255 179.475128 36.907043 C 179.805161 34.837463 180.146484 32.789917 180.465775 30.720337 C 173.827698 35.255798 165.318237 35.597107 157.31514 36.411713 C 153.186996 36.830048 148.871796 37.501556 144.974792 38.943695 C 149.334061 36.455811 154.353943 35.002625 159.340775 34.408264 C 162.599213 34.011841 165.890701 34.055908 169.138123 33.593506 C 172.363495 33.142273 175.643967 32.096405 178.055008 29.883698 C 180.465775 27.67099 181.808762 24.060364 180.663849 21 C 184.825043 24.786804 185.738831 31.028625 183.404922 36.147522 C 186.960617 36.268616 190.549347 36.863098 193.34552 39.075806 C 196.130676 41.277466 198.189362 44.414825 199.091858 47.838409 C 196.251877 46.429321 193.070313 46.594482 190.153198 47.87149 C 195.536179 51.999634 198.81665 58.340454 199.102875 65.121521 C 197.914154 62.798767 196.207809 60.707153 194.028168 59.28717 C 199.102875 63.151093 197.870087 79.927856 197.968979 85.365936 C 198.145294 95.295502 197.033432 104.993958 194.963715 114.703278 C 190.758713 134.364227 183.482056 153.232574 180.047318 173.080719 C 178.638489 181.204895 177.911758 189.604279 179.574036 197.67337 C 180.674866 203.056488 182.953674 208.307495 186.410187 212.556732 C 189.239426 216.046417 193.609711 217.9729 198.101212 217.763672 C 208.845398 217.235291 219.644684 217.015045 230.410629 217.125214 C 242.608002 217.268341 254.618301 219.998413 265.582611 225.326416 C 279.739227 232.184601 294.171051 240.484955 307.216064 249.126511 C 309.91333 250.920883 312.489136 252.847351 314.94397 254.949982 Z"/>
        <path id="path8" fill="#edcec0" stroke="none" opacity="0.42" style="mix-blend-mode:multiply" d="M 269.765564 380.544495 C 268.950958 380.566528 268.147369 380.588562 267.332764 380.610596 C 264.30545 380.676575 261.289185 380.731689 258.272888 380.753723 L 258.272888 380.753723 C 249.89566 380.819702 241.49614 380.643524 233.173737 380.02713 C 226.040344 379.509766 218.92897 378.684143 211.916779 377.374084 C 209.208755 376.878754 206.500473 376.317322 203.814499 375.678741 C 198.49736 374.412872 193.301437 372.838623 188.237747 370.945221 C 174.521362 365.793243 161.894516 358.285583 151.139587 348.014709 C 143.45549 340.67218 137.213837 331.876526 131.896698 322.508362 C 139.624603 331.744415 148.882813 339.80249 158.537186 346.539612 C 167.398712 352.737305 176.932129 357.955261 186.872726 362.204498 C 213.006592 373.400055 241.353165 378.221741 269.765564 380.555511 Z"/>
        <path id="path9" fill="#edcec0" stroke="none" opacity="0.42" style="mix-blend-mode:multiply" d="M 352.361694 316.73999 C 355.851257 318.589325 355.86203 324.027527 353.275482 326.999756 C 350.688416 329.972076 346.538239 331.017822 342.629944 331.568237 C 333.9888 332.75708 325.104675 332.283813 316.650604 330.170166 C 318.995239 332.49292 318.004608 336.753143 315.472351 338.866821 C 312.940643 340.980469 309.473114 341.475769 306.192627 341.762024 C 280.146667 344.04068 253.440338 337.931091 230.983093 324.544891 C 208.526108 311.169678 191.121811 291.618805 180.718948 267.631653 L 180.851181 267.565552 C 193.840851 292.334381 215.351242 312.721924 241.540207 322.860596 C 261.729675 330.852661 284.032379 333.472656 305.542786 330.533508 C 307.30423 330.313263 309.109741 329.972076 310.177277 328.772064 C 311.377533 327.462158 311.102325 325.843933 309.726288 324.743103 C 306.952148 322.398315 304.397858 319.734253 301.667816 317.389465 L 302.229523 316.596863 C 307.105896 319.392914 312.346161 321.561646 317.773468 322.992676 C 323.211548 324.434814 328.83667 325.194336 334.461792 325.194336 C 338.579193 325.073273 343.01532 325.095306 346.912323 323.752319 C 350.115936 322.090027 349.234955 319.382019 346.472107 317.719757 C 342.993286 315.297852 339.37149 313.107178 335.60672 311.125732 C 335.60672 311.125732 335.573914 311.125732 335.562653 311.103699 L 334.626831 310.608276 C 334.990173 310.685394 335.342804 310.773407 335.705627 310.839539 L 335.705627 310.839539 C 335.705627 310.839539 335.727661 310.839539 335.727661 310.839539 L 335.727661 310.839539 C 342.597137 312.248474 349.67572 312.061432 356.599487 310.938538 C 358.119049 312.512695 359.648834 314.075928 361.19043 315.628143 C 358.47113 317.07016 355.311584 317.587646 352.339661 316.728973 Z"/>
        <path id="path10" fill="#edcec0" stroke="none" opacity="0.42" style="mix-blend-mode:multiply" d="M 352.912109 318.600342 C 356.831177 321.726807 355.895355 328.882263 351.920929 332.250732 C 347.693878 335.828491 341.672607 336.224762 336.124359 336.070618 C 327.977722 335.828491 319.853668 334.749695 311.927948 332.856262 C 312.456329 336.665131 309.857971 340.374939 306.511383 342.235291 C 303.165344 344.106812 299.190918 344.481049 295.360046 344.580078 C 275.259003 345.119629 255.168716 339.075897 238.138535 328.364746 C 229.948364 323.212921 222.462616 317.004181 215.769714 310.013916 C 214.239395 308.417603 212.753418 306.777344 211.311264 305.093048 C 220.37114 312.545746 230.542862 318.600342 241.52919 322.860596 C 261.718658 330.852661 284.021637 333.472656 305.532043 330.533508 C 307.293488 330.313263 309.09848 329.972076 310.166504 328.772064 C 311.366241 327.462158 311.091034 325.843933 309.714996 324.743103 C 306.940857 322.398315 304.387115 319.734253 301.657074 317.389465 C 301.029236 316.894135 301.45871 316.167542 302.218231 316.596863 C 307.095123 319.392914 312.334869 321.561646 317.762177 322.992676 C 323.200256 324.434814 328.825378 325.194336 334.45105 325.194336 C 338.567902 325.073273 343.004578 325.095306 346.901581 323.752319 C 350.104645 322.090027 349.224213 319.382019 346.460815 317.719757 C 342.982544 315.297852 339.360748 313.107178 335.595978 311.125732 C 335.595978 311.125732 335.562653 311.125732 335.55188 311.103699 L 334.616058 310.608276 C 334.979431 310.685394 335.331512 310.773407 335.694855 310.839539 L 335.716919 310.839539 C 335.716919 310.839539 335.716919 310.839539 335.716919 310.839539 C 342.585846 312.248474 349.664429 312.061432 356.588745 310.938538 C 358.107758 312.512695 359.638092 314.075928 361.179138 315.628143 C 362.29126 316.73999 363.414154 317.851868 364.54776 318.94165 C 360.815796 320.625977 356.32428 320.680939 352.890076 318.589325 Z"/>
        <path id="path11" fill="#edcec0" stroke="none" opacity="0.24" style="mix-blend-mode:multiply" d="M 410.507721 355.302368 C 410.078247 357.030609 408.328094 358.076355 406.654816 358.681885 C 403.506561 359.804749 400.589447 360.212036 397.41864 359.540558 C 398.728546 360.23407 399.135986 362.490723 398.178131 363.833862 C 397.022491 365.474091 394.875641 365.991455 392.927124 366.398743 C 366.595184 371.792877 339.943939 375.689758 313.160492 378.045563 C 298.728668 379.333588 284.263519 380.15921 269.776581 380.544495 C 268.961975 380.566528 268.158386 380.588562 267.343781 380.610596 C 264.316467 380.676575 261.300201 380.731689 258.283905 380.753723 L 258.283905 380.753723 C 249.906693 380.819702 241.507156 380.643524 233.184769 380.02713 C 226.051361 379.509766 218.939987 378.684143 211.927795 377.374084 C 209.219513 376.878754 206.51149 376.317322 203.825516 375.678741 C 198.508377 374.412872 193.312469 372.838623 188.248779 370.945221 C 174.532379 365.793243 161.905533 358.285583 151.150345 348.014709 C 143.796814 341.00238 137.764252 332.647034 132.612411 323.730286 C 146.736237 333.946106 162.46698 342.048218 178.84758 347.926666 C 214.84491 360.82843 253.82547 363.613586 292.002686 361.224731 C 311.663513 360.002808 332.127899 357.107605 348.266357 345.824036 C 358.47113 338.70166 363.325989 330.115173 366.243103 320.537842 C 378.000244 331.755432 390.813599 341.817108 405.355621 348.961548 C 406.687592 349.622009 408.052887 350.271454 409.120941 351.295288 C 410.177704 352.330017 410.871094 353.871216 410.529785 355.302368 Z"/>
        <path id="path12" fill="#edcec0" stroke="none" opacity="0.42" style="mix-blend-mode:multiply" d="M 148.816696 113.404236 C 149.653351 106.634186 150.214783 99.786865 150.512039 92.906647 C 143.576706 91.871918 137.114655 88.029999 132.865585 82.448669 C 132.315155 80.88559 131.885681 79.388458 131.555649 77.902222 C 133.581009 81.226776 136.421265 84.056 139.767853 86.037415 C 144.776718 88.998749 150.886154 90.044495 156.577652 88.910583 C 154.761124 97.288086 152.163284 105.500275 148.805679 113.393341 Z"/>
        <path id="path13" fill="#d4593f" stroke="none" opacity="0.32" style="mix-blend-mode:multiply" d="M 131.610474 64.373016 C 130.28952 70.812897 130.685944 76.250977 132.876602 82.448669 C 127.053123 84.364136 117.585815 84.804504 110.265358 83.659698 C 102.933876 82.503784 95.668243 79.465454 90.791603 73.895294 C 89.591599 72.530121 88.501778 70.944977 88.215546 69.139587 C 88.006454 67.741516 88.36982 66.189423 89.29435 65.165588 C 92.090515 70.031342 96.713982 73.818146 101.942963 75.920807 C 108.063683 78.375641 114.943916 78.661865 121.40596 77.37384 C 123.684502 76.922607 126.062477 76.196014 127.570488 74.434692 C 128.935516 72.838409 129.353973 70.658752 129.772156 68.600189 C 130.586777 64.72522 131.588699 60.872284 132.788452 57.096497 C 133.779358 53.981049 135.133362 50.986786 136.057907 47.860474 C 136.311066 47.034821 136.454315 46.055084 136.630356 45.097351 C 136.894547 45.097351 137.136703 45.174347 137.335037 45.328491 C 137.400894 45.394592 137.478027 45.460571 137.533112 45.526703 C 138.127609 46.231232 137.709152 47.321045 137.279953 48.135681 C 134.25264 53.970032 132.898636 57.922119 131.577682 64.350983 Z"/>
        <path id="path14" fill="#d4593f" stroke="none" opacity="0.32" style="mix-blend-mode:multiply" d="M 131.610474 64.373016 C 130.28952 70.812897 130.685944 76.250977 132.876602 82.448669 C 127.053123 84.364136 117.585815 84.804504 110.265358 83.659698 C 105.16861 82.855988 100.082611 81.138763 95.83326 78.287628 C 99.301056 79.234314 102.86776 79.850739 106.456497 80.114929 C 113.402847 80.610382 121.207611 79.377441 125.534096 73.917206 C 128.803558 69.778046 129.342957 64.185822 129.992279 58.945831 C 130.443787 55.202972 131.346283 51.482117 132.865585 48.047516 C 133.4711 47.387054 134.087357 46.715546 134.714905 46.022003 C 135.199219 45.493622 135.981033 45.086334 136.663406 45.108368 C 136.927597 45.108368 137.169754 45.185364 137.368103 45.339508 C 137.433945 45.405609 137.511078 45.471588 137.566177 45.53772 C 138.160675 46.242249 137.742218 47.332092 137.313004 48.146698 C 134.285706 53.981049 132.931686 57.933136 131.610474 64.362 Z"/>
        <path id="path15" fill="#d4593f" stroke="none" opacity="0.32" style="mix-blend-mode:multiply" d="M 211.905762 377.363037 C 212.07077 380.423401 212.21402 383.494781 212.334961 386.56604 C 205.663834 384.936829 199.113892 382.823303 192.762039 380.203308 C 191.826492 379.828918 190.736679 379.4216 189.558701 379.003296 C 189.162292 376.295288 188.733078 373.598267 188.237747 370.934204 C 193.301437 372.827606 198.49736 374.401855 203.814499 375.667847 C 206.500473 376.317322 209.197739 376.867737 211.916779 377.363037 Z"/>
        <path id="path16" fill="#d4593f" stroke="none" opacity="0.32" style="mix-blend-mode:multiply" d="M 260.716705 390.529175 C 253.814438 391.024475 246.879379 391.07959 239.966095 390.683167 C 239.371597 390.650238 238.7771 390.617188 238.171585 390.562073 C 236.597458 386.973328 234.924164 383.461731 233.16272 380.016113 C 241.49614 380.632507 249.884644 380.808685 258.261871 380.742706 L 258.261871 380.742706 C 259.109528 383.990112 259.924133 387.259583 260.705688 390.529175 Z"/>
        <path id="path17" fill="#d4593f" stroke="none" opacity="0.32" style="mix-blend-mode:multiply" d="M 208.426941 440.485016 C 207.282288 445.020599 205.729935 449.677124 202.361313 452.924561 C 198.519409 456.623352 192.982162 457.856262 187.709366 458.714966 C 185.0121 459.155334 182.315109 459.540588 179.607086 459.870911 C 184.736893 458.659851 189.536667 456.557373 193.532578 453.133789 C 200.897385 446.792938 204.243973 436.962402 205.972092 427.396179 C 207.172104 420.758118 207.744553 414.009979 207.678452 407.250793 C 207.601318 396.374542 205.785034 385.740417 202.647537 375.392639 C 203.032944 375.480652 203.41835 375.579712 203.814499 375.678741 C 206.500473 376.328339 209.197739 376.878754 211.916779 377.374084 C 212.081802 380.434448 212.225037 383.505798 212.345978 386.577057 C 213.050674 404.718842 212.896408 422.959778 208.437958 440.496033 Z"/>
        <path id="path18" fill="#d4593f" stroke="none" opacity="0.32" style="mix-blend-mode:multiply" d="M 270.051788 460.079987 C 268.246552 464.219147 264.239624 466.905121 260.276489 469.062866 C 250.159851 474.589081 238.975174 478.188721 227.526581 479.608826 C 227.900955 479.509796 228.27507 479.421783 228.638428 479.333618 C 235.100204 477.803436 241.551239 475.932068 247.352661 472.71759 C 253.165115 469.503235 258.338989 464.81366 261.135162 458.791962 C 265.05423 450.425629 263.986176 440.650177 262.500214 431.524323 C 261.630493 426.196167 260.650879 420.901215 259.572083 415.628174 C 257.612549 405.918823 255.355774 396.275513 253.021866 386.654175 C 252.603683 384.958862 251.976135 382.878265 251.502853 380.742706 C 253.748596 380.775635 256.005096 380.775635 258.250854 380.742706 L 258.250854 380.742706 C 259.098511 383.990112 259.913116 387.259583 260.694672 390.529175 C 265.230255 409.573547 268.620911 428.893311 270.811584 448.378082 C 271.251801 452.308136 271.62619 456.447174 270.030029 460.079987 Z"/>
        <path id="path19" fill="#d4593f" stroke="none" opacity="0.32" style="mix-blend-mode:multiply" d="M 231.610641 473.532196 C 230.917236 474.776154 229.83844 475.766907 228.726578 476.669678 C 228.528244 476.834717 228.319153 476.988831 228.121078 477.142975 C 228.385254 476.691589 228.59436 476.196259 228.781418 475.689911 C 229.34285 474.159729 229.464066 472.48645 228.847534 470.978302 C 227.658539 468.028015 224.631241 467.24646 221.857376 466.894226 C 220.029816 466.684998 218.180481 466.596985 216.342163 466.651947 C 217.641083 466.332794 218.951004 466.057587 220.294006 465.881409 C 222.947189 465.5401 225.677246 465.584167 228.219971 466.40979 C 229.816406 466.927155 231.423584 467.851959 232.051132 469.404053 C 232.601547 470.725128 232.32634 472.288239 231.610641 473.532196 Z"/>
        <path id="path20" fill="#d4593f" stroke="none" opacity="0.32" style="mix-blend-mode:multiply" d="M 229.144775 457.823212 C 229.012817 459.815796 227.284424 461.323944 225.511963 462.237579 C 224.675308 462.677948 223.794861 463.030304 222.881073 463.294495 C 224.31221 462.655914 225.600113 461.786346 226.249695 460.410278 C 226.326569 460.234131 226.370636 460.035919 226.381668 459.848846 C 226.645859 453.541077 223.431488 453.838196 219.523468 452.594238 C 220.327057 452.594238 221.108612 452.56131 221.912201 452.594238 C 223.585495 452.638306 225.302856 452.880463 226.745026 453.739166 C 228.176163 454.597839 229.265991 456.182983 229.155792 457.845245 Z"/>
        <path id="path21" fill="#d4593f" stroke="none" opacity="0.32" style="mix-blend-mode:multiply" d="M 164.558731 453.078674 C 164.558731 454.278564 163.876083 455.401428 163.072495 456.293182 C 161.630325 457.933411 159.703873 459.10022 157.623398 459.848846 C 158.603027 459.00119 159.638016 458.153534 160.496704 457.504059 C 161.355118 456.843597 161.971649 455.896759 162.070831 454.828979 C 162.246872 452.594238 160.342438 451.69162 158.625061 451.075226 C 154.320892 449.534027 149.873459 448.433167 145.349167 447.772705 C 149.532135 447.563477 153.726395 447.71759 157.876572 448.257019 C 159.373825 448.444183 160.892853 448.697357 162.202789 449.456879 C 163.512985 450.205505 164.569748 451.559509 164.558731 453.067657 Z"/>
        <path id="path22" fill="#d4593f" stroke="none" opacity="0.32" style="mix-blend-mode:multiply" d="M 161.828674 442.301453 C 161.025085 443.028015 160.001114 443.468384 158.977417 443.80957 C 157.150116 444.426117 155.256714 444.789337 153.330246 444.998566 C 154.992523 444.4151 156.632751 443.754608 158.272995 443.094147 C 159.098618 442.763824 159.968048 442.400604 160.628662 441.795105 C 161.31131 441.200592 161.806641 440.320007 161.707458 439.428284 C 161.630325 438.470551 160.925919 437.677979 160.199463 437.061432 C 158.284012 435.443237 157.017883 435.564331 153.594437 434.386475 C 155.796112 434.452454 158.008804 434.980835 160.001114 435.93869 C 161.476334 436.643127 162.984344 437.810059 163.116562 439.43927 C 163.19371 440.518097 162.64328 441.574982 161.828674 442.301453 Z"/>
        <path id="path23" fill="#d4593f" stroke="none" opacity="0.32" style="mix-blend-mode:multiply" d="M 212.632217 403.309875 C 212.533035 415.870331 211.509338 428.342896 208.426941 440.485016 C 207.282288 445.020599 205.729935 449.677124 202.361313 452.924561 C 198.519409 456.623352 192.982162 457.856262 187.709366 458.714966 C 185.0121 459.155334 182.315109 459.540588 179.607086 459.870911 C 179.607086 459.870911 179.585052 459.870911 179.574036 459.870911 C 179.486145 459.870911 179.386978 459.892792 179.298828 459.903809 C 188.535004 451.46048 196.824341 441.938202 202.955811 431.06192 C 207.799652 422.486359 211.267181 413.030212 212.643234 403.298828 Z"/>
        <path id="path24" fill="#d4593f" stroke="none" opacity="0.32" style="mix-blend-mode:multiply" d="M 270.051788 460.079987 C 268.246552 464.219147 264.239624 466.905121 260.276489 469.062866 C 258.338989 470.119629 256.379486 471.099365 254.375885 472.013031 C 255.212524 471.077332 256.016113 470.097595 256.775909 469.0849 C 264.591675 458.725983 267.938263 445.559998 268.488678 432.603119 C 268.510742 432.041687 268.532776 431.491272 268.543793 430.92984 C 269.413483 436.731262 270.184021 442.543732 270.844635 448.367065 C 271.284851 452.297119 271.659241 456.436279 270.062805 460.06897 Z"/>
        <path id="path25" fill="#f16547" stroke="none" opacity="0.48" style="mix-blend-mode:screen" d="M 252.647766 449.060608 C 251.458771 450.480713 249.45517 450.877014 247.638901 451.174255 C 242.641052 452.021912 237.522263 452.869446 232.513397 452.076874 C 231.786682 451.955811 231.060226 451.801666 230.333771 451.59259 C 236.454483 450.965027 242.806076 449.974365 248.101166 449.005646 C 249.68631 448.697357 250.864273 447.32132 250.864273 445.703125 C 250.831223 427.671387 246.240814 409.672607 239.162506 392.87381 C 239.855896 393.027954 240.51651 393.38028 241.055908 393.831665 C 242.123688 394.756348 242.751236 396.033325 243.356491 397.310211 C 250.038651 411.665192 252.878891 427.550171 253.803421 443.369354 C 253.91362 445.350769 253.935654 447.55246 252.647766 449.060608 Z"/>
        <path id="path26" fill="#f16547" stroke="none" opacity="0.48" style="mix-blend-mode:screen" d="M 191.826492 427.473206 C 191.474152 430.423492 190.956787 433.571869 188.854019 435.674377 C 186.839676 437.666962 183.82338 438.20636 180.994156 438.360474 C 173.926865 438.712708 166.837265 437.193542 160.353455 434.29834 C 167.960144 434.485535 176.458847 434.639648 183.845428 433.902039 C 186.839676 433.593903 189.29451 431.315094 189.800858 428.342896 C 192.431732 412.821106 191.95845 396.462555 189.800858 380.654541 C 190.031982 380.720642 190.241089 380.841736 190.439423 380.973816 C 191.639175 381.887482 191.980499 383.516693 192.211624 385.00293 C 194.325424 399.038605 193.565628 413.371521 191.848526 427.462158 Z"/>
        <path id="path27" fill="#f16547" stroke="none" opacity="0.55" style="mix-blend-mode:screen" d="M 130.531677 50.546448 L 130.531677 50.568481 C 127.21814 56.821289 121.306786 61.488831 114.690742 64.020691 C 108.085716 66.552643 100.809067 67.036957 93.774834 66.222351 C 92.123573 66.035309 90.450279 65.771118 88.810043 65.859131 C 88.953026 65.605957 89.118309 65.374695 89.305367 65.165588 C 89.569557 64.868347 89.877823 64.615173 90.241188 64.427979 C 91.308968 63.844635 92.585838 63.855652 93.818909 63.877563 C 101.877113 64.053741 110.254333 63.932648 117.508949 60.410034 C 123.078987 57.701874 126.766899 54.476501 130.531677 50.546448 Z"/>
        <path id="path28" fill="#fcf0eb" stroke="none" style="mix-blend-mode:screen" d="M 283.933472 302.737366 C 284.726318 303.023468 285.397675 303.463837 285.980865 304.025269 C 285.287476 303.606934 284.616119 303.188599 283.933472 302.737366 Z"/>
        <path id="path29" fill="#fcf0eb" stroke="none" opacity="0.67" style="mix-blend-mode:screen" d="M 357.149902 310.828491 C 356.974152 310.872437 356.797821 310.905518 356.610779 310.949585 C 350.13797 312.688843 343.213684 312.578796 336.641449 311.334839 C 340.725494 313.514465 344.864929 315.716156 348.431366 318.67749 C 350.36911 320.493774 349.444061 323.2789 347.165497 324.302734 C 345.800751 324.963196 344.34729 325.106323 342.96051 325.304535 C 334.495117 326.537476 325.809357 325.953979 317.531067 323.829315 C 313.292725 322.739502 309.164581 321.198303 305.212738 319.271851 C 306.918823 320.8461 308.603424 322.464294 310.408386 323.961426 C 311.102325 324.588989 311.850555 325.425598 311.982788 326.559387 C 312.247253 330.005005 308.4599 331.414124 305.675018 331.645233 C 283.977539 334.815674 261.454468 332.118652 241.044891 324.060608 C 232.06189 320.504761 223.552429 315.749207 215.758682 310.013916 C 202.72467 300.403473 191.716309 288.019043 183.878479 273.862305 L 184.08757 273.675232 C 184.329727 273.994385 184.582901 274.31366 184.847092 274.621948 C 204.353897 299.280731 235.815918 312.578796 266.749298 318.457214 C 270.602203 319.183838 274.565338 319.822266 278.429291 319.13974 C 282.282227 318.446228 286.080322 316.189575 287.599335 312.578796 C 288.799103 309.749695 288.127716 306.094849 285.970123 304.025269 C 293.752869 308.791992 302.38324 312.182495 311.344208 313.965881 C 315.52771 314.791504 320.206268 315.187775 323.728638 312.765991 C 327.119293 310.443237 327.999756 304.5867 324.686493 302.407074 C 330.598114 305.951721 338.645294 305.610535 344.204315 301.504303 C 345.67926 300.425507 346.956421 299.093536 348.002411 297.596436 C 351.183472 300.821777 354.728394 303.628967 358.768372 305.709595 C 359.583252 306.149963 360.243317 306.876404 360.386841 307.779175 C 360.684082 309.639526 358.746338 310.476166 357.149902 310.828491 Z"/>
        <path id="path30" fill="#e0ac96" stroke="none" d="M 348.442657 318.67749 C 350.379883 320.493774 349.455322 323.2789 347.176788 324.302734 C 345.811493 324.963196 344.358582 325.106323 342.971252 325.304535 C 334.50589 326.537476 325.820129 325.953979 317.541809 323.829315 C 313.304016 322.739502 309.175873 321.198303 305.223511 319.271851 C 306.930115 320.8461 308.614166 322.464294 310.419678 323.961426 C 311.113098 324.588989 311.861847 325.425598 311.99408 326.559387 C 312.257996 330.005005 308.471191 331.414124 305.68576 331.645233 C 283.988312 334.815674 261.465485 332.118652 241.055908 324.060608 C 232.072906 320.504761 223.563446 315.749207 215.769714 310.013916 C 202.735703 300.403473 191.727325 288.019043 183.889496 273.862305 C 182.766617 271.814758 181.698578 269.745178 180.707932 267.64267 C 180.2677 266.706848 179.849243 265.771179 179.431061 264.813446 C 179.882294 265.738098 180.355591 266.651886 180.840164 267.565552 C 182.095001 269.965424 183.426971 272.310211 184.858109 274.621948 C 191.903366 286.158691 200.875351 296.550537 211.311264 305.093048 C 220.37114 312.545746 230.542862 318.600342 241.52919 322.860596 C 261.718658 330.852661 284.021637 333.472656 305.532043 330.533508 C 307.293488 330.313263 309.09848 329.972076 310.166504 328.772064 C 311.366241 327.462158 311.091034 325.843933 309.714996 324.743103 C 306.940857 322.398315 304.387115 319.734253 301.657074 317.389465 C 301.029236 316.894135 301.45871 316.167542 302.218231 316.596863 C 307.095123 319.392914 312.334869 321.561646 317.762177 322.992676 C 323.200256 324.434814 328.825378 325.194336 334.45105 325.194336 C 338.567902 325.073273 343.004578 325.095306 346.901581 323.752319 C 350.104645 322.090027 349.224213 319.382019 346.460815 317.719757 C 342.982544 315.297852 339.360748 313.107178 335.595978 311.125732 C 335.595978 311.125732 335.562653 311.125732 335.55188 311.103699 L 334.616058 310.608276 C 334.979431 310.685394 335.331512 310.773407 335.694855 310.839539 L 335.716919 310.839539 C 335.716919 310.839539 335.716919 310.839539 335.716919 310.839539 C 342.585846 312.248474 349.664429 312.061432 356.588745 310.938538 C 350.115936 312.677856 343.19165 312.56778 336.619415 311.323822 C 340.703461 313.503479 344.842896 315.705139 348.409332 318.666443 Z"/>
        <path id="path31" fill="#edcec0" stroke="none" opacity="0.42" style="mix-blend-mode:multiply" d="M 410.507721 355.302368 C 410.078247 357.030609 408.328094 358.076355 406.654816 358.681885 C 403.506561 359.804749 400.589447 360.212036 397.41864 359.540558 C 398.728546 360.23407 399.135986 362.490723 398.178131 363.833862 C 397.022491 365.474091 394.875641 365.991455 392.927124 366.398743 C 366.595184 371.792877 339.943939 375.689758 313.160492 378.045563 C 336.2453 375.260406 359.054871 369.866425 381.720947 364.47229 C 385.056244 363.668701 389.195679 361.907379 389.041412 358.483643 C 388.953247 356.270966 387.016052 354.652771 385.254578 353.298767 C 356.049072 330.808716 333.471161 301.042053 308.481934 273.939453 C 295.55838 259.925781 281.775879 246.561615 266.309052 235.343994 C 259.670959 230.522339 252.724625 226.107971 245.459259 222.321136 C 242.255646 220.636841 238.512909 219.238739 235.22142 217.323303 C 245.767532 218.027863 256.093262 220.702942 265.615662 225.326416 C 279.772552 232.184601 294.204376 240.484955 307.24939 249.126511 C 309.946136 250.920883 312.522461 252.847351 314.977295 254.949982 C 321.65918 260.630341 327.394501 267.378357 331.952118 274.919189 C 333.680237 277.770325 335.397614 280.632477 337.16983 283.450684 C 342.773438 292.312347 349.455322 300.909943 358.801178 305.742645 C 359.616058 306.182861 360.276642 306.909454 360.419647 307.812225 C 360.716888 309.672546 358.779663 310.509216 357.183228 310.86142 C 357.006927 310.905518 356.831177 310.938538 356.643555 310.982635 C 371.009827 325.942993 386.773621 339.846558 405.355621 348.983429 C 406.687592 349.644043 408.052887 350.293518 409.120941 351.3172 C 410.177704 352.352051 410.871094 353.89325 410.529785 355.32428 Z"/>
        <path id="path32" fill="#fcf0eb" stroke="none" opacity="0.67" style="mix-blend-mode:screen" d="M 235.166321 283.813904 C 238.876266 284.76062 243.103317 284.914734 246.262848 282.757141 C 249.785477 280.357269 251.073364 275.623749 250.556015 271.396423 C 249.906693 266.057404 246.802246 261.202667 242.707169 257.724121 C 238.612091 254.245438 233.559143 252.021713 228.396286 250.524597 C 225.170898 249.588913 221.538086 248.950348 218.565872 250.524597 C 215.417358 252.186874 213.887314 255.995728 213.931122 259.562439 C 214.063354 271.462524 224.19101 281.017761 235.166321 283.824951 Z"/>
        <path id="path33" fill="#fcf0eb" stroke="none" opacity="0.67" style="mix-blend-mode:screen" d="M 265.175171 283.362549 C 266.826416 283.869019 268.730835 284.111145 270.173004 283.175476 C 271.890381 282.052612 272.28653 279.696777 272.121521 277.649231 C 271.714081 272.552368 268.697784 267.730713 264.283417 265.121704 C 262.0159 263.778717 259.219727 263.019073 256.720795 263.877747 C 251.469788 265.694153 252.394592 271.253296 254.618301 274.897156 C 257.0401 278.860138 260.694672 281.975464 265.164154 283.362549 Z"/>
        <path id="path34" fill="#fcf0eb" stroke="none" opacity="0.67" style="mix-blend-mode:screen" d="M 153.462204 120.031281 C 153.330246 119.370819 152.086151 119.569031 151.998001 120.174408 C 151.744827 122.023865 151.678986 123.840271 151.568802 125.700623 C 151.447586 127.55011 151.150345 129.355499 150.908188 131.18277 C 150.434906 134.738464 149.312027 138.16217 148.365448 141.618683 C 146.427963 148.664093 143.851913 155.467316 140.8797 162.149353 C 135.056229 175.227295 128.253128 187.820953 122.242607 200.799713 C 116.518036 213.173126 111.850494 226.064026 110.474449 239.7034 C 109.219612 252.131775 110.551582 264.758484 114.008095 276.757507 C 115.923538 283.42865 118.532654 289.890564 121.791092 296.022156 C 125.170738 302.38501 129.078766 308.450653 134.16449 313.580597 C 135.133362 314.560364 136.619339 314.868469 137.907501 314.307068 C 139.03038 313.811707 139.679703 312.622864 138.887131 311.533051 C 135.265335 306.568268 131.610474 301.559387 128.616226 296.187317 C 125.633003 290.826233 123.15612 285.178955 121.207611 279.355469 C 117.288834 267.631653 115.648331 255.236221 116.198753 242.895721 C 116.793243 229.608673 120.404022 216.861023 125.621986 204.696716 C 131.258392 191.56369 138.47995 179.168365 144.303162 166.112335 C 147.561859 158.813782 150.313965 151.129944 152.075134 143.325043 C 152.504608 141.420624 152.977905 139.483124 153.109863 137.534637 C 153.253113 135.564087 153.429153 133.615723 153.627228 131.645172 C 154.012619 127.869232 154.210693 123.752136 153.451187 120.031281 Z"/>
    </g>
</svg>
