<?xml version="1.0" encoding="UTF-8"?>
<!-- Generated by Pixelmator Pro 3.6.14 -->
<svg width="500" height="500" viewBox="0 0 500 500" xmlns="http://www.w3.org/2000/svg">
    <g id="Group-copy-2">
        <g id="Group">
            <linearGradient id="linearGradient1" x1="116.3894" y1="102.635759" x2="116.3894" y2="367.800865" gradientUnits="userSpaceOnUse">
                <stop offset="1e-05" stop-color="#55e5fa" stop-opacity="1"/>
                <stop offset="1" stop-color="#71aefe" stop-opacity="1"/>
            </linearGradient>
            <path id="Path" fill="url(#linearGradient1)" stroke="none" d="M 175.755859 287.825256 C 167.147202 295.344055 158.832428 303.230103 149.060501 309.181427 C 139.288574 315.120483 128.267578 319.430969 116.842537 319.810638 C 105.417343 320.177917 93.551483 316.283905 85.763329 307.895752 C 80.252838 301.956543 77.179192 293.654175 77.632271 285.645508 C 77.864861 281.420868 73.248268 278.604309 69.537979 280.637146 C 69.427666 280.71051 69.305237 280.759583 69.195068 280.832947 C 65.019295 283.135132 61.125294 285.927124 57.623085 289.074341 C 57.133232 285.57196 56.94952 282.033142 57.059689 278.518524 C 57.402599 267.277222 60.721096 256.133789 66.758217 246.655731 C 73.407463 236.222504 83.571327 227.711761 95.033142 222.654358 C 96.245445 222.127869 97.470001 221.625763 98.70681 221.172668 C 101.939651 219.984894 104.927498 223.291138 103.543892 226.426056 C 99.674255 235.157135 99.000694 245.320862 101.976425 254.40712 C 105.907196 266.43219 116.095581 276.228638 128.279846 279.65741 C 138.014984 282.400421 148.803391 281.028931 157.656891 276.16748 C 159.016129 275.420532 160.326492 274.600006 161.575409 273.706116 C 165.873611 278.812561 170.624893 283.563843 175.768112 287.837524 Z"/>
            <linearGradient id="linearGradient2" x1="249.596476" y1="102.635759" x2="249.596476" y2="367.800865" gradientUnits="userSpaceOnUse">
                <stop offset="1e-05" stop-color="#55e5fa" stop-opacity="1"/>
                <stop offset="1" stop-color="#71aefe" stop-opacity="1"/>
            </linearGradient>
            <path id="path1" fill="url(#linearGradient2)" stroke="none" d="M 424.536316 386.879517 C 407.625275 394.116547 388.142578 393.185852 370.545715 387.565186 C 369.872314 397.569855 367.129333 407.464203 361.729004 415.717712 C 360.528961 417.591309 359.157471 419.366852 357.663391 421.044495 C 344.18103 436.118835 321.220612 440.208801 301.750305 434.735077 C 286.933075 430.571564 275.214172 421.411926 266.250488 408.933624 C 266.250488 408.933624 266.250488 408.933624 266.225983 408.909241 C 257.739746 397.067749 252.927322 382.985382 251.886337 368.462158 C 251.212921 359.106567 250.588379 349.481567 250.172073 339.599335 C 249.81691 331.247925 249.59642 322.725098 249.59642 313.994019 C 249.59642 324.990479 249.241409 335.705322 248.702515 346.114044 C 248.322983 353.730743 247.83313 361.175964 247.306503 368.462158 C 246.253418 382.99762 241.440994 397.080017 232.942505 408.933624 C 223.978836 421.424164 212.25975 430.571564 197.442673 434.735077 C 177.972214 440.208801 155.01181 436.118835 141.529465 421.044495 C 140.402969 419.783325 139.349869 418.460693 138.382416 417.076935 C 137.30481 415.546265 136.325104 413.954407 135.443451 412.313416 C 131.365738 404.819122 129.235031 396.234985 128.659378 387.565186 C 114.442307 392.108246 98.976173 393.590057 84.648941 390.161255 C 83.999893 390.002045 83.350845 389.842834 82.714203 389.671387 C 79.983322 388.924438 77.301613 388.006012 74.681053 386.879517 C 52.345181 377.303406 37.160671 353.106201 38.275059 328.811096 C 38.985249 313.34494 46.369347 299.2258 57.635193 289.062073 C 60.206879 286.759888 62.974384 284.653564 65.913193 282.78009 C 67.101128 282.020874 68.325684 281.310547 69.562492 280.624878 C 70.407364 280.159546 71.289009 279.951294 72.158546 279.951294 L 72.158546 279.951294 C 75.109612 279.951294 77.815979 282.375916 77.644524 285.63327 C 77.191444 293.641907 80.265091 301.932159 85.775589 307.883484 C 93.551483 316.271667 105.417343 320.165649 116.854797 319.79837 C 128.279846 319.418701 139.300827 315.120483 149.072754 309.169189 C 158.648865 303.328003 166.841064 295.637939 175.278259 288.253845 C 175.449722 288.106873 175.608917 287.959961 175.768112 287.812988 C 174.004669 286.343445 172.278015 284.812744 170.61264 283.245422 C 167.416565 280.245178 164.391953 277.036865 161.575409 273.68158 C 138.884521 246.802673 128.279846 209.710876 134.904724 175.104919 C 142.766266 133.95993 175.05777 98.26413 215.431458 87.083923 C 215.468079 87.083923 215.492599 87.083923 215.51712 87.059418 C 226.611649 84.010284 238.122345 83.520416 249.608673 83.520416 C 255.290634 83.520416 260.997101 83.630737 266.630035 84.13269 L 266.630035 84.13269 C 271.026123 84.51239 275.373352 85.124664 279.683807 86.067596 C 281.018555 86.361481 282.365509 86.692139 283.688141 87.059418 C 324.110718 98.20282 356.438843 133.935394 364.300537 175.104919 C 370.876373 209.490387 360.443146 246.349594 338.033875 273.179504 C 337.911316 273.350952 337.764374 273.510132 337.6297 273.669342 C 335.449951 276.265381 333.135681 278.775787 330.723175 281.163605 C 328.396637 283.478027 325.959656 285.69455 323.424896 287.800751 C 324.41684 288.670135 325.408661 289.53952 326.388367 290.409058 C 333.968292 297.10733 341.474792 303.891418 350.120239 309.156921 C 359.879913 315.09613 370.913147 319.406433 382.338196 319.786133 C 393.763397 320.153381 405.629242 316.259399 413.405151 307.871216 C 418.927887 301.932159 421.989288 293.629639 421.548462 285.621002 C 421.438293 283.624969 422.405609 281.947327 423.850647 280.943268 C 425.46698 279.81665 427.683502 279.535004 429.654999 280.600342 C 431.332642 281.506531 432.961243 282.498352 434.553223 283.575928 C 437.026855 285.229218 439.378052 287.06604 441.582153 289.049805 C 452.835907 299.189026 460.232117 313.308167 460.942444 328.78656 C 462.056702 353.069427 446.88443 377.2789 424.536316 386.855011 Z"/>
            <linearGradient id="linearGradient3" x1="382.803551" y1="102.635759" x2="382.803551" y2="367.800865" gradientUnits="userSpaceOnUse">
                <stop offset="1e-05" stop-color="#55e5fa" stop-opacity="1"/>
                <stop offset="1" stop-color="#71aefe" stop-opacity="1"/>
            </linearGradient>
            <path id="path2" fill="url(#linearGradient3)" stroke="none" d="M 441.582153 289.086426 C 437.969788 285.829224 433.965485 282.98819 429.654999 280.637146 C 426.936523 279.155334 423.740479 280.269714 422.319946 282.608643 C 421.793304 283.478027 421.499451 284.506622 421.56073 285.645508 C 422.001556 293.654175 418.940155 301.944275 413.417419 307.895752 C 405.653778 316.283905 393.775482 320.177917 382.350464 319.810638 C 370.925415 319.430969 359.892151 315.132751 350.132507 309.181427 C 340.360413 303.230103 332.045807 295.344055 323.437134 287.825256 C 328.5802 283.551575 333.331482 278.812561 337.6297 273.693848 C 338.621643 274.404053 339.63797 275.065369 340.691071 275.677612 C 349.703766 280.93103 360.871704 282.486206 370.925415 279.65741 C 383.10968 276.228638 393.298065 266.43219 397.228821 254.40712 C 400.204407 245.320862 399.531006 235.157135 395.661346 226.426056 C 394.48584 223.780975 396.432831 221.013489 399.004364 220.927826 C 399.494232 220.90332 399.996338 220.976715 400.498444 221.160431 C 413.454163 225.948486 425.087433 235.108124 432.447021 246.655731 C 438.030914 255.435699 441.300537 265.64859 442.02298 276.032776 C 442.329132 280.392151 442.18219 284.776123 441.582153 289.098694 Z"/>
            <path id="path3" fill="#ffadcc" stroke="none" d="M 323.584076 214.486664 C 326.927094 216.605103 328.041473 219.764404 327.723083 222.715637 C 327.294525 226.695435 324.184113 230.724274 318.575684 232.69577 C 312.685516 234.765198 304.652496 234.067291 299.778809 231.152832 C 294.904938 228.238373 293.460052 223.401306 296.154022 219.556335 C 300.011414 214.07019 315.68576 209.478119 323.584076 214.498901 Z"/>
            <path id="path4" fill="#ffadcc" stroke="none" d="M 175.596649 214.486664 C 172.253647 216.605103 171.139252 219.764404 171.457657 222.715637 C 171.886215 226.695435 174.996643 230.724274 180.605042 232.69577 C 186.495224 234.765198 194.528229 234.067291 199.401932 231.152832 C 204.275635 228.238373 205.720673 223.401306 203.026718 219.556335 C 199.169342 214.07019 183.49498 209.478119 175.596649 214.498901 Z"/>
            <path id="path5" fill="#253a6b" stroke="none" d="M 285.463684 206.269806 C 285.80658 208.853577 286.651459 211.474152 288.476044 213.33551 C 290.900787 215.796875 294.684601 216.45816 298.113281 216.005096 C 304.248322 215.196838 309.905762 210.935425 311.975311 205.106537 C 314.057007 199.277618 312.220184 192.163055 307.32196 188.379059 C 302.546173 184.680878 295.517242 184.803467 290.765961 188.440338 C 285.916748 192.138519 284.6922 200.612366 285.463684 206.257538 Z"/>
            <path id="path6" fill="#253a6b" stroke="none" d="M 213.717056 206.269806 C 213.374146 208.853577 212.529266 211.474152 210.704544 213.33551 C 208.279953 215.796875 204.496124 216.45816 201.067307 216.005096 C 194.932281 215.196838 189.274841 210.935425 187.205414 205.106537 C 185.123734 199.277618 186.960556 192.163055 191.85878 188.379059 C 196.63443 184.680878 203.663361 184.803467 208.414642 188.440338 C 213.263977 192.138519 214.488525 200.612366 213.717056 206.257538 Z"/>
            <path id="path7" fill="#ffffff" stroke="none" d="M 302.166626 198.37146 C 302.166626 201.949158 299.682983 204.849426 296.619354 204.849426 C 293.555725 204.849426 291.072083 201.949158 291.072083 198.37146 C 291.072083 194.793762 293.555725 191.893524 296.619354 191.893524 C 299.682983 191.893524 302.166626 194.793762 302.166626 198.37146 Z"/>
            <path id="path8" fill="#ffffff" stroke="none" d="M 208.708511 198.37146 C 208.708511 201.949158 206.225021 204.849426 203.161392 204.849426 C 200.097763 204.849426 197.614136 201.949158 197.614136 198.37146 C 197.614136 194.793762 200.097763 191.893524 203.161392 191.893524 C 206.225021 191.893524 208.708511 194.793762 208.708511 198.37146 Z"/>
            <path id="path9" fill="#253a6b" stroke="none" d="M 273.903961 229.89151 C 273.414093 229.707794 272.948761 229.462952 272.471161 229.279236 C 272.262939 229.193573 272.042603 229.107758 271.834381 229.009857 C 271.675171 228.93631 271.515991 228.862915 271.369049 228.789368 C 271.344513 228.77713 271.124207 228.666962 271.075165 228.642426 C 270.132233 228.115967 269.385284 227.479156 268.736206 226.683167 C 267.903595 225.654602 267.376984 224.527954 266.972931 223.27887 C 266.764709 222.64209 266.605499 222.005432 266.44632 221.356384 C 266.287109 220.731873 266.029999 220.144104 265.907562 219.507294 C 265.834045 219.115356 265.062561 219.115356 264.878998 219.409393 C 264.572845 219.911346 264.254456 220.376678 264.046234 220.927826 C 263.813477 221.515594 263.75235 222.262543 263.776855 222.887085 C 263.825745 224.07486 264.156403 225.250397 264.683014 226.315765 C 264.683014 226.315765 264.683014 226.315765 264.683014 226.328003 C 264.560608 226.413818 264.438019 226.487213 264.315582 226.597534 C 263.715576 227.123993 263.140076 227.662872 262.503265 228.152588 C 261.303223 229.083252 260.005127 229.965057 258.67041 230.6875 C 255.988708 232.120117 252.902817 232.793701 249.878189 232.781433 C 246.841171 232.781433 243.779785 232.108032 240.987915 230.920074 C 239.591904 230.332336 238.269287 229.597626 236.99585 228.77713 C 236.065186 228.177094 235.073227 227.626099 234.105927 227.03833 C 234.252869 226.793335 234.387543 226.56076 234.509979 226.303497 C 235.024338 225.238129 235.367096 224.062622 235.416138 222.874817 C 235.440643 222.250305 235.379364 221.503326 235.146759 220.915558 C 234.938538 220.376678 234.620132 219.899109 234.313995 219.397125 C 234.130295 219.103241 233.35881 219.115356 233.285416 219.495056 C 233.162994 220.131836 232.893478 220.719604 232.746536 221.344147 C 232.587341 221.993195 232.416031 222.629822 232.220062 223.266632 C 231.81601 224.515686 231.289383 225.642334 230.456619 226.670929 C 229.807724 227.466919 229.06076 228.091431 228.117828 228.630188 C 228.068802 228.654694 227.86058 228.764862 227.823944 228.77713 C 227.664749 228.850677 227.505554 228.924072 227.358612 228.997589 C 227.150391 229.09552 226.942154 229.181305 226.721817 229.266968 C 226.231964 229.462952 225.778885 229.695526 225.289032 229.879242 C 224.848221 230.038452 223.991089 230.258942 224.003342 230.871216 C 224.003342 231.446716 224.774826 231.667053 225.215637 231.740601 C 226.538101 231.936554 227.897339 231.740601 229.134155 231.250732 C 230.419998 230.748627 231.59552 229.940521 232.587341 228.948578 C 233.077194 229.57312 233.640579 230.148621 234.363037 230.699738 C 235.783554 231.777374 237.38765 232.658997 239.028503 233.38147 C 242.371674 234.863281 246.00856 235.622498 249.657715 235.585724 C 253.343628 235.54895 256.882599 234.704071 260.335785 233.454987 C 262.013428 232.85498 263.617676 232.083496 265.12384 231.116058 C 265.674835 230.760895 266.568726 230.234406 267.352478 229.622131 C 268.172974 230.3078 269.0914 230.871216 270.071106 231.250732 C 271.307892 231.740601 272.667145 231.936554 273.989594 231.740601 C 274.43042 231.679321 275.201904 231.446716 275.201904 230.871216 C 275.201904 230.258942 274.357025 230.038452 273.916077 229.879242 Z"/>
            <path id="path10" fill="#80e9ff" stroke="none" d="M 129.651337 370.72757 C 128.708405 376.335968 128.463547 382.066956 128.647263 387.577454 C 111.05027 393.19812 91.55545 394.128784 74.656532 386.891632 C 52.320667 377.315674 37.136158 353.118469 38.250546 328.823334 C 38.960732 313.357208 46.344833 299.238037 57.610828 289.074341 C 60.182362 286.772156 62.949867 284.665833 65.888832 282.792358 C 58.431183 298.491089 54.879944 316.308411 58.529243 333.231689 C 62.54567 351.857117 76.419975 368.866211 94.910721 373.470551 C 106.139938 376.274841 117.944519 374.462524 129.075836 370.911285 C 129.271652 370.849976 129.467621 370.788849 129.663589 370.715332 Z"/>
            <path id="path11" fill="#80e9ff" stroke="none" d="M 212.443466 306.450684 C 209.161743 325.504822 203.296082 347.485535 184.205307 356.106445 C 177.886566 358.873962 170.514725 359.706573 163.840958 357.441162 C 162.836746 357.110535 161.844925 356.681946 160.88974 356.192108 C 161.342819 355.922729 161.783646 355.653381 162.224457 355.371582 C 181.021347 343.628174 206.859573 317.006348 212.345566 306.499725 C 212.382187 306.47522 212.406693 306.462952 212.431213 306.450684 Z"/>
            <path id="path12" fill="#80e9ff" stroke="none" d="M 95.020889 222.64209 C 92.608551 224.736176 90.012497 226.744476 88.66552 228.324036 C 81.67321 236.626556 76.285286 246.288315 73.003418 256.635742 C 70.529793 264.448425 69.256355 272.640747 69.182808 280.820679 C 65.007034 283.122864 61.113037 285.914886 57.610828 289.062073 C 55.578026 274.440796 58.798611 259.084839 66.745956 246.631226 C 73.39521 236.197998 83.559074 227.687256 95.020889 222.629822 Z"/>
            <path id="path13" fill="#80e9ff" stroke="none" d="M 248.702515 346.114044 C 248.322983 353.730743 247.83313 361.175964 247.306503 368.462158 C 246.253418 382.99762 241.440994 397.080017 232.942505 408.933624 C 223.978836 421.424164 212.25975 430.571564 197.442673 434.735077 C 177.972214 440.208801 155.01181 436.118835 141.529465 421.044495 C 139.141632 418.375031 137.121094 415.436096 135.443451 412.313416 C 131.365738 404.819122 129.235031 396.234985 128.659378 387.565186 C 128.463547 382.054688 128.720657 376.323853 129.663589 370.715332 C 130.582016 365.155762 132.186096 359.731079 134.684235 354.80835 C 130.104416 366.098694 129.051315 378.858643 132.394333 390.553192 C 136.312836 404.25589 146.439941 416.244324 159.628418 421.656769 C 175.670059 428.232605 194.73645 424.595734 209.100464 414.909454 C 223.464462 405.21106 233.542526 390.148987 240.106125 374.107361 C 243.816559 365.057861 246.48616 355.641113 248.702515 346.101807 Z"/>
            <path id="path14" fill="#80e9ff" stroke="none" d="M 370.545715 387.565186 C 369.957977 396.234985 367.82724 404.819122 363.76181 412.313416 C 362.084015 415.436096 360.051361 418.375031 357.675659 421.044495 C 344.193298 436.118835 321.23288 440.208801 301.762573 434.735077 C 286.945343 430.571564 275.22641 421.411926 266.262604 408.933624 C 257.764252 397.092285 252.939575 382.99762 251.89859 368.462158 C 251.372116 361.175964 250.882263 353.718506 250.502579 346.114044 C 252.719101 355.653381 255.400803 365.057861 259.098969 374.119598 C 265.662567 390.161255 275.740784 405.223328 290.104797 414.921692 C 304.468811 424.607971 323.535034 428.244873 339.576843 421.669006 C 352.777435 416.26886 362.892273 404.268127 366.810913 390.565308 C 370.153931 378.87088 369.113098 366.110962 364.521027 354.820618 C 367.019012 359.743347 368.62323 365.16803 369.541656 370.72757 C 370.484589 376.335968 370.729431 382.066956 370.545715 387.577454 Z"/>
            <path id="path15" fill="#80e9ff" stroke="none" d="M 339.380859 354.049133 C 339.870728 354.257385 340.384949 354.428833 340.887054 354.612366 C 339.184906 355.849182 337.299042 356.81665 335.35202 357.45343 C 321.722717 361.99649 306.979034 354.232849 299.386871 342.868958 C 292.664063 333.305237 289.700592 321.965881 287.54538 310.638733 C 287.680206 310.895844 287.827148 311.152954 287.974091 311.410217 C 296.986786 327.721191 311.730316 340.7995 328.470032 349.236572 C 332.033539 351.036774 335.670441 352.640869 339.380859 354.049133 Z"/>
            <path id="path16" fill="#80e9ff" stroke="none" d="M 424.536316 386.879517 C 407.625275 394.116547 388.142578 393.185852 370.545715 387.565186 C 370.888641 378.907654 370.031525 369.686707 367.202728 361.335175 C 367.496613 361.384216 367.802734 361.433228 368.096619 361.470032 C 376.595093 362.767944 385.215881 363.367981 393.78775 363.453796 C 407.355927 363.576233 421.928162 362.008728 432.263336 353.228638 C 444.57016 342.795532 453.056244 324.782227 448.133514 309.401917 C 445.133392 300.034058 440.541321 291.278442 434.553223 283.612732 C 437.026855 285.265839 439.378052 287.102661 441.582153 289.086426 C 452.835907 299.2258 460.232117 313.34494 460.942444 328.823334 C 462.056702 353.106201 446.88443 377.315674 424.536316 386.891632 Z"/>
            <path id="path17" fill="#80e9ff" stroke="none" d="M 441.582153 289.086426 C 437.969788 285.829224 433.965485 282.98819 429.654999 280.637146 C 426.936523 279.155334 423.740479 280.269714 422.319946 282.608643 C 422.393341 277.918518 422.087189 273.216248 421.413788 268.563049 C 418.829987 250.941681 410.907166 234.165192 399.016632 220.915558 C 399.50647 220.891052 400.008575 220.964447 400.510559 221.148163 C 413.466431 225.936218 425.099701 235.095856 432.45929 246.643478 C 440.394379 259.109375 443.627228 274.453064 441.594421 289.074341 Z"/>
            <path id="path18" fill="#4159a6" stroke="none" opacity="0.17" style="mix-blend-mode:multiply" d="M 175.755859 287.825256 C 167.147202 295.344055 158.832428 303.230103 149.060501 309.181427 C 139.288574 315.120483 128.267578 319.430969 116.842537 319.810638 C 105.417343 320.177917 93.551483 316.283905 85.763329 307.895752 C 80.252838 301.956543 77.179192 293.654175 77.632271 285.645508 C 77.864861 281.420868 73.248268 278.604309 69.537979 280.637146 C 69.427666 280.71051 69.305237 280.759583 69.195068 280.832947 C 65.019295 283.135132 61.125294 285.927124 57.623085 289.074341 C 57.304688 286.796539 57.120975 284.51886 57.047432 282.228973 C 57.010807 280.992157 57.010807 279.755341 57.047432 278.518524 C 60.04768 276.142944 63.402946 274.195984 66.978554 272.824463 C 70.260422 271.563141 74.044258 270.791687 77.179192 272.371399 C 82.199837 274.906158 82.750824 281.628967 84.379578 287.004761 C 87.379677 296.935883 96.17205 304.540314 106.103172 307.52832 C 116.034294 310.528412 126.90834 309.303833 136.606873 305.642456 C 143.243866 303.132202 149.623749 299.348206 153.860809 293.654175 C 156.860901 289.637573 158.832428 284.310791 158.403854 279.241119 C 158.305954 278.12674 158.024323 277.122681 157.656891 276.16748 C 159.016129 275.420532 160.326492 274.600006 161.575409 273.706116 C 162.799973 275.175537 164.073547 276.608307 165.396027 278.004333 C 168.641113 281.494263 172.106705 284.788391 175.780365 287.837524 Z"/>
            <path id="path19" fill="#4159a6" stroke="none" opacity="0.17" style="mix-blend-mode:multiply" d="M 442.18219 280.404388 C 442.18219 283.30658 441.974121 286.208771 441.582153 289.086426 C 437.969788 285.829224 433.965485 282.98819 429.654999 280.637146 C 426.936523 279.155334 423.740479 280.269714 422.319946 282.608643 C 421.793304 283.478027 421.499451 284.506622 421.56073 285.645508 C 422.001556 293.654175 418.940155 301.944275 413.417419 307.895752 C 405.653778 316.283905 393.775482 320.177917 382.350464 319.810638 C 370.925415 319.430969 359.892151 315.132751 350.132507 309.181427 C 340.360413 303.230103 332.045807 295.344055 323.437134 287.825256 C 326.523041 285.253601 329.474274 282.522827 332.253876 279.645172 C 334.127472 277.734924 335.915283 275.738922 337.6297 273.706116 C 338.621643 274.416321 339.63797 275.077606 340.691071 275.68988 C 340.556396 276.204254 340.43396 276.718475 340.33606 277.208313 C 338.254211 287.629272 343.39743 295.307281 351.503998 301.491211 C 359.965546 307.944611 370.178436 312.512177 380.819763 312.695892 C 391.461212 312.891846 402.445435 308.213989 408.359985 299.360474 C 412.768341 292.784607 414.299042 284.26178 420.12793 278.885956 C 425.871185 273.608215 434.847107 272.873352 442.010742 276.020538 C 442.108795 277.489929 442.169922 278.934998 442.169922 280.404388 Z"/>
            <path id="path20" fill="#4159a6" stroke="none" opacity="0.17" style="mix-blend-mode:multiply" d="M 212.578156 305.630188 C 212.541382 305.899719 212.492493 306.169067 212.443466 306.450684 C 211.047455 314.569519 209.173859 323.214783 206.014557 331.137756 C 201.765381 341.815857 195.165024 351.15921 184.205307 356.094177 C 177.886566 358.861694 170.514725 359.694336 163.840958 357.428925 C 162.836746 357.098267 161.844925 356.669708 160.88974 356.179871 C 155.550705 353.424622 151.264755 348.232483 151.33815 342.01181 C 151.313644 341.632141 151.387177 341.179047 151.33815 340.823883 C 151.227982 339.819824 150.211655 339.121887 149.231949 339.20752 C 147.701263 339.489166 146.550247 340.860657 145.276672 341.717957 C 140.660065 345.293518 137.206894 349.78772 134.684235 354.783844 C 132.186096 359.706573 130.582016 365.131409 129.663589 370.690796 C 128.720657 376.299347 128.475815 382.030182 128.659378 387.54068 C 124.251007 388.948944 119.720215 390.063354 115.140388 390.822571 C 104.952011 392.524719 94.531036 392.500183 84.648941 390.136719 C 83.999893 389.977539 83.350845 389.818329 82.714203 389.646881 C 98.094536 391.067413 114.993446 385.213989 122.377403 371.719543 C 125.120544 366.674377 126.381721 360.992432 127.973701 355.469666 C 129.577789 349.946899 131.635101 344.362854 135.590393 340.211609 C 139.557938 336.072601 145.864426 333.684784 151.203476 335.778748 C 154.975189 337.248291 157.632385 340.603546 160.938766 342.942505 C 171.077972 350.081604 185.870697 346.248718 194.822113 337.676849 C 203.761414 329.10498 208.255432 317.018616 212.467987 305.36084 L 212.553635 305.544556 L 212.590408 305.61792 Z"/>
            <path id="path21" fill="#4159a6" stroke="none" opacity="0.17" style="mix-blend-mode:multiply" d="M 416.491058 389.671387 C 415.854248 389.855103 415.2052 390.014313 414.556305 390.161255 C 410.40506 391.153198 406.155884 391.740967 401.88205 391.936951 C 391.375427 392.463409 380.648315 390.773529 370.545715 387.552948 C 370.741699 382.04245 370.484589 376.311615 369.541656 370.703064 C 368.62323 365.143677 367.019012 359.718811 364.521027 354.796082 C 361.998352 349.799988 358.545166 345.305786 353.928589 341.730194 C 352.654999 340.872925 351.503998 339.501404 349.973297 339.219788 C 348.993591 339.14624 347.977264 339.84433 347.866943 340.836121 C 347.805817 341.179047 347.866943 341.632141 347.866943 342.024078 C 347.940491 348.244751 343.654541 353.424622 338.315521 356.192108 C 337.360321 356.681946 336.368347 357.110535 335.364288 357.441162 C 328.690521 359.706573 321.318695 358.873962 314.999939 356.106445 C 300.733856 349.665283 293.8396 335.766479 289.908813 321.194397 C 289.884308 321.133118 289.87204 321.096313 289.859802 321.035187 C 288.549591 316.161499 287.569885 311.214233 286.749512 306.450684 C 286.7005 306.169067 286.651459 305.899719 286.614838 305.630188 L 286.651459 305.556793 L 286.737274 305.373077 C 290.949677 317.030884 295.443848 329.117218 304.382996 337.689087 C 313.334564 346.273254 328.127136 350.093872 338.266479 342.954742 C 341.572723 340.628052 344.230042 337.272797 348.001617 335.790985 C 353.353088 333.697021 359.659424 336.084869 363.614716 340.223877 C 367.570129 344.375122 369.627319 349.959167 371.231537 355.481934 C 372.823395 361.004669 374.084717 366.686462 376.827698 371.731781 C 384.211792 385.226257 401.110718 391.079651 416.491058 389.659149 Z"/>
            <path id="path22" fill="#4159a6" stroke="none" opacity="0.27" style="mix-blend-mode:multiply" d="M 175.755859 287.825256 C 167.147202 295.344055 158.832428 303.230103 149.060501 309.181427 C 139.288574 315.120483 128.267578 319.430969 116.842537 319.810638 C 105.417343 320.177917 93.551483 316.283905 85.763329 307.895752 C 80.252838 301.956543 77.179192 293.654175 77.632271 285.645508 C 77.864861 281.420868 73.248268 278.604309 69.537979 280.637146 C 69.427666 280.71051 69.305237 280.759583 69.195068 280.832947 C 65.019295 283.135132 61.125294 285.927124 57.623085 289.074341 C 57.304688 286.796539 57.120975 284.51886 57.047432 282.228973 C 58.761837 281.077942 60.549641 280.049225 62.398727 279.118713 C 65.705116 277.465424 69.660408 276.192017 73.040192 277.710449 C 76.738365 279.375793 78.281319 283.698517 79.59153 287.54364 C 81.808044 294.045959 84.489746 300.609558 89.143112 305.679199 C 94.739265 311.81427 102.870323 315.304199 111.123817 316.161499 C 119.377304 317.030884 127.753212 315.402283 135.529251 312.499939 C 143.990829 309.340637 152.023972 304.515961 157.742554 297.523651 C 162.236725 292.013153 165.151169 285.033264 165.383911 277.992065 C 168.62886 281.481995 172.094452 284.776123 175.768112 287.825256 Z"/>
            <path id="path23" fill="#4159a6" stroke="none" opacity="0.27" style="mix-blend-mode:multiply" d="M 206.014557 331.150024 C 201.765381 341.828125 195.165024 351.171448 184.205307 356.106445 C 177.886566 358.873962 170.514725 359.706573 163.840958 357.441162 C 162.836746 357.110535 161.844925 356.681946 160.88974 356.192108 C 155.550705 353.436859 151.264755 348.244751 151.33815 342.024078 C 151.313644 341.644409 151.387177 341.191315 151.33815 340.836121 C 151.227982 339.832092 150.211655 339.133972 149.231949 339.219788 C 147.701263 339.501404 146.550247 340.872925 145.276672 341.730194 C 140.660065 345.305786 137.206894 349.799988 134.684235 354.796082 C 132.186096 359.718811 130.582016 365.143677 129.663589 370.703064 C 128.720657 376.311615 128.475815 382.04245 128.659378 387.552948 C 124.251007 388.961212 119.720215 390.075592 115.140388 390.834808 C 116.230263 389.916382 117.271103 388.91217 118.201775 387.834564 C 124.042931 381.111755 126.149124 372.050049 128.426773 363.441528 C 130.704437 354.845123 133.667908 345.807922 140.525391 340.138214 C 143.390808 337.77475 147.615616 336.146149 150.725876 338.178955 C 152.917877 339.611572 153.762741 342.342468 154.987305 344.669006 C 159.150818 352.567474 169.057571 356.326782 177.874313 354.918518 C 186.678787 353.510406 194.319992 347.742645 199.83049 340.725952 C 202.193954 337.725891 204.214493 334.493042 206.039078 331.150024 Z"/>
            <path id="path24" fill="#4159a6" stroke="none" opacity="0.27" style="mix-blend-mode:multiply" d="M 401.88205 391.949036 C 391.375427 392.475677 380.648315 390.785767 370.545715 387.565186 C 370.741699 382.054688 370.484589 376.323853 369.541656 370.715332 C 368.62323 365.155762 367.019012 359.731079 364.521027 354.80835 C 361.998352 349.812225 358.545166 345.318054 353.928589 341.74231 C 352.654999 340.885193 351.503998 339.513672 349.973297 339.232056 C 348.993591 339.158508 347.977264 339.856567 347.866943 340.848389 C 347.805817 341.191315 347.866943 341.644409 347.866943 342.036316 C 347.940491 348.257019 343.654541 353.436859 338.315521 356.204346 C 337.360321 356.694214 336.368347 357.122803 335.364288 357.45343 C 328.690521 359.718811 321.318695 358.886047 314.999939 356.118713 C 300.733856 349.677551 293.8396 335.778748 289.908813 321.206665 C 291.096588 324.868042 292.492615 328.443665 294.231537 331.872467 C 298.125549 339.550446 303.991211 346.530334 311.803864 350.154968 C 319.616547 353.792023 329.5354 353.53479 336.270447 348.146851 C 340.948334 344.399658 344.487152 338.215576 350.463013 337.713623 C 355.422516 337.29718 359.659424 341.142273 362.622894 345.12207 C 366.786407 350.730652 369.823273 357.196167 371.451874 363.980255 C 373.092896 370.801117 373.64389 378.540222 378.72583 383.389435 C 383.085144 387.552948 389.526337 388.348938 395.367493 389.806091 C 397.571747 390.357208 399.775848 391.055145 401.869934 391.961304 Z"/>
            <path id="path25" fill="#4159a6" stroke="none" opacity="0.27" style="mix-blend-mode:multiply" d="M 442.18219 280.404388 C 442.18219 283.30658 441.974121 286.208771 441.582153 289.086426 C 437.969788 285.829224 433.965485 282.98819 429.654999 280.637146 C 426.936523 279.155334 423.740479 280.269714 422.319946 282.608643 C 421.793304 283.478027 421.499451 284.506622 421.56073 285.645508 C 422.001556 293.654175 418.940155 301.944275 413.417419 307.895752 C 405.653778 316.283905 393.775482 320.177917 382.350464 319.810638 C 370.925415 319.430969 359.892151 315.132751 350.132507 309.181427 C 340.360413 303.230103 332.045807 295.344055 323.437134 287.825256 C 326.523041 285.253601 329.474274 282.522827 332.253876 279.645172 C 333.049866 286.257813 336.233673 292.662201 340.740112 297.658325 C 347.107727 304.736298 355.826569 309.328369 364.802643 312.54895 C 373.876495 315.806335 383.856628 317.7901 393.138855 315.194031 C 403.57193 312.279602 411.911224 303.683197 415.915558 293.617371 C 417.568665 289.466125 418.658539 284.874054 421.793304 281.677979 C 424.928253 278.494171 429.691772 277.269592 434.124664 277.771576 C 436.953308 278.102234 439.64743 279.057404 442.169922 280.404388 Z"/>
            <path id="path26" fill="#ffffff" stroke="none" opacity="0.76" style="mix-blend-mode:screen" d="M 211.059723 313.712372 C 211.182144 318.928833 209.296432 324.598541 208.035095 329.190613 C 206.651352 334.199158 204.839035 339.109619 202.37767 343.701721 C 197.063141 353.608337 188.319794 362.118896 177.433487 364.984497 C 166.571686 367.849915 153.664841 363.968018 147.823685 354.367554 C 145.643936 350.779541 144.554214 346.628418 144.419388 342.428131 C 144.701157 342.195374 144.982788 341.962769 145.276672 341.74231 C 146.550247 340.885193 147.701263 339.513672 149.231949 339.232056 C 150.211655 339.158508 151.227982 339.856567 151.33815 340.848389 C 151.399445 341.191315 151.33815 341.644409 151.33815 342.036316 C 151.264755 348.257019 155.550705 353.436859 160.88974 356.204346 C 161.844925 356.694214 162.836746 357.122803 163.840958 357.45343 C 170.514725 359.718811 177.886566 358.886047 184.205307 356.118713 C 195.165024 351.171448 201.765381 341.828125 206.014557 331.162292 C 208.255432 325.553711 209.847412 319.602417 211.059723 313.724487 Z"/>
            <path id="path27" fill="#4159a6" stroke="none" opacity="0.17" style="mix-blend-mode:multiply" d="M 212.578156 305.630188 C 212.541382 305.899719 212.492493 306.169067 212.443466 306.450684 C 212.039413 308.838501 211.574081 311.263245 211.059723 313.700134 C 211.035202 312.536682 210.912781 311.397949 210.65567 310.295837 C 211.280197 308.654968 211.867966 307.013947 212.455734 305.373077 L 212.541382 305.556793 L 212.578156 305.630188 Z"/>
            <path id="path28" fill="#ffffff" stroke="none" opacity="0.76" style="mix-blend-mode:screen" d="M 356.659332 344.093506 C 354.589752 352.151001 349.165039 359.388184 341.780945 363.294586 C 332.033539 368.462158 319.371674 367.568268 310.444641 361.090332 C 303.709564 356.204346 299.350098 348.734619 295.651917 341.289215 C 290.631256 331.162292 286.357574 320.165649 287.153564 308.899811 L 287.178101 308.875305 C 287.912781 312.879608 288.769928 316.99408 289.859802 321.047424 C 289.859802 321.108582 289.884308 321.145355 289.908813 321.206665 C 293.8396 335.778748 300.733856 349.677551 314.999939 356.118713 C 321.318695 358.886047 328.690521 359.718811 335.364288 357.45343 C 336.368347 357.122803 337.360321 356.694214 338.315521 356.204346 C 343.654541 353.449097 347.940491 348.257019 347.866943 342.036316 C 347.891449 341.656647 347.818054 341.203552 347.866943 340.848389 C 347.977264 339.84433 348.993591 339.14624 349.973297 339.232056 C 351.503998 339.513672 352.654999 340.885193 353.928589 341.74231 C 354.895874 342.48941 355.814301 343.27301 356.659332 344.093506 Z"/>
            <path id="path29" fill="#4159a6" stroke="none" opacity="0.17" style="mix-blend-mode:multiply" d="M 286.737274 305.385345 C 287.092285 306.377136 287.459717 307.36911 287.81488 308.373169 L 287.178101 308.863037 C 287.031158 308.054932 286.884216 307.258942 286.749512 306.450684 C 286.7005 306.169067 286.651459 305.899719 286.614838 305.630188 L 286.651459 305.556793 L 286.737274 305.373077 Z"/>
            <path id="path30" fill="#ffffff" stroke="none" opacity="0.76" style="mix-blend-mode:screen" d="M 175.559891 288.253845 C 167.747223 299.311584 157.47319 308.630432 145.717484 315.328735 C 133.043381 322.553619 118.165001 326.766022 103.764229 324.439331 C 89.351196 322.112793 75.734146 312.402008 71.16658 298.5401 C 69.182808 292.490723 69.195068 285.425049 72.146286 279.963562 L 72.146286 279.963562 C 75.097359 279.963562 77.803726 282.388184 77.632271 285.645508 C 77.179192 293.654175 80.252838 301.944275 85.763329 307.895752 C 93.539223 316.283905 105.40509 320.177917 116.842537 319.810638 C 128.267578 319.430969 139.288574 315.132751 149.060501 309.181427 C 158.636597 303.340271 166.828796 295.650208 175.266006 288.266083 L 175.559891 288.266083 Z"/>
            <path id="path31" fill="#ffffff" stroke="none" opacity="0.76" style="mix-blend-mode:screen" d="M 424.805817 296.250214 C 422.919952 306.658936 415.315521 315.536926 405.874115 320.312592 C 396.445099 325.088379 385.387329 326.043579 374.929718 324.427246 C 354.712311 321.292297 336.282715 308.312042 326.388367 290.433594 C 333.968292 297.131836 341.474792 303.915955 350.120239 309.181427 C 359.879913 315.120483 370.913147 319.430969 382.338196 319.810638 C 393.763397 320.177917 405.629242 316.283905 413.405151 307.895752 C 418.927887 301.956543 421.989288 293.654175 421.548462 285.645508 C 421.438293 283.649475 422.405609 281.971863 423.850647 280.967651 C 425.271149 285.95166 425.724243 291.143768 424.793579 296.250214 Z"/>
            <path id="path32" fill="#ffffff" stroke="none" opacity="0.37" style="mix-blend-mode:screen" d="M 89.412483 345.269043 C 91.653366 345.526306 94.176018 345.379333 95.804619 343.81189 C 97.151604 342.513794 97.58017 340.48114 97.335312 338.632019 C 97.090462 336.782959 96.257698 335.056274 95.3638 333.415405 C 93.514709 329.974365 91.347221 326.61908 88.396004 324.059814 C 85.444939 321.500519 81.599815 319.773865 77.705666 320.00647 C 74.619766 320.190186 70.566566 322.01474 69.305237 325.063873 C 68.080681 328.027344 70.566566 332.080688 72.244202 334.566406 C 76.126091 340.309662 82.4692 344.460938 89.400223 345.269043 Z"/>
            <path id="path33" fill="#ffffff" stroke="none" opacity="0.37" style="mix-blend-mode:screen" d="M 121.054939 341.570984 C 123.185646 339.538208 123.871475 335.889038 122.059158 333.562378 C 120.369263 331.394867 117.283363 330.990845 114.528114 330.941772 C 110.156364 330.880493 100.29879 333.941895 104.596992 340.16272 C 107.756287 344.730286 117.185303 345.232422 121.042679 341.558716 Z"/>
            <path id="path34" fill="#ffffff" stroke="none" opacity="0.37" style="mix-blend-mode:screen" d="M 166.167496 390.602051 C 170.294235 391.251129 174.665985 391.422577 178.486588 389.744934 C 182.30719 388.067322 185.393097 384.11203 184.890991 379.973022 C 184.52356 376.96051 182.356216 374.364471 179.723404 372.870544 C 177.078323 371.36438 174.004669 370.801117 170.980057 370.519348 C 166.902344 370.139801 162.628662 370.286743 158.967102 372.09906 C 155.354736 373.886871 151.081039 379.005554 152.84433 383.303772 C 154.791489 388.042786 161.697983 389.904144 166.167496 390.602051 Z"/>
            <path id="path35" fill="#ffffff" stroke="none" opacity="0.37" style="mix-blend-mode:screen" d="M 191.834259 374.548157 C 192.82608 376.740173 195.079361 378.246338 197.454926 378.55249 C 199.83049 378.858643 202.304123 378.038116 204.165466 376.519684 C 205.647125 375.331909 206.798294 373.678772 207.190079 371.817444 C 207.582016 369.956116 207.177826 367.898926 205.916641 366.466125 C 204.581772 364.947693 202.487839 364.286377 200.479538 364.127197 C 195.201797 363.698639 189.274841 368.92749 191.822006 374.548157 Z"/>
            <path id="path36" fill="#ffffff" stroke="none" opacity="0.37" style="mix-blend-mode:screen" d="M 324.19635 372.31955 C 327.894531 372.037933 331.592712 373.05426 335.03363 374.450256 C 337.568542 375.478851 340.152344 376.825836 341.536102 379.177032 C 343.299377 382.152618 342.662598 386.059021 340.899292 389.034607 C 337.237885 395.230927 328.714905 398.010681 322.102417 395.181885 C 316.824524 392.916504 313.224396 387.259064 313.089722 381.552582 C 312.954865 375.980957 319.163452 372.711334 324.19635 372.331818 Z"/>
            <path id="path37" fill="#ffffff" stroke="none" opacity="0.37" style="mix-blend-mode:screen" d="M 298.921539 362.804749 C 301.444183 363.490417 303.672791 365.057861 305.411713 367.004883 C 306.74646 368.498962 307.86084 370.384644 307.689392 372.380676 C 307.517914 374.450256 305.962708 376.201294 304.150391 377.217773 C 301.284973 378.834106 297.611328 378.944275 294.660095 377.487122 C 291.708893 376.029846 289.55365 373.066528 289.088318 369.796875 C 288.280212 364.078308 294.121216 361.482117 298.921539 362.79248 Z"/>
            <path id="path38" fill="#ffffff" stroke="none" opacity="0.37" style="mix-blend-mode:screen" d="M 416.809448 319.210632 C 419.49115 317.839111 422.626068 317.165558 425.552795 317.851379 C 428.479492 318.549316 431.136688 320.790192 431.810242 323.716888 C 432.300079 325.859863 431.724579 328.14978 430.561157 330.023376 C 429.397919 331.884705 427.708008 333.366394 425.883453 334.60321 C 423.348541 336.317627 420.44635 337.61554 417.397217 337.725891 C 414.348083 337.83606 411.13974 336.623749 409.376465 334.113342 C 405.029236 327.904907 411.77655 321.757629 416.809448 319.210632 Z"/>
            <path id="path39" fill="#ffffff" stroke="none" opacity="0.37" style="mix-blend-mode:screen" d="M 397.694153 333.133789 C 399.298248 334.407227 400.633118 336.256317 400.55957 338.301392 C 400.498444 339.770782 399.702454 341.142273 398.600311 342.121979 C 397.510437 343.101685 396.138947 343.738342 394.755188 344.203674 C 392.232697 345.060944 389.489563 345.452759 386.893494 344.840454 C 384.297455 344.215942 381.897369 342.477173 380.917664 340.00354 C 376.913513 329.937744 392.465302 328.970276 397.706421 333.133789 Z"/>
            <path id="path40" fill="#ffffff" stroke="none" opacity="0.37" style="mix-blend-mode:screen" d="M 399.641174 263.089172 C 401.000397 262.109619 402.555603 261.289124 404.233246 261.276855 C 407.037537 261.252319 409.38858 263.554504 410.56424 266.101685 C 411.972504 269.163055 412.143829 272.763184 411.017334 275.946991 C 409.890686 279.118713 407.502869 281.824921 404.478241 283.318848 C 400.78006 285.143433 395.992004 284.99646 392.844971 282.327026 C 389.954895 279.87793 388.938568 275.102112 391.265259 271.991699 C 393.518402 268.967102 396.555267 265.317932 399.628906 263.10144 Z"/>
            <path id="path41" fill="#ffffff" stroke="none" opacity="0.37" style="mix-blend-mode:screen" d="M 382.497406 282.878021 C 385.803772 283.245422 388.914063 286.000671 388.98761 289.331451 C 389.036469 291.805054 387.49353 294.082703 385.583282 295.650208 C 383.403564 297.437988 380.574921 298.5401 377.758362 298.295105 C 374.954102 298.038025 372.223358 296.286835 371.182526 293.666412 C 368.721161 287.494629 377.195129 282.278015 382.497406 282.878021 Z"/>
            <path id="path42" fill="#ffffff" stroke="none" opacity="0.37" style="mix-blend-mode:screen" d="M 88.726662 271.440735 C 89.363449 274.5755 91.102371 277.612366 93.882133 279.216614 C 94.996376 279.853394 96.392387 280.257446 97.543541 279.694214 C 98.633415 279.167572 99.184402 277.967529 99.588455 276.828796 C 100.408958 274.502106 100.911072 272.065247 101.09478 269.603882 C 101.278343 267.142517 101.106888 264.595337 100.066048 262.36673 C 99.012947 260.137939 96.95578 258.276733 94.506668 257.970612 C 87.600166 257.101074 87.832756 267.06897 88.738914 271.452972 Z"/>
            <path id="path43" fill="#ffffff" stroke="none" opacity="0.37" style="mix-blend-mode:screen" d="M 106.409309 292.796875 C 108.711479 294.156128 111.442207 294.670471 114.123917 294.670471 C 115.226044 294.670471 116.389458 294.572571 117.307877 293.960297 C 118.29969 293.286743 118.85083 292.08667 118.911964 290.886658 C 118.985512 289.686615 118.630341 288.510925 118.128235 287.421082 C 116.462852 283.820953 113.046303 281.077942 109.176811 280.232941 C 107.327721 279.828888 105.270409 279.87793 103.715195 280.967651 C 99.123116 284.176117 102.882584 290.71521 106.421562 292.796875 Z"/>
            <path id="path44" fill="#ffffff" stroke="none" opacity="0.37" style="mix-blend-mode:screen" d="M 188.870789 117.036499 C 186.348282 121.751129 184.756302 127.310516 186.20134 132.466003 C 187.829941 138.307007 193.205765 142.580688 199.059174 144.172668 C 204.91243 145.764648 211.157623 145.0177 217.011032 143.437958 C 224.848221 141.331757 232.477173 137.621338 237.840729 131.523071 C 243.204285 125.424805 245.959534 116.693726 243.571701 108.929932 C 240.093857 97.639587 227.174896 94.308838 216.741669 96.476318 C 205.096146 98.900909 194.515976 106.517609 188.883041 117.036499 Z"/>
            <path id="path45" fill="#ffffff" stroke="none" opacity="0.37" style="mix-blend-mode:screen" d="M 242.616516 143.6828 C 244.196243 146.303375 247.392319 147.589233 250.453705 147.674866 C 254.947723 147.797302 259.539795 145.458496 261.719543 141.51532 C 263.899292 137.572296 263.299255 132.171967 260.029663 129.086212 C 251.470032 121.004028 236.93457 134.229279 242.616516 143.6828 Z"/>
            <path id="path46" fill="#4159a6" stroke="none" opacity="0.17" style="mix-blend-mode:multiply" d="M 342.234039 263.187225 C 364.606659 228.997589 363.908722 182.231781 343.899414 146.609528 C 327.306763 117.061005 298.750061 95.288391 266.630035 84.144958 C 271.026123 84.524658 275.373352 85.136932 279.683807 86.079865 C 281.018555 86.373749 282.365509 86.704254 283.688141 87.071655 C 324.110718 98.215088 356.438843 133.947662 364.300537 175.117188 C 370.876373 209.502625 360.443146 246.36171 338.033875 273.191742 C 337.984863 269.726318 340.238007 266.248596 342.234039 263.187225 Z"/>
            <path id="path47" fill="#ffffff" stroke="none" opacity="0.37" style="mix-blend-mode:screen" d="M 215.419205 87.096191 C 197.063141 94.492554 180.507126 106.370667 167.955444 121.677612 C 145.803146 148.727966 136.631241 185.929962 143.648056 220.16861 C 148.264511 242.663666 159.285507 263.211609 170.600372 283.25769 C 167.404312 280.257446 164.3797 277.049133 161.563156 273.693848 C 138.872269 246.814789 128.267578 209.723114 134.892471 175.117188 C 142.754013 133.972168 175.045517 98.276367 215.419205 87.096191 Z"/>
        </g>
        <g id="g1">
            <linearGradient id="linearGradient4" x1="368.03542" y1="104.288908" x2="353.377498" y2="72.046379" gradientUnits="userSpaceOnUse">
                <stop offset="1e-05" stop-color="#55e5fa" stop-opacity="1"/>
                <stop offset="1" stop-color="#fe71a5" stop-opacity="1"/>
            </linearGradient>
            <path id="path48" fill="url(#linearGradient4)" stroke="none" opacity="0.37" d="M 383.90567 86.973755 C 383.90567 100.076447 373.276459 110.705627 360.16153 110.705627 C 357.051117 110.705627 354.087769 110.105621 351.357056 109.015747 C 349.83847 108.41571 348.405823 107.656494 347.058838 106.762451 C 346.899658 106.676788 346.764954 106.578888 346.618042 106.480835 C 346.397552 106.321625 346.177063 106.174683 345.968964 106.003235 C 345.307678 105.501282 344.65863 104.97464 344.058594 104.423676 C 344.02182 104.399139 343.997467 104.362366 343.960693 104.325592 C 342.674835 103.137817 341.523834 101.790833 340.531891 100.333557 C 337.923553 96.525208 336.417389 91.920868 336.417389 86.973755 C 336.417389 77.213928 342.307556 68.825775 350.708008 65.176636 C 353.610199 63.915283 356.794006 63.229614 360.16153 63.229614 C 362.243195 63.229614 364.263763 63.498993 366.186401 64.001099 C 366.186401 64.001099 366.19457 64.005188 366.210907 64.013367 C 374.023407 66.046021 380.244263 71.985229 382.742401 79.601898 C 383.501617 81.928589 383.90567 84.402222 383.90567 86.973755 Z"/>
            <path id="path49" fill="#4159a6" stroke="none" opacity="0.17" style="mix-blend-mode:multiply" d="M 382.742401 79.601898 C 380.2565 71.985229 374.011322 66.046021 366.210907 64.013367 C 366.210907 64.013367 366.202738 64.013367 366.186401 64.013367 C 364.263763 63.523499 362.23111 63.241882 360.149261 63.241882 C 359.341034 63.241882 358.532928 63.290771 357.72467 63.364288 C 357.357239 63.401062 357.002228 63.437714 356.647064 63.498993 C 356.573517 63.498993 356.51239 63.498993 356.45108 63.523499 C 355.728638 63.633667 355.030701 63.780609 354.332642 63.952057 C 353.916321 64.062225 353.500031 64.172546 353.083557 64.30722 C 352.716278 64.417389 352.348846 64.539825 351.981445 64.6745 C 351.58963 64.821442 351.185608 64.980652 350.79364 65.1521 C 350.487518 65.274536 350.205902 65.409363 349.912018 65.544037 L 349.83847 65.580658 C 349.495697 65.752136 349.152802 65.923584 348.809875 66.1073 C 348.479218 66.291016 348.148712 66.474731 347.818054 66.670532 C 347.487427 66.878784 347.181274 67.074738 346.862885 67.295074 C 346.544495 67.503296 346.238342 67.735901 345.93219 67.95639 C 343.483093 69.780945 341.413666 72.058624 339.833954 74.666931 C 339.442017 75.315979 339.074738 75.98938 338.74408 76.687469 C 338.572632 77.030365 338.413422 77.385406 338.266479 77.74057 C 338.107269 78.095734 337.972595 78.450745 337.837921 78.818176 C 337.703247 79.17334 337.580811 79.540619 337.47049 79.908051 C 337.384827 80.214203 337.286774 80.520325 337.213379 80.814209 C 337.1521 80.973419 337.127716 81.144867 337.078705 81.304047 C 337.005157 81.585693 336.944 81.879578 336.882721 82.173462 L 336.882721 82.197968 C 336.809326 82.491852 336.760315 82.785736 336.711273 83.091858 C 336.686768 83.251068 336.662384 83.410248 336.637878 83.569458 C 336.576599 83.900116 336.552063 84.218506 336.515442 84.549164 C 336.478668 84.891937 336.441895 85.234833 336.441895 85.577759 C 336.405121 86.055328 336.392883 86.508423 336.392883 86.986023 C 336.392883 91.933105 337.899048 96.537445 340.507355 100.333557 C 340.75235 100.688721 341.00946 101.056152 341.278839 101.398895 C 341.536102 101.741821 341.817719 102.084717 342.099335 102.427643 C 342.417725 102.782654 342.723877 103.137817 343.054535 103.480743 C 343.323883 103.76236 343.617767 104.043976 343.911652 104.325592 C 343.948425 104.350128 343.972961 104.374634 343.985199 104.399139 C 344.08313 104.49707 344.193298 104.595123 344.303589 104.693024 C 344.511688 104.87674 344.732178 105.060455 344.952515 105.244019 C 345.270905 105.51355 345.589294 105.77063 345.93219 106.015503 C 346.287384 106.272766 346.654663 106.529877 347.022064 106.774719 C 347.36499 107.007446 347.695496 107.227783 348.050659 107.411499 C 348.332275 107.582947 348.613922 107.742157 348.907928 107.901367 C 349.201813 108.060547 349.495697 108.219757 349.801849 108.354431 C 350.022186 108.4646 350.267181 108.574921 350.499756 108.685089 C 350.769135 108.807526 351.038666 108.917694 351.320282 109.040253 C 354.050995 110.129974 357.014496 110.730164 360.124756 110.730164 C 373.239838 110.730164 383.868896 100.100952 383.868896 87.010376 C 383.868896 84.426575 383.464844 81.953125 382.705627 79.638672 Z M 340.005402 95.533386 C 337.164337 88.553345 337.972595 80.128387 342.283051 73.93222 C 344.327972 70.993256 347.156769 68.605438 350.352844 67.013458 C 356.291901 64.037872 361.594299 64.294983 367.239502 67.576691 C 372.382568 70.540192 376.472534 75.413879 378.174683 81.120361 C 380.4646 88.822845 378.211456 97.774261 372.296906 103.199097 C 366.39447 108.636047 357.075623 110.117859 349.89975 106.505341 C 345.405579 104.23996 341.915619 100.186615 340.005402 95.533386 Z"/>
            <path id="path50" fill="#4159a6" stroke="none" opacity="0.13" style="mix-blend-mode:multiply" d="M 383.90567 86.973755 C 383.90567 100.076447 373.276459 110.705627 360.16153 110.705627 C 357.051117 110.705627 354.087769 110.105621 351.357056 109.015747 C 349.83847 108.41571 348.405823 107.656494 347.058838 106.762451 C 354.259247 111.391296 364.312775 111.391296 371.47641 106.578888 C 379.485046 101.190826 383.281128 90.32901 380.550385 81.083588 C 377.819672 71.826019 368.868103 64.797089 359.243103 64.160309 C 356.35318 63.964325 353.463257 64.343994 350.720245 65.188873 C 353.622437 63.927551 356.806244 63.241882 360.173798 63.241882 C 362.255463 63.241882 364.276001 63.51123 366.198639 64.013367 C 366.198639 64.013367 366.206767 64.017446 366.223022 64.025604 C 374.035675 66.058258 380.2565 71.997467 382.754517 79.614166 C 383.513733 81.940857 383.917908 84.414337 383.917908 86.986023 Z"/>
            <path id="path51" fill="#ffffff" stroke="none" opacity="0.84" style="mix-blend-mode:screen" d="M 344.585236 74.201569 C 342.368713 77.458954 341.474792 81.597931 342.136108 85.479675 C 342.307556 86.471649 342.711609 87.610535 343.691315 87.892181 C 345.001526 88.271698 346.079132 86.851318 346.654663 85.614532 C 348.552765 81.54892 350.009918 76.932312 353.65921 74.324005 C 354.589752 73.662842 355.643005 73.148499 356.475616 72.352509 C 359.402313 69.560486 356.279633 66.854248 353.242767 67.858459 C 349.801849 68.997223 346.630127 71.18924 344.585236 74.201569 Z"/>
            <path id="path52" fill="#ffffff" stroke="none" opacity="0.84" style="mix-blend-mode:screen" d="M 347.793549 101.876495 C 348.62616 102.243927 349.58136 102.464417 350.463013 102.231659 C 351.883514 101.864227 352.814209 100.43161 353.083557 98.986572 C 353.512115 96.684387 352.483551 94.174133 350.561066 92.839264 C 348.430359 91.345337 344.070862 91.051483 343.250488 94.186401 C 342.454498 97.223267 345.172974 100.725494 347.805817 101.876495 Z"/>
            <path id="path53" fill="#ffffff" stroke="none" opacity="0.84" style="mix-blend-mode:screen" d="M 377.513519 85.345001 C 377.415466 84.451111 377.121582 83.949005 376.631714 83.226532 C 376.362366 82.82251 375.358307 82.908142 375.358307 83.483795 C 375.358307 84.243011 375.321533 84.953217 375.382813 85.724701 C 375.431702 86.422607 375.701202 86.961487 375.786865 87.634918 C 375.909271 88.541077 375.664429 89.37384 375.407166 90.243225 C 375.23587 90.843231 375.125549 91.565826 374.880707 92.141357 C 374.599091 92.814911 374.035675 93.402679 373.717285 94.07608 C 373.460175 94.602722 373.252106 95.165955 373.019348 95.704834 C 372.443848 97.051819 371.684631 98.117188 370.717194 99.207062 C 369.002777 101.129547 366.810913 102.317322 364.374084 103.076691 C 362.059631 103.799133 359.634888 104.619476 357.222565 104.01947 C 356.585785 103.86026 355.691864 104.374634 356.120422 105.072571 C 357.62677 107.509552 362.108521 105.92984 364.276001 105.268524 C 367.153687 104.386902 370.068146 103.186859 372.11319 100.884674 C 373.129517 99.733521 373.64389 98.374298 374.256165 96.99054 C 374.868439 95.619049 375.333771 94.345612 375.419434 92.851532 C 375.468475 92.006653 375.909271 91.210663 376.142029 90.390167 C 376.386871 89.484009 376.533813 88.602356 376.913513 87.745239 C 377.305298 86.863434 377.599182 86.349213 377.489014 85.332733 Z"/>
        </g>
        <g id="g2">
            <linearGradient id="linearGradient5" x1="392.93062" y1="147.405484" x2="382.77906" y2="125.069604" gradientUnits="userSpaceOnUse">
                <stop offset="1e-05" stop-color="#55e5fa" stop-opacity="1"/>
                <stop offset="1" stop-color="#fe71a5" stop-opacity="1"/>
            </linearGradient>
            <path id="path54" fill="url(#linearGradient5)" stroke="none" opacity="0.37" d="M 403.927094 135.417053 C 403.927094 144.491058 396.567505 151.850647 387.481415 151.850647 C 385.326202 151.850647 383.26886 151.434326 381.382996 150.67511 C 380.329895 150.258667 379.338104 149.732178 378.40741 149.107666 C 378.297241 149.046356 378.199188 148.985229 378.101288 148.911682 C 377.954346 148.801514 377.795135 148.703461 377.648193 148.581024 C 377.182861 148.238129 376.742035 147.87085 376.325592 147.49115 C 376.301239 147.478912 376.276703 147.442291 376.252197 147.417755 C 375.358307 146.59726 374.562317 145.654327 373.876495 144.650269 C 372.076416 142.017426 371.023315 138.821381 371.023315 135.392548 C 371.023315 128.633148 375.101044 122.828613 380.929932 120.293854 C 382.938202 119.424469 385.142487 118.946869 387.469147 118.946869 C 388.901794 118.946869 390.310059 119.130585 391.644775 119.485596 C 391.644775 119.485596 391.648865 119.485596 391.657043 119.485596 C 397.069641 120.89386 401.380096 125.008362 403.106598 130.286255 C 403.633209 131.89035 403.914856 133.604736 403.914856 135.392548 Z"/>
            <path id="path55" fill="#4159a6" stroke="none" opacity="0.17" style="mix-blend-mode:multiply" d="M 403.118866 130.31076 C 401.392334 125.045135 397.081879 120.918396 391.669312 119.510101 L 391.669312 119.510101 C 390.334564 119.154938 388.938568 118.971375 387.49353 118.971375 C 385.17926 118.971375 382.974976 119.46109 380.991211 120.306091 C 380.991211 120.306091 380.966705 120.306091 380.954437 120.306091 C 380.709595 120.41626 380.4646 120.526581 380.219727 120.649017 C 380.023773 120.73468 379.840057 120.844849 379.656494 120.942902 C 379.423737 121.065308 379.178894 121.200012 378.958405 121.334686 C 378.762604 121.457123 378.56662 121.579681 378.370636 121.714386 C 377.905304 122.00824 377.464478 122.338898 377.035919 122.706177 C 376.87674 122.828613 376.729797 122.951172 376.582855 123.098114 C 376.49704 123.159271 376.411407 123.232819 376.33786 123.306213 C 376.203156 123.428772 376.068481 123.551208 375.946045 123.673615 C 375.407166 124.200256 374.905212 124.763489 374.452148 125.375793 C 374.243896 125.632874 374.060181 125.902252 373.86438 126.184021 C 373.558228 126.624847 373.288727 127.077942 373.043854 127.543274 C 372.90918 127.763611 372.798859 128.008606 372.676453 128.253448 C 372.456116 128.731049 372.235626 129.220886 372.05191 129.72287 C 371.880463 130.175934 371.733521 130.629181 371.611084 131.09436 C 371.586578 131.180145 371.562195 131.278076 371.537689 131.376129 C 371.47641 131.596466 371.427368 131.829193 371.378479 132.061798 C 371.353973 132.135345 371.341705 132.196472 371.329468 132.27002 C 371.194763 133.00473 371.096863 133.739441 371.060089 134.510895 C 371.060089 134.792542 371.035583 135.074158 371.035583 135.368195 C 371.035583 138.796844 372.088684 141.980652 373.888733 144.613495 C 374.084717 144.895111 374.28067 145.176727 374.501007 145.43399 C 374.586823 145.556427 374.684723 145.666595 374.782776 145.789001 C 374.990875 146.034027 375.186829 146.27887 375.407166 146.511597 C 375.676697 146.805481 375.958313 147.099365 376.264465 147.380981 C 376.925751 148.005524 377.648193 148.568787 378.419678 149.058624 C 378.652283 149.217834 378.897278 149.364777 379.129883 149.511719 C 379.264557 149.585266 379.386963 149.670898 379.52182 149.732178 C 379.729889 149.854614 379.962646 149.964783 380.182953 150.074951 C 380.231995 150.099457 380.268768 150.123993 380.317657 150.148499 C 380.660553 150.319946 381.027985 150.479156 381.382996 150.626099 C 383.26886 151.385315 385.326202 151.801605 387.481415 151.801605 C 396.567505 151.801605 403.927094 144.454285 403.927094 135.38031 C 403.927094 133.592499 403.633209 131.878082 403.118866 130.273987 Z M 373.521454 141.344025 C 371.549957 136.519196 372.11319 130.665802 375.101044 126.379852 C 376.521576 124.347198 378.468567 122.693939 380.697327 121.591949 C 384.811829 119.534637 388.473236 119.706085 392.379639 121.971466 C 395.942993 124.016541 398.77179 127.396332 399.959564 131.363861 C 401.539276 136.690643 399.98407 142.899078 395.881836 146.658539 C 391.791718 150.417877 385.33844 151.45871 380.378937 148.960724 C 377.256256 147.380981 374.856171 144.576721 373.521454 141.344025 Z"/>
            <path id="path56" fill="#4159a6" stroke="none" opacity="0.13" style="mix-blend-mode:multiply" d="M 403.927094 135.417053 C 403.927094 144.491058 396.567505 151.850647 387.481415 151.850647 C 385.326202 151.850647 383.26886 151.434326 381.382996 150.67511 C 380.329895 150.258667 379.338104 149.732178 378.40741 149.107666 C 383.403564 152.315979 390.3591 152.315979 395.318451 148.985229 C 400.865723 145.250275 403.498535 137.731506 401.600433 131.327087 C 399.702454 124.922699 393.506134 120.048981 386.844635 119.608185 C 384.848602 119.473328 382.840302 119.730591 380.9422 120.318359 C 382.95047 119.448975 385.154724 118.971375 387.481415 118.971375 C 388.914063 118.971375 390.322327 119.154938 391.657043 119.510101 C 391.657043 119.510101 391.661133 119.510101 391.669312 119.510101 C 397.081879 120.918396 401.392334 125.032867 403.118866 130.31076 C 403.645477 131.914856 403.927094 133.629272 403.927094 135.417053 Z"/>
            <path id="path57" fill="#ffffff" stroke="none" opacity="0.84" style="mix-blend-mode:screen" d="M 376.693024 126.563568 C 375.162323 128.816711 374.537781 131.682251 374.990875 134.376221 C 375.113281 135.062042 375.395081 135.85788 376.068481 136.053864 C 376.97464 136.323242 377.721588 135.331421 378.125793 134.474152 C 379.436005 131.657745 380.452332 128.46167 382.974976 126.649353 C 383.624054 126.184021 384.346497 125.828857 384.921997 125.289978 C 386.942535 123.355225 384.787292 121.481628 382.681122 122.179718 C 380.305389 122.96344 378.101288 124.494141 376.693024 126.563568 Z"/>
            <path id="path58" fill="#ffffff" stroke="none" opacity="0.84" style="mix-blend-mode:screen" d="M 378.909546 145.740143 C 379.485046 145.997253 380.14621 146.144196 380.758484 145.984985 C 381.73819 145.727875 382.387238 144.735901 382.570953 143.74411 C 382.864807 142.15213 382.15448 140.413361 380.819763 139.482666 C 379.338104 138.453949 376.325592 138.24585 375.762329 140.413361 C 375.211365 142.519531 377.084808 144.944153 378.909546 145.740143 Z"/>
            <path id="path59" fill="#ffffff" stroke="none" opacity="0.84" style="mix-blend-mode:screen" d="M 399.50647 134.27832 C 399.44519 133.666046 399.237122 133.310883 398.894196 132.808746 C 398.71048 132.52713 398.012573 132.588409 398.012573 132.980225 C 398.012573 133.506836 397.988037 133.996704 398.024811 134.535431 C 398.061432 135.013031 398.245148 135.392548 398.306427 135.85788 C 398.39209 136.482422 398.220642 137.07019 398.049316 137.670349 C 397.926758 138.08667 397.853363 138.588776 397.681915 138.98056 C 397.485931 139.445892 397.094147 139.849945 396.873657 140.315277 C 396.702209 140.682709 396.555267 141.062256 396.396057 141.441925 C 395.992004 142.37262 395.477661 143.1073 394.80423 143.866516 C 393.616302 145.201263 392.09787 146.021759 390.407959 146.54837 C 388.803894 147.050354 387.126251 147.613739 385.460876 147.197266 C 385.02005 147.087097 384.395508 147.442291 384.70166 147.931976 C 385.742493 149.621887 388.852905 148.519897 390.346832 148.066803 C 392.330597 147.454529 394.363403 146.621765 395.771515 145.029785 C 396.469604 144.233948 396.824768 143.291016 397.253326 142.335846 C 397.681915 141.380646 398.000305 140.498993 398.061432 139.470428 C 398.098206 138.88266 398.404358 138.331512 398.563538 137.76828 C 398.735016 137.143738 398.832916 136.531464 399.102417 135.931427 C 399.371796 135.319153 399.580017 134.963989 399.50647 134.266052 Z"/>
        </g>
    </g>
</svg>
