<?xml version="1.0" encoding="UTF-8"?>
<!-- Generated by Pixelmator Pro 3.6.14 -->
<svg width="500" height="500" viewBox="0 0 500 500" xmlns="http://www.w3.org/2000/svg">
    <g id="Group-copy">
        <path id="Path" fill="#eef5ff" stroke="none" d="M 387.100861 165.275116 C 386.045105 173.515289 383.000763 181.308838 378.590149 188.344604 C 376.100098 192.322815 373.164093 196.056915 369.930786 199.507233 C 366.859344 202.76828 363.517029 205.744904 359.971893 208.437469 C 355.601593 211.75235 350.96106 214.837341 346.117065 217.651794 C 343.722137 219.072205 341.273041 220.398499 338.796875 221.670288 C 330.367432 226.013519 321.518463 229.558319 312.642395 232.169922 C 307.582367 233.644531 302.508423 234.916656 297.393555 236.01236 C 265.949127 242.750519 233.421875 242.750519 201.990646 236.01236 C 196.889648 234.916656 191.801849 233.644531 186.75502 232.169922 C 170.004486 227.258209 153.348419 218.977753 139.439392 208.437469 C 135.894257 205.744904 132.538742 202.76828 129.480515 199.507233 C 120.496765 189.98175 113.947578 178.183228 112.310448 165.275116 C 110.457275 150.743439 114.840797 136.090179 121.092026 122.843811 C 122.133896 120.624634 123.229942 118.446411 124.379501 116.308502 C 138.194702 90.506165 159.762161 69.087341 185.253326 54.663666 C 187.093277 53.622131 188.947113 52.607361 190.828033 51.646423 C 205.576096 44.056 221.393112 39.482544 237.426834 37.953766 C 249.144409 36.830627 260.983551 37.304321 272.592133 39.415161 C 282.618408 41.228027 292.495361 44.25885 301.993774 48.494049 C 304.212952 49.48175 306.418274 50.53714 308.583252 51.646423 C 310.464172 52.607361 312.331238 53.608582 314.157959 54.663666 C 339.635925 69.087341 361.216583 90.506165 375.031128 116.308502 C 376.181366 118.446411 377.277405 120.638184 378.319275 122.843811 C 384.55661 136.090179 388.95401 150.743439 387.100861 165.275116 Z"/>
        <path id="path1" fill="#373d54" stroke="none" d="M 264.650269 123.154999 C 265.475433 132.152588 270.116608 140.44693 275.974731 147.306976 C 286.393463 159.497925 302.359131 168.265625 318.162933 165.600159 C 331.030731 163.421631 342.233673 153.341492 345.737823 140.771667 C 349.242676 128.201813 344.88559 113.778473 335.008606 105.254211 C 327.214722 98.529633 316.701538 95.593292 306.418274 95.336304 C 296.812164 95.092834 287.936127 95.404022 277.504181 99.814941 C 267.937744 103.860535 263.946655 115.483337 264.636383 123.154999 Z"/>
        <path id="path2" fill="#373d54" stroke="none" d="M 233.733047 123.154999 C 232.907867 132.152588 228.266693 140.44693 222.407898 147.306976 C 211.989182 159.497925 196.023514 168.265625 180.219711 165.600159 C 167.35257 163.421631 156.149643 153.341492 152.644806 140.771667 C 149.140625 128.201813 153.49707 113.778473 163.374695 105.254211 C 171.167908 98.529633 181.681107 95.593292 191.964371 95.336304 C 201.571136 95.092834 210.447189 95.404022 220.879105 99.814941 C 230.444901 103.860535 234.436646 115.483337 233.746262 123.154999 Z"/>
        <path id="path3" fill="#2c3144" stroke="none" d="M 185.240112 54.650452 C 159.762161 69.073792 138.180832 90.492615 124.366287 116.294952 C 118.006714 116.443939 111.647797 112.898804 107.724098 107.757477 C 103.55661 102.291138 101.811134 95.349823 101.527046 88.449493 C 101.486084 87.705261 101.47287 86.988098 101.47287 86.257416 C 101.47287 80.073914 102.555046 73.904266 104.58461 68.045471 C 107.101753 60.75238 111.07962 53.973938 116.275108 48.277344 C 125.665161 38.021484 138.965698 31.459076 152.793457 30.200836 C 160.735992 29.483704 169.138351 30.593292 175.754929 35.044525 C 176.404358 35.4776 177.026703 35.951294 177.635834 36.465271 C 181.031662 39.320343 183.62941 43.20343 184.766418 47.39798 C 185.415848 49.765839 185.604797 52.228455 185.213028 54.650452 Z"/>
        <path id="path4" fill="#2c3144" stroke="none" d="M 397.911346 86.257416 C 397.911346 93.861694 396.2742 101.722626 391.660095 107.770691 C 387.750275 112.912354 381.404572 116.457489 375.031128 116.308502 C 361.216583 90.506165 339.649139 69.087341 314.157959 54.663666 C 313.90097 53.080719 313.887085 51.470673 314.090576 49.901276 C 314.414978 47.38446 315.294312 44.935364 316.566101 42.675873 C 318.284485 39.645081 320.733582 36.993164 323.602203 35.071594 C 330.218781 30.620361 338.621124 29.510773 346.56366 30.227936 C 356.062073 31.093719 365.275726 34.43573 373.177948 39.766968 C 376.790497 42.202179 380.132141 45.070801 383.095886 48.290894 C 383.54184 48.778137 383.988464 49.278595 384.407959 49.792908 C 392.986053 59.873047 397.884247 73.038147 397.911346 86.270966 Z"/>
        <path id="path5" fill="#2c3144" stroke="none" d="M 405.948334 305.423645 C 404.798126 308.481567 403.472168 311.403992 401.984344 314.231995 C 389.251984 338.329803 364.842987 353.713745 338.539886 363.225708 C 336.821472 363.848053 335.089874 364.430115 333.344391 364.984741 L 333.344391 364.984741 C 325.076813 367.582458 316.525787 369.287323 307.893524 368.962585 C 300.437897 368.692078 292.914886 366.770844 286.5289 362.995789 C 283.958252 361.480225 281.576538 359.667358 279.452484 357.529419 C 277.93692 356.000671 276.597076 354.417358 275.420441 352.807312 C 270.359741 345.893433 268.33017 338.099915 269.358826 329.399597 C 269.507477 328.209045 269.697083 327.004639 269.954102 325.787048 C 269.954102 325.759949 269.954102 325.73288 269.954102 325.71933 C 270.454865 323.297333 271.171692 320.929504 272.064911 318.642944 C 275.704529 309.293518 282.36142 301.107513 290.439392 295.059448 C 300.478882 287.522888 312.588226 283.084869 324.928162 280.717041 C 325.726257 280.56839 326.538208 280.405853 327.363373 280.243652 C 328.608734 279.999878 329.880524 279.72934 331.111328 279.418152 C 333.790344 278.714539 336.361664 277.767487 338.431519 276.211609 C 338.431519 276.211609 338.458618 276.238373 338.472473 276.238373 C 338.485687 276.238373 338.498901 276.238373 338.498901 276.238373 L 381.282349 243.33255 C 383.000763 242.020142 380.687103 236.134247 376.127167 230.208069 C 371.567932 224.268036 366.466919 220.5336 364.761719 221.859558 L 328.797668 249.502182 C 323.439667 248.135925 317.743408 248.852753 312.439575 250.422501 C 307.000305 252.032547 301.886078 254.508713 296.649658 256.632751 C 281.779358 262.654083 265.759521 265.806458 249.7258 265.914795 C 233.678864 265.806458 217.659027 262.654083 202.802612 256.632751 C 197.552292 254.508713 192.43808 252.032547 187.012024 250.422501 C 181.586624 248.812454 175.741714 248.108841 170.288559 249.597 C 161.128418 252.100266 152.157898 264.101593 158.259811 273.343018 C 159.058548 274.560608 160.059464 275.561859 161.209686 276.360291 C 164.849304 278.985107 169.910004 279.851227 174.483139 280.717041 C 186.823074 283.084869 198.932434 287.522888 208.971924 295.059448 C 215.507233 299.957275 221.109024 306.249146 224.938248 313.406799 C 224.938248 313.406799 224.965332 313.406799 224.965332 313.433594 C 225.141068 313.745087 225.303589 314.083344 225.45224 314.394531 C 227.278992 317.966431 228.645248 321.768555 229.457214 325.705811 C 229.457214 325.773499 229.484299 325.814148 229.484299 325.881836 C 232.000778 338.113434 228.780685 348.653381 219.972672 357.542969 C 218.389725 359.153015 216.630371 360.573792 214.763321 361.832031 C 212.598312 363.293427 210.271454 364.524597 207.849442 365.539368 C 202.707474 367.650208 197.105682 368.773315 191.544861 368.989685 C 186.132675 369.192841 180.73436 368.59726 175.443741 367.487976 C 172.3591 366.852112 169.314743 366.026611 166.297485 365.079529 C 164.483948 364.511353 162.684296 363.902222 160.898514 363.252808 C 152.523239 360.221985 144.336914 356.609467 136.679138 352.293335 C 130.129944 348.626282 123.96064 344.445618 118.344978 339.72348 C 109.861351 332.579346 102.677269 324.163452 97.454033 314.272644 C 95.952339 311.458191 94.639595 308.522186 93.476158 305.450745 C 86.30529 286.440369 86.399765 264.900024 93.23304 245.768097 C 98.157646 231.912598 106.573875 219.383728 117.276016 209.303253 C 121.078156 205.717834 125.164375 202.443573 129.507599 199.520782 C 132.579041 202.78183 135.921356 205.758453 139.466492 208.451019 C 140.143005 208.964996 140.832748 209.46579 141.523148 209.952698 C 141.550232 209.979797 141.577316 209.993347 141.59053 210.020416 C 155.066803 219.816467 170.88382 227.515198 186.782104 232.183472 C 191.828934 233.658081 196.916733 234.930206 202.017746 236.025909 C 233.462173 242.764038 265.989441 242.764038 297.420654 236.025909 C 302.521637 234.930206 307.609436 233.658081 312.669495 232.183472 C 329.420044 227.271759 346.062897 218.991272 359.985779 208.451019 C 361.135986 207.584869 362.258453 206.691986 363.354523 205.744904 C 364.815918 204.540527 366.2099 203.255188 367.576172 201.92923 C 368.374268 201.144379 369.173004 200.346283 369.944 199.520782 C 386.46463 210.642761 399.535248 226.987671 406.219208 245.768097 C 413.051849 264.900024 413.133087 286.440369 405.962219 305.450745 Z"/>
        <path id="path6" fill="#373d54" stroke="none" d="M 149.722672 429.890259 C 149.180923 441.309875 144.621674 452.82431 136.340866 460.550323 C 135.096176 461.713928 133.756348 462.796417 132.335907 463.784119 C 123.148682 470.129974 111.376923 471.631836 100.336525 469.345123 C 96.5476 468.573944 92.840599 467.356171 89.362854 465.732605 C 83.545021 462.99942 78.295364 459.292084 73.586792 454.93515 C 67.308479 449.117004 61.977558 442.148926 57.566288 434.802002 C 49.218105 420.933289 43.548923 404.683197 45.781319 388.635925 C 47.878933 373.60379 56.335468 363.131226 67.45713 357.705505 C 70.893913 356.014221 74.574493 354.809814 78.403053 354.119751 C 89.674026 352.06308 102.189697 354.295807 113.109192 361.196136 C 115.057495 362.427612 116.937752 363.76712 118.724197 365.201111 C 127.681519 372.372314 134.716949 381.911346 140.061752 392.113342 C 146.177536 403.762878 150.345016 416.765808 149.708801 429.903809 Z"/>
        <path id="path7" fill="#2c3144" stroke="none" d="M 175.525009 413.396729 C 175.525009 414.113892 175.497925 414.831024 175.484055 415.548187 C 175.484055 415.791626 175.456955 416.035095 175.456955 416.292114 C 175.430527 416.955078 175.403442 417.618378 175.362488 418.294922 C 175.362488 418.443542 175.362488 418.606079 175.335403 418.74118 C 175.295105 419.485443 175.240921 420.216125 175.186752 420.960388 C 175.186752 421.027771 175.186752 421.109009 175.159668 421.163208 C 175.105484 421.975159 175.038101 422.786774 174.956833 423.585205 C 174.956833 423.625824 174.956833 423.652924 174.956833 423.693542 C 174.888794 424.41037 174.807526 425.127533 174.726929 425.844666 C 174.699844 426.155853 174.658875 426.453491 174.618576 426.751434 C 174.550522 427.34671 174.469269 427.941956 174.388657 428.523682 C 174.361572 428.740387 174.334488 428.956757 174.307404 429.159576 C 174.239349 429.687439 174.158096 430.201447 174.077484 430.715759 C 173.969147 431.378754 173.860794 432.041748 173.752441 432.704712 C 173.725357 432.853363 173.698273 433.00235 173.671173 433.151306 C 173.576706 433.733032 173.468353 434.314758 173.360001 434.896484 C 173.075912 436.425598 172.75087 437.954376 172.412613 439.45639 C 172.263962 440.065186 172.128525 440.674011 171.96666 441.283142 C 171.898605 441.594299 171.817352 441.891937 171.736084 442.203125 L 171.736084 442.203125 C 171.614517 442.703552 171.47908 443.204346 171.344315 443.704803 C 170.451096 447.02002 169.422424 450.294312 168.231903 453.514374 C 160.858215 454.853882 153.510941 456.382996 146.217834 458.101379 C 142.903275 458.886108 139.601257 459.697906 136.313782 460.563873 C 138.830261 458.223114 140.9814 455.530579 142.808136 452.607941 C 147.002716 445.856262 149.330246 437.873444 149.708801 429.903809 C 150.345016 416.765808 146.177536 403.776428 140.061752 392.113342 C 133.634781 379.868225 124.799026 368.58371 113.095314 361.196136 C 102.176483 354.295807 89.660812 352.06308 78.389839 354.119751 C 78.281494 352.996948 78.214104 351.887329 78.200226 350.750671 C 78.078667 344.310181 79.404625 337.84256 82.110718 331.99765 C 84.911278 325.908936 89.200325 320.523865 94.46386 316.383453 C 95.411255 315.625671 96.398949 314.908508 97.413734 314.245544 C 110.146103 338.343353 134.554428 353.713745 160.858215 363.225708 C 162.643997 363.875122 164.443649 364.484253 166.256516 365.052429 C 167.258087 367.447388 168.191605 369.896454 169.029999 372.358765 L 168.908432 372.453552 L 154.417374 383.602661 C 152.698975 384.91507 155.012634 390.800934 159.572556 396.740662 C 164.132477 402.667175 169.219604 406.401581 170.938004 405.089172 L 175.118698 401.868774 C 175.186752 402.653625 175.240921 403.451721 175.281219 404.236572 C 175.308304 404.737366 175.349274 405.251373 175.362488 405.765686 C 175.362488 405.833069 175.362488 405.887268 175.362488 405.954987 C 175.484055 408.431152 175.525009 410.920532 175.484055 413.423828 Z"/>
        <path id="path8" fill="#eef5ff" stroke="none" d="M 175.416656 367.447388 L 169.057083 372.345215 C 168.218704 369.869385 167.285172 367.433838 166.2836 365.03891 C 169.300873 365.985962 172.345215 366.811462 175.430527 367.447388 Z"/>
        <path id="path9" fill="#eef5ff" stroke="none" d="M 334.020905 454.028717 C 325.618561 452.44577 317.148132 451.106262 308.66452 450.023743 C 289.126648 447.520477 269.412994 446.357056 249.712585 446.532776 C 223.855408 446.289337 197.958603 448.386627 172.480652 452.756927 C 171.073441 452.986847 169.666214 453.243835 168.259003 453.500854 C 169.43631 450.280762 170.47818 447.0065 171.371399 443.691254 C 171.50618 443.190796 171.641617 442.690033 171.763168 442.189575 C 171.844437 441.878387 171.925705 441.58075 171.993744 441.269592 C 172.142395 440.660461 172.291046 440.065186 172.439697 439.442841 C 172.791824 437.940826 173.103012 436.412048 173.387085 434.882935 C 173.495438 434.314758 173.617004 433.719482 173.698273 433.137787 C 173.725357 432.9888 173.765656 432.853363 173.779526 432.691162 C 173.887878 432.028198 174.009445 431.365204 174.103912 430.70224 C 174.185181 430.174347 174.25322 429.660339 174.334488 429.146027 C 174.361572 428.943207 174.401871 428.726837 174.415756 428.510132 C 174.510223 427.928406 174.577606 427.33316 174.64566 426.737915 C 174.685959 426.439941 174.713043 426.142303 174.754013 425.831116 C 174.83461 425.113983 174.915878 424.39682 174.983917 423.679993 C 174.983917 423.652924 174.983917 423.612305 174.983917 423.571655 C 175.065186 422.773254 175.132568 421.961609 175.186752 421.149658 C 175.186752 421.08194 175.186752 421.014221 175.213837 420.946838 C 175.268005 420.202576 175.322189 419.471893 175.362488 418.727661 C 175.362488 418.578979 175.362488 418.430023 175.389572 418.281372 C 175.430527 417.618378 175.456955 416.955078 175.484055 416.278564 C 175.484055 416.035095 175.484055 415.791626 175.511139 415.534637 C 175.538223 414.817505 175.538223 414.100342 175.552094 413.383179 C 175.592392 410.893463 175.552094 408.404053 175.430527 405.914337 C 175.430527 405.846619 175.430527 405.79245 175.430527 405.725067 C 175.403442 405.210754 175.376358 404.696747 175.349274 404.195953 C 175.295105 403.411407 175.240921 402.613007 175.186752 401.828125 L 215.561401 370.762268 C 215.561401 370.762268 215.683624 370.829956 215.737137 370.843506 C 216.386581 371.154694 217.131149 371.141174 217.766708 370.816437 C 218.889847 370.24826 220.622116 369.179321 221.190292 367.880432 C 221.650116 367.515076 221.595932 366.770844 221.041641 366.554138 L 269.385925 329.358948 C 268.12735 340.102356 271.523163 349.478882 279.479584 357.50235 C 286.853271 364.930542 297.474823 368.543396 307.920624 368.935516 C 316.552887 369.260254 325.117767 367.555725 333.37149 364.957642 C 333.019348 365.701904 332.667877 366.419037 332.356689 367.176819 C 332.07196 367.799164 331.801727 368.421509 331.530853 369.057404 C 331.206482 369.842285 330.881439 370.626831 330.570251 371.411682 C 330.204895 372.358765 329.839539 373.306152 329.515167 374.266785 C 329.271393 374.902649 329.054688 375.538544 328.838654 376.187988 C 328.56778 376.986389 328.31076 377.798035 328.066986 378.609985 C 327.823853 379.408081 327.580078 380.220032 327.363373 381.031982 C 327.336273 381.086182 327.323059 381.140015 327.309875 381.194183 C 326.673645 383.494293 326.118683 385.821838 325.658844 388.162567 C 325.618561 388.297668 325.591461 388.433105 325.564392 388.568207 C 325.442169 389.204437 325.333801 389.853882 325.21225 390.489746 C 325.158081 390.719666 325.117767 390.936035 325.090668 391.16629 C 324.98233 391.788635 324.887848 392.42453 324.792725 393.060425 C 324.738556 393.276794 324.711456 393.507019 324.684357 393.709839 C 324.576691 394.467651 324.468323 395.238953 324.373199 395.996429 C 324.265503 396.835449 324.184235 397.687744 324.102997 398.526764 C 324.021729 399.365479 323.953674 400.218079 323.886292 401.056793 C 323.818909 401.909393 323.777924 402.761658 323.73764 403.600708 C 323.696686 404.452942 323.669586 405.305542 323.642487 406.157806 C 323.615417 406.996857 323.615417 407.835571 323.615417 408.674622 C 323.615417 414.546936 324.102997 420.432495 325.076813 426.210022 C 325.199036 426.940735 325.320587 427.657867 325.469238 428.375031 C 325.888763 430.539703 326.375671 432.677612 326.917419 434.815552 C 327.769684 438.089813 328.770599 441.309875 329.947906 444.476135 C 331.152283 447.710114 332.518555 450.889557 334.061218 453.988098 Z"/>
        <path id="path10" fill="#eef5ff" stroke="none" d="M 328.784454 249.488968 L 321.88382 254.792801 C 321.88382 254.792801 321.85672 254.657364 321.85672 254.603195 C 321.789337 253.994385 321.071838 253.723846 320.61203 254.089203 C 319.421509 254.522263 317.960114 255.794052 317.039795 256.659851 C 316.471619 257.187744 316.21463 257.95874 316.363281 258.730042 C 316.39035 258.81131 316.404236 258.906128 316.431335 259.00061 L 261.24057 301.445801 C 261.24057 301.445801 261.21347 301.310364 261.21347 301.256165 C 261.145416 300.660889 260.428589 300.390381 259.968781 300.742188 C 258.777588 301.188782 257.302979 302.447021 256.396545 303.312805 C 255.828369 303.840698 255.571381 304.625549 255.720032 305.383026 C 255.747116 305.477844 255.76033 305.572632 255.787415 305.653564 L 229.511383 325.854767 C 229.511383 325.854767 229.484299 325.746399 229.484299 325.678711 C 226.926849 313.39328 219.052368 302.568909 208.999008 295.032349 C 198.959518 287.495789 186.850159 283.05777 174.510223 280.689941 C 168.502777 279.540039 161.656296 278.416931 158.286896 273.315918 C 152.171112 264.074524 161.155518 252.073166 170.315659 249.569901 C 175.768799 248.081757 181.626923 248.78537 187.039108 250.395416 C 192.465164 252.005447 197.579376 254.481628 202.829697 256.605682 C 217.699326 262.626984 233.719162 265.779358 249.752884 265.887695 C 265.799805 265.779358 281.820313 262.626984 296.676727 256.605682 C 301.913177 254.481628 307.027405 252.005447 312.466675 250.395416 C 317.770508 248.825668 323.466766 248.108841 328.824768 249.475433 Z"/>
        <path id="path11" fill="#373d54" stroke="none" d="M 453.684143 402.640076 C 452.331116 413.937805 447.771179 424.965332 441.845001 434.802002 C 434.105286 447.655914 423.633057 459.359619 410.034576 465.732605 C 396.734039 471.943024 380.159241 472.30838 367.901215 464.338928 C 367.630341 464.163025 367.346252 463.973572 367.075378 463.797668 C 365.709137 462.850586 364.437347 461.835815 363.246155 460.726227 C 363.178772 460.658661 363.138458 460.618042 363.070435 460.563873 C 354.789642 452.83786 350.230377 441.323425 349.675415 429.903809 C 349.05307 416.765808 353.220551 403.776428 359.336334 392.113342 C 365.763306 379.868225 374.598389 368.58371 386.288879 361.196136 C 397.221588 354.295807 409.737274 352.06308 421.021454 354.119751 C 423.781708 354.620544 426.460724 355.391541 429.031372 356.419861 C 441.574127 361.358643 451.356628 372.304596 453.629974 388.635925 C 454.279419 393.303864 454.252319 397.999237 453.684143 402.640076 Z"/>
        <path id="path12" fill="#2c3144" stroke="none" d="M 421.143005 352.144348 C 421.115936 352.793762 421.075623 353.456757 421.00824 354.106201 C 409.723389 352.049561 397.207733 354.282257 386.275024 361.182587 C 374.585175 368.570496 365.74942 379.854675 359.322449 392.099792 C 353.206665 403.749664 349.039185 416.752258 349.66153 429.890259 C 350.108154 439.293884 353.287933 448.751648 359.025146 456.112305 C 360.242767 457.695404 361.595825 459.183716 363.070435 460.550323 C 359.430817 459.603271 355.777313 458.696655 352.137726 457.844238 C 346.13028 456.437164 340.095734 455.165222 334.020905 454.028717 C 332.478241 450.930176 331.111328 447.750397 329.907593 444.516785 C 328.7435 441.350525 327.728729 438.116882 326.876465 434.856171 C 326.321503 432.718262 325.834595 430.580322 325.428955 428.415649 C 325.280304 427.698517 325.158081 426.981354 325.036499 426.250671 C 324.062012 420.473145 323.575104 414.58725 323.575104 408.71524 C 323.575104 407.87619 323.575104 407.037476 323.602203 406.198425 C 323.629272 405.346191 323.656372 404.493591 323.696686 403.641327 C 323.73764 402.802277 323.791809 401.950012 323.845978 401.097412 C 323.913361 400.258728 323.980774 399.406128 324.062012 398.567413 C 324.14328 397.728363 324.238434 396.876099 324.332886 396.037048 C 324.427368 395.279602 324.522522 394.50827 324.644073 393.750488 C 324.671173 393.534119 324.698242 393.303864 324.752411 393.101044 C 324.846893 392.465149 324.942017 391.829285 325.049713 391.206909 C 325.076813 390.976685 325.117767 390.760315 325.171936 390.530396 C 325.280304 389.880951 325.401855 389.244751 325.523407 388.608856 C 325.550507 388.473755 325.577606 388.338318 325.618561 388.202881 C 326.078369 385.862122 326.633331 383.534912 327.26889 381.234802 C 327.26889 381.180634 327.29599 381.126465 327.323059 381.072632 C 327.552979 380.260681 327.782898 379.4487 328.026672 378.650635 C 328.270477 377.838654 328.527466 377.027039 328.797668 376.228607 C 329.00116 375.579163 329.217194 374.943298 329.447113 374.307404 C 329.78537 373.346466 330.150726 372.385864 330.529938 371.452332 C 330.841125 370.66745 331.165497 369.869385 331.49057 369.098022 C 331.760773 368.462158 332.018433 367.839783 332.315735 367.217468 C 332.626892 366.473206 332.979034 365.742493 333.330505 364.998291 L 333.330505 364.998291 C 335.075989 364.443665 336.807617 363.861603 338.526001 363.239258 C 364.829773 353.727295 389.238098 338.343353 401.970459 314.245544 C 403.364471 315.165527 404.703644 316.166748 405.975433 317.262817 C 410.752045 321.267761 414.648651 326.341675 417.273499 332.011169 C 420.169189 338.289185 421.481293 345.270752 421.129791 352.157898 Z"/>
        <path id="path13" fill="#d6706b" stroke="none" d="M 96.439255 401.39505 C 94.599297 404.452942 90.377632 405.549011 86.981812 404.412659 C 86.900551 404.385559 86.806068 404.34494 86.724808 404.304321 C 83.46376 403.127014 81.001457 400.245178 79.634537 397.051819 C 78.45723 394.278351 77.009705 389.623627 77.94323 386.633453 C 78.863541 383.710999 81.528664 381.370239 84.586891 381.031982 C 86.18306 380.855927 87.79377 381.180634 89.254501 381.843628 C 90.715897 382.493042 92.028641 383.467224 93.083725 384.658051 C 95.221642 387.039429 96.426041 390.13797 97.102562 393.26358 C 97.683945 395.996429 97.860344 399.000488 96.412163 401.39505 Z"/>
        <path id="path14" fill="#d6706b" stroke="none" d="M 119.887634 397.146637 C 118.724197 399.582184 116.423759 401.571136 113.731537 401.895844 C 110.822624 402.24765 108.062363 400.556335 106.275917 398.161438 C 105.775131 397.498444 105.35627 396.781311 105.031219 396.023499 C 102.839127 391.030853 101.74308 379.800507 108.67083 377.892822 C 111.688095 377.067322 115.043625 378.339447 117.208626 380.612488 L 117.249588 380.653107 C 119.427811 382.953217 120.509979 386.092377 120.902412 389.217651 C 121.213593 391.910522 121.051064 394.71109 119.887634 397.146637 Z"/>
        <path id="path15" fill="#d6706b" stroke="none" d="M 75.69696 417.72641 C 73.532616 419.350006 70.50148 419.485443 67.985001 418.538361 C 67.619652 418.402924 67.254303 418.240723 66.902168 418.064667 C 64.845512 417.022797 63.154205 415.345032 61.774734 413.505066 C 59.893818 410.974731 58.499809 407.943909 58.486599 404.791199 C 58.459511 401.638855 60.015381 398.364258 62.78952 396.862549 C 66.956345 394.629822 71.380829 397.687744 74.452271 401.489868 C 74.479355 401.516968 74.493225 401.544037 74.506439 401.557587 C 76.089401 403.532959 77.320885 405.711517 77.94323 407.457001 C 79.228889 410.988281 78.687798 415.466919 75.69696 417.71286 Z"/>
        <path id="path16" fill="#d6706b" stroke="none" d="M 122.715286 434.86972 C 120.428719 439.348053 116.70784 443.150177 113.420364 446.952332 C 109.834267 446.952332 106.221741 446.979401 102.677269 446.532776 C 101.229088 446.370605 99.794777 446.126801 98.387558 445.775024 C 93.50325 444.584473 88.740501 442.040588 85.885765 437.900513 C 83.46376 434.396027 82.665672 429.63327 84.207672 425.749878 C 84.49176 425.019501 84.857109 424.329437 85.303719 423.693542 C 87.211723 420.946838 90.526947 419.214905 93.868599 419.214905 C 96.426041 419.214905 98.969604 420.243225 100.863739 421.948059 C 101.445786 422.475616 101.973656 423.070862 102.419609 423.707092 C 102.041046 421.609802 102.379303 419.444794 103.245438 417.469421 C 103.772652 416.251801 104.490135 415.115112 105.35627 414.127441 C 107.642838 411.542908 111.147011 411.055969 114.583801 411.461975 C 119.576454 412.030151 123.63559 416.346283 124.880287 421.217377 C 126.124985 426.088135 125.00251 430.377502 122.702072 434.856171 Z"/>
        <path id="path17" fill="#d6706b" stroke="none" d="M 419.749664 397.065369 C 418.355652 400.339966 415.798889 403.30307 412.41626 404.426208 C 409.453186 405.413879 405.839996 404.696747 403.756927 402.43692 C 403.458954 402.125763 403.18808 401.773956 402.972046 401.39505 C 401.53775 399.000488 401.71347 395.996429 402.295532 393.26358 C 402.972046 390.13797 404.175781 387.039429 406.300476 384.658051 C 408.438385 382.276672 411.631409 380.707275 414.824402 381.045532 C 415.866272 381.153564 416.867859 381.491821 417.760406 382.033234 C 419.492676 383.034485 420.858917 384.712219 421.468079 386.647003 C 422.414795 389.637177 420.954071 394.291565 419.776764 397.065369 Z"/>
        <path id="path18" fill="#d6706b" stroke="none" d="M 394.366211 396.037048 C 392.864502 399.473846 389.373535 402.342468 385.652679 401.895844 C 385.314423 401.855225 384.990021 401.787476 384.664978 401.706573 C 382.419373 401.083893 380.538452 399.284546 379.509796 397.160187 C 378.346344 394.72464 378.170624 391.923737 378.494995 389.231201 C 378.874237 386.092377 379.970276 382.953217 382.134613 380.666626 C 383.718231 379.002441 385.923553 377.852203 388.183014 377.676453 C 389.035278 377.608765 389.901428 377.676453 390.726593 377.906372 C 397.654327 379.814056 396.558289 391.044403 394.366211 396.037048 Z"/>
        <path id="path19" fill="#d6706b" stroke="none" d="M 440.911499 404.791199 C 440.884399 407.943909 439.504272 410.974731 437.623352 413.505066 C 435.99942 415.669739 433.94278 417.591309 431.4263 418.538361 C 428.895935 419.485443 425.865479 419.350006 423.714325 417.72641 C 422.848206 417.076965 422.184875 416.238251 421.725067 415.290863 C 420.561646 412.963654 420.54776 409.97348 421.454193 407.457001 C 423.321899 402.328918 430.276062 393.45285 436.621765 396.862549 C 437.325378 397.227905 437.934509 397.728363 438.462402 398.283325 C 438.462402 398.283325 438.462402 398.283325 438.489471 398.310425 C 440.072449 400.001709 440.938568 402.43692 440.924713 404.791199 Z"/>
        <path id="path20" fill="#d6706b" stroke="none" d="M 413.525543 437.900513 C 410.656921 442.040588 405.908051 444.584473 401.009857 445.775024 C 396.125549 446.979401 391.010681 446.979401 385.977722 446.952332 C 385.39566 446.275787 384.800415 445.599274 384.191284 444.92276 C 381.417786 441.77005 378.563049 438.563507 376.682129 434.86972 C 374.395569 430.391052 373.27243 426.101685 374.51712 421.230896 C 375.599976 416.982178 378.820068 413.153259 382.960449 411.86795 C 383.568939 411.678345 384.191284 411.556458 384.827484 411.475525 C 388.250397 411.069519 391.755249 411.556458 394.041809 414.140961 C 395.963043 416.319183 397.180634 419.214905 397.14035 422.09671 C 397.14035 422.638123 397.086151 423.17923 396.991699 423.720306 C 397.762695 422.597504 398.777466 421.636902 399.927704 420.906189 C 401.591919 419.8237 403.567291 419.228424 405.555908 419.214905 C 408.911438 419.214905 412.21344 420.946838 414.120789 423.693542 C 416.98941 427.833618 416.421234 433.746582 413.552612 437.900513 Z"/>
        <path id="path21" fill="#161924" stroke="none" d="M 183.589111 142.205963 C 185.672852 146.0755 189.04158 149.688354 193.411896 150.215881 C 197.132767 150.676056 200.867523 148.713867 203.262436 145.818481 C 205.657349 142.923126 206.861755 139.229004 207.4841 135.521667 C 208.268311 130.894348 208.228012 126.036804 206.604095 121.639404 C 204.980835 117.242004 201.625305 113.345398 197.214035 111.748901 C 192.762466 110.138519 186.498016 111.315826 183.480759 115.225983 C 180.125229 119.56955 179.814056 127.416931 180.51767 132.585663 C 180.964279 135.941193 181.992279 139.21579 183.602325 142.205963 Z"/>
        <path id="path22" fill="#161924" stroke="none" d="M 315.80899 142.205963 C 313.72522 146.0755 310.355835 149.688354 305.985535 150.215881 C 302.264648 150.676056 298.530548 148.713867 296.135651 145.818481 C 293.740723 142.923126 292.536346 139.229004 291.913971 135.521667 C 291.12912 130.894348 291.169403 126.036804 292.793335 121.639404 C 294.417267 117.242004 297.772766 113.345398 302.18338 111.748901 C 306.634949 110.138519 312.899414 111.315826 315.916656 115.225983 C 319.272186 119.56955 319.583374 127.416931 318.879761 132.585663 C 318.433807 135.941193 317.405151 139.21579 315.795105 142.205963 Z"/>
        <path id="path23" fill="#161924" stroke="none" d="M 282.794159 177.087524 C 278.302277 182.729614 270.359741 182.702515 264.514832 179.279266 C 261.199585 177.330963 258.561554 174.53006 256.315277 171.445099 C 255.110886 169.780884 254.028717 168.0354 253.081329 166.208984 C 252.458969 165.031677 251.904022 163.854675 251.214279 162.772186 C 251.82341 162.528717 252.418671 162.230774 253.000061 161.960236 C 255.137985 160.972534 257.194641 159.809113 259.12973 158.483154 C 260.698822 157.414185 262.228241 156.182709 263.161774 154.532013 C 264.095306 152.881348 264.298126 150.703125 263.243042 149.119843 C 262.160217 147.496246 260.103546 146.901001 258.196198 146.508545 C 252.540237 145.371887 246.695328 145.114868 240.958084 145.764313 C 239.875916 145.8862 238.766006 146.048401 237.778305 146.508545 C 236.790604 146.968719 235.898041 147.766785 235.586868 148.822205 C 235.04512 150.608337 236.236313 152.421204 237.453918 153.841949 C 240.011353 156.845673 243.271744 160.32309 246.816879 162.366211 C 246.776581 162.920837 246.735626 163.4758 246.641144 164.016876 C 246.302887 165.857178 245.707626 167.670044 244.908875 169.361359 C 243.285614 172.852295 240.660797 175.734467 237.412949 177.790802 C 234.328308 179.75296 230.728989 180.943481 227.062286 181.0383 C 224.126282 181.106018 219.106537 180.754211 219.106537 176.776001 C 219.106537 174.083466 213.788834 174.069916 213.694366 176.776001 C 213.558929 180.984131 217.374939 183.595398 221.041641 184.529266 C 224.762512 185.476318 228.929337 185.259613 232.623123 184.299011 C 240.078751 182.350708 246.018799 177.303894 249.117325 170.241028 C 249.27919 169.875671 249.428497 169.496796 249.563278 169.117889 C 250.009888 169.984039 250.470367 170.836273 250.97049 171.675323 C 252.797241 174.787079 255.110886 177.560883 257.88504 179.874542 C 263.297211 184.393829 270.61673 186.788727 277.598663 185.097443 C 281.414001 184.17746 284.877899 182.174988 287.340851 179.089996 C 289.2211 176.735718 284.350677 175.152405 282.794159 177.101044 Z"/>
        <path id="path24" fill="#ffffff" stroke="none" d="M 202.531738 127.850006 C 202.924179 133.086456 200.339645 137.551239 196.767426 137.808563 C 193.181992 138.079102 189.975769 134.047058 189.583328 128.810608 C 189.190903 123.574493 191.774765 119.109406 195.346985 118.852386 C 198.932434 118.581848 202.139297 122.613892 202.531738 127.850006 Z"/>
        <path id="path25" fill="#ffffff" stroke="none" d="M 296.879547 127.850006 C 296.487122 133.086456 299.071655 137.551239 302.643219 137.808563 C 306.229309 138.079102 309.435516 134.047058 309.827972 128.810608 C 310.220398 123.574493 307.636536 119.109406 304.064301 118.852386 C 300.478882 118.581848 297.272003 122.613892 296.879547 127.850006 Z"/>
        <path id="path26" fill="#579f5c" stroke="none" d="M 381.269135 243.319 L 379.171539 244.929047 L 341.841217 273.654175 L 338.485687 276.224854 C 338.485687 276.224854 338.485687 276.224854 338.458618 276.224854 C 338.431519 276.224854 338.431519 276.224854 338.418304 276.198059 C 337.268097 275.765015 335.819916 274.763763 334.209869 273.343018 C 332.32962 271.692322 330.259064 269.459595 328.270477 266.861877 C 324.630188 262.139771 322.235931 257.498901 321.88382 254.806351 L 323.750854 253.37204 L 328.784454 249.502182 L 364.748505 221.859558 C 363.030121 223.171967 365.356995 229.044312 369.916901 234.984039 C 374.476837 240.910553 379.563965 244.658508 381.269135 243.33255 Z"/>
        <path id="path27" fill="#579f5c" stroke="none" d="M 331.111328 279.404602 C 329.068542 279.932495 326.957733 280.311035 324.942017 280.703491 C 324.846893 280.730591 324.765625 280.730591 324.671173 280.75766 C 323.426453 281.001099 322.167877 281.271973 320.923187 281.556091 C 309.990479 284.072571 299.409912 288.334839 290.452606 295.045898 C 285.879456 298.469147 281.766144 302.568909 278.396759 307.169128 C 278.396759 307.169128 278.396759 307.169128 278.396759 307.169128 C 276.89505 309.225769 275.555878 311.363708 274.378571 313.58255 C 273.512451 315.206146 272.754669 316.897461 272.078125 318.602295 C 271.699585 318.236938 271.320343 317.830994 270.927917 317.425323 C 269.831879 316.261566 268.709381 314.935608 267.613342 313.501282 C 263.973724 308.779175 261.578827 304.124786 261.226685 301.432251 L 263.662567 299.551636 L 314.671967 260.326538 L 316.41745 258.987061 C 316.945313 261.530945 318.433807 266.875427 322.073425 271.611084 C 323.873077 273.951813 325.956818 275.819183 327.878021 277.253174 C 329.041473 278.119293 330.164612 278.836426 331.111328 279.391083 Z"/>
        <path id="path28" fill="#579f5c" stroke="none" d="M 269.954102 325.773499 C 269.697083 326.991119 269.507477 328.209045 269.358826 329.386047 L 222.691986 365.295898 L 221.027756 366.581238 C 221.027756 366.581238 221.000671 366.581238 221.000671 366.581238 C 220.324158 366.324219 219.526062 365.877625 218.646713 365.24173 C 218.024368 364.795471 217.361069 364.254028 216.671326 363.645233 C 216.062195 363.090607 215.41275 362.481812 214.763321 361.818481 C 215.480148 361.331573 216.183762 360.830811 216.874146 360.276154 C 217.956329 359.450653 218.998199 358.517151 219.972672 357.542969 C 228.713303 348.73465 231.946594 338.289185 229.552338 326.179504 C 229.525253 326.071136 229.511383 325.989868 229.484299 325.881836 L 255.76033 305.680664 C 256.301422 308.224548 257.776672 313.569031 261.41629 318.304688 C 262.8909 320.212341 264.541901 321.809174 266.138092 323.108032 C 267.505005 324.217651 268.817078 325.096985 269.967316 325.787048 Z"/>
        <path id="path29" fill="#579f5c" stroke="none" d="M 215.521103 370.789368 L 212.544144 373.089447 L 175.145782 401.855225 L 170.965088 405.075623 C 169.246689 406.388062 164.159561 402.640076 159.59964 396.727112 C 157.624252 394.142914 156.054504 391.572266 155.066803 389.393738 C 153.781815 386.538635 153.469971 384.333344 154.444458 383.602661 L 169.057083 372.372314 L 173.143311 369.21994 L 175.416656 367.460907 C 180.72049 368.58371 186.105591 369.179321 191.517761 368.962585 C 196.064468 368.800415 200.637604 368.015533 204.966949 366.567688 C 205.927567 366.256531 206.88884 365.904724 207.822357 365.512604 C 208.498886 366.134949 209.1754 366.703125 209.838058 367.217468 C 210.947968 368.083252 212.016266 368.800415 212.977539 369.382141 C 213.992325 370.004456 214.871674 370.47818 215.521103 370.802887 Z"/>
        <path id="path30" fill="#c6d590" stroke="none" d="M 381.269135 243.319 C 379.550751 244.644974 374.476837 240.883453 369.916901 234.97049 C 365.356995 229.030762 363.043335 223.158447 364.748505 221.846008 C 366.466919 220.52005 371.554047 224.268036 376.113953 230.19455 C 380.673889 236.120728 382.987549 242.006592 381.269135 243.319 Z"/>
        <path id="path31" fill="#64b569" stroke="none" d="M 221.149323 367.907196 C 220.581146 369.20639 218.849548 370.275024 217.72641 370.843506 C 217.266586 371.073425 216.751923 371.154694 216.265015 371.059875 C 216.075409 371.032806 215.886459 370.965088 215.696838 370.870605 C 215.64267 370.843506 215.588501 370.816437 215.521103 370.789368 C 214.871674 370.47818 213.992325 370.004456 212.977539 369.368591 C 212.030136 368.786865 210.947968 368.069702 209.838058 367.203918 C 209.1754 366.689575 208.498886 366.121399 207.822357 365.499054 C 208.5121 365.214661 209.202484 364.916992 209.865143 364.592285 C 211.556442 363.78067 213.193573 362.846802 214.749451 361.805267 C 215.39888 362.468262 216.03511 363.077057 216.657455 363.631683 C 217.347855 364.240479 218.010498 364.781921 218.632843 365.22818 C 219.512192 365.850861 220.310944 366.310669 220.987457 366.567688 C 220.987457 366.567688 220.987457 366.567688 221.014542 366.567688 C 221.555634 366.784393 221.623016 367.528625 221.163193 367.893982 Z"/>
        <path id="path32" fill="#64b569" stroke="none" d="M 272.064911 318.629395 C 271.239075 320.767303 270.549347 322.959045 270.062439 325.218872 C 270.021484 325.381073 269.981171 325.530029 269.954102 325.705811 C 269.954102 325.73288 269.954102 325.759949 269.954102 325.773499 C 268.803864 325.083435 267.491119 324.204102 266.124878 323.094482 C 264.528046 321.795654 262.877686 320.198792 261.402405 318.291138 C 257.762817 313.569031 256.288208 308.210999 255.747116 305.667114 C 255.720032 305.572632 255.706146 305.477844 255.679062 305.396545 C 255.530411 304.638794 255.787415 303.854248 256.355591 303.326355 C 257.113373 302.596008 258.26358 301.607971 259.30545 301.053345 C 259.522156 300.931458 259.724976 300.823425 259.927826 300.755707 C 260.40152 300.390381 261.118347 300.674438 261.172516 301.269714 C 261.172516 301.337433 261.172516 301.405151 261.199585 301.45932 C 261.551727 304.138306 263.946655 308.792725 267.586273 313.528381 C 268.682312 314.962708 269.80545 316.288635 270.900818 317.452393 C 271.293274 317.858063 271.672485 318.264038 272.051056 318.629395 Z"/>
        <path id="path33" fill="#64b569" stroke="none" d="M 338.418304 276.198059 C 336.456116 277.672668 334.061218 278.606201 331.544739 279.282715 C 331.395416 279.323364 331.246765 279.363983 331.098114 279.404602 C 330.150726 278.849976 329.027588 278.146362 327.864166 277.266724 C 325.942932 275.832733 323.873077 273.965332 322.05954 271.624603 C 318.419922 266.888947 316.931458 261.544495 316.404236 259.00061 C 316.377136 258.892578 316.363281 258.81131 316.336182 258.730042 C 316.187531 257.95874 316.44455 257.187744 317.012726 256.659851 C 317.919159 255.794052 319.353455 254.562897 320.530762 254.116287 C 320.557861 254.089203 320.571075 254.089203 320.598145 254.089203 C 321.071838 253.723846 321.789337 253.994385 321.843506 254.603195 C 321.843506 254.670914 321.843506 254.738632 321.870605 254.792801 C 322.222076 257.471802 324.616974 262.126221 328.256592 266.848328 C 330.259064 269.446411 332.32962 271.678772 334.196655 273.329468 C 335.806702 274.750244 337.268097 275.765015 338.404449 276.184509 Z"/>
        <path id="path34" fill="#b5bd6b" stroke="none" d="M 380.064758 240.152771 C 379.618134 237.89328 378.481781 235.931427 377.345459 233.969269 C 376.316803 232.183472 375.261719 230.397369 374.043427 228.733154 C 372.852905 227.096008 371.499878 225.566895 369.876617 224.349274 C 369.10495 223.767578 368.117249 223.158447 367.116333 223.577972 C 366.398865 223.87558 366.141876 224.606293 366.453033 225.364075 C 366.764221 226.108307 366.967041 226.879303 367.346252 227.596466 C 367.765778 228.408417 368.212402 229.206512 368.672211 230.004913 C 369.646027 231.682678 370.714996 233.306274 371.865204 234.876007 C 373.732269 237.433136 375.965302 240.057953 379.185394 240.829285 C 379.618134 240.937622 380.173096 240.667084 380.064758 240.166321 Z M 372.880005 233.915405 C 371.865204 232.494659 370.891388 231.046783 369.9711 229.558319 C 369.511261 228.814392 369.050781 228.07016 368.618042 227.312378 C 368.279785 226.717133 367.954742 226.094757 367.549072 225.539795 C 367.386566 224.971649 367.792877 224.619843 367.847046 224.592743 C 367.954742 224.538574 368.374268 224.863281 368.455505 224.91745 C 368.766693 225.134155 369.064636 225.377625 369.361938 225.621063 C 369.984314 226.135406 370.580231 226.690033 371.121307 227.285278 C 372.217346 228.462585 373.164093 229.761475 374.043427 231.100983 C 374.936646 232.46756 375.748627 233.874786 376.560577 235.282013 C 377.304474 236.567322 378.049042 237.933929 378.454712 239.381439 C 376.072998 238.299255 374.381683 236.01236 372.880005 233.928955 Z"/>
        <path id="path35" fill="#bec4cf" stroke="none" opacity="0.42" style="mix-blend-mode:multiply" d="M 387.100861 165.275116 C 385.449829 178.183228 378.91452 189.98175 369.930786 199.507233 C 366.859344 202.76828 363.517029 205.744904 359.971893 208.437469 C 355.601593 211.75235 350.96106 214.837341 346.117065 217.651794 C 351.556335 210.439941 355.953735 202.457123 359.06546 194.01413 C 369.781464 164.923645 365.763306 131.273254 350.446411 104.320709 C 335.116302 77.367828 309.151428 57.139862 279.979706 46.586029 C 269.57486 42.824524 258.750519 40.253876 247.777496 38.873749 C 244.327484 38.454224 240.890701 38.129517 237.426834 37.953766 C 249.144409 36.830627 260.983551 37.304321 272.592133 39.415161 C 284.959137 41.661102 297.096252 45.733765 308.583252 51.646423 C 310.464172 52.607361 312.331238 53.608582 314.157959 54.663666 C 339.635925 69.087341 361.216583 90.506165 375.031128 116.308502 C 376.181366 118.446411 377.277405 120.638184 378.319275 122.843811 C 384.55661 136.090179 388.95401 150.743439 387.100861 165.275116 Z"/>
        <path id="path36" fill="#bec4cf" stroke="none" opacity="0.42" style="mix-blend-mode:multiply" d="M 387.100861 165.275116 C 386.045105 173.515289 383.000763 181.308838 378.590149 188.344604 C 380.889923 177.425781 381.431671 166.141266 380.091827 155.073425 C 376.884949 128.702606 363.368378 104.320709 345.440521 84.687988 C 332.694946 70.724487 317.770508 58.966583 301.993774 48.494049 C 304.212952 49.48175 306.418274 50.53714 308.583252 51.646423 C 310.464172 52.607361 312.331238 53.608582 314.157959 54.663666 C 339.635925 69.087341 361.216583 90.506165 375.031128 116.308502 C 376.181366 118.446411 377.277405 120.638184 378.319275 122.843811 C 384.55661 136.090179 388.95401 150.743439 387.100861 165.275116 Z"/>
        <path id="path37" fill="#bec4cf" stroke="none" opacity="0.42" style="mix-blend-mode:multiply" d="M 175.416656 367.447388 L 169.057083 372.345215 C 168.218704 369.869385 167.285172 367.433838 166.2836 365.03891 C 169.300873 365.985962 172.345215 366.811462 175.430527 367.447388 Z"/>
        <path id="path38" fill="#bec4cf" stroke="none" opacity="0.42" style="mix-blend-mode:multiply" d="M 333.330505 364.984741 C 332.979034 365.728973 332.626892 366.446106 332.315735 367.203918 C 332.031647 367.826263 331.760773 368.448608 331.49057 369.084503 C 331.165497 369.869385 330.841125 370.653931 330.529938 371.438782 C 330.150726 372.385864 329.78537 373.332916 329.447113 374.293854 C 327.593933 374.726593 325.713043 375.091949 323.832123 375.416656 C 310.883698 377.635834 297.082367 377.554565 285.230011 371.912476 C 273.377014 366.27005 264.014038 354.119751 264.596069 340.99527 C 235.505615 364.673553 206.40126 388.338318 177.310791 412.030151 C 176.742615 412.490295 176.147354 412.950134 175.525009 413.396729 C 175.565308 410.8396 175.525009 408.295715 175.389572 405.752136 C 175.322189 404.452942 175.240921 403.154083 175.145782 401.855225 L 215.521103 370.789368 C 215.521103 370.789368 215.64267 370.857056 215.696838 370.870605 C 216.346283 371.181763 217.090195 371.168243 217.72641 370.843506 C 218.849548 370.275024 220.581146 369.20639 221.149323 367.907196 C 221.609802 367.542175 221.555634 366.797913 221.000671 366.581238 L 269.34494 329.386047 C 268.087036 340.129456 271.48288 349.505981 279.438629 357.529419 C 286.812988 364.957642 297.434509 368.570496 307.879669 368.962585 C 316.511932 369.287323 325.076813 367.582458 333.330505 364.984741 Z"/>
        <path id="path39" fill="#2c3144" stroke="none" opacity="0.29" style="mix-blend-mode:multiply" d="M 405.989319 317.249268 C 389.982666 345.839294 361.420074 367.095581 329.474213 374.307404 C 329.474213 374.307404 329.474213 374.307404 329.447113 374.307404 C 329.78537 373.346466 330.150726 372.385864 330.529938 371.452332 C 330.841125 370.66745 331.165497 369.869385 331.49057 369.098022 C 331.760773 368.462158 332.018433 367.839783 332.315735 367.217468 C 332.464386 366.852112 332.626892 366.500305 332.789429 366.148499 C 332.979034 365.756042 333.154785 365.377167 333.330505 364.998291 L 333.330505 364.998291 C 335.075989 364.443665 336.807617 363.861603 338.526001 363.239258 C 364.829773 353.727295 389.238098 338.343353 401.970459 314.245544 C 402.349701 314.488983 402.715057 314.746338 403.093597 315.016846 C 404.081299 315.720459 405.055786 316.477905 405.989319 317.262817 Z"/>
        <path id="path40" fill="#2c3144" stroke="none" opacity="0.29" style="mix-blend-mode:multiply" d="M 169.043869 372.358765 L 168.922302 372.453552 C 137.63974 365.539368 109.793968 344.499756 94.46386 316.396973 C 95.05912 315.923279 95.654381 315.476685 96.263512 315.043945 C 96.642075 314.773407 97.021301 314.516083 97.413734 314.259094 C 110.146103 338.356873 134.554428 353.727295 160.858215 363.239258 C 162.643997 363.888672 164.443649 364.497803 166.256516 365.065979 C 166.446121 365.512604 166.621872 365.945343 166.797607 366.391968 C 167.596344 368.353821 168.340256 370.356262 169.029999 372.372314 Z"/>
        <path id="path41" fill="#2c3144" stroke="none" opacity="0.29" style="mix-blend-mode:multiply" d="M 421.143005 352.144348 C 421.115936 352.793762 421.075623 353.456757 421.00824 354.106201 C 409.723389 352.049561 397.207733 354.282257 386.275024 361.182587 C 374.585175 368.570496 365.74942 379.854675 359.322449 392.099792 C 353.206665 403.749664 349.039185 416.752258 349.66153 429.890259 C 350.216492 441.309875 354.776428 452.82431 363.05722 460.550323 C 359.417603 459.603271 355.764099 458.696655 352.124512 457.844238 C 352.083527 457.776672 352.029358 457.695404 351.975861 457.627686 C 347.334656 450.781219 345.52179 442.378845 344.939758 434.139008 C 343.369995 412.584778 349.837921 390.178589 364.206757 374.063599 C 378.306061 358.260132 400.197906 349.208344 421.129791 352.157898 Z"/>
        <path id="path42" fill="#2c3144" stroke="none" opacity="0.29" style="mix-blend-mode:multiply" d="M 149.262192 452.364502 C 148.369629 454.326355 147.381271 456.247742 146.244919 458.08786 C 142.930359 458.872559 139.628357 459.684357 136.340866 460.550323 C 144.621674 452.82431 149.180923 441.309875 149.722672 429.890259 C 150.358231 416.752258 146.19075 403.762878 140.074966 392.099792 C 133.647995 379.854675 124.812904 368.570496 113.109192 361.182587 C 102.189697 354.282257 89.674026 352.049561 78.403053 354.106201 C 78.295364 352.983398 78.227318 351.873779 78.214104 350.737122 C 101.865303 349.072906 126.206245 359.721527 140.724396 378.528717 C 156.622681 399.13559 160.032379 428.659119 149.262192 452.350952 Z"/>
        <path id="path43" fill="#2c3144" stroke="none" opacity="0.17" style="mix-blend-mode:multiply" d="M 403.093597 315.003326 C 395.25943 329.331848 383.948151 341.739502 370.363525 350.80484 C 359.038361 358.368469 346.157349 363.604614 332.789429 366.134949 C 332.979034 365.742493 333.154785 365.363617 333.330505 364.984741 L 333.330505 364.984741 C 335.075989 364.430115 336.807617 363.848053 338.526001 363.225708 C 364.829773 353.713745 389.238098 338.329803 401.970459 314.231995 C 402.349701 314.475464 402.715057 314.732788 403.093597 315.003326 Z"/>
        <path id="path44" fill="#2c3144" stroke="none" opacity="0.17" style="mix-blend-mode:multiply" d="M 166.811478 366.364868 C 137.464005 360.316772 111.052536 341.090088 96.27739 315.030396 C 96.655952 314.759857 97.034515 314.502533 97.426949 314.245544 C 110.159317 338.343353 134.568298 353.713745 160.871429 363.225708 C 162.657211 363.875122 164.456863 364.484253 166.270386 365.052429 C 166.459335 365.499054 166.635742 365.931793 166.811478 366.378418 Z"/>
        <path id="path45" fill="#1f2744" stroke="none" opacity="0.4" style="mix-blend-mode:screen" d="M 118.317886 339.696411 C 109.834267 332.552277 102.650177 324.136353 97.426949 314.245544 C 95.925255 311.431091 94.612511 308.495087 93.449074 305.423645 C 86.278198 286.4133 86.372673 264.872925 93.205948 245.741013 C 98.130562 231.885834 106.546791 219.356628 117.249588 209.276184 C 108.40062 222.698608 101.215874 237.230316 97.224121 252.776779 C 92.218254 272.287598 92.502342 293.516785 100.431 312.013123 C 104.774223 322.17453 111.214401 331.17215 118.304672 339.696411 Z"/>
        <path id="path46" fill="#1f2744" stroke="none" opacity="0.4" style="mix-blend-mode:screen" d="M 224.911163 313.39328 C 215.940628 301.567688 203.059616 292.705139 188.784592 288.618958 C 182.330536 286.765106 175.552094 285.845123 169.490479 282.922668 C 166.323898 281.393555 163.333725 279.134094 161.182602 276.346741 C 164.822205 278.971558 169.882919 279.837708 174.456055 280.703491 C 186.795975 283.07132 198.905334 287.509338 208.944824 295.045898 C 215.480148 299.943756 221.08194 306.235596 224.911163 313.39328 Z"/>
        <path id="path47" fill="#1f2744" stroke="none" opacity="0.4" style="mix-blend-mode:screen" d="M 327.363373 280.243652 C 321.004456 282.462524 314.699066 284.884521 308.678406 287.901794 C 299.842651 292.326263 291.521545 298.076721 285.28421 305.734833 C 274.757141 318.642944 271.184906 336.746826 275.406555 352.807312 C 270.346527 345.893433 268.316956 338.099915 269.34494 329.399597 C 269.493591 328.209045 269.683228 327.004639 269.940216 325.787048 C 269.940216 325.759949 269.940216 325.73288 269.940216 325.71933 C 270.44101 323.297333 271.158478 320.929504 272.051056 318.642944 C 275.690643 309.293518 282.347534 301.107513 290.425507 295.059448 C 300.464996 287.522888 312.575012 283.084869 324.914948 280.717041 C 325.713043 280.56839 326.524994 280.405853 327.350159 280.243652 Z"/>
        <path id="path48" fill="#2c3144" stroke="none" opacity="0.14" style="mix-blend-mode:multiply" d="M 405.948334 305.423645 C 404.798126 308.481567 403.472168 311.403992 401.984344 314.231995 C 389.251984 338.329803 364.842987 353.713745 338.539886 363.225708 C 336.821472 363.848053 335.089874 364.430115 333.344391 364.984741 L 333.344391 364.984741 C 325.076813 367.582458 316.525787 369.287323 307.893524 368.962585 C 300.437897 368.692078 292.914886 366.770844 286.5289 362.995789 C 308.597137 362.562744 330.557037 356.609467 349.107239 344.716125 C 373.407867 329.142578 391.254456 303.082916 394.772522 274.439056 C 396.829163 257.728821 393.730652 240.423309 386.167328 225.404694 C 382.459656 218.057434 377.683716 211.238373 371.906189 205.352478 C 371.053253 204.486664 369.280701 203.255188 367.576172 201.91568 C 368.374268 201.130829 369.173004 200.332733 369.944 199.507233 C 386.46463 210.629211 399.535248 226.974121 406.219208 245.754562 C 413.051849 264.886475 413.133087 286.426849 405.962219 305.437195 Z"/>
        <path id="path49" fill="#2c3144" stroke="none" opacity="0.14" style="mix-blend-mode:multiply" d="M 219.958801 357.529419 C 218.375839 359.139465 216.617157 360.560242 214.749451 361.818481 C 212.585098 363.279877 210.257568 364.511353 207.835571 365.526154 C 202.69426 367.636658 197.092468 368.759766 191.531647 368.976135 C 186.119461 369.179321 180.72049 368.58371 175.430527 367.474457 C 172.345215 366.838562 169.300873 366.013062 166.2836 365.065979 C 164.470734 364.497803 162.671082 363.888672 160.8853 363.239258 C 152.509369 360.208435 144.3237 356.595917 136.665253 352.279785 C 150.763885 354.309326 165.120178 354.620544 179.300064 353.145569 C 187.688538 352.279785 196.104767 350.764221 203.803528 347.327423 C 211.502274 343.877075 218.470322 338.356873 222.434982 330.915161 C 225.113983 325.908936 226.250336 319.982422 225.439026 314.394531 C 227.265121 317.966431 228.632034 321.768555 229.444 325.705811 C 229.444 325.773499 229.471085 325.814148 229.471085 325.881836 C 231.987564 338.113434 228.767471 348.653381 219.958801 357.542969 Z"/>
        <path id="path50" fill="#bec4cf" stroke="none" opacity="0.42" style="mix-blend-mode:multiply" d="M 334.020905 454.028717 C 306.256409 448.792267 277.96402 446.262238 249.712585 446.532776 C 222.407898 446.275787 195.10321 448.630066 168.259003 453.487305 C 169.43631 450.267212 170.47818 446.99295 171.371399 443.677734 C 171.50618 443.177277 171.641617 442.676483 171.763168 442.176025 L 171.763168 442.176025 C 223.084412 427.102905 279.100372 427.847168 329.920807 444.516785 C 331.125214 447.750397 332.491455 450.930176 334.034119 454.028717 Z"/>
        <path id="path51" fill="#2c3144" stroke="none" opacity="0.29" style="mix-blend-mode:multiply" d="M 142.822006 452.594421 C 152.239151 448.535278 161.900085 445.057861 171.736084 442.176025 C 171.614517 442.676483 171.47908 443.177277 171.344315 443.677734 C 170.451096 446.99295 169.422424 450.267212 168.231903 453.487305 C 160.858215 454.827148 153.510941 456.355927 146.217834 458.07431 C 142.903275 458.859009 139.601257 459.670807 136.313782 460.536774 C 138.830261 458.196045 140.9814 455.503479 142.808136 452.580872 Z"/>
        <path id="path52" fill="#2c3144" stroke="none" opacity="0.29" style="mix-blend-mode:multiply" d="M 363.070435 460.550323 C 359.430817 459.603271 355.777313 458.696655 352.137726 457.844238 C 346.13028 456.437164 340.095734 455.165222 334.020905 454.028717 C 332.478241 450.930176 331.111328 447.750397 329.907593 444.516785 C 339.838745 447.777496 349.567047 451.647339 359.025146 456.112305 C 360.242767 457.695404 361.595825 459.183716 363.070435 460.550323 Z"/>
        <path id="path53" fill="#bec4cf" stroke="none" opacity="0.42" style="mix-blend-mode:multiply" d="M 308.651306 450.023743 C 289.112762 447.520477 269.399139 446.357056 249.698715 446.532776 C 223.842209 446.289337 197.944733 448.386627 172.466782 452.756927 C 192.505463 442.744202 215.074493 437.792175 237.535172 437.440369 C 261.740692 437.061462 285.825287 441.851318 308.651306 450.023743 Z"/>
        <path id="path54" fill="#2c3144" stroke="none" opacity="0.29" style="mix-blend-mode:multiply" d="M 397.911346 86.257416 C 397.911346 93.861694 396.2742 101.722626 391.660095 107.770691 C 387.750275 112.912354 381.404572 116.457489 375.031128 116.308502 C 361.216583 90.506165 339.649139 69.087341 314.157959 54.663666 C 313.90097 53.080719 313.887085 51.470673 314.090576 49.901276 C 317.757294 51.524841 321.85672 55.056122 324.77951 56.815125 C 329.365845 59.588959 333.966736 62.335663 338.55307 65.109467 C 347.618744 70.561951 356.684418 76.014771 365.74942 81.46759 C 368.996613 83.429443 372.311829 85.405151 375.978516 86.379303 C 379.645233 87.339905 383.7995 87.177399 386.951538 85.066895 C 392.756165 81.156403 392.918671 72.672791 391.214172 65.880463 C 389.79306 60.197754 387.466187 54.772034 384.394745 49.792908 C 392.97287 59.873047 397.871033 73.038147 397.898132 86.270966 Z"/>
        <path id="path55" fill="#2c3144" stroke="none" opacity="0.29" style="mix-blend-mode:multiply" d="M 185.240112 54.650452 C 159.762161 69.073792 138.180832 90.492615 124.366287 116.294952 C 118.006714 116.443939 111.647797 112.898804 107.724098 107.757477 C 103.55661 102.291138 101.811134 95.349823 101.527046 88.449493 C 103.921959 90.600647 106.898262 92.062042 110.132225 92.373199 C 119.441017 93.266083 127.370338 86.203247 134.405777 80.046814 C 147.24649 68.816803 161.412506 59.088165 176.471741 51.118866 C 179.110443 49.738739 181.911011 48.385681 184.779633 47.38446 C 185.429062 49.752289 185.618668 52.214905 185.226242 54.636932 Z"/>
        <path id="path56" fill="#1f2744" stroke="none" opacity="0.4" style="mix-blend-mode:screen" d="M 177.662933 36.465271 C 160.506073 32.703766 141.901703 35.815857 126.991119 45.09787 C 117.830978 50.807709 110.132225 58.790527 104.598488 68.045471 C 107.11496 60.75238 111.092834 53.973938 116.288322 48.277344 C 125.679031 38.021484 138.978912 31.459076 152.807327 30.200836 C 160.749863 29.483704 169.152222 30.593292 175.768799 35.044525 C 176.418228 35.4776 177.040573 35.951294 177.649048 36.465271 Z"/>
        <path id="path57" fill="#1f2744" stroke="none" opacity="0.4" style="mix-blend-mode:screen" d="M 373.191162 39.753418 C 368.428436 38.373291 363.557343 37.412354 358.632721 36.857727 C 345.832977 35.423401 332.748474 36.830627 320.544647 40.876221 C 319.394409 41.255127 318.027496 41.94519 316.593201 42.662323 C 318.311584 39.631531 320.760681 36.979614 323.629272 35.058075 C 330.24585 30.606812 338.648224 29.497223 346.590759 30.214386 C 356.088501 31.0802 365.302826 34.42218 373.205048 39.753418 Z"/>
        <path id="path58" fill="#1f2744" stroke="none" opacity="0.4" style="mix-blend-mode:screen" d="M 73.586792 454.9216 C 67.308479 449.103455 61.977558 442.135406 57.566288 434.788452 C 49.218105 420.919739 43.548923 404.669647 45.781319 388.622375 C 47.878933 373.59024 56.335468 363.117676 67.45713 357.691956 C 58.716511 365.796692 53.480064 377.676453 52.249245 389.664246 C 50.733673 404.466492 54.697674 419.377075 60.881516 432.907532 C 64.412773 440.620148 68.674736 447.994202 73.586792 454.908051 Z"/>
        <path id="path59" fill="#1f2744" stroke="none" opacity="0.4" style="mix-blend-mode:screen" d="M 429.018158 356.419861 C 412.199585 355.40506 395.02951 360.546692 381.674805 370.816437 C 365.939026 382.939667 355.764099 401.977112 354.424286 421.799072 C 353.517853 435.26181 356.711517 448.927704 363.232941 460.726227 C 363.165558 460.658661 363.124603 460.618042 363.05722 460.563873 C 354.776428 452.83786 350.216492 441.323425 349.66153 429.903809 C 349.039185 416.765808 353.206665 403.776428 359.322449 392.113342 C 365.74942 379.868225 374.585175 368.58371 386.275024 361.196136 C 397.207733 354.295807 409.723389 352.06308 421.00824 354.119751 C 423.767853 354.620544 426.446838 355.391541 429.018158 356.419861 Z"/>
        <path id="path60" fill="#2c3144" stroke="none" opacity="0.21" style="mix-blend-mode:multiply" d="M 453.684143 402.640076 C 452.331116 413.937805 447.771179 424.965332 441.845001 434.802002 C 434.105286 447.655914 423.633057 459.359619 410.034576 465.732605 C 396.734039 471.943024 380.159241 472.30838 367.901215 464.338928 C 382.256836 464.582367 396.815277 460.658661 409.493469 453.744629 C 429.694702 442.730652 445.538788 424.126282 453.670288 402.640076 Z"/>
        <path id="path61" fill="#2c3144" stroke="none" opacity="0.21" style="mix-blend-mode:multiply" d="M 149.722672 429.890259 C 149.180923 441.309875 144.621674 452.82431 136.340866 460.550323 C 135.096176 461.713928 133.756348 462.796417 132.335907 463.784119 C 123.148682 470.129974 111.376923 471.631836 100.336525 469.345123 C 109.239006 468.100433 117.952538 464.974792 124.717766 459.156647 C 136.408264 449.117004 140.589615 432.569275 139.886017 417.185303 C 139.533875 409.337585 138.005096 401.557587 135.474731 394.129395 C 131.808044 383.413361 126.070808 373.684723 118.724197 365.201111 C 127.681519 372.372314 134.716949 381.911346 140.061752 392.113342 C 146.177536 403.762878 150.345016 416.765808 149.708801 429.903809 Z"/>
        <path id="path62" fill="#2c3144" stroke="none" opacity="0.21" style="mix-blend-mode:multiply" d="M 363.341309 205.717834 C 359.782959 211.725281 353.842896 216.271637 347.916718 220.168274 C 315.078278 241.681885 274.852264 251.707825 235.748734 248.149139 C 201.530167 245.023865 168.35347 231.506958 141.577316 210.006866 C 155.053589 219.802917 170.870605 227.501984 186.76889 232.169922 C 191.81572 233.644531 196.902863 234.916656 202.00386 236.01236 C 233.448959 242.750519 265.976227 242.750519 297.40744 236.01236 C 302.508423 234.916656 307.595581 233.644531 312.656281 232.169922 C 329.40683 227.258209 346.049011 218.977753 359.971893 208.437469 C 361.122131 207.57132 362.245239 206.678436 363.341309 205.731384 Z"/>
        <path id="path63" fill="#427845" stroke="none" opacity="0.25" style="mix-blend-mode:multiply" d="M 341.841217 273.654175 L 338.485687 276.224854 C 338.485687 276.224854 338.485687 276.224854 338.458618 276.224854 C 338.431519 276.224854 338.431519 276.224854 338.418304 276.198059 C 335.942139 275.250671 331.964264 271.692322 328.256592 266.861877 C 324.616974 262.139771 322.222076 257.498901 321.870605 254.806351 L 323.73764 253.37204 C 323.886292 254.41391 324.184235 255.442245 324.495422 256.402832 C 325.510193 259.433655 327.282776 262.193909 329.447113 264.534668 C 332.924866 268.282623 337.30838 271.029358 341.719666 273.600006 C 341.759949 273.627075 341.787048 273.640625 341.828003 273.667725 Z"/>
        <path id="path64" fill="#427845" stroke="none" opacity="0.25" style="mix-blend-mode:multiply" d="M 274.364685 313.60965 C 273.499237 315.233215 272.741455 316.92453 272.064911 318.629395 C 271.685699 318.264038 271.307129 317.858063 270.914703 317.452393 C 269.818665 316.288635 268.695526 314.962708 267.599487 313.528381 C 263.959869 308.806274 261.564941 304.151855 261.21347 301.45932 L 263.648682 299.5784 C 264.176544 301.039795 264.569 302.51474 265.312897 303.935486 C 267.112549 307.344879 269.683228 310.321838 272.822693 312.54068 C 273.188049 312.797668 273.552734 313.041473 273.918091 313.284912 C 274.067413 313.39328 274.216034 313.487732 274.364685 313.5961 Z"/>
        <path id="path65" fill="#427845" stroke="none" opacity="0.25" style="mix-blend-mode:multiply" d="M 222.678772 365.295898 L 221.014542 366.581238 C 221.014542 366.581238 220.987457 366.581238 220.987457 366.581238 C 219.377411 365.985962 217.144363 364.281128 214.749451 361.818481 C 215.466934 361.331573 216.170547 360.830811 216.860275 360.276154 C 217.063095 360.64151 217.239502 360.939148 217.388153 361.128754 C 218.835663 362.873901 220.6492 364.321747 222.678772 365.309448 Z"/>
        <path id="path66" fill="#427845" stroke="none" opacity="0.25" style="mix-blend-mode:multiply" d="M 215.521103 370.789368 L 212.544144 373.089447 C 210.420105 371.73642 208.444702 370.153442 206.672134 368.36734 C 206.131058 367.812714 205.508698 367.230652 204.966949 366.567688 C 205.927567 366.256531 206.88884 365.904724 207.822357 365.512604 C 210.825745 368.272522 213.897186 369.977386 215.521103 370.789368 Z"/>
        <path id="path67" fill="#64b569" stroke="none" opacity="0.35" style="mix-blend-mode:screen" d="M 331.544739 279.282715 C 331.395416 279.323364 331.246765 279.363983 331.098114 279.404602 C 328.581635 277.943237 324.955231 275.399658 322.05954 271.638153 C 318.419922 266.902496 316.931458 261.558044 316.404236 259.01413 C 316.377136 258.906128 316.363281 258.82486 316.336182 258.743591 C 316.187531 257.97226 316.44455 257.201263 317.012726 256.673401 C 317.919159 255.807587 319.353455 254.576111 320.530762 254.129822 C 319.827148 254.874069 318.920715 255.46933 318.636627 256.72757 C 318.352539 257.97226 318.487976 259.285004 318.70401 260.556793 C 320.029968 268.093353 324.684357 274.993683 331.165497 279.052795 C 331.28772 279.134094 331.422516 279.201782 331.544739 279.282715 Z"/>
        <path id="path68" fill="#64b569" stroke="none" opacity="0.35" style="mix-blend-mode:screen" d="M 270.075653 325.218872 C 270.035339 325.381073 269.994385 325.530029 269.967316 325.705811 C 269.967316 325.73288 269.967316 325.759949 269.967316 325.773499 C 267.477905 324.271484 264.13559 321.822723 261.41629 318.291138 C 257.776672 313.569031 256.301422 308.210999 255.76033 305.667114 C 255.733246 305.572632 255.720032 305.477844 255.692932 305.396545 C 255.544296 304.638794 255.801285 303.854248 256.369476 303.326355 C 257.127258 302.596008 258.277466 301.607971 259.319336 301.053345 C 258.114929 302.636292 257.654449 304.8013 257.857941 306.803772 C 258.08786 309.279968 259.197113 311.607178 260.455688 313.745087 C 262.999237 318.074768 266.273529 321.971375 270.075653 325.232422 Z"/>
        <path id="path69" fill="#64b569" stroke="none" opacity="0.35" style="mix-blend-mode:screen" d="M 216.265015 371.059875 C 216.075409 371.032806 215.886459 370.965088 215.696838 370.870605 C 215.64267 370.843506 215.588501 370.816437 215.521103 370.789368 C 213.897186 369.977386 210.825745 368.272522 207.822357 365.512604 C 208.5121 365.22818 209.202484 364.930542 209.865143 364.605835 C 210.677094 366.621857 212.503845 368.326721 214.15419 369.62558 C 214.81749 370.153442 215.534317 370.640381 216.265015 371.059875 Z"/>
        <path id="path70" fill="#64b569" stroke="none" opacity="0.35" style="mix-blend-mode:screen" d="M 361.393005 230.938446 C 354.709015 232.372742 348.268188 238.055481 342.842804 242.047241 C 339.933228 244.184814 337.065277 246.403992 334.264038 248.690552 C 331.855896 250.652405 329.014374 252.086716 328.946991 255.415161 C 328.919891 257.025208 330.962677 257.377014 332.139984 257.241882 C 335.508728 256.835938 337.186829 254.901154 339.757477 252.817413 C 342.57193 250.544052 345.440521 248.33876 348.376526 246.200836 C 351.299316 244.076797 354.28949 242.020142 357.292908 240.01767 C 359.890625 238.272186 362.962067 236.85141 364.802704 234.280426 C 366.371765 232.088654 363.232941 230.546356 361.37912 230.938446 Z"/>
        <path id="path71" fill="#64b569" stroke="none" opacity="0.35" style="mix-blend-mode:screen" d="M 312.385406 266.726746 C 295.553589 275.778564 282.401703 290.634949 266.774292 301.581238 C 264.054993 303.475342 268.573944 306.303345 270.643829 304.490112 C 284.837585 292.055725 302.738342 283.04425 315.14566 268.796631 C 316.485504 267.254303 313.548828 266.104065 312.385406 266.726746 Z"/>
        <path id="path72" fill="#64b569" stroke="none" opacity="0.35" style="mix-blend-mode:screen" d="M 250.591934 313.58255 C 247.41214 314.570251 245.12558 316.829712 242.622314 318.981201 C 239.930099 321.308411 237.305267 323.703308 234.652695 326.071136 C 231.459686 328.912659 236.96701 331.848663 239.48349 329.697205 C 242.202789 327.383545 244.949844 325.096985 247.628845 322.742676 C 249.766754 320.862122 252.932678 318.80545 253.839111 316.018097 C 254.421158 314.245544 252.026245 313.122406 250.578064 313.569031 Z"/>
        <path id="path73" fill="#64b569" stroke="none" opacity="0.35" style="mix-blend-mode:screen" d="M 175.727829 376.10672 C 175.984833 376.039001 175.727829 375.809082 174.942963 375.416656 C 174.550522 375.227386 174.130997 375.132568 173.712143 375.119019 C 172.791824 375.024231 171.979874 375.240906 171.127609 375.579163 C 169.260574 376.309875 167.488007 377.446228 165.823776 378.569366 C 164.267914 379.624756 162.684296 380.720825 161.290955 381.965515 C 160.695694 382.506592 160.113632 383.034485 159.748291 383.765167 C 159.180115 384.90152 159.735077 385.632202 159.423904 386.795959 C 159.234299 387.499573 160.140732 387.634705 160.62764 387.486053 C 161.859116 387.093597 163.076736 387.337067 164.321426 386.836609 C 165.782822 386.254578 166.946915 385.226227 168.204819 384.306274 C 170.599747 382.560791 173.305832 381.180634 175.606277 379.327148 C 177.175354 378.055023 176.796799 376.878052 175.714615 376.10672 Z"/>
        <path id="path74" fill="#427845" stroke="none" opacity="0.25" style="mix-blend-mode:multiply" d="M 379.171539 244.929047 L 341.841217 273.654175 L 338.485687 276.224854 C 338.485687 276.224854 338.485687 276.224854 338.458618 276.224854 C 338.431519 276.224854 338.431519 276.224854 338.418304 276.198059 C 336.456116 277.672668 334.061218 278.606201 331.544739 279.282715 C 331.395416 279.323364 331.246765 279.363983 331.098114 279.404602 C 329.054688 279.932495 326.944519 280.311035 324.928162 280.703491 C 324.833679 280.730591 324.752411 280.730591 324.657288 280.75766 C 323.412598 281.001099 322.154694 281.271973 320.909332 281.556091 C 323.223633 280.135315 325.537292 278.700989 327.850952 277.266724 C 329.961761 275.954285 332.085815 274.641876 334.196655 273.329468 C 341.489746 268.82373 348.768982 264.304749 356.062073 259.799011 C 359.769073 257.498901 370.755951 248.433563 379.158325 244.929047 Z"/>
        <path id="path75" fill="#427845" stroke="none" opacity="0.25" style="mix-blend-mode:multiply" d="M 278.383545 307.182678 C 276.881836 309.239319 275.541992 311.377258 274.364685 313.5961 C 273.499237 315.219666 272.741455 316.911011 272.064911 318.615845 C 271.239075 320.753754 270.549347 322.945526 270.062439 325.205322 C 270.021484 325.367523 269.981171 325.51651 269.954102 325.692261 C 269.954102 325.71933 269.954102 325.746399 269.954102 325.759949 C 269.697083 326.97757 269.507477 328.195496 269.358826 329.372498 L 222.691986 365.282349 L 221.027756 366.567688 C 221.568848 366.784393 221.636902 367.528625 221.176407 367.893982 C 220.608246 369.192841 218.876633 370.26181 217.753494 370.829956 C 217.293671 371.059875 216.779022 371.141174 216.292099 371.046326 C 216.102493 371.019257 215.913544 370.951538 215.723923 370.857056 C 215.669754 370.829956 215.615585 370.802887 215.548187 370.775818 L 212.571228 373.075928 L 175.172867 401.841675 L 170.992172 405.062073 C 169.273788 406.374512 164.186646 402.626526 159.626724 396.713562 C 157.651337 394.129395 156.081589 391.558716 155.093887 389.380188 C 159.274597 392.816956 165.309128 394.454102 170.802567 393.818207 C 179.651535 392.803406 187.350281 387.526337 194.643387 382.39859 C 200.773041 378.095642 206.929138 373.779541 213.003967 369.382141 C 214.884888 368.002014 216.779022 366.635406 218.646713 365.24173 C 233.20517 354.485107 247.249619 343.106079 259.752075 330.076111 C 261.930298 327.80307 264.068207 325.475891 266.138092 323.108032 C 267.775879 321.254211 269.37204 319.360107 270.941772 317.465942 C 271.036255 317.357605 271.131409 317.235718 271.225861 317.114136 C 272.078125 316.072266 272.984558 314.746338 273.94519 313.312012 C 275.298218 311.323059 276.759613 309.130981 278.410614 307.196228 Z"/>
        <path id="path76" fill="#427845" stroke="none" opacity="0.25" style="mix-blend-mode:multiply" d="M 231.71669 337.315002 C 231.1353 347.544128 225.641861 357.394348 217.225632 363.252808 C 217.036682 363.388245 216.833191 363.523315 216.644241 363.645233 C 214.506317 365.079529 212.219757 366.256531 209.838058 367.217468 C 205.035004 369.179321 199.838867 370.288574 194.670471 370.870605 C 187.458633 371.70932 179.935623 371.587769 173.130096 369.192841 L 175.403442 367.433838 C 180.707275 368.556946 186.092377 369.152222 191.504547 368.935516 C 196.050598 368.773315 200.623734 367.988464 204.953751 366.540924 C 205.914352 366.229431 206.874954 365.877625 207.808487 365.485535 C 208.498886 365.201111 209.188614 364.903473 209.851929 364.578735 C 211.543228 363.76712 213.180359 362.833252 214.736237 361.791748 C 215.453064 361.304504 216.156662 360.803711 216.847061 360.249084 C 217.92923 359.423889 218.9711 358.490051 219.945587 357.5159 C 228.686203 348.70755 231.920166 338.262085 229.525253 326.152405 C 231.432602 329.440186 231.93338 333.45871 231.71669 337.301483 Z"/>
        <path id="path77" fill="#1f2744" stroke="none" opacity="0.4" style="mix-blend-mode:screen" d="M 243.555832 155.114075 C 244.530319 155.817352 246.004929 155.93924 246.898148 155.127289 C 247.871964 154.247925 247.818451 152.678528 247.276703 151.487671 C 246.857178 150.554138 246.15358 149.701904 245.233932 149.25528 C 244.3004 148.808655 243.123093 148.835754 242.297928 149.44455 C 240.389923 150.865326 242.054138 154.031555 243.555832 155.114075 Z"/>
        <path id="path78" fill="#a85854" stroke="none" opacity="0.31" style="mix-blend-mode:multiply" d="M 122.715286 434.86972 C 120.428719 439.348053 116.70784 443.150177 113.420364 446.952332 C 109.834267 446.952332 106.221741 446.979401 102.677269 446.532776 C 106.289787 445.923981 109.780754 444.584473 112.702881 442.365295 C 117.344063 438.861145 120.266853 433.272888 120.889198 427.481812 C 121.294853 423.760925 120.699593 419.715332 118.237289 416.887695 C 116.099365 414.411499 112.63549 413.153259 109.415405 413.667267 C 106.695442 414.113892 105.085396 415.62912 103.258652 417.469421 C 103.786522 416.251801 104.503349 415.115112 105.369484 414.127441 C 107.656052 411.542908 111.160889 411.055969 114.597015 411.461975 C 119.590332 412.030151 123.649467 416.346283 124.894165 421.217377 C 126.138855 426.088135 125.015724 430.377502 122.715286 434.856171 Z"/>
        <path id="path79" fill="#a85854" stroke="none" opacity="0.37" style="mix-blend-mode:multiply" d="M 100.863739 421.948059 C 97.332474 420.743652 93.43586 420.513763 89.931023 421.731384 C 87.698631 422.516235 85.669067 423.909912 84.194458 425.749878 C 84.478546 425.019501 84.843895 424.329437 85.290504 423.693542 C 87.197845 420.946838 90.513069 419.214905 93.855385 419.214905 C 96.412163 419.214905 98.95639 420.243225 100.850525 421.948059 Z"/>
        <path id="path80" fill="#a85854" stroke="none" opacity="0.31" style="mix-blend-mode:multiply" d="M 119.887634 397.146637 C 118.724197 399.582184 116.423759 401.571136 113.731537 401.895844 C 110.822624 402.24765 108.062363 400.556335 106.275917 398.161438 C 108.873657 398.269775 111.51236 397.552612 113.650276 396.037048 C 117.168327 393.561218 119.143723 389.08255 118.615845 384.807037 C 118.426239 383.332092 117.939323 381.911346 117.208626 380.598938 L 117.249588 380.639557 C 119.427811 382.939667 120.509979 386.078827 120.902412 389.204437 C 121.213593 391.896973 121.051064 394.69754 119.887634 397.133087 Z"/>
        <path id="path81" fill="#a85854" stroke="none" opacity="0.31" style="mix-blend-mode:multiply" d="M 96.439255 401.39505 C 94.599297 404.452942 90.377632 405.549011 86.981812 404.412659 C 86.900551 404.385559 86.806068 404.34494 86.724808 404.304321 C 88.794678 403.154083 90.58046 401.489868 91.825813 399.473846 C 94.044334 395.874847 94.490944 391.247223 93.016335 387.282898 C 92.231468 385.199158 90.918724 383.332092 89.268379 381.843628 C 90.729774 382.493042 92.041855 383.467224 93.097603 384.658051 C 95.235519 387.039429 96.439255 390.13797 97.115776 393.26358 C 97.697823 395.996429 97.873558 399.000488 96.426041 401.39505 Z"/>
        <path id="path82" fill="#a85854" stroke="none" opacity="0.31" style="mix-blend-mode:multiply" d="M 75.69696 417.72641 C 73.532616 419.350006 70.50148 419.485443 67.985001 418.538361 C 67.619652 418.402924 67.254303 418.240723 66.902168 418.064667 C 67.687042 418.024048 68.471916 417.888916 69.229698 417.658691 C 72.760963 416.590057 75.589272 413.477997 76.224838 409.851593 C 76.725624 407.010376 75.94075 404.047302 74.506439 401.557587 C 76.089401 403.532959 77.320885 405.711517 77.94323 407.457001 C 79.228889 410.988281 78.687798 415.466919 75.69696 417.71286 Z"/>
        <path id="path83" fill="#a85854" stroke="none" opacity="0.31" style="mix-blend-mode:multiply" d="M 397.126465 422.09671 C 395.02951 418.308105 391.971283 414.952606 388.034363 413.153259 C 386.451416 412.422577 384.705933 411.989502 382.946564 411.86795 C 383.555725 411.678345 384.17807 411.556458 384.81427 411.475525 C 388.237183 411.069519 391.741364 411.556458 394.027954 414.140961 C 395.949829 416.319183 397.167419 419.214905 397.126465 422.09671 Z"/>
        <path id="path84" fill="#a85854" stroke="none" opacity="0.31" style="mix-blend-mode:multiply" d="M 413.525543 437.900513 C 410.656921 442.040588 405.908051 444.584473 401.009857 445.775024 C 396.125549 446.979401 391.010681 446.979401 385.977722 446.952332 C 385.39566 446.275787 384.800415 445.599274 384.191284 444.92276 C 390.550842 445.504456 397.126465 443.84024 402.322601 440.105835 C 405.001617 438.184601 407.38266 435.654266 408.519012 432.555725 C 409.656006 429.444 409.371918 425.709564 407.247223 423.17923 C 405.515625 421.08194 402.444183 420.121338 399.913818 420.919739 C 401.578033 419.837219 403.553436 419.241974 405.542694 419.228424 C 408.898224 419.228424 412.199585 420.960388 414.107574 423.707092 C 416.975525 427.847168 416.407349 433.760132 413.539398 437.914063 Z"/>
        <path id="path85" fill="#a85854" stroke="none" opacity="0.31" style="mix-blend-mode:multiply" d="M 440.911499 404.791199 C 440.884399 407.943909 439.504272 410.974731 437.623352 413.505066 C 435.99942 415.669739 433.94278 417.591309 431.4263 418.538361 C 428.895935 419.485443 425.865479 419.350006 423.714325 417.72641 C 422.848206 417.076965 422.184875 416.238251 421.725067 415.290863 C 422.509949 415.521118 423.348999 415.64267 424.160278 415.62912 C 426.366241 415.602051 428.50351 414.844574 430.505981 413.897522 C 433.036346 412.706665 435.472229 411.164337 437.230896 408.985779 C 438.989594 406.807251 440.031464 403.938965 439.531342 401.17868 C 439.341736 400.15036 438.962524 399.203308 438.475616 398.296875 C 440.058563 399.988159 440.924713 402.423401 440.911499 404.777679 Z"/>
        <path id="path86" fill="#a85854" stroke="none" opacity="0.31" style="mix-blend-mode:multiply" d="M 419.749664 397.065369 C 418.355652 400.339966 415.798889 403.30307 412.41626 404.426208 C 409.453186 405.413879 405.839996 404.696747 403.756927 402.43692 C 405.637177 402.531738 407.518097 402.288269 409.303864 401.693024 C 413.444275 400.326416 416.962311 397.173737 418.748108 393.195862 C 419.979584 390.435608 420.385223 387.20163 419.248901 384.387512 C 418.8974 383.521393 418.382751 382.723297 417.747192 382.033234 C 419.47879 383.034485 420.845734 384.712219 421.454193 386.647003 C 422.401581 389.637177 420.940186 394.291565 419.762878 397.065369 Z"/>
        <path id="path87" fill="#a85854" stroke="none" opacity="0.31" style="mix-blend-mode:multiply" d="M 394.366211 396.037048 C 392.864502 399.473846 389.373535 402.342468 385.652679 401.895844 C 385.314423 401.855225 384.990021 401.787476 384.664978 401.706573 C 385.774902 401.016479 386.762604 400.16391 387.587769 399.149109 C 389.765991 396.470123 390.65921 392.992706 391.26767 389.610077 C 391.755249 386.890442 392.10672 384.022156 391.200287 381.424438 C 390.740448 380.084595 389.874329 378.867004 388.75119 378.00119 C 388.602539 377.892822 388.399719 377.770935 388.183014 377.676453 C 389.035278 377.608765 389.901428 377.676453 390.726593 377.906372 C 397.654327 379.814056 396.558289 391.044403 394.366211 396.037048 Z"/>
        <path id="path88" fill="#d6706b" stroke="none" opacity="0.24" style="mix-blend-mode:screen" d="M 382.892395 433.476044 C 383.650177 434.463745 384.570496 435.356628 385.706848 435.897705 C 386.843842 436.439117 388.196899 436.561035 389.333252 436.046692 C 391.024536 435.28891 391.822632 433.367676 392.323425 431.581573 C 393.027039 429.024475 393.405579 426.29129 392.756165 423.720306 C 392.10672 421.149658 390.279968 418.75473 387.73642 417.996948 C 384.529541 417.049866 381.119843 419.404175 380.430084 422.556885 C 379.618134 426.30484 380.565521 430.458771 382.892395 433.489563 Z"/>
        <path id="path89" fill="#d6706b" stroke="none" opacity="0.24" style="mix-blend-mode:screen" d="M 425.067383 406.983307 C 424.931946 407.984558 424.986115 409.121216 425.675842 409.878662 C 426.230804 410.487823 427.110168 410.731262 427.935333 410.663544 C 428.761169 410.582275 429.532166 410.230469 430.235779 409.797729 C 431.507568 409.026428 432.64389 407.984558 433.401672 406.699219 C 434.159485 405.413879 434.497742 403.857697 434.200439 402.396637 C 434.010834 401.449219 433.537109 400.529236 432.752258 399.974609 C 428.923035 397.349457 425.432068 404.141785 425.067383 406.983307 Z"/>
        <path id="path90" fill="#d6706b" stroke="none" opacity="0.24" style="mix-blend-mode:screen" d="M 406.192139 389.217651 C 405.555908 390.719666 405.325989 392.559967 406.259521 393.899475 C 407.220123 395.293152 409.236481 395.712341 410.833313 395.144165 C 412.429474 394.575989 413.647095 393.209412 414.431976 391.707367 C 414.986938 390.638428 415.379364 389.461426 415.352264 388.25705 C 415.325195 387.052979 414.851501 385.835022 413.931183 385.064026 C 410.846527 382.479523 407.301392 386.606384 406.192139 389.231201 Z"/>
        <path id="path91" fill="#d6706b" stroke="none" opacity="0.24" style="mix-blend-mode:screen" d="M 381.363617 389.380188 C 381.336548 390.651978 381.431671 392.059174 382.351318 392.938538 C 383.434143 393.980408 385.314423 393.791107 386.505585 392.844055 C 387.696106 391.896973 388.277496 390.408508 388.642853 388.933563 C 388.926941 387.783691 389.089447 386.579285 388.859558 385.415833 C 388.642853 384.252075 387.993408 383.128937 386.978638 382.533691 C 382.797943 380.138763 381.444885 386.714722 381.377502 389.366638 Z"/>
        <path id="path92" fill="#d6706b" stroke="none" opacity="0.24" style="mix-blend-mode:screen" d="M 63.898777 410.717712 C 64.926773 411.86795 66.41526 412.855652 67.930824 412.557678 C 69.081047 412.327759 70.000694 411.367157 70.420219 410.284668 C 70.853615 409.188599 70.866829 407.984558 70.74527 406.807251 C 70.582741 405.197205 70.163216 403.587158 69.256783 402.24765 C 68.350349 400.908142 66.916046 399.879822 65.306 399.717285 C 62.924294 399.487366 60.948902 401.273499 61.030163 403.587158 C 61.124638 406.198425 62.139423 408.769409 63.884903 410.704163 Z"/>
        <path id="path93" fill="#d6706b" stroke="none" opacity="0.24" style="mix-blend-mode:screen" d="M 82.34063 394.656921 C 82.678886 395.266052 83.071327 395.847778 83.612411 396.267303 C 84.153496 396.686493 84.884193 396.930267 85.547501 396.754211 C 86.155975 396.60556 86.656761 396.118317 86.967934 395.56369 C 87.279106 395.008728 87.428421 394.386383 87.54998 393.764038 C 87.847282 392.248779 88.036896 390.651978 87.644455 389.150269 C 87.252022 387.648254 86.169853 386.254578 84.681366 385.848572 C 83.058113 385.415833 81.150108 386.552185 80.743797 388.189636 C 80.256882 390.151489 81.420319 392.992706 82.34063 394.656921 Z"/>
        <path id="path94" fill="#d6706b" stroke="none" opacity="0.24" style="mix-blend-mode:screen" d="M 106.966316 392.235229 C 107.534485 393.385132 108.46801 394.50827 109.739792 394.603088 C 110.822624 394.684021 111.810318 394.007477 112.540359 393.195862 C 114.786621 390.665497 115.057495 386.592834 113.163368 383.792267 C 112.418793 382.696228 111.322746 381.762695 110.02388 381.53244 C 105.018005 380.653107 105.640358 389.542694 106.966316 392.22171 Z"/>
        <path id="path95" fill="#d6706b" stroke="none" opacity="0.24" style="mix-blend-mode:screen" d="M 94.436768 438.319702 C 96.655952 439.65921 99.402344 440.281891 101.865303 439.510559 C 104.327614 438.739227 106.357178 436.371399 106.262703 433.787201 C 106.154358 430.756409 103.394089 428.483032 100.579651 427.319611 C 98.157646 426.318359 95.384171 425.844666 92.90799 426.724365 C 90.851334 427.454712 88.185547 429.998627 88.740501 432.461243 C 89.254501 434.680115 92.569725 437.223999 94.423561 438.333252 Z"/>
        <path id="path96" fill="#1f2744" stroke="none" opacity="0.4" style="mix-blend-mode:screen" d="M 113.812805 65.325836 C 112.527145 68.30249 111.877708 71.861145 113.447456 74.688812 C 114.94915 77.408447 118.277588 78.802124 121.389328 78.599304 C 124.501724 78.409698 127.383553 76.853821 129.791687 74.891968 C 132.497772 72.69986 134.785004 69.872223 135.853958 66.557007 C 136.936127 63.242096 136.692352 59.412872 134.757919 56.517517 C 127.830162 46.13974 116.870369 58.235901 113.812805 65.339386 Z"/>
        <path id="path97" fill="#1f2744" stroke="none" opacity="0.4" style="mix-blend-mode:screen" d="M 145.59549 59.182953 C 147.124268 59.34549 148.734314 59.128784 150.047058 58.344238 C 152.157898 57.085693 153.253937 54.393127 152.726059 51.99823 C 151.575851 46.789185 144.56749 45.611877 140.927887 49.048676 C 136.922256 52.83725 140.9543 58.682526 145.582275 59.182953 Z"/>
        <path id="path98" fill="#1f2744" stroke="none" opacity="0.4" style="mix-blend-mode:screen" d="M 344.777222 43.18988 C 347.902832 43.162781 351.150024 44.015381 353.436584 46.13974 C 355.723816 48.277344 356.765015 51.863098 355.411987 54.677216 C 353.897064 57.802826 350.067841 59.074615 346.603973 59.142334 C 344.01944 59.196503 341.381409 58.749908 339.135132 57.491669 C 336.875641 56.233429 335.04892 54.109039 334.466858 51.59256 C 332.870697 44.624176 339.44632 43.230499 344.791107 43.176331 Z"/>
        <path id="path99" fill="#1f2744" stroke="none" opacity="0.4" style="mix-blend-mode:screen" d="M 367.508789 54.190308 C 369.714081 55.516266 370.931702 58.317169 370.363525 60.833649 C 369.9711 62.538483 368.847961 64.040527 367.400421 65.014679 C 365.384064 66.381256 362.691864 66.733063 360.432373 65.81308 C 358.186127 64.892792 356.494812 62.646851 356.359375 60.211304 C 356.088501 55.056122 363.341309 51.700592 367.508789 54.190308 Z"/>
    </g>
</svg>
