<?xml version="1.0" encoding="UTF-8"?>
<!-- Generated by Pixelmator Pro 3.6.14 -->
<svg width="500" height="500" viewBox="0 0 500 500" xmlns="http://www.w3.org/2000/svg">
    <g id="Group-copy">
        <linearGradient id="linearGradient1" x1="223.36058" y1="61.704702" x2="223.36058" y2="472.086985" gradientUnits="userSpaceOnUse">
            <stop offset="1e-05" stop-color="#fdc366" stop-opacity="1"/>
            <stop offset="1" stop-color="#ffa366" stop-opacity="1"/>
        </linearGradient>
        <path id="Path" fill="url(#linearGradient1)" stroke="none" d="M 282.60318 264.606079 C 282.533722 265.549805 282.492218 266.507263 282.478302 267.450989 C 282.408875 270.1987 282.519989 272.932495 282.797455 275.638519 C 283.17218 279.4133 283.852173 283.160126 284.78183 286.851563 C 285.586853 290.154388 286.613739 293.415527 287.765503 296.648926 C 290.638245 304.697876 294.398956 312.552521 298.367859 320.198975 C 298.367859 320.198975 298.367859 320.198975 298.367859 320.226593 C 299.450348 322.322083 300.546722 324.389832 301.629028 326.443817 C 307.152374 336.837952 312.273041 348.772491 316.158783 361.040039 C 318.573425 368.644836 320.516144 376.360748 321.806793 383.937744 C 322.542358 388.184326 323.069702 392.389038 323.347168 396.482971 C 323.527588 399.230682 323.597046 401.992249 323.513702 404.767731 C 323.180664 417.368347 320.099915 430.038422 313.910645 440.710205 C 310.496704 446.608124 306.125275 451.895325 300.75473 456.225037 C 293.316467 462.220184 284.448792 466.008667 275.12323 468.395569 C 270.044067 469.700104 264.840027 470.574402 259.663788 471.171021 C 258.109528 471.35144 256.555267 471.490173 255.001007 471.629089 C 247.534958 472.225739 239.985748 472.25351 232.533585 471.517975 C 223.624237 470.643677 214.853806 468.728607 206.499588 465.467438 C 204.015472 464.496094 201.559158 463.399719 199.172287 462.192413 C 193.218826 459.167053 187.640091 455.420227 182.658157 450.993408 C 180.79863 449.341919 179.036163 447.593353 177.370956 445.775513 C 177.370956 445.775513 177.370956 445.775513 177.370956 445.747711 C 175.622391 443.818756 173.984787 441.820313 172.499969 439.71109 C 170.418365 436.810608 168.586456 433.729858 167.032196 430.49649 C 159.246994 414.259827 159.358124 393.984985 169.1138 378.858582 C 175.955429 368.270142 187.723434 360.915222 200.074341 359.222229 C 201.031799 359.097168 202.003326 358.986237 202.97467 358.930664 C 207.318298 358.639282 211.703613 359.083313 215.922226 360.360077 C 217.462769 360.817993 218.947571 361.386993 220.390869 362.080872 C 225.622681 364.53717 230.216003 368.3396 233.754807 372.933075 C 235.267395 374.875793 236.571793 376.971283 237.668152 379.150116 C 241.304031 386.394073 242.553024 394.678833 240.332672 402.519592 C 237.793015 411.470459 230.673904 419.380676 221.653595 421.503967 C 221.265152 421.614929 220.862656 421.684204 220.460159 421.753662 C 215.589172 422.614044 210.399048 421.434509 206.208054 418.839447 C 203.557587 417.187927 201.309448 414.96759 199.796692 412.316956 C 198.86702 410.679504 200.185303 408.639587 202.04483 408.806091 C 210.732086 409.597046 219.502701 401.728668 217.670792 391.487152 C 217.0047 387.740143 214.867691 384.368042 211.814575 382.092133 C 206.388458 378.067657 199.921722 378.553314 194.703796 381.495331 C 192.30304 382.855286 190.179764 384.728882 188.542145 386.921448 C 184.656586 392.153229 183.254959 398.925415 183.46315 405.433838 C 183.948822 420.698975 193.246613 435.367462 206.846527 442.320038 C 209.288956 443.568878 211.856247 444.554291 214.492981 445.275757 C 215.436554 445.53952 216.408066 445.775513 217.37941 445.969635 C 217.37941 445.969635 217.407196 445.997437 217.421082 445.969635 C 222.000534 447.898621 226.982635 448.814575 232.034027 448.814575 C 232.630661 448.814575 233.213577 448.814575 233.810196 448.772888 C 233.990616 448.772888 234.171036 448.772888 234.35144 448.745117 C 234.837112 448.717499 235.322968 448.689728 235.794739 448.634155 C 235.905701 448.634155 236.01683 448.606384 236.127792 448.592499 C 236.710693 448.550995 237.279556 448.481537 237.848572 448.398193 L 239.166855 448.190155 C 239.486176 448.148499 239.805328 448.079041 240.124481 448.009735 C 240.748901 447.884735 241.373489 447.759888 241.997894 447.607239 C 242.289276 447.551697 242.580811 447.468506 242.872177 447.385162 C 243.385635 447.260315 243.885208 447.121582 244.398666 446.955048 C 244.648529 446.899475 244.870621 446.8302 245.106415 446.732971 C 245.370178 446.663513 245.633774 446.580322 245.897522 446.483276 C 246.272079 446.358246 246.64679 446.233398 247.021515 446.094666 C 247.396225 445.969635 247.75705 445.830902 248.117874 445.664368 C 248.492599 445.53952 248.853424 445.373016 249.214249 445.206482 C 249.574905 445.039978 249.93573 444.887329 250.296555 444.720825 L 250.296555 444.720825 C 250.810013 444.484833 251.30957 444.24884 251.823029 443.98526 C 251.961945 443.915802 252.086792 443.846527 252.225525 443.777069 C 252.614136 443.582764 252.988861 443.374573 253.377457 443.152649 C 253.557709 443.041534 253.752014 442.944458 253.918533 442.833496 C 254.307144 442.61142 254.695755 442.375427 255.070465 442.125732 C 255.236984 442.014618 255.389618 441.917542 255.556137 441.806427 C 256.027924 441.515045 256.499878 441.195892 256.957764 440.848969 C 257.221344 440.668549 257.485107 440.474243 257.762604 440.266052 C 258.262177 439.919128 258.734131 439.53067 259.205902 439.142059 C 259.71936 438.725677 260.205048 438.295563 260.690704 437.85141 C 261.107086 437.462952 261.509583 437.074341 261.911926 436.68573 C 262.17569 436.435883 262.43927 436.158386 262.689148 435.894806 C 263.147034 435.422852 263.591217 434.95108 264.021301 434.451508 C 264.340454 434.104553 264.632019 433.757629 264.92337 433.39682 C 264.992828 433.327362 265.048218 433.258057 265.10379 433.188599 C 265.533905 432.675171 265.936401 432.161682 266.325012 431.634338 C 266.352783 431.634338 266.366669 431.592682 266.366669 431.578796 C 266.755127 431.079224 267.115936 430.565765 267.462891 430.052307 C 267.518433 429.983032 267.574005 429.899689 267.629395 429.816498 C 267.907043 429.414001 268.18454 428.99762 268.448303 428.58139 C 268.836731 427.998474 269.183655 427.429443 269.530609 426.818939 C 269.710999 426.527557 269.877533 426.236023 270.044067 425.944641 C 270.66864 424.834412 271.251373 423.682617 271.792633 422.516968 C 272.014709 422.058899 272.2229 421.601013 272.40332 421.143127 C 272.76413 420.338135 273.083282 419.505524 273.402435 418.686798 C 273.638428 418.089996 273.860352 417.479492 274.054657 416.868774 C 274.096313 416.785614 274.110199 416.716156 274.138 416.632996 C 274.332306 416.050049 274.526611 415.467163 274.707001 414.870514 C 274.707001 414.842743 274.707001 414.828857 274.707001 414.814941 C 275.095459 413.482788 275.456268 412.122833 275.747803 410.762695 C 275.900452 410.096619 276.039185 409.444397 276.150146 408.77832 C 276.150146 408.736664 276.150146 408.708862 276.177917 408.667358 C 276.400024 407.529327 276.580414 406.391449 276.719177 405.225647 C 276.774719 404.767731 276.830109 404.295959 276.885681 403.824005 C 276.955139 403.296661 276.996643 402.741699 277.03833 402.186554 C 277.149261 400.868103 277.218719 399.53595 277.246521 398.203766 C 277.302063 395.372711 277.177063 392.555573 276.85791 389.766205 C 276.719177 388.517365 276.538757 387.282257 276.330566 386.033264 C 276.23349 385.519806 276.150146 385.020233 276.05307 384.52066 C 275.941956 384.007202 275.844879 383.507629 275.733917 383.007904 C 275.622803 382.508362 275.511841 382.022675 275.386993 381.536987 C 275.289764 381.148376 275.206573 380.74588 275.081543 380.371338 C 274.776306 379.205505 274.443237 378.039856 274.068542 376.915894 C 273.957581 376.555054 273.832733 376.194244 273.707703 375.833405 C 273.555084 375.375336 273.38855 374.903564 273.222046 374.459564 C 273.041626 373.959991 272.833435 373.446533 272.63913 372.946808 C 272.444977 372.447235 272.250671 371.961548 272.028595 371.475891 C 271.612213 370.490662 271.168213 369.53302 270.724213 368.561646 C 270.724213 368.561646 270.724213 368.561646 270.724213 368.533875 C 270.724213 368.506104 270.724213 368.533875 270.724213 368.506104 C 270.432678 367.909302 270.141296 367.312683 269.836029 366.715881 C 269.572266 366.188538 269.2948 365.688965 269.017151 365.161621 C 268.309387 363.871094 267.574005 362.622101 266.810699 361.373108 C 266.463745 360.790344 266.08902 360.221344 265.714325 359.652313 C 264.978943 358.500549 264.201721 357.362518 263.382996 356.238525 C 262.703033 355.267029 261.99527 354.30957 261.259735 353.338043 L 260.663086 352.57489 C 260.329895 352.117004 259.969238 351.672821 259.608398 351.214905 C 259.178131 350.65979 258.734131 350.104675 258.276062 349.563416 C 257.832062 349.022186 257.387878 348.467224 256.916107 347.912109 C 256.472107 347.37085 256.014038 346.815735 255.542252 346.26062 C 255.306274 345.997009 255.084351 345.733246 254.87616 345.469666 C 254.140625 344.595398 253.363571 343.734985 252.60025 342.860718 C 252.142349 342.333374 251.684296 341.833801 251.226395 341.306458 C 250.907242 340.945618 250.60199 340.598694 250.282669 340.237854 C 249.602676 339.460632 248.894928 338.69751 248.187164 337.948059 C 247.479568 337.184906 246.771805 336.435486 246.050156 335.67215 C 245.092529 334.659119 244.121185 333.646118 243.135941 332.646973 C 240.457535 329.885376 237.73761 327.151398 235.059204 324.403687 C 233.268967 322.544189 231.478897 320.670776 229.744217 318.769592 C 229.355606 318.35318 228.980896 317.923065 228.592285 317.492798 C 226.732773 315.425079 224.942535 313.301788 223.235641 311.137024 C 222.500259 310.193268 221.792496 309.263611 221.098633 308.292053 C 220.84877 307.9729 220.626678 307.625977 220.390869 307.306824 C 219.946701 306.682251 219.516586 306.057831 219.100204 305.419525 C 218.836609 305.030914 218.572845 304.628418 218.323151 304.226074 C 218.142746 303.962341 217.976212 303.69873 217.809692 303.421082 L 216.976913 302.061157 C 216.296936 300.909363 215.644745 299.729828 215.020325 298.522339 C 214.83992 298.18927 214.687286 297.856262 214.520767 297.509308 C 214.187546 296.843201 213.854507 296.149353 213.54924 295.455505 C 213.354935 295.011475 213.160629 294.581207 212.980225 294.137207 C 212.841476 293.804138 212.702744 293.47113 212.577896 293.124176 C 212.355804 292.555176 212.147614 291.986145 211.939423 291.403381 C 211.800674 291.000916 211.648041 290.570618 211.509308 290.154388 C 211.342789 289.654846 211.190155 289.141357 211.051407 288.641632 C 210.801544 287.78125 210.551682 286.920837 210.329758 286.032684 C 210.190857 285.449951 210.052109 284.88092 209.927261 284.284302 C 209.843918 283.95105 209.774628 283.604126 209.70517 283.271088 C 209.621994 282.910278 209.538651 282.535706 209.469376 282.161011 C 209.219498 280.884216 209.011307 279.607605 208.844788 278.30304 C 208.733826 277.553589 208.650482 276.790466 208.567307 276.02713 C 208.525635 275.58313 208.470062 275.138977 208.442459 274.681061 C 208.317444 273.279419 208.220367 271.863892 208.16481 270.448395 C 208.137024 269.921051 208.137024 269.379822 208.123138 268.852631 C 208.123138 268.228027 208.09552 267.617523 208.09552 266.99292 C 208.09552 266.118652 208.09552 265.216583 208.137024 264.342468 C 208.137024 263.884399 208.16481 263.426514 208.178696 262.968445 C 208.220367 262.121948 208.262039 261.275452 208.317444 260.442841 C 208.345215 260.082031 208.373001 259.721191 208.414673 259.360352 C 208.483963 258.527771 208.567307 257.695129 208.664368 256.862549 C 208.71994 256.265747 208.803116 255.669098 208.886459 255.072296 C 208.914246 254.767044 208.955917 254.475494 208.997421 254.198013 C 209.066864 253.740128 209.136322 253.268173 209.205612 252.810272 C 209.288956 252.282928 209.386017 251.741699 209.469376 251.21434 C 209.469376 251.145065 209.496979 251.061707 209.51088 250.992264 C 209.608109 250.465088 209.70517 249.909958 209.816299 249.382599 C 209.857803 249.132736 209.913376 248.896927 209.968933 248.647064 C 210.121567 247.911514 210.288086 247.17598 210.468506 246.440598 C 210.635025 245.732849 210.801544 245.025085 210.99585 244.331207 C 210.99585 244.289536 211.023636 244.247864 211.023636 244.20636 C 211.204041 243.498596 211.412064 242.790833 211.62027 242.11087 C 211.648041 241.999725 211.675827 241.902679 211.717499 241.791718 C 211.939423 241.056152 212.1754 240.334503 212.411377 239.612854 C 212.716629 238.738586 213.008011 237.864288 213.341049 237.003906 L 213.341049 237.003906 C 213.646484 236.185181 213.951736 235.380188 214.28479 234.589264 C 214.326462 234.464417 214.381851 234.339386 214.437408 234.214539 C 214.742676 233.451385 215.061829 232.701935 215.394867 231.938629 C 215.394867 231.897125 215.422653 231.855438 215.436554 231.827667 C 215.811264 230.995056 216.172089 230.176178 216.574585 229.343567 C 216.602371 229.302063 216.616089 229.232605 216.643875 229.190918 C 216.963028 228.524841 217.296234 227.858765 217.629288 227.192657 C 217.962326 226.526581 218.309265 225.860321 218.656204 225.194244 C 219.003128 224.528137 219.363953 223.875946 219.73851 223.223755 C 220.807098 221.294769 221.945129 219.393585 223.152466 217.506256 C 223.596466 216.812408 224.040634 216.132263 224.49852 215.438385 C 224.789902 214.980499 225.095322 214.550385 225.386703 214.106201 C 225.664185 213.703705 225.941833 213.301392 226.2332 212.884979 C 226.441391 212.579742 226.649597 212.288361 226.871506 211.996826 C 227.010422 211.788635 227.16304 211.580597 227.315674 211.386292 C 227.731903 210.78949 228.176071 210.206757 228.606186 209.62384 C 228.925339 209.207458 229.230759 208.791229 229.549911 208.374847 C 229.730331 208.125153 229.938522 207.88916 230.118942 207.639282 C 230.24379 207.458893 230.382523 207.306244 230.50737 207.13974 C 230.937653 206.584595 231.381653 206.043518 231.811935 205.488403 C 232.269836 204.919373 232.72789 204.364258 233.185791 203.809113 C 233.782425 203.101532 234.379227 202.393768 234.976028 201.686005 C 230.909882 201.477814 226.843719 201.116974 222.791626 200.867126 C 218.392441 200.575745 213.993408 200.409241 209.580322 200.32605 C 208.525635 200.298279 207.457047 200.284393 206.402344 200.284393 C 199.838364 200.214935 193.260498 200.312164 186.668732 200.464783 C 174.636978 200.742279 162.591492 201.227936 150.559738 201.269623 C 145.022659 201.297394 139.388535 201.200348 134.08728 199.618286 C 128.800079 198.022369 123.762573 194.733429 121.292358 189.765198 C 120.792793 188.766083 120.404182 187.600433 120.140594 186.35141 C 119.974075 185.560486 119.876839 184.741608 119.835159 183.922882 C 119.682533 180.800476 120.459747 177.608765 122.610641 175.679779 C 124.248245 174.194824 126.954269 173.653564 128.980484 172.668335 C 131.506104 171.447113 133.962418 170.087158 136.335403 168.58847 C 145.688751 162.71817 153.820892 154.877594 159.926971 145.662964 C 172.374954 126.88681 176.427216 103.142609 190.748779 85.754211 C 191.067932 85.365601 191.373199 85.004761 191.692352 84.630219 C 199.463654 75.637543 209.788528 69.018158 221.056961 65.215607 C 223.194138 64.49411 225.386703 63.869537 227.593155 63.356079 C 230.021698 62.773346 232.491913 62.343048 234.976028 62.037781 C 268.503693 57.888458 302.461792 81.077545 317.310547 110.400482 C 326.205994 127.983185 328.96759 148.535522 325.345612 167.894592 C 321.723633 187.281281 307.887726 204.974945 298.090393 221.849731 C 290.499481 234.922302 283.768829 249.007889 282.630951 264.064819 C 282.630951 264.203552 282.60318 264.328583 282.589264 264.467346 Z"/>
        <path id="path1" fill="#ffdba1" stroke="none" d="M 277.260406 398.245422 C 277.232635 399.563721 277.163177 400.895874 277.052216 402.228241 C 277.010529 402.76947 276.955139 403.310547 276.899567 403.865662 C 276.85791 404.32373 276.802338 404.809418 276.733063 405.267303 C 276.59433 406.419067 276.41391 407.570984 276.191803 408.708862 C 276.191803 408.750549 276.191803 408.77832 276.164032 408.820007 C 276.05307 409.486084 275.914337 410.138275 275.761536 410.804382 C 275.456268 412.178223 275.109344 413.524445 274.720734 414.856628 C 274.720734 414.884399 274.720734 414.898315 274.720734 414.912201 C 274.540497 415.50882 274.346191 416.091736 274.151886 416.6745 C 274.124084 416.757813 274.110199 416.827118 274.068542 416.910461 C 273.874237 417.507263 273.652313 418.131683 273.416351 418.728485 C 273.097198 419.54718 272.778046 420.379822 272.417206 421.184631 C 272.236786 421.6427 272.028595 422.114471 271.806519 422.558472 C 271.265289 423.724304 270.682526 424.876068 270.057953 425.986328 C 269.891418 426.291595 269.724915 426.582947 269.544495 426.860596 C 269.211456 427.457245 268.850616 428.040161 268.462189 428.622894 C 268.198425 429.039276 267.934845 429.455688 267.64328 429.858002 C 267.601807 429.941345 267.532349 430.024536 267.476776 430.093994 C 267.129852 430.621338 266.755127 431.120911 266.380585 431.620453 C 266.380585 431.648254 266.352783 431.66214 266.338898 431.676025 C 265.950287 432.203369 265.533905 432.716827 265.117676 433.230286 C 265.076019 433.299744 265.006561 433.369019 264.937256 433.438477 C 264.645905 433.799316 264.340454 434.14624 264.035217 434.493164 C 263.605103 434.978851 263.160919 435.450623 262.703033 435.93631 C 262.453156 436.200073 262.189575 436.463654 261.925812 436.727417 C 261.523499 437.116028 261.121002 437.518341 260.70459 437.893066 C 260.218933 438.337067 259.733246 438.767365 259.219788 439.183746 C 258.748016 439.572174 258.276062 439.960785 257.776489 440.307739 C 257.512909 440.51593 257.249146 440.69632 256.971649 440.890625 C 256.513611 441.223694 256.041809 441.542847 255.570038 441.848083 C 255.403503 441.945343 255.250885 442.056274 255.084351 442.167236 C 254.695755 442.417114 254.32103 442.653076 253.932419 442.875 C 253.752014 442.986145 253.571594 443.097107 253.39119 443.194153 C 253.002747 443.402344 252.628036 443.610535 252.239426 443.818756 C 252.100677 443.888031 251.97583 443.957489 251.836929 444.026947 C 251.323471 444.276642 250.823898 444.540405 250.31044 444.762329 L 250.31044 444.762329 C 249.949615 444.928833 249.588791 445.081635 249.227966 445.248169 C 248.853424 445.400787 248.492599 445.553406 248.131775 445.706055 C 247.75705 445.858673 247.396225 445.997437 247.0354 446.136322 C 246.66069 446.275085 246.285965 446.399933 245.911423 446.52478 C 245.647659 446.622009 245.384064 446.70517 245.120316 446.774628 C 244.884338 446.871704 244.662415 446.941162 244.412552 446.996735 C 243.899094 447.149353 243.399536 447.301971 242.886078 447.426819 C 242.594696 447.510193 242.303162 447.593353 242.011795 447.648926 C 241.387375 447.801544 240.762787 447.926392 240.138382 448.051239 C 239.819229 448.106812 239.500076 448.162384 239.18074 448.231659 L 237.862457 448.43985 C 237.293442 448.523193 236.710693 448.592499 236.141678 448.634155 C 236.030716 448.634155 235.905701 448.661926 235.80864 448.675842 C 235.336853 448.717499 234.851013 448.759003 234.365326 448.786804 C 234.184921 448.786804 234.004501 448.814575 233.824097 448.814575 C 233.227463 448.856262 232.644547 448.856262 232.047745 448.856262 C 226.996521 448.856262 222.01442 447.940277 217.434982 446.011322 C 227.745789 448.120697 238.847702 446.46936 247.96524 441.209778 C 248.811752 440.738007 249.644363 440.210663 250.449188 439.669434 C 251.684296 438.836792 252.877731 437.920837 254.015762 436.949341 C 262.703033 429.552734 268.267883 418.548065 269.169769 407.168518 C 269.350189 405.086884 269.350189 402.991394 269.211456 400.895874 C 269.211456 400.660095 269.169769 400.437988 269.156067 400.202026 C 268.323273 391.126312 264.451599 382.938629 258.817291 376.055481 C 257.401764 374.29303 255.833618 372.61377 254.196182 371.045593 C 253.793686 370.657166 253.39119 370.282471 252.97496 369.907715 C 249.561172 366.785339 245.786407 364.051514 241.81749 361.747803 C 235.100876 357.834473 227.953979 354.698181 221.015289 351.20105 C 218.600632 349.979797 216.241547 348.730835 213.910065 347.384766 C 212.702744 346.690887 211.509308 345.955322 210.329758 345.192017 C 200.823608 339.058319 192.885788 330.787292 186.863037 321.25351 C 185.725174 319.477325 184.670471 317.659302 183.685059 315.799805 C 178.994492 307.001587 175.8582 297.370575 174.526016 287.503784 C 174.262436 285.616455 174.06813 283.715271 173.9431 281.800171 C 173.471329 274.403564 174.026459 266.937561 175.705566 259.679504 C 176.677078 255.474792 177.981476 251.39476 179.535736 247.425842 C 180.299057 245.496872 181.131668 243.581787 182.019852 241.694489 C 184.934067 235.449646 188.431198 229.454681 192.30304 223.639984 C 193.565765 221.73877 194.85643 219.865356 196.188614 217.991943 C 197.312759 216.423798 198.450638 214.883423 199.588669 213.343048 C 200.462952 212.16333 201.364853 210.983795 202.266907 209.80426 C 204.681564 206.654053 207.137894 203.545532 209.594223 200.464783 C 214.007141 200.561859 218.406326 200.714478 222.805527 201.006042 C 226.85762 201.255737 230.923767 201.616547 234.989914 201.824738 C 234.393112 202.518616 233.782425 203.226379 233.199677 203.948029 C 232.741623 204.502991 232.269836 205.058105 231.825836 205.627136 C 231.381653 206.168365 230.951553 206.709625 230.521271 207.278473 C 229.869064 208.083466 229.230759 208.929962 228.606186 209.762573 C 228.176071 210.34549 227.731903 210.928223 227.315674 211.525024 C 227.16304 211.71933 227.010422 211.927521 226.871506 212.135559 C 226.649597 212.427094 226.441391 212.732361 226.2332 213.023743 C 225.941833 213.426239 225.664185 213.828735 225.386703 214.244934 C 225.081436 214.689117 224.789902 215.119232 224.49852 215.577301 C 224.040634 216.257263 223.596466 216.937256 223.152466 217.64502 C 221.945129 219.518433 220.807098 221.419617 219.73851 223.362488 C 219.363953 224.014679 219.003128 224.66687 218.656204 225.332977 C 218.309265 225.999237 217.962326 226.651428 217.629288 227.33139 C 217.268463 228.039154 216.921524 228.760803 216.574585 229.468567 C 216.185974 230.287292 215.811264 231.119904 215.436554 231.952515 C 215.408768 231.994202 215.394867 232.035858 215.394867 232.063629 C 215.061829 232.812897 214.72879 233.576233 214.437408 234.339386 C 214.381851 234.4505 214.326462 234.589264 214.28479 234.714111 C 213.965637 235.505219 213.646484 236.310028 213.341049 237.114868 L 213.341049 237.114868 C 213.021896 237.989136 212.702744 238.863434 212.411377 239.737701 C 212.161499 240.459351 211.939423 241.18103 211.717499 241.916565 C 211.689713 242.027527 211.661942 242.124756 211.62027 242.235718 C 211.412064 242.91568 211.217941 243.623444 211.023636 244.331207 C 211.023636 244.372879 210.99585 244.414383 210.99585 244.456055 C 210.81543 245.149933 210.635025 245.857697 210.468506 246.565445 C 210.288086 247.300995 210.121567 248.022644 209.968933 248.771912 C 209.913376 249.021774 209.857803 249.257584 209.816299 249.507446 C 209.70517 250.034805 209.608109 250.576035 209.51088 251.117279 C 209.483261 251.186569 209.483261 251.269913 209.469376 251.339188 C 209.372131 251.866547 209.288956 252.407776 209.205612 252.935135 C 209.136322 253.393188 209.066864 253.864975 208.997421 254.322861 C 208.955917 254.61441 208.914246 254.905777 208.886459 255.197144 C 208.803116 255.793945 208.71994 256.390564 208.664368 256.987366 C 208.567307 257.820007 208.483963 258.652588 208.414673 259.485382 C 208.373001 259.846039 208.345215 260.206848 208.317444 260.567688 C 208.262039 261.400299 208.206482 262.246979 208.178696 263.093475 C 208.150909 263.551361 208.137024 263.995544 208.137024 264.467346 C 208.09552 265.341614 208.09552 266.243652 208.09552 267.11795 C 208.09552 267.742371 208.09552 268.352905 208.123138 268.977478 C 208.123138 269.504822 208.150909 270.046082 208.16481 270.573425 C 208.220367 271.98877 208.317444 273.404297 208.442459 274.805908 C 208.470062 275.263977 208.525635 275.694092 208.567307 276.151978 C 208.650482 276.915283 208.747711 277.67865 208.844788 278.427887 C 209.025192 279.732452 209.233398 281.009064 209.469376 282.285828 C 209.538651 282.660583 209.621994 283.021393 209.70517 283.396118 C 209.774628 283.729156 209.843918 284.07608 209.927261 284.409119 C 210.052109 285.005768 210.190857 285.574768 210.329758 286.157715 C 210.551682 287.031982 210.787659 287.90625 211.051407 288.766663 C 211.204041 289.28009 211.356674 289.779663 211.509308 290.279236 C 211.648041 290.695618 211.800674 291.125732 211.939423 291.528259 C 212.147614 292.110962 212.355804 292.679993 212.577896 293.249023 C 212.702744 293.595947 212.841476 293.929016 212.980225 294.262054 C 213.160629 294.71994 213.354935 295.136353 213.54924 295.580322 C 213.868393 296.2742 214.187546 296.954346 214.520767 297.634338 C 214.687286 297.981262 214.83992 298.314301 215.020325 298.647339 C 215.644745 299.854675 216.296936 301.020325 216.976913 302.185974 C 217.254562 302.644043 217.518158 303.088043 217.809692 303.546112 C 217.976212 303.809692 218.142746 304.073303 218.323151 304.350952 C 218.572845 304.753418 218.836609 305.155762 219.100204 305.544373 C 219.516586 306.182678 219.960587 306.807251 220.390869 307.431702 C 220.626678 307.750854 220.84877 308.097778 221.098633 308.416931 C 221.792496 309.374542 222.500259 310.318115 223.235641 311.261841 C 224.942535 313.426819 226.732773 315.549927 228.592285 317.617645 C 228.980896 318.047913 229.355606 318.478027 229.744217 318.894409 C 231.478897 320.795624 233.268967 322.669037 235.059204 324.528717 C 237.73761 327.304199 240.457535 330.038025 243.135941 332.77182 C 244.121185 333.784851 245.092529 334.783966 246.050156 335.79718 C 246.785706 336.546417 247.493286 337.309753 248.187164 338.072906 C 248.894928 338.822327 249.602676 339.585663 250.282669 340.362701 C 250.60199 340.723541 250.921143 341.070465 251.226395 341.431274 C 251.684296 341.958649 252.142349 342.458191 252.60025 342.985535 C 253.363571 343.859833 254.112839 344.720215 254.87616 345.594513 C 255.098251 345.84436 255.32016 346.121857 255.542252 346.38562 C 256.000153 346.926697 256.472107 347.467926 256.916107 348.036926 C 257.373993 348.578186 257.832062 349.133301 258.276062 349.688446 C 258.734131 350.243408 259.164215 350.784637 259.608398 351.339783 C 259.969238 351.797668 260.316162 352.241821 260.663086 352.699738 L 261.259735 353.463074 C 261.981384 354.420532 262.703033 355.392029 263.382996 356.363403 C 264.187836 357.501251 264.965057 358.639282 265.714325 359.777161 C 266.08902 360.346191 266.44986 360.929108 266.810699 361.497955 C 267.587891 362.746948 268.323273 363.995972 269.017151 365.286621 C 269.2948 365.800079 269.572266 366.313538 269.836029 366.840881 C 270.155182 367.4375 270.446564 368.048218 270.737915 368.644836 C 270.737915 368.644836 270.737915 368.644836 270.737915 368.672607 C 271.195984 369.630249 271.626099 370.601624 272.04248 371.586853 C 272.250671 372.07251 272.458893 372.572266 272.653015 373.057922 C 272.847321 373.557495 273.041626 374.070953 273.235931 374.570526 C 273.416351 375.028412 273.56897 375.486481 273.721588 375.944366 C 273.846619 376.29129 273.971466 376.65213 274.082428 377.026855 C 274.457153 378.150818 274.790192 379.302765 275.095459 380.4823 C 275.206573 380.870911 275.30365 381.259521 275.400879 381.647949 C 275.525726 382.133636 275.636688 382.619476 275.747803 383.119049 C 275.858765 383.618591 275.955841 384.118164 276.066956 384.631622 C 276.164032 385.131195 276.247375 385.644653 276.344452 386.144226 C 276.552643 387.379333 276.733063 388.628326 276.871796 389.877319 C 277.190948 392.666687 277.315979 395.483826 277.260406 398.314728 Z"/>
        <path id="path2" fill="#42240f" stroke="none" d="M 208.886459 139.848267 C 209.843918 142.554443 211.55098 145.302155 214.28479 146.12088 C 217.421082 147.064606 220.779312 145.107849 222.833313 142.554443 C 226.635696 137.850006 227.398849 130.8974 224.706726 125.485199 C 223.207855 122.473724 220.529617 119.864777 217.212891 119.254242 C 206.249725 117.22821 206.61055 133.492462 208.886459 139.848267 Z"/>
        <linearGradient id="linearGradient2" x1="268.55925" y1="2.156807" x2="274.512652" y2="501.118493" gradientUnits="userSpaceOnUse">
            <stop offset="1e-05" stop-color="#ffa366" stop-opacity="1"/>
            <stop offset="1" stop-color="#f07154" stop-opacity="1"/>
        </linearGradient>
        <path id="path3" fill="url(#linearGradient2)" stroke="none" d="M 357.777069 159.387726 C 355.667664 170.878082 357.818573 183.104156 363.730347 193.179169 C 345.537109 201.519501 326.899872 210.761719 311.745697 223.83429 C 309.192291 226.040741 306.708191 228.358307 304.349091 230.786865 C 295.620178 239.723816 288.320648 250.090363 283.671753 261.52533 C 283.310913 262.413513 282.963989 263.315399 282.644836 264.203552 C 282.672607 263.967773 282.672607 263.731781 282.714111 263.495789 C 283.879944 249.993134 289.514069 237.295288 296.161407 225.38855 C 296.799713 224.236786 297.451904 223.11261 298.104279 221.988647 C 307.901642 205.127563 321.737335 187.420013 325.359497 168.033325 C 328.96759 148.674255 326.219879 128.121918 317.324432 110.539215 C 305.570313 87.336243 281.839844 67.949585 255.833618 62.953583 C 255.806 62.953583 255.792114 62.953583 255.778229 62.953583 C 248.950485 61.64917 241.970123 61.330017 234.989914 62.19043 C 223.49939 63.619843 212.314133 67.907898 202.905228 74.638397 C 199.130615 77.330719 195.633484 80.425323 192.524963 83.866913 C 192.247482 84.17218 191.983719 84.463531 191.720123 84.782867 C 191.872757 80.064514 191.137222 75.346161 189.652405 70.8638 C 185.655716 58.693298 176.191238 48.243561 164.090195 43.94162 C 176.399429 46.66153 189.777267 44.260773 200.365723 37.405426 C 210.954178 30.563782 218.628418 19.350922 221.209595 7.013885 C 229.050354 15.742828 239.36116 21.612946 250.699051 24.041473 C 253.183167 24.568817 255.708771 24.943542 258.276062 25.137665 C 272.542053 26.220154 287.168884 21.626831 298.229126 12.550964 C 298.534393 27.857758 303.849548 43.899933 316.047638 53.156219 C 327.482605 61.82959 342.664581 63.217346 356.985962 64.272034 C 356.486389 65.076843 356.028503 65.92337 355.58432 66.769867 C 350.130615 77.177917 348.437622 90.236572 351.643188 101.407959 C 355.112549 113.509003 363.827606 123.986481 375.082123 129.620636 C 365.978485 136.934052 359.914063 147.883331 357.80484 159.387726 Z"/>
        <linearGradient id="linearGradient3" x1="327.552051" y1="1.44906" x2="333.505452" y2="500.410746" gradientUnits="userSpaceOnUse">
            <stop offset="1e-05" stop-color="#ffa366" stop-opacity="1"/>
            <stop offset="1" stop-color="#f07154" stop-opacity="1"/>
        </linearGradient>
        <path id="path4" fill="url(#linearGradient3)" stroke="none" d="M 373.611053 322.127808 C 368.601318 322.9328 363.841492 323.987488 359.067566 325.666595 C 354.307709 327.359619 349.75589 330.024109 346.577911 333.965271 C 343.400116 337.920288 341.748596 343.249329 342.955933 348.17569 C 339.583832 333.923584 330.618927 320.962158 319.406036 311.539337 C 313.063965 306.224365 305.764618 302.102814 297.95163 299.382874 C 294.621033 298.203186 291.207092 297.30127 287.751617 296.648926 C 287.571198 296.121582 287.390808 295.622009 287.224274 295.094666 C 286.280701 292.374756 285.462006 289.627045 284.78183 286.851563 C 283.852173 283.160126 283.17218 279.4133 282.797455 275.638519 C 282.519989 272.932495 282.408875 270.1987 282.478302 267.450989 C 286.808044 268.741516 291.318207 269.463135 295.828369 269.657471 C 298.728699 269.782288 301.642914 269.685242 304.52951 269.338318 C 310.316284 268.685944 315.992249 267.131653 321.265564 264.675537 C 335.309479 258.13916 346.300446 245.358124 350.671844 230.495483 C 350.532928 240.681458 351.379608 251.158951 355.834198 260.331909 C 359.553253 267.978333 366.228363 274.556213 374.235626 276.998657 C 375.817688 277.484314 377.468994 277.803467 379.148132 277.9422 C 374.263428 280.717712 370.280609 284.811646 367.796509 289.682434 C 366.436554 292.36084 365.520599 295.275085 365.131989 298.342102 C 364.063385 307.001587 367.296936 316.077271 373.611053 322.100159 Z"/>
        <path id="path5" fill="#8f2535" stroke="none" d="M 226.704987 63.730804 C 225.997223 61.454865 225.428375 59.137299 224.845459 56.819885 C 224.318115 54.488403 223.832443 52.157104 223.374374 49.811737 C 222.472473 45.121155 221.820114 40.389099 221.320541 35.629059 C 220.84877 30.869049 220.529617 26.095306 220.501831 21.321381 C 220.501831 18.93454 220.515717 16.547668 220.598892 14.160797 C 220.737808 11.773926 220.890442 9.386871 221.181808 7.027771 L 221.22348 10.608093 C 221.265152 11.801514 221.279037 12.981232 221.334442 14.174683 C 221.4039 16.547668 221.500961 18.920624 221.653595 21.293793 C 221.95903 26.039734 222.319855 30.771973 222.819412 35.490326 C 223.277313 40.222565 223.874115 44.926849 224.512421 49.645203 C 224.831573 52.004456 225.178497 54.34967 225.567108 56.695038 L 226.122238 60.219757 C 226.330261 61.38559 226.524567 62.565125 226.704987 63.74469 Z"/>
        <path id="path6" fill="#8f2535" stroke="none" d="M 267.962433 66.367523 C 268.670197 63.883423 269.516724 61.427094 270.390991 58.998566 C 271.320831 56.583893 272.319977 54.197021 273.374664 51.824036 C 275.48407 47.091797 277.912598 42.512207 280.50766 38.01593 C 283.116608 33.547455 285.89209 29.16217 288.861877 24.929657 C 290.34668 22.820251 291.859436 20.710876 293.399811 18.643158 C 294.981873 16.60321 296.550018 14.549377 298.21524 12.56485 L 294.010345 19.073273 C 292.594818 21.23822 291.193359 23.389282 289.833221 25.581848 C 287.099426 29.953278 284.379517 34.324677 281.812225 38.779266 C 279.217163 43.219971 276.760834 47.744019 274.429352 52.323608 C 273.249817 54.613434 272.153442 56.930847 271.084869 59.276215 C 270.529907 60.441864 270.030334 61.621399 269.489105 62.800934 L 267.976349 66.367523 Z"/>
        <path id="path7" fill="#8f2535" stroke="none" d="M 305.542542 92.998169 C 307.304993 91.249603 309.16452 89.626068 311.051819 88.00235 C 312.966919 86.434174 314.937561 84.9216 316.921936 83.436615 C 320.91864 80.494629 325.123535 77.830261 329.425476 75.360046 C 333.755219 72.917633 338.196075 70.669495 342.789429 68.796082 C 345.093109 67.852325 347.410522 66.978058 349.769775 66.201019 C 352.142761 65.465454 354.529633 64.785492 356.958191 64.285919 L 353.461212 65.521027 C 352.309296 65.978912 351.157532 66.395325 350.01947 66.880981 C 347.729858 67.796936 345.48172 68.782196 343.2612 69.850769 C 338.820496 71.960175 334.449097 74.222168 330.174927 76.664459 C 325.886841 79.079285 321.709747 81.688049 317.588013 84.380371 C 315.53418 85.740326 313.508148 87.141937 311.495819 88.585266 L 308.498444 90.763916 L 305.542542 93.012054 Z"/>
        <path id="path8" fill="#8f2535" stroke="none" d="M 325.803497 137.114441 C 333.741333 134.561066 341.915131 132.8125 350.144501 131.466431 C 354.266052 130.827942 358.401489 130.286713 362.564697 129.953674 C 366.71402 129.60675 370.905029 129.454102 375.068237 129.620636 C 370.918915 130.037018 366.811279 130.564362 362.689545 131.119507 C 358.581909 131.688354 354.474243 132.285156 350.38031 132.951233 C 342.178894 134.228027 334.018982 135.71283 325.803497 137.100555 Z"/>
        <path id="path9" fill="#8f2535" stroke="none" d="M 319.489227 185.574371 C 327.010834 185.699219 334.476868 186.629059 341.873474 187.864014 C 349.256317 189.154694 356.611237 190.778412 363.730347 193.179169 L 341.609863 189.348999 L 319.489227 185.574371 Z"/>
        <path id="path10" fill="#8f2535" stroke="none" d="M 282.783569 275.652405 C 286.766388 276.249207 290.749176 276.887512 294.759766 277.276123 C 298.75647 277.747925 302.767059 278.094849 306.777649 278.400116 C 314.798645 278.983032 322.83371 279.371643 330.88266 279.427185 C 338.931458 279.607605 346.966522 279.468689 355.015472 279.218994 C 359.039795 279.121765 363.06427 278.92746 367.07486 278.69165 C 369.087006 278.580505 371.099335 278.497345 373.111481 278.358612 C 375.12381 278.205994 377.135956 278.080963 379.148132 277.956116 C 375.151581 278.539001 371.154907 279.010803 367.144318 279.427185 C 365.131989 279.649109 363.119843 279.774109 361.121399 279.940674 C 359.109253 280.121063 357.097076 280.245911 355.084778 280.370758 C 347.022095 280.856445 338.945343 280.981445 330.868774 280.925903 C 322.792053 280.731567 314.715485 280.370758 306.68042 279.538147 C 302.66983 279.10788 298.659241 278.636108 294.66272 277.997803 C 290.679749 277.373199 286.710815 276.582275 282.783569 275.652405 Z"/>
        <path id="path11" fill="#8f2535" stroke="none" d="M 284.768127 286.865479 C 286.738617 287.198486 288.723145 287.503784 290.693634 287.90625 C 292.650391 288.336365 294.621033 288.71109 296.577637 289.168976 C 300.477264 290.112732 304.335205 291.181305 308.193176 292.291382 C 315.881134 294.567322 323.430511 297.287415 330.910461 300.187714 C 338.348724 303.199158 345.703644 306.390869 352.878296 309.985077 C 354.682434 310.87323 356.458618 311.803101 358.221069 312.760559 C 359.997406 313.690399 361.745972 314.675659 363.480652 315.661072 C 366.950012 317.673218 370.349884 319.810364 373.611053 322.127808 C 370.155609 320.101746 366.700134 318.103485 363.119843 316.313232 C 361.343475 315.383392 359.581024 314.467621 357.777069 313.607239 C 355.986816 312.719055 354.182709 311.858643 352.364838 311.039764 C 345.12088 307.681549 337.793579 304.489685 330.341431 301.603241 C 322.944672 298.605682 315.409332 295.913544 307.832336 293.401672 L 302.128571 291.569916 C 300.227386 290.973114 298.298584 290.44577 296.383484 289.87674 C 294.468414 289.307892 292.525543 288.822052 290.596558 288.280975 L 284.768127 286.865479 Z"/>
        <linearGradient id="linearGradient4" x1="264.99276" y1="2.198439" x2="270.946162" y2="501.160125" gradientUnits="userSpaceOnUse">
            <stop offset="1e-05" stop-color="#ffa366" stop-opacity="1"/>
            <stop offset="1" stop-color="#f07154" stop-opacity="1"/>
        </linearGradient>
        <path id="path12" fill="url(#linearGradient4)" stroke="none" d="M 339.680878 436.047424 C 337.085815 442.666992 336.947083 450.160645 339.042572 456.946716 C 340.013947 460.083008 341.457245 463.066681 343.358429 465.731201 C 332.672729 463.094452 320.252533 465.467438 310.260895 470.074829 C 300.269073 474.695953 291.928741 482.800293 287.00235 492.639496 C 278.134674 490.016479 269.183655 487.56015 259.955322 487.046875 C 250.726837 486.547119 241.054337 488.365143 233.671463 493.929993 C 233.504944 493.680298 233.338425 493.458038 233.144119 493.222229 L 233.144119 493.222229 C 228.675629 487.227112 221.029175 483.119446 213.923965 480.843536 C 206.554977 478.484436 198.395065 478.637085 191.109436 481.259918 C 188.792023 470.491058 184.83699 460.055237 179.757828 450.243988 C 178.980606 448.731384 178.175781 447.246429 177.34317 445.775513 C 179.272141 447.912506 181.339859 449.91095 183.53244 451.784363 C 188.278564 455.864227 193.551865 459.361359 199.144501 462.192413 C 201.531372 463.413605 203.973801 464.496094 206.471802 465.467438 C 214.826019 468.728607 223.596466 470.643677 232.505814 471.517975 C 241.512222 472.392242 250.643494 472.184052 259.636017 471.171021 C 264.812408 470.574402 270.030334 469.700104 275.095459 468.395569 C 284.407288 466.022583 293.288696 462.220184 300.727112 456.225037 C 306.097656 451.90921 310.468903 446.608124 313.882874 440.710205 C 320.072144 430.038422 323.152863 417.368347 323.485901 404.767731 C 323.569244 401.992249 323.513702 399.230682 323.319397 396.482971 C 322.528442 385.06189 319.905609 372.891418 316.130981 361.040039 C 314.90979 357.126709 313.535919 353.254883 312.078735 349.438599 C 308.956329 341.306458 305.376007 333.507355 301.60141 326.429932 C 300.518921 324.362183 299.408661 322.308228 298.340088 320.212708 C 303.03064 326.207825 308.206879 331.814362 313.79953 336.96283 C 324.734924 347.023926 337.25235 355.364258 350.782806 361.484222 C 345.523224 370.310242 344.024536 381.661835 346.189301 391.709045 C 348.340363 401.770172 354.418671 410.901611 362.842194 416.7995 C 352.656219 418.881104 343.455505 426.347168 339.653107 436.019653 Z"/>
        <path id="path13" fill="#8f2535" stroke="none" d="M 316.144897 361.067841 L 333.463837 361.095642 C 339.236877 361.137299 344.99588 361.137299 350.796692 361.525726 C 345.037537 362.33075 339.25061 362.608215 333.449951 362.594299 C 327.663025 362.538757 321.834595 362.23349 316.130981 361.067841 Z"/>
        <path id="path14" fill="#8f2535" stroke="none" d="M 323.499817 404.795532 C 330.022278 407.071442 336.489014 409.31958 343.039276 411.359497 C 346.300446 412.400299 349.589386 413.357758 352.892212 414.287598 C 356.195038 415.189667 359.511749 416.07785 362.88385 416.841003 C 359.428406 416.660583 356.000732 416.147125 352.614563 415.425659 C 349.228546 414.717896 345.884033 413.815826 342.595123 412.78891 C 336.017242 410.69342 329.550323 408.153748 323.513702 404.795532 Z"/>
        <path id="path15" fill="#8f2535" stroke="none" d="M 313.882874 440.738007 C 318.726074 445.039978 323.541473 449.272461 328.454132 453.435669 C 330.896576 455.531189 333.366608 457.585175 335.836823 459.639008 C 338.320923 461.678955 340.805054 463.732758 343.358429 465.717316 C 340.485718 464.204559 337.751923 462.455994 335.129059 460.568695 C 332.49234 458.695282 329.95282 456.66922 327.482605 454.587616 C 322.584015 450.368835 317.879547 445.858673 313.896759 440.738007 Z"/>
        <path id="path16" fill="#8f2535" stroke="none" d="M 275.109344 468.42334 C 277.288177 472.406128 279.328125 476.361176 281.381958 480.357849 C 282.381073 482.370178 283.394104 484.368622 284.351746 486.408569 C 285.309204 488.448486 286.239044 490.502319 287.016266 492.639496 C 284.379517 488.947876 282.103607 485.0625 280.049774 481.037842 C 279.036743 479.01178 278.079132 476.971863 277.232635 474.876343 C 276.386108 472.780853 275.636688 470.629791 275.109344 468.42334 Z"/>
        <path id="path17" fill="#8f2535" stroke="none" d="M 233.671463 493.929993 C 233.074829 492.125854 232.700119 490.26651 232.42247 488.40683 C 232.131088 486.547119 231.964569 484.673889 231.853607 482.786407 C 231.770264 480.912994 231.742477 479.025696 231.853607 477.138367 C 231.950684 475.264954 232.131088 473.377502 232.519699 471.517975 C 232.963699 475.27887 233.158005 478.984009 233.366196 482.703217 C 233.53273 486.422455 233.713135 490.127594 233.685349 493.916107 Z"/>
        <path id="path18" fill="#8f2535" stroke="none" d="M 191.123322 481.259918 C 191.317627 479.511353 191.74791 477.818359 192.261368 476.152954 C 192.760941 474.487762 193.399246 472.864044 194.065323 471.26828 C 194.759201 469.686218 195.508636 468.104187 196.341248 466.591583 C 197.174026 465.064941 198.089798 463.580139 199.158386 462.192413 C 198.103699 465.52301 196.771515 468.687103 195.439346 471.851013 C 194.065323 475.001221 192.677582 478.123627 191.123322 481.246033 Z"/>
        <path id="path19" fill="#ffffff" stroke="none" d="M 218.73938 133.423035 C 218.73938 136.850708 216.741104 139.62619 214.270889 139.62619 C 211.800674 139.62619 209.802414 136.850708 209.802414 133.423035 C 209.802414 129.995331 211.800674 127.219879 214.270889 127.219879 C 216.741104 127.219879 218.73938 129.995331 218.73938 133.423035 Z"/>
        <path id="path20" fill="#ffcc99" stroke="none" d="M 223.12468 217.658905 C 221.917358 219.532318 220.779312 221.433502 219.710892 223.376373 C 217.351639 222.571381 214.950867 221.849731 212.522324 221.225311 C 208.386887 220.184509 204.223679 219.310242 200.018784 218.602478 C 198.728287 218.394287 197.437607 218.200134 196.133209 218.005829 C 197.257202 216.437683 198.395065 214.897308 199.533112 213.356781 C 199.741302 213.356781 199.949493 213.356781 200.157516 213.384552 C 204.334625 213.551086 208.511734 214.092316 212.6194 214.869537 C 216.158203 215.535614 219.66922 216.53476 223.096893 217.658905 Z"/>
        <path id="path21" fill="#ffcc99" stroke="none" d="M 210.968063 244.442169 C 210.371262 246.662521 209.871704 248.966217 209.455475 251.311584 C 205.431 250.381729 201.406525 249.535233 197.284973 248.910645 C 191.414871 248.022644 185.461411 247.55069 179.480347 247.425842 C 180.2435 245.496872 181.076111 243.581787 181.964279 241.694489 C 187.765106 241.611298 193.551865 241.93045 199.324921 242.568756 C 203.182877 243.012756 207.096222 243.595673 210.968063 244.428284 Z"/>
        <path id="path22" fill="#ffcc99" stroke="none" d="M 209.913376 284.409119 C 198.048126 284.228699 186.155273 285.311218 174.470459 287.503784 C 174.206863 285.616455 174.012558 283.715271 173.887711 281.800171 C 182.033737 280.148682 190.262939 279.121765 198.561752 278.663879 C 201.97554 278.483459 205.403214 278.400116 208.830887 278.414001 C 209.108551 280.440216 209.455475 282.438477 209.913376 284.409119 Z"/>
        <path id="path23" fill="#ffcc99" stroke="none" d="M 223.235641 311.23407 C 213.590912 312.538635 203.543701 314.953308 194.315201 318.283875 C 191.775696 319.199677 189.277695 320.185089 186.80748 321.239807 C 185.669601 319.46344 184.614914 317.645416 183.629669 315.785889 C 192.511063 311.914063 201.878311 309.013733 211.287216 306.973785 C 213.868393 306.41864 216.463455 305.932983 219.072418 305.530487 C 220.363083 307.487244 221.764725 309.388428 223.221741 311.247986 Z"/>
        <path id="path24" fill="#ffcc99" stroke="none" d="M 251.226395 341.403503 C 250.227264 341.556152 249.241852 341.722656 248.256622 341.930847 C 243.399536 342.902374 238.472992 344.178986 233.990616 345.733246 C 229.536026 347.259888 225.192398 349.091644 220.959717 351.20105 C 218.545074 349.979797 216.185974 348.730835 213.854507 347.384766 C 221.362228 343.249329 229.327835 340.085205 237.571091 337.739868 C 240.360458 336.948914 243.19133 336.296722 246.03627 335.783264 C 247.479568 337.295837 248.894928 338.808441 250.282669 340.348816 C 250.60199 340.709656 250.921143 341.05658 251.226395 341.417419 Z"/>
        <path id="path25" fill="#ffcc99" stroke="none" d="M 273.263702 374.514954 C 272.028595 374.556641 270.793488 374.626099 269.55838 374.695374 C 265.950287 374.945251 262.342194 375.430908 258.761719 376.055481 C 257.346375 374.29303 255.778229 372.61377 254.140625 371.045593 C 259.594513 369.796753 265.186981 369.019562 270.765717 368.630951 C 271.681671 370.546021 272.514282 372.502808 273.263702 374.514954 Z"/>
        <path id="path26" fill="#ffcc99" stroke="none" d="M 277.052216 402.228241 C 276.885681 404.406921 276.59433 406.571869 276.191803 408.708862 C 274.248962 408.181519 272.278473 407.709747 270.293915 407.348907 C 269.905304 407.279633 269.516724 407.210175 269.128265 407.154602 C 269.308685 405.072998 269.308685 402.977509 269.169769 400.882019 C 271.820404 401.117981 274.471039 401.575867 277.052216 402.228241 Z"/>
        <path id="path27" fill="#ffcc99" stroke="none" d="M 256.957764 440.87674 C 254.862274 442.389343 252.628036 443.679993 250.282669 444.762329 L 250.282669 444.762329 C 250.157806 444.526489 250.019073 444.304413 249.880325 444.068451 C 249.283524 443.083191 248.617447 442.139648 247.923569 441.209778 C 248.770081 440.738007 249.602676 440.210663 250.407684 439.669434 C 251.642792 438.836792 252.836227 437.920837 253.974091 436.949341 C 255.05658 438.184448 256.055695 439.502899 256.957764 440.890625 Z"/>
        <path id="path28" fill="#d95151" stroke="none" opacity="0.39" style="mix-blend-mode:multiply" d="M 326.247498 198.28595 C 320.419067 209.915222 312.356384 220.364929 304.335205 230.786865 C 296.730438 240.709229 289.153259 250.617706 283.657867 261.52533 C 283.324829 262.177521 282.99176 262.829712 282.700226 263.495789 C 283.990906 248.702621 290.624329 234.853027 298.090393 221.988647 C 307.887726 205.127563 321.723633 187.420013 325.345612 168.033325 C 328.953705 148.674255 326.205994 128.121918 317.310547 110.539215 C 305.556427 87.336243 281.826111 67.949585 255.819733 62.953583 C 260.690704 63.411652 265.533905 64.31369 270.252258 65.618103 C 296.66098 72.95929 319.017426 93.234131 329.467163 118.588165 C 339.944489 143.928314 338.501343 173.764709 326.233765 198.28595 Z"/>
        <path id="path29" fill="#d95151" stroke="none" opacity="0.39" style="mix-blend-mode:multiply" d="M 357.777069 159.387726 C 355.667664 170.878082 357.818573 183.104156 363.730347 193.179169 C 345.537109 201.519501 326.899872 210.761719 311.745697 223.83429 C 309.192291 226.040741 306.708191 228.358307 304.349091 230.786865 C 295.620178 239.723816 288.320648 250.090363 283.671753 261.52533 C 283.310913 262.413513 282.963989 263.315399 282.644836 264.203552 C 282.672607 263.967773 282.672607 263.731781 282.714111 263.495789 C 283.879944 249.993134 289.514069 237.295288 296.161407 225.38855 C 310.857513 209.44342 329.855774 196.953766 350.130615 189.099121 C 340.138794 171.849609 344.01062 147.813873 358.914948 134.574951 C 349.492126 124.555359 344.274384 110.70575 344.718384 96.967072 C 345.079224 86.101135 348.964783 75.401733 355.556549 66.783752 C 350.102814 77.191803 348.409821 90.250458 351.615417 101.421844 C 355.084778 113.522888 363.799805 124.000397 375.054352 129.634521 C 365.950867 136.947937 359.886444 147.897217 357.777069 159.401459 Z"/>
        <path id="path30" fill="#d95151" stroke="none" opacity="0.39" style="mix-blend-mode:multiply" d="M 282.783569 275.652405 C 282.506104 272.946411 282.394958 270.212585 282.464417 267.464905 C 286.794159 268.755371 291.304321 269.477051 295.814484 269.671326 C 294.232422 279.49646 295.328796 289.668701 297.937744 299.410522 C 294.607147 298.230957 291.193359 297.328918 287.737732 296.676697 C 286.585968 293.443329 285.572937 290.18219 284.754242 286.879333 C 283.824371 283.187927 283.144409 279.440918 282.769684 275.666321 Z"/>
        <path id="path31" fill="#d95151" stroke="none" opacity="0.39" style="mix-blend-mode:multiply" d="M 330.743927 423.113617 C 325.886841 445.150909 311.232239 465.620087 290.319092 474.099152 C 276.205719 479.81662 260.468781 479.830505 245.286835 478.623199 C 228.703415 477.304901 211.648041 474.376801 197.812332 465.148285 C 192.330658 461.48465 187.570801 456.946716 183.546326 451.784363 C 188.29245 455.864227 193.565765 459.361359 199.158386 462.192413 C 201.545258 463.413605 203.987701 464.496094 206.485703 465.467438 C 214.83992 468.728607 223.610352 470.643677 232.519699 471.517975 C 241.526108 472.392242 250.657379 472.184052 259.649902 471.171021 C 264.826324 470.574402 270.044067 469.700104 275.109344 468.395569 C 284.421173 466.022583 293.302582 462.220184 300.740845 456.225037 C 306.111572 451.90921 310.482788 446.608124 313.896759 440.710205 C 320.086029 430.038422 323.166748 417.368347 323.499817 404.767731 C 323.58316 401.992249 323.527588 399.230682 323.333282 396.482971 C 322.542358 385.06189 319.919495 372.891418 316.144897 361.040039 C 312.259155 348.758606 307.138458 336.824097 301.615112 326.443817 C 300.532806 324.375916 299.422546 322.322083 298.353973 320.226593 C 303.044525 326.221741 308.220795 331.828064 313.813416 336.976685 C 317.074554 343.526794 320.29422 350.104675 323.041901 356.876831 C 331.548767 377.776276 335.587128 401.062408 330.730042 423.099731 Z"/>
        <path id="path32" fill="#d95151" stroke="none" opacity="0.39" style="mix-blend-mode:multiply" d="M 373.611053 322.127808 C 368.601318 322.9328 363.841492 323.987488 359.067566 325.666595 C 354.307709 327.359619 349.75589 330.024109 346.577911 333.965271 C 343.400116 337.920288 341.748596 343.249329 342.955933 348.17569 C 339.583832 333.923584 330.618927 320.962158 319.406036 311.539337 C 313.063965 306.224365 305.764618 302.102814 297.95163 299.382874 C 294.621033 298.203186 291.207092 297.30127 287.751617 296.648926 C 287.571198 296.121582 287.390808 295.622009 287.224274 295.094666 C 297.146637 295.358398 306.999573 299.09137 315.215027 304.794922 C 325.845184 312.177795 334.018982 322.627533 340.749481 333.687775 C 344.302002 325.805328 353.030945 320.573547 361.648743 321.156433 C 358.540222 312.677368 358.026764 302.685547 362.842194 295.039246 C 364.17453 292.943756 365.867523 291.153503 367.810394 289.682434 C 366.450439 292.36084 365.534485 295.275085 365.145874 298.342102 C 364.077301 307.001587 367.310822 316.077271 373.624939 322.100159 Z"/>
        <path id="path33" fill="#d95151" stroke="none" opacity="0.39" style="mix-blend-mode:multiply" d="M 362.869965 416.827118 C 352.68399 418.908722 343.483276 426.374756 339.680878 436.047424 C 337.085815 442.666992 336.947083 450.160645 339.042572 456.946716 C 333.824677 450.132874 332.700531 440.640778 335.323364 432.480835 C 337.973999 424.237762 344.121582 417.368347 351.57373 412.941528 C 338.05719 402.242126 333.325104 381.828369 340.791138 366.271851 C 330.105469 362.955139 320.280334 357.112823 312.092621 349.480255 C 308.970215 341.348114 305.389893 333.549011 301.615112 326.471436 C 300.532806 324.403687 299.422546 322.349884 298.353973 320.254395 C 303.044525 326.249512 308.220795 331.855865 313.813416 337.004486 C 324.74881 347.065613 337.266235 355.405945 350.796692 361.525726 C 345.537109 370.351746 344.038422 381.703522 346.203186 391.750732 C 348.354279 401.811829 354.432556 410.943115 362.856079 416.841003 Z"/>
        <path id="path34" fill="#e8b35e" stroke="none" opacity="0.34" style="mix-blend-mode:multiply" d="M 282.60318 264.606079 C 282.533722 265.549805 282.492218 266.507263 282.478302 267.450989 C 282.408875 270.1987 282.519989 272.932495 282.797455 275.638519 C 283.17218 279.4133 283.852173 283.160126 284.78183 286.851563 C 285.586853 290.154388 286.613739 293.415527 287.765503 296.648926 C 290.638245 304.697876 294.398956 312.552521 298.367859 320.198975 C 298.367859 320.198975 298.367859 320.198975 298.367859 320.226593 C 299.450348 322.322083 300.546722 324.389832 301.629028 326.443817 C 307.152374 336.837952 312.273041 348.772491 316.158783 361.040039 C 319.919495 372.891418 322.556244 385.06189 323.347168 396.482971 C 323.527588 399.230682 323.597046 401.992249 323.513702 404.767731 C 323.180664 417.368347 320.099915 430.038422 313.910645 440.710205 C 310.496704 446.608124 306.125275 451.895325 300.75473 456.225037 C 293.316467 462.220184 284.448792 466.008667 275.12323 468.395569 C 270.044067 469.700104 264.840027 470.574402 259.663788 471.171021 C 258.109528 471.35144 256.555267 471.490173 255.001007 471.629089 C 283.22757 463.871521 308.456757 442.514191 313.216766 413.968445 C 322.139832 360.44342 260.149475 314.52301 268.101349 260.859253 C 271.639984 237.073364 288.390106 217.686523 298.201355 195.760345 C 313.105652 162.468475 310.496704 120.628113 287.36319 92.429321 C 272.916779 74.804932 250.199493 64.230347 227.662613 63.508698 C 230.091156 62.925964 232.561371 62.495697 235.045319 62.19043 C 268.573151 58.041107 302.531097 81.230164 317.380005 110.553101 C 326.275269 128.135834 329.036865 148.688141 325.414886 168.047211 C 321.792908 187.433899 307.957184 205.127563 298.159668 222.002533 C 290.568787 235.074921 283.838287 249.160522 282.700226 264.217468 C 282.700226 264.356201 282.672607 264.481201 282.658722 264.619934 Z"/>
        <path id="path35" fill="#e8b35e" stroke="none" opacity="0.34" style="mix-blend-mode:multiply" d="M 323.499817 404.795532 C 323.166748 417.396118 320.086029 430.066193 313.896759 440.738007 C 310.482788 446.635895 306.111572 451.923096 300.740845 456.252838 C 293.302582 462.247955 284.434906 466.036469 275.109344 468.42334 C 270.030334 469.727905 264.826324 470.60202 259.649902 471.198822 C 258.095642 471.379242 256.541382 471.517975 254.987122 471.656708 C 247.521072 472.25351 239.971848 472.281281 232.519699 471.545746 C 223.610352 470.671478 214.83992 468.756378 206.485703 465.495239 C 204.001587 464.523865 201.545258 463.427521 199.158386 462.220184 C 193.204941 459.194824 187.626373 455.447998 182.644257 451.021027 C 197.174026 457.321411 212.841476 460.901733 228.675629 460.957275 C 252.059006 461.026733 275.650574 453.102631 293.302582 437.768219 C 308.970215 424.140533 319.628113 404.573425 321.792908 383.979431 C 322.528442 388.22583 323.055817 392.430725 323.333282 396.524658 C 323.513702 399.272339 323.58316 402.033936 323.499817 404.809418 Z"/>
        <path id="path36" fill="#e8b35e" stroke="none" opacity="0.34" style="mix-blend-mode:multiply" d="M 214.465195 445.289673 C 205.167236 444.859558 195.938904 441.612274 188.805908 435.644958 C 181.298187 429.358429 176.288467 419.977295 175.885971 410.193848 C 175.483643 400.410217 179.924347 390.390778 187.834396 384.631622 C 189.860611 383.14682 192.219696 381.925598 194.676025 381.509216 C 192.275253 382.869171 190.151978 384.742584 188.514374 386.935333 C 184.628799 392.167114 183.227173 398.939301 183.435364 405.447723 C 183.921036 420.71286 193.218826 435.381348 206.818741 442.333771 C 209.261169 443.582764 211.828461 444.568176 214.465195 445.289673 Z"/>
        <path id="path37" fill="#e8b35e" stroke="none" opacity="0.34" style="mix-blend-mode:multiply" d="M 240.318787 402.519592 C 237.668152 411.872955 230.021698 420.08844 220.446259 421.767548 C 215.575287 422.62793 210.385162 421.448395 206.194321 418.853333 C 213.28566 419.172485 220.612793 416.341431 225.511551 411.109619 C 232.630661 403.504852 234.545746 391.722961 231.006943 381.911713 C 227.468307 372.128082 218.93367 364.481628 209.066864 361.137299 C 206.152649 360.138 203.127304 359.51358 200.060455 359.222229 C 205.347656 358.486664 210.745987 358.805817 215.908493 360.360077 C 233.158005 365.52243 245.245163 385.200653 240.332672 402.519592 Z"/>
        <path id="path38" fill="#e8b35e" stroke="none" opacity="0.34" style="mix-blend-mode:multiply" d="M 240.318787 402.519592 C 237.779114 411.470459 230.660004 419.380676 221.639694 421.503967 C 228.481339 416.868774 233.879654 410.055115 236.446945 402.186554 C 239.569351 392.611145 238.403702 381.828369 233.754807 372.933075 C 240.235443 381.314911 243.233002 392.319763 240.332672 402.519592 Z"/>
        <path id="path39" fill="#42240f" stroke="none" d="M 277.288177 183.298462 C 276.510956 185.851868 275.234344 188.294281 273.555084 190.445343 C 272.666901 191.610992 271.639984 192.707214 270.516022 193.692627 C 267.393585 196.537384 263.618805 198.605103 259.677673 200.062286 C 257.693298 200.756165 255.653214 201.311279 253.59938 201.713776 C 251.531662 202.074432 249.450058 202.32431 247.382339 202.421387 C 243.205231 202.671265 239.055893 202.379883 234.948242 201.866425 C 239.083679 201.796967 243.205231 201.686005 247.285263 201.255737 C 251.351242 200.825623 255.361832 200.048401 259.164215 198.660675 C 262.966614 197.272919 266.588593 195.371735 269.7388 192.804443 C 271.195984 191.638794 272.542053 190.320343 273.735504 188.877197 C 275.137115 187.197906 276.330566 185.338409 277.274292 183.298462 Z"/>
        <path id="path40" fill="#e8b35e" stroke="none" opacity="0.34" style="mix-blend-mode:multiply" d="M 230.24379 207.70874 C 229.993927 207.972351 229.758118 208.25 229.522141 208.527466 C 229.702545 208.277771 229.910736 208.041809 230.091156 207.792084 L 230.24379 207.694855 Z"/>
        <path id="path41" fill="#e8b35e" stroke="none" opacity="0.34" style="mix-blend-mode:multiply" d="M 233.740921 372.933075 C 235.25351 374.875793 236.557907 376.971283 237.654266 379.150116 C 236.877228 378.497742 236.127792 377.845551 235.378357 377.165588 C 230.091156 372.43335 225.081436 367.382141 220.376984 362.066956 C 225.60878 364.523315 230.202118 368.325684 233.740921 372.919189 Z"/>
        <path id="path42" fill="#e8b35e" stroke="none" opacity="0.34" style="mix-blend-mode:multiply" d="M 270.737915 368.575562 C 270.446564 367.97876 270.155182 367.382141 269.849915 366.785339 C 269.586151 366.257965 269.308685 365.758423 269.031036 365.231079 C 268.323273 363.940369 267.587891 362.691559 266.824585 361.442566 C 266.477631 360.85965 266.102936 360.290619 265.72821 359.721771 C 264.992828 358.569824 264.215607 357.431976 263.396912 356.3078 C 262.716919 355.336487 262.009155 354.378845 261.273621 353.407471 L 260.676819 352.644165 C 260.343781 352.186279 259.982941 351.742279 259.622284 351.28421 C 259.192017 350.729248 258.748016 350.174133 258.289948 349.632874 C 257.845947 349.091644 257.401764 348.536499 256.929993 347.981384 C 256.485992 347.440125 256.027924 346.885193 255.556137 346.330048 C 255.32016 346.066284 255.098251 345.802704 254.890045 345.53894 C 254.15451 344.664673 253.377457 343.80426 252.614136 342.929993 C 252.15625 342.402832 251.698181 341.903076 251.240295 341.375732 C 250.921143 341.015076 250.615707 340.668152 250.296555 340.307312 C 249.616577 339.53009 248.908813 338.766785 248.20105 338.017517 C 247.493286 337.254181 246.785706 336.504944 246.064056 335.741577 C 245.106415 334.728577 244.135071 333.715546 243.149658 332.716248 C 240.47142 329.954651 237.751511 327.220856 235.07309 324.473145 C 233.282852 322.613647 231.492783 320.740051 229.758118 318.838867 C 229.369507 318.422638 228.994781 317.992371 228.606186 317.562256 C 226.746658 315.494507 224.956421 313.371246 223.249527 311.206299 C 222.513977 310.262726 221.806396 309.332886 221.112518 308.361511 C 220.862656 308.042358 220.640564 307.695435 220.40477 307.376099 C 219.960587 306.751709 219.530487 306.127289 219.11409 305.488831 C 218.850494 305.100372 218.586746 304.697876 218.337051 304.29538 C 218.156631 304.031799 217.990112 303.768005 217.823425 303.49054 L 216.990814 302.130585 C 216.310837 300.978638 215.65863 299.799133 215.034225 298.591797 C 214.853806 298.258728 214.701004 297.92572 214.534485 297.578766 C 214.201431 296.912659 213.868393 296.218811 213.563126 295.524933 C 213.368835 295.08075 213.17453 294.650635 212.99411 294.206482 C 212.855377 293.873444 212.716629 293.540405 212.591782 293.193481 C 212.36969 292.624451 212.161499 292.055603 211.953308 291.472656 C 211.814575 291.07019 211.661942 290.640076 211.523193 290.223694 C 211.356674 289.724121 211.204041 289.210663 211.06514 288.71109 C 210.81543 287.850708 210.565567 286.990295 210.343658 286.102112 C 210.204742 285.519226 210.06601 284.950378 209.941147 284.353577 C 209.857803 284.020508 209.788528 283.673584 209.71907 283.340546 C 209.635895 282.979736 209.552551 282.60498 209.483261 282.230286 C 209.233398 280.953674 209.025192 279.67688 208.858673 278.372498 C 208.747711 277.623047 208.664368 276.859741 208.581192 276.096588 C 208.53952 275.652405 208.483963 275.208435 208.456177 274.750519 C 208.331329 273.348877 208.234268 271.93335 208.178696 270.517853 C 208.150909 269.990479 208.150909 269.44928 208.137024 268.921906 C 208.137024 268.297485 208.109238 267.686798 208.109238 267.062378 C 208.109238 266.18811 208.109238 265.286041 208.150909 264.411743 C 208.150909 263.953857 208.178696 263.495789 208.192581 263.037903 C 208.234268 262.191406 208.27594 261.34491 208.331329 260.512299 C 208.359116 260.151489 208.386887 259.790649 208.428558 259.42981 C 208.497849 258.597229 208.581192 257.764435 208.678268 256.931824 C 208.733826 256.335205 208.817001 255.738388 208.900345 255.141754 C 208.928131 254.836319 208.969803 254.544952 209.011307 254.267471 C 209.080765 253.809418 209.15004 253.337631 209.219498 252.87973 C 209.302841 252.352386 209.399918 251.811142 209.483261 251.283798 C 209.483261 251.21434 209.51088 251.131165 209.524765 251.061707 C 209.621994 250.534363 209.71907 249.979233 209.8302 249.451889 C 209.871704 249.202194 209.927261 248.966217 209.982834 248.716522 C 210.135452 247.980972 210.301987 247.245438 210.482391 246.509888 C 210.648911 245.802124 210.81543 245.09436 211.009735 244.400497 C 211.009735 244.358994 211.037521 244.317322 211.037521 244.27565 C 211.217941 243.567902 211.425964 242.860138 211.634155 242.180145 C 211.661942 242.069183 211.689713 241.971954 211.731384 241.860992 C 211.953308 241.125458 212.189285 240.403961 212.425262 239.682312 C 212.73053 238.808044 213.021896 237.933746 213.354935 237.073364 L 213.354935 237.073364 C 213.660202 236.254486 213.965637 235.449646 214.298676 234.658722 C 214.340347 234.533691 214.395737 234.408844 214.451309 234.283997 C 214.756561 233.52066 215.075714 232.771393 215.408768 232.008087 C 215.408768 231.9664 215.436554 231.924744 215.450439 231.897125 C 215.82515 231.064331 216.185974 230.245636 216.588486 229.413025 C 216.616089 229.371338 216.62999 229.302063 216.657761 229.260376 C 213.438278 236.948334 211.43985 245.163818 210.843216 253.476364 C 209.635895 270.337433 214.187546 287.559326 223.56868 301.603241 C 231.118073 312.91333 241.484436 321.975159 250.712936 331.953094 C 259.941437 341.916962 268.36496 353.463074 270.557526 366.882385 C 270.640869 367.409729 270.724213 367.964844 270.779602 368.506104 Z"/>
        <path id="path43" fill="#e8b35e" stroke="none" opacity="0.34" style="mix-blend-mode:multiply" d="M 206.388458 200.450897 C 199.824478 200.381439 193.246613 200.478668 186.654846 200.631317 C 174.62326 200.908783 162.577606 201.39447 150.545837 201.436127 C 145.008774 201.463928 139.374634 201.366852 134.07338 199.784821 C 128.786179 198.188873 123.74868 194.899933 121.278465 189.931732 C 120.7789 188.932587 120.390289 187.766937 120.126701 186.517944 C 121.306244 188.127777 122.707878 189.598694 124.248245 190.861572 C 128.147705 194.081238 132.921616 196.107269 137.806488 197.467224 C 159.538361 203.462189 182.921906 196.384735 205.139633 200.173248 C 205.555847 200.242706 205.98613 200.32605 206.388458 200.450897 Z"/>
        <path id="path44" fill="#fdc366" stroke="none" opacity="0.39" style="mix-blend-mode:screen" d="M 221.070847 65.354523 C 209.080765 74.235901 198.950195 85.629364 191.595276 98.604675 C 185.322678 109.678833 181.06221 121.765991 175.580719 133.242615 C 170.099213 144.733124 163.10495 155.918396 152.780075 163.356659 C 146.132919 168.158173 138.403122 171.169647 131.297897 175.235626 C 127.120796 177.636383 123.040924 180.536865 119.835159 184.089386 C 119.682533 180.96698 120.459747 177.775299 122.610641 175.846313 C 124.248245 174.361328 126.954269 173.820099 128.980484 172.834839 C 131.506104 171.613647 133.962418 170.253693 136.335403 168.754974 C 145.688751 162.884705 153.820892 155.044098 159.926971 145.829498 C 172.374954 127.053345 176.427216 103.309143 190.748779 85.920715 C 191.067932 85.532135 191.373199 85.171295 191.692352 84.796753 C 199.463654 75.804047 209.788528 69.184692 221.056961 65.382111 Z"/>
        <path id="path45" fill="#fdc366" stroke="none" opacity="0.39" style="mix-blend-mode:screen" d="M 252.919403 369.907715 C 249.505615 366.785339 245.731003 364.051514 241.761917 361.747803 C 235.045319 357.834473 227.898422 354.698181 220.959717 351.20105 C 218.545074 349.979797 216.185974 348.730835 213.854507 347.384766 C 212.647171 346.690887 211.453735 345.955322 210.2742 345.192017 C 200.768219 339.058319 192.830383 330.787292 186.80748 321.25351 C 185.669601 319.477325 184.614914 317.659302 183.629669 315.799805 C 178.939102 307.001587 175.802795 297.370575 174.470459 287.503784 C 174.206863 285.616455 174.012558 283.715271 173.887711 281.800171 C 173.415756 274.403564 173.970886 266.937561 175.650162 259.679504 C 176.621521 255.474792 177.925919 251.39476 179.480347 247.425842 C 180.2435 245.496872 181.076111 243.581787 181.964279 241.694489 C 184.878494 235.449646 188.375626 229.454681 192.247482 223.639984 C 185.031296 237.919861 181.548065 254.100952 182.505524 270.087585 C 183.893265 293.304565 194.634354 315.841461 211.800674 331.536713 C 219.530487 338.60025 228.41188 344.262329 236.474716 350.951172 C 242.955521 356.3078 249.006058 362.525024 252.919403 369.879944 Z"/>
        <path id="path46" fill="#fdc366" stroke="none" opacity="0.39" style="mix-blend-mode:screen" d="M 170.806976 388.239716 C 163.882004 403.019165 163.757141 420.823792 170.460037 435.686615 C 171.070557 437.060455 171.750534 438.392639 172.458298 439.71109 C 170.376694 436.810608 168.544952 433.729858 166.990692 430.49649 C 159.205322 414.259827 159.316452 393.984985 169.072296 378.858582 C 175.913757 368.270142 187.681763 360.915222 200.032669 359.222229 C 200.990295 359.097168 201.961655 358.986237 202.932999 358.930664 C 188.958542 364.009827 177.093307 374.764832 170.793076 388.22583 Z"/>
        <path id="path47" fill="#fdc366" stroke="none" opacity="0.39" style="mix-blend-mode:screen" d="M 208.983521 85.587677 C 207.942719 87.960663 207.359985 90.84726 208.733826 93.053741 C 210.135452 95.287964 213.049683 96.009613 215.686417 95.981842 C 219.613663 95.954071 223.638138 94.566315 226.302658 91.679871 C 228.96701 88.793457 230.007813 84.310913 228.328705 80.772278 C 223.194138 69.975616 212.064438 78.635101 208.997421 85.587677 Z"/>
        <path id="path48" fill="#fdc366" stroke="none" opacity="0.39" style="mix-blend-mode:screen" d="M 230.549042 98.465942 C 231.978455 99.839783 234.393112 99.992432 236.058334 98.923828 C 237.73761 97.855255 238.598007 95.718262 238.292572 93.747589 C 238.001205 91.860291 236.571793 90.111725 234.69838 89.764801 C 230.590729 89.01535 227.676498 95.704346 230.549042 98.465942 Z"/>
        <path id="path49" fill="#f0765a" stroke="none" opacity="0.39" style="mix-blend-mode:screen" d="M 250.671265 24.041473 C 240.360458 23.861053 230.091156 20.627533 221.695267 14.618683 C 217.878983 32.326233 202.627747 46.980865 184.781433 50.061584 C 188.528259 56.250854 190.193649 63.633728 189.638519 70.849915 C 185.64183 58.679413 176.177521 48.229675 164.076294 43.927734 C 176.385544 46.647644 189.763367 44.246887 200.351822 37.391541 C 210.940292 30.549896 218.614517 19.337036 221.195694 7 C 229.036453 15.728943 239.347275 21.59906 250.685165 24.027588 Z"/>
        <path id="path50" fill="#f0765a" stroke="none" opacity="0.39" style="mix-blend-mode:screen" d="M 228.064941 39.875641 C 228.245361 41.693481 228.994781 43.539124 230.438095 44.677155 C 231.478897 45.49588 232.9776 45.884491 234.171036 45.287689 C 234.962128 44.899231 235.503372 44.163696 235.961273 43.428162 C 237.154709 41.485291 237.931915 39.209381 237.682053 36.933472 C 237.418457 34.6716 235.975159 32.464996 233.810196 31.743317 C 228.52301 29.981049 227.690399 36.225861 228.064941 39.875641 Z"/>
        <path id="path51" fill="#f0765a" stroke="none" opacity="0.39" style="mix-blend-mode:screen" d="M 239.652695 44.774231 C 240.748901 46.342377 243.177444 46.717102 244.717819 45.593109 C 246.258347 44.468964 246.632904 42.068207 245.564484 40.486145 C 242.705658 36.295166 237.043747 41.027405 239.652695 44.774231 Z"/>
        <path id="path52" fill="#f0765a" stroke="none" opacity="0.39" style="mix-blend-mode:screen" d="M 374.235626 277.01239 C 373.361359 276.95697 372.487061 276.845856 371.612793 276.707092 C 365.492798 275.707977 359.650482 272.960266 355.168121 268.685944 C 350.713348 264.397888 347.688171 258.569427 347.03598 252.421677 C 338.320923 261.067261 326.885986 266.923645 314.784943 268.949707 C 311.44043 269.518738 307.915527 269.740631 304.515625 269.352173 C 310.302399 268.699829 315.978363 267.145569 321.251678 264.689392 C 335.295593 258.153046 346.28656 245.372009 350.657959 230.509369 C 350.519226 240.695343 351.365723 251.172668 355.820313 260.345764 C 359.53952 267.992065 366.214478 274.570129 374.221741 277.01239 Z"/>
        <path id="path53" fill="#f0765a" stroke="none" opacity="0.39" style="mix-blend-mode:screen" d="M 233.144119 493.208344 C 228.675629 487.227112 221.029175 483.119446 213.923965 480.843536 C 206.554977 478.484436 198.395065 478.637085 191.109436 481.259918 C 188.792023 470.491058 184.83699 460.055237 179.757828 450.243988 C 186.307907 457.487946 190.818069 466.549927 192.580521 476.139252 C 201.240005 473.405273 210.981964 473.793884 219.058533 477.873932 C 225.386703 481.079529 230.562943 486.630463 233.130219 493.194458 Z"/>
    </g>
</svg>
