<?xml version="1.0" encoding="UTF-8"?>
<!-- Generated by Pixelmator Pro 3.6.14 -->
<svg width="500" height="500" viewBox="0 0 500 500" xmlns="http://www.w3.org/2000/svg">
    <g id="Group-copy">
        <linearGradient id="linearGradient1" x1="56.9895" y1="170.436537" x2="290.010462" y2="279.96629" gradientUnits="userSpaceOnUse">
            <stop offset="1e-05" stop-color="#7ea6c4" stop-opacity="1"/>
            <stop offset="1" stop-color="#5d8db0" stop-opacity="1"/>
        </linearGradient>
        <path id="Path" fill="url(#linearGradient1)" stroke="none" d="M 482.963867 253.160675 C 481.664734 256.212738 480.075104 259.128632 478.240204 261.871887 C 472.136078 271.019012 463.252319 278.322235 453.042389 282.409851 C 452.788239 282.51886 452.533875 282.60968 452.27951 282.709564 C 438.654144 287.932617 422.921326 287.360352 409.713776 281.192566 C 404.427063 278.730957 398.677307 275.406342 393.154449 273.535156 C 390.610992 272.672302 388.367371 272.009094 386.323578 271.890991 C 383.889221 271.318726 381.354889 271.509552 378.620728 272.317993 C 378.2211 272.436096 377.812378 272.572266 377.403442 272.717651 C 376.99472 272.863007 376.576904 273.017334 376.149994 273.190002 C 375.505096 273.453461 374.860199 273.74408 374.188049 274.071075 C 373.979126 274.170959 373.761139 274.270874 373.552002 274.379883 C 373.324921 274.489014 373.097839 274.606995 372.879822 274.716064 C 372.552948 274.879517 372.22583 275.061157 371.898956 275.242889 C 370.39093 276.051331 368.801331 276.987 367.13916 278.0224 C 366.694092 278.294983 366.248993 278.585571 365.785736 278.876343 C 360.935028 281.964783 355.366882 285.834351 348.754028 290.13089 C 347.863861 290.703156 346.955505 291.284515 346.019867 291.874878 C 345.211304 292.401794 344.375671 292.928589 343.521881 293.455383 C 343.040405 293.755219 342.540771 294.064026 342.041138 294.36377 C 341.777679 294.527313 341.514435 294.690857 341.250977 294.854309 C 340.923889 295.054108 340.587891 295.254028 340.260803 295.453857 C 339.061707 296.189575 337.826447 296.925385 336.554626 297.670166 C 336.44574 297.733826 336.327545 297.806458 336.218658 297.870117 C 334.937714 298.614929 333.62973 299.377899 332.2854 300.131897 C 330.559601 301.103821 328.770172 302.075806 326.935272 303.065887 C 326.462891 303.320251 325.981445 303.56543 325.509064 303.819763 C 324.954865 304.110535 324.410004 304.392059 323.84671 304.691895 C 322.901978 305.182312 321.939301 305.672852 320.967285 306.154327 C 319.913666 306.690247 318.841644 307.217041 317.742584 307.753052 C 316.670776 308.261658 315.589874 308.77948 314.48172 309.288116 C 313.927521 309.551575 313.373322 309.805847 312.801147 310.069275 C 298.385406 316.654877 282.362091 320.251953 266.084381 321.169373 C 262.514404 321.369324 258.935516 321.441956 255.356644 321.396484 C 254.920639 321.396484 254.48465 321.378418 254.057755 321.360229 C 253.349197 321.360229 252.631561 321.323853 251.923019 321.305664 C 251.069214 321.278381 250.215408 321.242126 249.379578 321.187561 C 248.661942 321.142212 247.944519 321.105835 247.226883 321.0513 C 246.772705 321.024139 246.327621 320.996857 245.882538 320.96051 C 245.391983 320.915131 244.892349 320.887878 244.3927 320.833313 C 243.311813 320.742493 242.230911 320.642578 241.149796 320.524475 C 240.259628 320.424591 239.360367 320.324677 238.4702 320.206604 C 237.888947 320.142944 237.307465 320.052124 236.726212 319.970398 C 236.217484 319.915833 235.71785 319.834137 235.209335 319.761505 C 235.018387 319.734222 234.827667 319.70697 234.636948 319.670685 C 233.728592 319.543518 232.820236 319.398132 231.920975 319.234589 C 231.457703 319.161957 231.003525 319.080231 230.540253 318.998535 C 230.376801 318.971252 230.204269 318.94397 230.049698 318.907593 C 229.477539 318.807678 228.914261 318.698669 228.351181 318.589691 C 227.224838 318.371704 226.116669 318.144592 224.999405 317.908417 C 221.502136 317.145447 218.050339 316.273438 214.671265 315.27417 C 217.160156 324.521301 214.36235 337.020294 209.439117 345.240875 C 205.7966 351.308746 201.082275 356.613525 196.222473 361.800323 C 194.514862 363.617035 192.788849 365.433746 191.090347 367.250458 C 189.982178 368.440369 188.874008 369.648438 187.783798 370.865723 C 186.594009 372.200958 185.43129 373.563507 184.304932 374.953308 C 180.398956 379.758453 176.965332 384.89978 174.721725 390.640686 C 173.858826 392.838837 173.177551 395.136993 171.887543 397.117249 C 170.588654 399.088318 168.544846 400.750702 166.183243 400.850586 C 164.88414 400.905029 163.703445 400.505432 162.640518 399.833252 C 160.78743 398.652344 159.270554 396.635803 158.116913 394.700989 C 156.209503 391.530853 154.556229 388.224426 153.157318 384.827148 C 151.095337 379.867462 149.551163 374.698944 148.433914 369.412354 C 148.433914 369.412354 148.433914 369.394165 148.433914 369.394165 C 148.170456 368.131531 147.925171 366.850708 147.707184 365.57901 C 147.116837 362.06366 146.707901 358.512085 146.47171 354.951263 C 146.135742 350.21875 146.108459 345.44989 146.317368 340.726379 C 147.14389 322.050598 151.867523 303.302063 156.300201 285.144012 C 155.128387 284.589905 153.965668 284.026733 152.821121 283.427185 C 152.476059 283.254578 152.139862 283.063843 151.794785 282.882202 C 150.768234 282.337097 149.750977 281.764832 148.742615 281.1745 C 148.397537 280.983643 148.070435 280.783844 147.743546 280.584045 C 145.581543 279.294128 143.465225 277.922485 141.403229 276.478241 C 141.057938 276.242065 140.731049 276.014954 140.403946 275.769714 C 139.241226 274.943176 138.09668 274.089264 136.970322 273.226379 C 136.588882 272.926544 136.198364 272.626831 135.82579 272.317993 C 135.571426 272.127197 135.308182 271.918274 135.053818 271.709351 C 132.792023 269.892639 130.584549 267.985107 128.440948 266.004852 C 127.932213 265.541565 127.432571 265.069214 126.93293 264.606079 C 124.680222 262.480408 122.491165 260.273193 120.35643 258.002289 C 119.838829 257.439087 119.321007 256.893982 118.803177 256.321838 C 118.294441 255.75856 117.77684 255.195374 117.277199 254.623108 C 116.768463 254.059937 116.268822 253.49675 115.769409 252.915497 C 115.378654 252.461319 114.988121 252.016129 114.588493 251.552963 C 114.070671 250.962509 113.57103 250.362961 113.071388 249.754333 C 112.072327 248.555344 111.073044 247.338181 110.101265 246.120895 C 109.610718 245.512375 109.120163 244.894638 108.63871 244.286102 C 108.157257 243.668365 107.666702 243.050629 107.194344 242.433014 C 106.749252 241.860748 106.313263 241.279388 105.877266 240.698029 C 104.896172 239.408112 103.933479 238.118317 102.97966 236.819336 C 88.645752 217.271454 76.392014 196.161224 60.695572 177.694366 C 54.146351 170.00061 45.280769 162.179657 35.325207 163.860107 C 27.61326 165.158997 22.635479 171.453949 19.183676 178.829803 C 20.691471 170.999786 22.698904 163.242371 25.16074 155.657593 C 25.851101 153.532074 26.913809 150.416351 28.294529 146.728485 C 32.718117 134.983368 40.411877 117.52478 49.659115 108.277649 C 54.863987 103.072754 62.012646 99.103241 69.306786 100.175049 C 77.899811 101.437683 84.912308 109.076996 90.426094 115.208405 C 94.89537 120.186188 108.747818 137.853821 125.170776 156.602325 C 135.989456 168.955963 147.916077 181.781982 159.007095 191.764801 C 164.157623 196.3974 169.516846 200.712097 175.039734 204.708893 C 193.1978 217.843719 213.272369 227.699493 234.546249 235.202545 C 240.468536 237.300781 246.481964 239.199219 252.567917 240.952393 C 267.528534 245.239822 283.143372 247.274521 298.721619 247.165527 C 303.835571 247.129166 308.940643 246.884003 314.018433 246.384354 C 314.48172 246.338898 314.926788 246.302628 315.390076 246.248077 C 325.908691 245.158096 336.327545 243.068817 346.419495 239.889587 C 346.701141 239.798767 346.991638 239.707947 347.300568 239.617126 C 347.682007 239.499054 348.081848 239.380951 348.481476 239.262878 C 352.196503 238.17276 356.093414 237.019257 358.655029 234.212341 C 362.052277 230.479004 362.61557 225.07431 362.851746 220.15097 C 363.124084 214.473755 362.006805 208.823792 361.143921 203.200989 C 359.454498 192.164551 359.581573 180.828156 361.925201 169.918762 C 362.851746 165.613159 364.286804 161.362122 366.258087 157.410767 L 366.258087 157.410767 C 368.083893 153.695526 370.381836 150.243835 373.152374 147.218933 C 374.905457 145.293213 376.849457 143.540131 378.993073 142.014038 C 377.48526 149.380829 381.164154 156.284424 384.961029 162.788177 C 388.757904 169.273865 393.663177 175.087372 397.196594 181.727417 C 405.607971 197.551056 405.19928 220.223602 396.142975 235.692963 C 406.788879 231.441925 418.888275 231.269287 429.488739 235.629425 C 438.281586 239.253784 445.684814 245.575897 454.014404 250.181335 C 462.343964 254.786667 474.343536 257.175659 483 253.206131 Z"/>
        <path id="path1" fill="#def0ff" stroke="none" d="M 386.314484 271.890991 C 383.498688 271.736633 381.045959 272.635925 378.657074 275.542603 C 364.050629 293.301025 348.009094 310.378113 329.633057 324.494019 C 328.18869 325.611267 326.717255 326.710449 325.236511 327.782257 C 318.696381 332.532959 311.920074 336.974854 304.94397 341.071533 C 290.891479 349.310425 276.003601 356.086731 260.506958 361.037231 C 259.816589 361.255219 259.126221 361.473206 258.435883 361.691315 C 256.373871 362.327148 254.320984 362.926666 252.268311 363.498962 C 250.215408 364.071228 248.171616 364.598022 246.145767 365.097656 C 244.955994 365.388306 243.747803 365.6698 242.566895 365.942383 C 242.294342 366.006012 242.012924 366.078644 241.740372 366.133087 C 240.632202 366.378357 239.524033 366.614563 238.424728 366.841644 C 238.170578 366.896179 237.934402 366.950623 237.680038 366.996094 C 236.471848 367.250458 235.272751 367.468445 234.073883 367.695557 C 230.658447 368.33136 227.270294 368.867249 223.900101 369.303253 C 222.137939 369.539429 220.393967 369.748444 218.649994 369.930054 C 211.337662 370.711243 204.134232 371.074615 197.012848 371.074615 C 195.922867 371.074615 194.823563 371.074615 193.742676 371.038239 L 193.742676 371.038239 C 193.688126 371.038239 193.633789 371.038239 193.588333 371.038239 C 192.434692 371.020081 191.281067 370.983795 190.127426 370.956543 C 190.08197 370.956543 190.018539 370.956543 189.973083 370.956543 C 189.246353 370.938354 188.519623 370.911072 187.792892 370.883911 C 188.883102 369.666626 189.991272 368.449463 191.099442 367.268555 C 192.807037 365.451843 194.533051 363.635101 196.231567 361.81839 C 201.082275 356.631714 205.805695 351.326935 209.448212 345.259033 C 214.371445 337.038483 217.16925 324.53949 214.680359 315.292358 C 218.059418 316.28241 221.51123 317.163635 225.008499 317.926605 C 226.116669 318.171875 227.233917 318.389893 228.360275 318.60788 C 228.92334 318.716858 229.486633 318.825867 230.058792 318.925781 C 230.213364 318.962158 230.385895 318.989441 230.549347 319.016602 C 231.012619 319.098419 231.466797 319.171051 231.930069 319.252777 C 232.82933 319.407227 233.737686 319.561707 234.646042 319.688782 C 234.836761 319.725128 235.027481 319.752411 235.21843 319.779694 C 235.726929 319.852325 236.226578 319.934021 236.735306 319.988586 C 237.316559 320.070313 237.898041 320.152039 238.479279 320.224792 C 239.369461 320.342865 240.268723 320.44278 241.15889 320.542664 C 242.240005 320.660767 243.320908 320.760681 244.401794 320.851501 C 244.892349 320.906067 245.391983 320.933228 245.891617 320.978668 C 246.336716 321.015045 246.781799 321.042297 247.235977 321.069489 C 247.953613 321.124023 248.671036 321.160278 249.388672 321.20575 C 250.233383 321.260315 251.087402 321.29657 251.932114 321.323853 C 252.640656 321.351135 253.358292 321.378418 254.066849 321.378418 C 254.502838 321.396484 254.938828 321.405579 255.365738 321.414673 C 258.944611 321.469238 262.523468 321.38739 266.093475 321.187561 C 282.362091 320.270142 298.394501 316.673065 312.810242 310.087463 C 313.382416 309.824036 313.936615 309.569763 314.490814 309.306305 C 315.589874 308.797546 316.679871 308.28894 317.751678 307.771118 C 318.841644 307.235229 319.92276 306.708405 320.976379 306.172394 C 321.957489 305.69104 322.911072 305.2005 323.855804 304.709961 C 324.419098 304.419312 324.963959 304.137695 325.518158 303.837952 C 325.99054 303.583618 326.471985 303.338318 326.944336 303.084076 C 328.779236 302.102966 330.568695 301.122009 332.294464 300.150085 C 333.638824 299.386993 334.946808 298.633118 336.227753 297.888184 C 336.336639 297.824646 336.454834 297.752014 336.563721 297.688354 C 337.835541 296.952667 339.070801 296.207764 340.269897 295.472046 C 340.606079 295.272095 340.942047 295.072296 341.260071 294.872498 C 341.523315 294.708923 341.795868 294.545471 342.050232 294.381958 C 342.549866 294.082214 343.040405 293.773407 343.530975 293.473572 C 344.384766 292.946777 345.220398 292.419983 346.028961 291.893066 C 346.9646 291.302612 347.863861 290.71225 348.763123 290.149078 C 355.375763 285.852448 360.944122 281.991943 365.79483 278.894501 C 366.258087 278.60376 366.703186 278.322235 367.148254 278.040588 C 368.810394 277.005066 370.400024 276.069519 371.908051 275.261078 C 372.244019 275.079346 372.571136 274.897705 372.888916 274.734161 C 373.116028 274.625183 373.343109 274.50708 373.561096 274.398071 C 373.77002 274.289063 373.98822 274.189148 374.197113 274.089264 C 374.869293 273.762268 375.514191 273.480621 376.159088 273.208191 C 376.585999 273.035522 377.003815 272.87207 377.412537 272.73584 C 377.821472 272.58136 378.230194 272.454163 378.629791 272.33606 C 381.363983 271.52774 383.889221 271.336914 386.332672 271.90918 Z"/>
        <path id="path2" fill="#5a819e" stroke="none" d="M 256.364777 178.938812 C 251.387009 191.746613 246.409225 204.554443 241.431442 217.362366 C 239.124176 223.302948 236.817139 229.234558 234.518967 235.166168 C 213.245087 227.663116 193.170517 217.807465 175.012451 204.672546 C 175.657364 203.818726 176.320435 202.983002 177.001709 202.156494 C 178.200806 200.675842 179.454224 199.231476 180.753113 197.832703 C 182.261139 196.197601 183.823486 194.607971 185.440384 193.090973 C 203.334991 176.150208 227.68811 165.99472 252.34993 165.695007 C 252.885941 165.695007 253.421722 165.767609 253.93045 165.931183 C 254.430099 166.085541 254.91156 166.303528 255.356644 166.585175 C 256.664612 167.40271 257.682098 168.710693 257.981689 170.191315 C 258.572266 173.170746 257.464081 176.141113 256.373871 178.947906 Z"/>
        <path id="path3" fill="#def0ff" stroke="none" d="M 146.444656 354.924011 C 146.680618 358.493896 147.089554 362.036377 147.679901 365.551819 C 141.46666 364.207397 135.289993 362.654114 129.14949 360.919128 C 119.421021 358.16687 107.730354 352.980103 95.939888 346.203796 C 78.908188 336.42984 61.67667 323.385864 49.840744 309.74231 C 47.578941 307.135315 45.516953 304.510132 43.682053 301.884979 C 36.942112 292.201965 31.355579 281.710388 26.99564 270.710205 C 19.665133 252.206955 15.813705 232.286621 15.850076 212.44812 C 15.86826 201.157196 17.012577 189.893646 19.156399 178.802521 C 22.617294 171.426666 27.595076 165.1409 35.297932 163.832825 C 45.253494 162.14328 54.119072 169.973328 60.668293 177.667084 C 76.373833 196.134064 88.618477 217.235199 102.952385 236.792145 C 117.286293 256.348999 134.317993 274.825073 156.26384 285.125824 C 151.840256 303.283875 147.107742 322.03241 146.280991 340.708191 C 146.072083 345.422607 146.108459 350.191467 146.435562 354.933105 Z"/>
        <path id="path4" fill="#5a819e" stroke="none" d="M 95.939888 346.203796 C 95.095177 347.720764 94.114082 349.174133 93.042282 350.591125 C 86.992477 358.630066 78.172363 365.424652 75.810768 375.198608 C 75.056755 378.350555 74.457321 382.310974 72.104599 384.036896 C 71.68679 384.354797 71.214424 384.590973 70.669319 384.727264 C 70.587708 384.754425 70.505875 384.781708 70.414955 384.790802 C 68.198616 385.254059 66.036827 383.909729 64.338097 382.429077 C 57.67067 376.642853 53.873798 368.222351 51.403091 359.756531 C 48.687111 350.473022 47.370037 340.790009 47.424591 331.106873 C 47.424591 329.099426 47.506203 327.091919 47.633495 325.093567 C 47.842403 321.896118 48.205654 318.707764 48.72348 315.537598 C 49.032181 313.602814 49.404751 311.658936 49.840744 309.74231 C 61.68576 323.385864 78.917274 336.438934 95.939888 346.203796 Z"/>
        <path id="path5" fill="#1b2936" stroke="none" d="M 99.773132 190.947266 C 100.245499 194.090271 102.162224 197.160522 105.168724 198.332214 C 107.948349 199.422302 111.272858 198.704681 113.616493 196.869781 C 115.960129 195.034882 117.368126 192.2099 117.858452 189.312286 C 118.358093 186.341949 117.913002 183.162689 116.277916 180.619232 C 114.633957 178.075897 111.717941 176.277283 108.647804 176.286377 C 101.480957 176.304535 98.928421 185.324585 99.782227 190.938171 Z"/>
        <path id="path6" fill="#ffffff" stroke="none" d="M 111.599968 185.678864 C 111.345596 188.058746 109.347252 189.802734 107.140007 189.575653 C 104.932541 189.339447 103.342918 187.223022 103.588188 184.834045 C 103.842552 182.454132 105.840897 180.710052 108.048363 180.937164 C 110.255615 181.17334 111.845238 183.289886 111.599968 185.678864 Z"/>
        <path id="path7" fill="#2b4157" stroke="none" d="M 118.285576 237.873047 C 120.628983 236.991974 122.827362 235.983704 124.88913 234.757324 C 126.942024 233.521973 128.876938 232.123199 130.620926 230.506287 C 132.392166 228.916656 133.963608 227.127228 135.389801 225.201508 C 136.797791 223.257599 138.015076 221.168335 139.114151 218.915619 C 138.850693 221.413605 137.996887 223.848053 136.761429 226.073486 C 135.535278 228.308014 133.900192 230.315552 132.019821 232.050446 C 130.112183 233.758179 127.968582 235.193451 125.624954 236.201691 C 123.299507 237.219055 120.792427 237.845764 118.276482 237.873047 Z"/>
        <path id="path8" fill="#2b4157" stroke="none" d="M 123.835518 246.438904 C 126.72403 245.84845 129.458191 244.949188 132.001633 243.686554 C 134.526901 242.42392 136.879623 240.843384 138.905243 238.9086 C 139.93158 237.963867 140.876312 236.91922 141.730118 235.811066 C 142.611191 234.721069 143.374298 233.531067 144.091934 232.313904 C 145.499924 229.852295 146.571732 227.181671 147.343918 224.338501 C 147.434631 227.290649 146.771545 230.2883 145.545166 233.049622 C 144.954834 234.439423 144.173767 235.747528 143.319733 236.991974 C 142.43866 238.227325 141.430511 239.371857 140.331207 240.43457 C 138.09668 242.505646 135.471634 244.149826 132.637451 245.185379 C 129.812576 246.229889 126.778587 246.711349 123.835518 246.438904 Z"/>
        <path id="path9" fill="#2b4157" stroke="none" d="M 132.492188 253.769302 C 134.84491 253.224319 137.061249 252.515762 139.159607 251.561951 C 141.248657 250.608246 143.201752 249.418243 144.982101 248.010345 C 146.753357 246.593262 148.352081 244.967377 149.750977 243.141571 C 151.149887 241.315765 152.33989 239.308228 153.402603 237.137238 C 153.175507 239.544403 152.33989 241.906097 151.104431 244.040833 C 149.868958 246.175446 148.2341 248.101166 146.280991 249.645325 C 144.337204 251.1987 142.093582 252.361313 139.731766 253.078949 C 137.379044 253.805679 134.890152 254.087204 132.492188 253.760208 Z"/>
        <path id="path10" fill="#5a819e" stroke="none" opacity="0.26" style="mix-blend-mode:multiply" d="M 256.364777 178.938812 C 249.079971 197.678223 241.794922 216.426727 234.518967 235.166168 C 213.245087 227.663116 193.170517 217.807465 175.012451 204.672546 C 176.820084 202.301727 178.727493 200.021759 180.753113 197.832703 C 192.080536 205.272095 207.250061 207.297699 220.203247 203.709747 C 235.790588 199.404144 248.870834 186.923309 253.884995 171.544769 C 254.421005 169.90979 254.866089 168.229248 255.356644 166.57608 C 256.664612 167.393616 257.682098 168.701599 257.981689 170.18222 C 258.572266 173.161682 257.464081 176.132019 256.373871 178.938812 Z"/>
        <path id="path11" fill="#5a819e" stroke="none" opacity="0.26" style="mix-blend-mode:multiply" d="M 241.431442 217.353271 C 239.124176 223.293854 236.817139 229.225464 234.518967 235.157074 C 213.245087 227.654022 193.170517 217.79837 175.012451 204.663452 C 175.657364 203.809631 176.320435 202.973907 177.001709 202.1474 C 196.040848 214.055939 219.076889 219.524261 241.440536 217.344177 Z"/>
        <path id="path12" fill="#5a819e" stroke="none" opacity="0.26" style="mix-blend-mode:multiply" d="M 95.939888 346.203796 C 90.299026 356.33197 78.590172 363.698761 75.810768 375.189514 C 75.056755 378.341492 74.457321 382.30191 72.104599 384.027802 C 74.965836 370.847534 77.445633 357.249451 71.595863 345.467957 C 66.936096 336.084656 57.398342 328.90863 47.624405 325.093567 C 47.969475 319.934021 48.705296 314.792816 49.840744 309.74231 C 61.68576 323.385864 78.917274 336.438934 95.939888 346.203796 Z"/>
        <path id="path13" fill="#5a819e" stroke="none" opacity="0.26" style="mix-blend-mode:multiply" d="M 95.939888 346.203796 C 95.095177 347.720764 94.114082 349.174133 93.042282 350.591125 C 92.978638 350.554871 92.914986 350.518494 92.851563 350.482117 C 87.928116 347.720764 83.077629 344.795776 78.381264 341.643799 C 69.851891 335.921112 61.767372 329.462708 54.71851 321.986938 C 52.956348 320.106689 50.71273 317.917511 48.72348 315.537598 C 49.032181 313.602814 49.404751 311.658936 49.840744 309.74231 C 61.68576 323.385864 78.917274 336.438934 95.939888 346.203796 Z"/>
        <path id="path14" fill="#5a819e" stroke="none" opacity="0.26" style="mix-blend-mode:multiply" d="M 396.115692 235.656708 C 401.356934 192.682251 368.319855 159.863312 373.125092 147.182678 C 374.878387 145.256958 376.822174 143.503784 378.966003 141.977783 C 377.457977 149.344543 381.136871 156.248047 384.933746 162.751923 C 388.730835 169.237488 393.635895 175.051025 397.169312 181.691162 C 405.580719 197.514679 405.171997 220.187347 396.115692 235.656708 Z"/>
        <path id="path15" fill="#5a819e" stroke="none" opacity="0.26" style="mix-blend-mode:multiply" d="M 482.963867 253.160675 C 481.664734 256.212738 480.075104 259.128632 478.240204 261.871887 C 446.65683 269.274902 444.33139 237.827576 396.115692 235.656708 C 406.761627 231.405548 418.860992 231.23291 429.461456 235.593079 C 438.254517 239.217407 445.657532 245.539536 453.987122 250.144974 C 462.316895 254.75029 474.316284 257.139282 482.972931 253.169754 Z"/>
        <path id="path16" fill="#c1d1de" stroke="none" opacity="0.36" style="mix-blend-mode:multiply" d="M 146.444656 354.924011 C 146.680618 358.493896 147.089554 362.036377 147.679901 365.551819 C 141.46666 364.207397 135.289993 362.654114 129.14949 360.919128 C 119.421021 358.16687 107.730354 352.980103 95.939888 346.203796 C 78.908188 336.42984 61.67667 323.385864 49.840744 309.74231 C 47.578941 307.135315 45.516953 304.510132 43.682053 301.884979 C 36.942112 292.201965 31.355579 281.710388 26.99564 270.710205 C 55.363628 311.522644 98.374222 342.134338 146.444656 354.933105 Z"/>
        <path id="path17" fill="#c1d1de" stroke="none" opacity="0.36" style="mix-blend-mode:multiply" d="M 386.314484 271.890991 C 383.498688 271.736633 381.045959 272.635925 378.657074 275.542603 C 364.050629 293.301025 348.009094 310.378113 329.633057 324.494019 C 328.18869 325.611267 326.717255 326.710449 325.236511 327.782257 C 318.696381 332.532959 311.920074 336.974854 304.94397 341.071533 C 290.891479 349.310425 276.003601 356.086731 260.506958 361.037231 C 259.816589 361.255219 259.126221 361.473206 258.435883 361.691315 C 256.373871 362.327148 254.320984 362.926666 252.268311 363.498962 C 250.215408 364.071228 248.171616 364.598022 246.145767 365.097656 C 244.955994 365.388306 243.747803 365.6698 242.566895 365.942383 C 242.294342 366.006012 242.012924 366.078644 241.740372 366.133087 C 240.632202 366.378357 239.524033 366.614563 238.424728 366.841644 C 238.170578 366.896179 237.934402 366.950623 237.680038 366.996094 C 236.471848 367.250458 235.272751 367.468445 234.073883 367.695557 C 230.658447 368.33136 227.270294 368.867249 223.900101 369.303253 C 222.137939 369.539429 220.393967 369.748444 218.649994 369.930054 C 211.337662 370.711243 204.134232 371.074615 197.012848 371.074615 C 195.922867 371.074615 194.823563 371.074615 193.742676 371.038239 L 193.742676 371.038239 C 193.688126 371.038239 193.633789 371.038239 193.588333 371.038239 C 192.434692 371.020081 191.281067 370.983795 190.127426 370.956543 C 190.08197 370.956543 190.018539 370.956543 189.973083 370.956543 C 189.246353 370.938354 188.519623 370.911072 187.792892 370.883911 C 188.883102 369.666626 189.991272 368.449463 191.099442 367.268555 C 192.807037 365.451843 194.533051 363.635101 196.231567 361.81839 C 197.139923 361.836578 198.057373 361.845673 198.974823 361.854767 C 203.716431 361.872925 208.458023 361.7276 213.199844 361.436951 C 247.780853 359.265961 281.88974 348.76532 311.402252 330.598145 C 313.264435 329.453613 315.108429 328.281921 316.943329 327.07373 C 323.111115 322.995178 329.051575 318.60788 334.801544 313.957092 C 343.712585 306.790131 352.169464 299.041809 360.317413 291.011963 C 365.631165 285.779816 370.39093 277.268494 376.540527 273.471527 C 377.212708 273.053711 377.921265 272.672302 378.64798 272.33606 C 381.382172 271.52774 383.90741 271.336914 386.350861 271.90918 Z"/>
        <path id="path18" fill="#5a819e" stroke="none" opacity="0.26" style="mix-blend-mode:multiply" d="M 453.042389 282.409851 C 452.788239 282.51886 452.533875 282.60968 452.27951 282.709564 C 438.654144 287.932617 422.921326 287.360352 409.713776 281.192566 C 404.427063 278.730957 398.677307 275.406342 393.154449 273.535156 C 390.610992 272.672302 388.367371 272.009094 386.323578 271.890991 C 383.889221 271.318726 381.354889 271.509552 378.620728 272.317993 C 385.769592 268.938843 394.753143 269.274902 402.20163 270.99173 C 412.90213 273.453461 422.812439 278.676514 433.512695 281.129028 C 439.898468 282.600586 446.520447 283.009277 453.051483 282.418945 Z"/>
        <path id="path19" fill="#c1d1de" stroke="none" opacity="0.36" style="mix-blend-mode:multiply" d="M 224.981216 317.890228 C 224.908478 318.335327 224.844833 318.78949 224.826645 319.252777 C 224.363373 327.709656 224.908478 333.868347 219.794525 341.407623 C 214.625809 349.028748 207.140945 354.687805 200.201202 360.728394 C 196.61322 363.853088 193.070496 367.214111 190.109253 370.938354 C 189.328186 370.920166 188.54689 370.883911 187.774933 370.856628 C 188.864914 369.639465 189.973083 368.42218 191.081253 367.241394 C 192.788849 365.424652 194.514862 363.607941 196.213379 361.791229 C 201.064087 356.604431 205.787506 351.299652 209.430023 345.231781 C 214.353256 337.0112 217.151062 324.512207 214.66217 315.265076 C 218.050339 316.255249 221.493042 317.136353 224.990311 317.899323 Z"/>
        <path id="path20" fill="#5a819e" stroke="none" opacity="0.26" style="mix-blend-mode:multiply" d="M 336.536438 297.661102 C 336.427551 297.724731 336.309357 297.797363 336.20047 297.861023 C 334.919769 298.605835 333.611542 299.368805 332.267212 300.122803 C 330.541412 301.094727 328.751984 302.066711 326.917084 303.056793 C 326.444702 303.311157 325.963257 303.556458 325.490875 303.810699 C 321.530579 305.899963 317.30658 307.989136 312.78299 310.051086 C 298.367462 316.636719 282.343903 320.233887 266.066223 321.151306 C 262.496216 321.351135 258.917328 321.423767 255.338455 321.378418 C 254.902466 321.378418 254.466461 321.360229 254.039566 321.342041 C 253.331024 321.342041 252.613388 321.305664 251.904831 321.287476 C 251.051041 321.260315 250.197235 321.223938 249.361389 321.169373 C 248.643753 321.124023 247.926331 321.087677 247.208694 321.033234 C 246.754517 321.005951 246.309433 320.978668 245.864349 320.942322 C 245.373795 320.896973 244.874161 320.86969 244.374512 320.815247 C 243.293625 320.724304 242.212738 320.62439 241.131836 320.506287 C 240.24144 320.406403 239.342178 320.306519 238.452011 320.188416 C 237.870758 320.124878 237.289276 320.033936 236.708038 319.952209 C 236.199295 319.897766 235.699661 319.815948 235.191147 319.743317 C 235.000427 319.716064 234.809479 319.688782 234.618759 319.652527 C 233.710403 319.52533 232.802048 319.379944 231.902786 319.216492 C 231.439514 319.152863 230.985336 319.062073 230.522064 318.980347 C 230.358627 318.953064 230.186081 318.925781 230.031509 318.889404 C 229.459351 318.78949 228.896072 318.680481 228.333008 318.571503 C 227.20665 318.353516 226.09848 318.126404 224.981216 317.890228 C 221.483948 317.127258 218.03215 316.255249 214.653091 315.255981 C 217.141968 324.503113 214.344391 337.002136 209.420929 345.222778 C 205.778412 351.290558 201.064087 356.595337 196.204285 361.782135 C 194.496689 363.598846 192.770889 365.415558 191.072159 367.2323 C 189.963989 368.42218 188.85582 369.630371 187.765839 370.847534 C 186.575836 372.1828 185.413101 373.545319 184.286758 374.93512 C 180.380768 379.740387 176.947159 384.881592 174.703537 390.622498 C 173.840637 392.820648 173.159378 395.118805 171.869583 397.099091 C 170.570465 399.070129 168.526657 400.732513 166.16507 400.832397 C 164.865952 400.886871 163.685272 400.487244 162.62233 399.815063 C 163.094696 399.279053 163.530701 398.715881 163.930542 398.116425 C 167.182312 393.320282 168.018143 387.352417 169.95285 381.884094 C 170.216309 381.166443 170.479767 380.457916 170.779373 379.758453 C 175.739182 367.81366 185.722031 358.602905 194.287781 348.792572 C 203.362259 338.410095 211.528381 325.347931 209.375473 311.722565 C 230.476608 315.119812 252.032135 315.628418 273.278503 313.330261 C 294.942932 310.99585 316.289337 305.736389 336.527344 297.661102 Z"/>
        <path id="path21" fill="#7195b0" stroke="none" opacity="0.35" style="mix-blend-mode:screen" d="M 125.143494 156.565948 C 121.27388 153.295898 117.695007 149.626099 114.29776 145.892761 C 106.395096 137.22699 98.96479 127.88916 89.281555 121.267181 C 79.589455 114.645233 66.917908 111.057251 55.990341 115.344696 C 47.478924 118.6875 41.338421 126.172363 36.224472 133.748016 C 33.381199 137.944641 30.728865 142.277496 28.276344 146.701202 C 32.699932 134.956085 40.393913 117.497498 49.64093 108.250366 C 54.845802 103.045502 61.994461 99.075958 69.288597 100.147888 C 77.881622 101.410522 84.894341 109.049713 90.407913 115.181244 C 94.877182 120.159027 108.729637 137.826538 125.152588 156.575043 Z"/>
        <path id="path22" fill="#7195b0" stroke="none" opacity="0.35" style="mix-blend-mode:screen" d="M 160.951096 291.484314 C 152.503326 316.518616 148.270248 342.960876 148.415726 369.375977 C 148.152267 368.113342 147.906982 366.83255 147.688995 365.560822 C 147.098648 362.045471 146.689713 358.493896 146.453522 354.933105 C 146.117554 350.200562 146.090271 345.431702 146.299179 340.708191 C 147.125931 322.03241 151.849335 303.283875 156.282013 285.125824 C 139.967957 277.477417 126.369865 265.296326 114.588493 251.525696 C 127.051132 263.561432 141.484833 273.562439 157.163101 280.920105 C 158.689301 281.637756 160.324173 282.409851 161.232529 283.835938 C 162.649612 286.070557 161.804901 288.977234 160.96019 291.484314 Z"/>
        <path id="path23" fill="#7195b0" stroke="none" opacity="0.25" style="mix-blend-mode:screen" d="M 253.921356 165.922089 C 231.466797 173.352386 209.666214 182.681244 187.911087 192.001007 C 187.093658 192.355255 186.266907 192.709534 185.440384 193.090973 C 203.334991 176.150208 227.68811 165.99472 252.34993 165.695007 C 252.885941 165.695007 253.421722 165.767609 253.93045 165.931183 Z"/>
        <path id="path24" fill="#7195b0" stroke="none" opacity="0.35" style="mix-blend-mode:screen" d="M 70.669319 384.71817 C 70.587708 384.745331 70.505875 384.772614 70.414955 384.781708 C 68.198616 385.244965 66.036827 383.900635 64.338097 382.419983 C 57.67067 376.633759 53.873798 368.213257 51.403091 359.747437 C 48.687111 350.463928 47.370037 340.780914 47.424591 331.097778 C 51.566536 350.255005 59.523754 368.594818 70.678413 384.71817 Z"/>
        <path id="path25" fill="#7195b0" stroke="none" opacity="0.35" style="mix-blend-mode:screen" d="M 364.750092 233.076904 C 362.070465 238.072876 356.865601 241.197662 351.615265 243.314117 C 350.143829 243.904572 348.654022 244.449554 347.14621 244.921921 C 347.073486 244.949188 346.991638 244.976364 346.919128 244.994537 C 336.145905 248.400879 324.673462 248.954971 313.191681 248.364624 C 308.341217 248.11026 303.490509 247.665176 298.694336 247.129166 C 303.808502 247.092896 308.913361 246.847626 313.99115 246.347992 C 314.454437 246.302628 314.899506 246.266266 315.362793 246.211823 C 325.881409 245.121719 336.300262 243.032562 346.392212 239.853333 C 346.673859 239.76239 346.9646 239.67157 347.273285 239.58078 C 347.654724 239.462677 348.054565 239.344574 348.454193 239.226501 C 352.169464 238.136505 356.066132 236.98288 358.627747 234.176086 C 362.024994 230.442627 362.588287 225.037964 362.824463 220.114624 C 363.096802 214.437378 361.979553 208.787415 361.116638 203.164734 C 359.427216 192.128174 359.554291 180.791901 361.897919 169.882507 C 362.824463 165.576904 364.259521 161.325745 366.230804 157.37442 C 364.695526 165.158997 363.923553 173.125305 363.660095 181.055237 C 363.323883 191.210724 363.941742 201.402466 365.531372 211.43988 C 366.684998 218.71582 368.238251 226.600311 364.759155 233.076904 Z"/>
        <path id="path26" fill="#5a819e" stroke="none" opacity="0.13" style="mix-blend-mode:multiply" d="M 170.788467 379.758453 C 175.33934 378.286926 179.835663 376.67923 184.286758 374.93512 C 180.380768 379.740387 176.947159 384.881592 174.703537 390.622498 C 173.840637 392.820648 173.159378 395.118805 171.869583 397.099091 C 170.570465 399.070129 168.526657 400.732513 166.16507 400.832397 C 164.865952 400.886871 163.685272 400.487244 162.62233 399.815063 C 160.769257 398.634155 159.252365 396.617615 158.09874 394.6828 C 156.191315 391.512665 154.53804 388.206238 153.139145 384.80896 C 159.088928 383.346527 164.975067 381.666077 170.788467 379.767548 Z"/>
        <path id="path27" fill="#5a819e" stroke="none" opacity="0.13" style="mix-blend-mode:multiply" d="M 482.963867 253.160675 C 481.664734 256.212738 480.075104 259.128632 478.240204 261.871887 C 472.136078 271.019012 463.252319 278.322235 453.042389 282.409851 C 452.788239 282.51886 452.533875 282.60968 452.27951 282.709564 C 438.654144 287.932617 422.921326 287.360352 409.713776 281.192566 C 404.427063 278.730957 398.677307 275.406342 393.154449 273.535156 C 390.610992 272.672302 388.367371 272.009094 386.323578 271.890991 C 383.507782 271.736633 381.055054 272.635925 378.666168 275.542603 C 364.059723 293.301025 348.018188 310.378113 329.642151 324.494019 C 328.197784 325.611267 326.726349 326.710449 325.245605 327.782257 C 318.705475 332.532959 311.929169 336.974854 304.953064 341.071533 C 290.900574 349.310425 276.012695 356.086731 260.516052 361.037231 C 259.825684 361.255219 259.135315 361.473206 258.444977 361.691315 C 256.382965 362.327148 254.330078 362.926666 252.277176 363.498962 C 250.224503 364.071228 248.18071 364.598022 246.154861 365.097656 C 244.965088 365.388306 243.756897 365.6698 242.575989 365.942383 C 242.303436 366.006012 242.022018 366.078644 241.749466 366.133087 C 240.641296 366.378357 239.533127 366.614563 238.433823 366.841644 C 238.179672 366.896179 237.943497 366.950623 237.689133 366.996094 C 236.480942 367.250458 235.281845 367.468445 234.082977 367.695557 C 230.667542 368.33136 227.279388 368.867249 223.909195 369.303253 C 222.147034 369.539429 220.403061 369.748444 218.659088 369.930054 C 211.346756 370.711243 204.143326 371.074615 197.021942 371.074615 C 195.931961 371.074615 194.832657 371.074615 193.75177 371.038239 C 200.382828 368.122437 206.868393 364.915924 213.199844 361.418762 C 228.151382 353.170929 242.19455 343.297058 254.957016 331.878967 C 258.799347 328.436249 262.514404 324.866455 266.093475 321.160278 C 268.573273 318.616943 270.971252 316.009979 273.305786 313.339355 C 290.155884 294.16394 303.690308 272.045471 313.209869 248.373718 C 313.482422 247.701431 313.754974 247.029251 314.009338 246.357071 C 314.472626 246.311722 314.917694 246.27536 315.380981 246.22081 C 325.899597 245.130814 336.318451 243.041565 346.4104 239.862305 C 346.692047 239.771484 346.982544 239.680664 347.291473 239.589844 C 347.672913 239.471771 348.072754 239.353668 348.472382 239.235596 C 352.187653 238.145599 356.08432 236.991974 358.645935 234.185059 C 362.043182 230.451721 362.606476 225.047058 362.842651 220.123718 C 363.11499 214.446472 361.997742 208.796509 361.134827 203.173828 C 359.445404 192.137268 359.572479 180.800995 361.916107 169.891602 C 362.842651 165.585999 364.27771 161.334839 366.248993 157.383514 L 366.248993 157.383514 C 368.074799 153.668335 370.372742 150.216553 373.14328 147.191742 C 374.896576 145.266052 376.840363 143.512878 378.984192 141.986786 C 377.476166 149.353638 381.15506 156.257141 384.951935 162.761017 C 388.749023 169.246582 393.654083 175.060089 397.1875 181.700256 C 405.598877 197.523773 405.190186 220.196442 396.133881 235.66568 C 406.779785 231.414642 418.879181 231.242004 429.479645 235.602142 C 438.272491 239.226501 445.67572 245.54863 454.00531 250.154068 C 462.334869 254.759384 474.334442 257.148376 482.991119 253.178848 Z"/>
        <path id="path28" fill="#5a819e" stroke="none" opacity="0.13" style="mix-blend-mode:multiply" d="M 482.963867 253.160675 C 481.664734 256.212738 480.075104 259.128632 478.240204 261.871887 C 472.136078 271.019012 463.252319 278.322235 453.042389 282.409851 C 452.788239 282.51886 452.533875 282.60968 452.27951 282.709564 C 438.654144 287.932617 422.921326 287.360352 409.713776 281.192566 C 404.427063 278.730957 398.677307 275.406342 393.154449 273.535156 C 390.610992 272.672302 388.367371 272.009094 386.323578 271.890991 C 383.507782 271.736633 381.055054 272.635925 378.666168 275.542603 C 364.059723 293.301025 348.018188 310.378113 329.642151 324.494019 C 331.522522 321.060394 333.239197 317.545044 334.783356 313.938904 C 335.383026 312.549072 335.964264 311.159363 336.500275 309.74231 C 338.398621 304.837158 339.960968 299.877563 341.241882 294.854309 C 345.392914 278.676514 346.692047 261.908142 347.14621 244.921921 C 347.200562 243.141571 347.236908 241.361115 347.273285 239.58078 C 347.654724 239.462677 348.054565 239.344574 348.454193 239.226501 C 352.169464 238.136505 356.066132 236.98288 358.627747 234.176086 C 362.024994 230.442627 362.588287 225.037964 362.824463 220.114624 C 363.096802 214.437378 361.979553 208.787415 361.116638 203.164734 C 359.427216 192.128174 359.554291 180.791901 361.897919 169.882507 C 362.824463 165.576904 364.259521 161.325745 366.230804 157.37442 L 366.230804 157.37442 C 368.05661 153.659271 370.354797 150.207458 373.125092 147.182678 C 374.878387 145.256958 376.822174 143.503784 378.966003 141.977783 C 377.457977 149.344543 381.136871 156.248047 384.933746 162.751923 C 388.730835 169.237488 393.635895 175.051025 397.169312 181.691162 C 405.580719 197.514679 405.171997 220.187347 396.115692 235.656708 C 406.761627 231.405548 418.860992 231.23291 429.461456 235.593079 C 438.254517 239.217407 445.657532 245.539536 453.987122 250.144974 C 462.316895 254.75029 474.316284 257.139282 482.972931 253.169754 Z"/>
        <path id="path29" fill="#def0ff" stroke="none" opacity="0.51" style="mix-blend-mode:screen" d="M 23.861629 205.75354 C 25.251442 207.243256 27.377079 207.86087 29.411791 207.824615 C 33.799229 207.751892 37.94117 204.727081 39.521706 200.630402 C 42.192444 193.681427 36.506119 182.953796 28.139957 184.180054 C 20.72784 185.260956 19.619671 201.211761 23.861629 205.75354 Z"/>
        <path id="path30" fill="#def0ff" stroke="none" opacity="0.51" style="mix-blend-mode:screen" d="M 28.775986 222.203888 C 29.629787 224.429321 31.528336 226.164307 33.717396 227.118134 C 35.297932 227.808502 37.178291 228.108215 38.713364 227.336121 C 40.411877 226.482208 41.284088 224.547394 41.592785 222.676239 C 41.965355 220.414459 41.674618 217.998169 40.520985 216.008942 C 39.367355 214.019562 37.305367 212.520752 35.025379 212.293671 C 29.90234 211.785034 27.131805 217.907379 28.766893 222.194794 Z"/>
    </g>
</svg>
