<?xml version="1.0" encoding="UTF-8"?>
<!-- Generated by Pixelmator Pro 3.6.14 -->
<svg width="500" height="500" viewBox="0 0 500 500" xmlns="http://www.w3.org/2000/svg">
    <g id="Group-copy">
        <linearGradient id="linearGradient1" x1="263.399209" y1="-24.387004" x2="246.8426" y2="354.858079" gradientUnits="userSpaceOnUse">
            <stop offset="1e-05" stop-color="#ffa75e" stop-opacity="1"/>
            <stop offset="1" stop-color="#f26563" stop-opacity="1"/>
        </linearGradient>
        <path id="Path" fill="url(#linearGradient1)" stroke="none" d="M 446.974243 334.49054 C 445.289581 341.322449 439.852112 347.538269 432.88092 348.467834 C 434.519043 346.690125 435.622772 344.540588 436.238586 342.228455 C 436.30838 341.9729 436.366516 341.717316 436.424377 341.461731 C 436.424377 341.461731 436.424377 341.453979 436.424377 341.438477 C 437.330688 337.197784 436.645355 332.515411 434.623718 328.634674 C 431.347168 322.372345 423.934326 318.549744 416.93985 319.514191 C 411.026123 320.33905 405.971893 324.115143 401.533478 328.100281 C 400.7435 328.809143 399.965118 329.529358 399.19812 330.249817 C 391.773895 337.25592 385.058289 345.028748 377.215668 351.558289 C 376.948456 351.790894 376.681274 351.999939 376.414063 352.220642 C 367.397949 359.552094 356.267181 365.221863 344.671753 364.513306 C 333.866333 363.850952 324.583038 357.948547 316.275787 350.675262 C 315.450928 349.955078 314.649292 349.222931 313.847382 348.479462 C 310.989258 345.830383 308.247406 343.065247 305.58667 340.334778 C 304.785065 339.509888 303.983154 338.67337 303.181519 337.836853 C 304.180847 339.637512 305.249695 341.391968 306.376678 343.111511 C 308.014801 345.598053 309.780853 347.991577 311.674835 350.280396 C 320.818604 361.341431 332.844025 370.043793 346.449463 374.505188 C 348.680145 375.237305 350.957642 375.864746 353.24649 376.434052 C 362.274231 378.699646 371.569153 380.186859 379.644073 384.718018 C 381.108032 385.54306 382.502228 386.460815 383.838257 387.460022 C 394.818146 395.790649 401.115356 410.128052 399.395813 423.849792 C 397.478577 439.23291 385.581055 452.884827 370.616364 456.916473 C 366.352386 458.055084 361.623505 458.438599 357.684631 456.451721 C 354.233917 454.72052 351.340881 449.922028 351.85202 446.029785 L 351.85202 446.029785 C 351.921814 445.472107 352.049744 444.937714 352.270416 444.438049 C 352.10788 448.667236 357.394165 451.490662 361.437439 450.235748 C 362.599304 449.864014 363.633514 449.294708 364.56308 448.551086 C 366.88681 446.738525 368.548187 443.938507 369.640289 441.12674 C 374.311005 429.02002 370.697754 414.182983 360.996063 405.573639 C 358.846497 403.656525 356.511139 402.09967 354.048126 400.786743 C 341.976166 394.315063 326.651184 393.920074 313.254822 389.551453 C 311.686493 389.040283 310.141113 388.470825 308.618988 387.843536 C 305.912018 386.728027 303.286194 385.438385 300.753113 383.986053 C 299.463623 383.265686 298.197083 382.475708 296.965424 381.662476 C 292.004517 378.420807 287.449799 374.528442 283.371643 370.194702 C 279.04953 365.605377 275.285095 360.481628 272.171356 355.02063 C 271.485748 353.812531 270.823425 352.592529 270.207886 351.36087 C 269.835999 350.629028 269.487396 349.896912 269.138763 349.153442 C 266.013397 342.518921 263.771088 335.501495 262.307129 328.309326 C 262.121033 327.380066 261.946869 326.4505 261.784332 325.520935 C 261.702942 324.986542 261.609894 324.452148 261.528473 323.917419 C 261.586639 324.463745 261.644775 324.986542 261.714569 325.532593 C 261.772705 326.101868 261.853821 326.671204 261.923615 327.240479 C 262.876434 334.374237 264.549438 341.368713 267.268311 348.072693 C 268.743896 351.72113 270.509979 355.241608 272.415314 358.680695 C 272.717407 359.203491 273.019501 359.737885 273.309967 360.260681 C 275.563934 364.211182 277.980713 368.080017 280.327698 371.984009 C 281.268585 373.552643 282.209778 375.109375 283.116058 376.689636 C 288.565155 386.13562 293.28241 396.429749 293.642639 407.328064 C 294.014526 418.249512 289.843323 429.089813 282.895386 437.513367 C 278.108337 443.322693 272.043427 448.005066 265.339447 451.467407 C 262.330383 453.035889 259.181763 454.348816 255.975006 455.406128 C 251.246124 456.97464 246.308182 458.031982 241.869781 460.309174 C 237.431366 462.574768 233.411346 466.35083 232.412308 471.230774 C 231.412964 476.110535 233.469498 482.117462 238.40744 482.79129 C 235.990662 483.465118 233.446243 483.569794 230.983231 483.174652 C 226.881805 482.512451 222.989426 480.444305 220.270554 477.260773 C 215.948456 472.183441 214.891251 464.538391 217.679626 458.473328 C 219.747772 453.976929 223.361313 450.839935 227.543854 448.179199 C 227.543854 448.179199 227.567123 448.179199 227.590378 448.156097 C 235.061386 443.36908 244.298172 440.05777 249.665863 433.016937 C 254.243835 427.01004 255.370804 419.004761 254.975677 411.464233 C 254.720093 406.468292 253.860321 401.576721 252.663574 396.766602 C 251.827057 393.42041 250.827728 390.120728 249.712372 386.821075 C 247.853561 381.290588 245.715622 375.80661 243.647461 370.310974 C 243.566055 370.078674 243.496552 369.880981 243.415146 369.683533 C 244.902374 376.259613 244.379303 383.126282 242.357666 389.597961 C 240.614868 395.174835 237.745087 400.449768 234.073685 404.969452 C 231.924118 407.630157 229.507629 410.046814 226.90506 412.254364 C 219.724518 418.319275 211.080292 422.711182 202.122345 425.720367 C 193.594131 428.590149 184.566406 430.367859 176.793579 434.89917 C 176.282425 435.201233 175.771271 435.514984 175.271469 435.84021 C 168.195877 440.53418 162.583969 448.307007 163.466995 456.672546 C 164.059555 462.24942 167.649826 467.408173 172.6689 469.882965 C 177.688232 472.369385 185.042953 472.438995 189.829697 469.522705 C 187.587372 471.974365 184.799011 473.844971 181.731522 475.111359 C 175.910553 477.493256 169.1138 477.655792 163.211426 475.390198 C 159.075104 473.810089 155.438599 471.126099 152.55719 467.756805 C 149.15271 463.806427 146.794083 458.914856 145.87645 453.791138 C 143.982468 443.264526 147.863205 432.203552 155.078354 424.465607 C 161.131638 417.970673 168.904449 413.381348 176.363831 408.571198 C 179.779663 406.363617 183.160583 404.098022 186.437134 401.704529 C 188.505295 400.194183 190.538559 398.637177 192.502045 397.010681 C 195.755325 394.338318 198.869064 391.480164 201.7621 388.401215 C 204.446075 385.54306 206.943985 382.464081 209.128433 379.210785 C 206.537491 381.871521 203.690979 384.299774 200.646744 386.472473 C 195.092987 390.457733 188.877167 393.617981 182.463638 395.953339 C 182.126648 396.081116 181.77803 396.208923 181.441055 396.325073 C 172.181 399.566742 162.490921 401.286255 152.696457 402.262329 C 151.360428 402.401764 150.035736 402.517914 148.699707 402.622437 C 144.644806 402.959442 140.566635 403.168488 136.511734 403.342804 C 129.40097 403.621643 122.000023 403.830841 115.44693 406.386902 C 114.169052 406.874939 112.925774 407.467468 111.717384 408.164581 C 105.838264 411.545654 101.45829 417.401367 99.854767 423.97757 C 98.681267 428.834229 98.832458 434.132263 100.458961 438.849518 C 101.051521 440.545807 101.806625 442.1492 102.782692 443.648041 C 91.407967 439.372314 83.762794 427.858154 82.461647 415.751587 C 82.182808 413.253571 82.182808 410.720642 82.484909 408.222595 C 83.00769 403.784302 84.355354 399.497101 86.376991 395.535095 C 87.294914 393.734131 88.340767 391.979706 89.502632 390.318298 C 90.083565 389.504913 90.676125 388.703308 91.303299 387.936432 C 94.637993 383.800262 98.727791 380.221741 103.270584 377.45636 C 104.73455 376.561707 106.233406 375.748444 107.790413 375.028259 C 107.906425 374.970093 108.022728 374.923584 108.139023 374.865417 C 124.347015 367.476105 143.413162 369.056091 159.95813 362.456757 C 164.454697 360.655823 168.683762 358.273926 172.587769 355.427399 L 172.587769 355.427399 C 177.920563 351.523407 182.649429 346.748291 186.59967 341.426849 C 187.65715 340.009399 188.667831 338.533813 189.609009 337.034973 C 189.980881 336.442383 190.341125 335.86145 190.701096 335.257263 C 191.665543 333.619141 192.560196 331.957764 193.396713 330.261475 C 194.942078 327.147461 196.278122 323.929077 197.40509 320.641174 C 199.217667 315.366241 200.530441 309.89389 201.390213 304.363403 C 199.75209 310.405029 197.498138 316.272522 194.686508 321.872803 C 193.966019 323.336487 193.187653 324.777466 192.374405 326.194946 C 189.17926 331.818176 185.391571 337.116364 181.069168 341.937988 C 181.046188 341.961243 181.034561 341.984528 181.011307 342.007782 C 180.755722 342.321503 180.476608 342.611969 180.197769 342.902435 C 168.707031 355.38089 153.138123 364.792114 136.209641 366.139771 C 127.983528 366.802124 119.501839 365.291626 111.996223 361.875824 C 108.417862 360.237427 105.071541 358.181152 102.07383 355.706238 C 98.414063 352.696899 95.277077 349.072021 92.941711 344.877563 C 90.339142 340.241699 88.770508 335.176147 87.701683 329.947754 C 86.69072 325.021423 86.109787 319.955566 85.540482 314.959473 C 84.355354 304.677124 82.926277 294.057495 77.453934 285.273712 C 74.816467 281.056274 70.808083 277.710236 66.242027 275.676941 C 61.571297 273.597168 56.296375 272.899963 51.335178 274.061829 C 51.079601 274.108337 50.835655 274.178101 50.580078 274.24762 C 50.789135 273.724823 51.02145 273.202026 51.277027 272.702515 L 51.277027 272.702515 C 55.018208 265.06897 62.581974 259.42218 70.970619 258.121033 C 79.928856 256.726837 89.490997 260.351715 95.277077 267.322937 C 102.747803 276.304138 103.445038 289.015198 108.278305 299.646149 C 112.809471 309.603424 121.32605 317.829254 131.689819 321.29187 C 136.070084 322.755554 140.775696 323.325134 145.41153 323.011414 C 151.685791 322.558136 157.84346 320.431824 162.874435 316.632782 C 170.356796 310.99762 174.99263 302.213837 177.293106 293.12793 C 179.605209 284.042358 178.873367 274.596222 178.931519 265.231506 C 177.281479 264.964294 174.760315 264.848267 173.133804 264.441528 C 158.703232 260.863159 148.571777 249.372131 144.35434 235.429718 C 143.343384 232.095306 142.669693 228.63269 142.355957 225.089233 C 140.729172 206.731659 148.862244 190.012238 165.674423 182.494995 C 168.195877 168.192627 172.03009 153.924866 177.049164 139.959198 C 192.037415 98.259613 217.610123 59.302155 250.27005 30.220886 C 250.339828 30.16272 250.409607 30.104584 250.467758 30.046417 C 252.489395 28.257111 254.511032 26.514313 256.578918 24.806396 C 257.299408 24.202209 258.042877 23.60965 258.774994 23.01709 C 258.809875 22.993805 258.83316 22.970825 258.856415 22.935944 C 260.552704 21.564728 262.283875 20.217072 264.026672 18.89267 C 267.047333 16.591919 270.765564 19.090088 273.844391 22.389893 C 274.041809 22.610596 274.262787 22.842896 274.460205 23.063599 C 275.703491 24.469421 276.842102 25.979889 277.76001 27.281311 C 305.017365 66.064301 320.319061 108.762939 327.394958 154.203674 C 327.499329 154.889008 327.604004 155.574615 327.708679 156.260223 C 328.556824 161.953247 329.288666 167.681183 329.892853 173.455627 C 331.066345 184.598022 331.809814 195.891357 332.14679 207.300964 C 344.741547 222.974548 346.089203 240.332764 341.639465 253.822174 C 337.20105 267.311279 323.897705 276.036926 310.036438 279.127686 C 312.116211 286.540253 314.544617 294.684937 317.983704 301.853577 C 318.820221 303.596375 319.726501 305.304565 320.690948 306.919434 C 325.071198 314.204376 331.542603 320.583008 339.466614 323.429535 C 340.465942 323.789795 341.499878 324.091858 342.545746 324.324219 C 343.417145 324.521606 344.299896 324.684448 345.171295 324.788818 C 347.297607 325.067932 349.423889 325.090942 351.550201 324.916748 C 351.573181 324.916748 351.608093 324.916748 351.631348 324.916748 C 360.275574 324.138397 368.76889 319.8974 376.053802 314.855103 C 385.883148 308.058044 394.736725 299.611267 405.6698 294.778015 C 406.401917 294.452637 407.157013 294.138916 407.912109 293.860077 C 412.734039 292.035858 417.939178 291.083313 422.981781 292.047485 C 433.461853 294.057495 440.74649 303.817352 444.580719 313.78598 C 447.102173 320.350708 448.589111 327.577484 446.916077 334.409119 Z"/>
        <path id="path1" fill="#541619" stroke="none" d="M 215.135193 222.033356 C 215.135193 238.723572 202.208572 252.25354 186.26297 252.25354 C 170.317078 252.25354 157.390457 238.723572 157.390457 222.033356 C 157.390457 205.34314 170.317078 191.813171 186.26297 191.813171 C 202.208572 191.813171 215.135193 205.34314 215.135193 222.033356 Z"/>
        <path id="path2" fill="#541619" stroke="none" d="M 314.40506 233.442963 C 314.40506 250.909561 300.875092 265.06897 284.184875 265.06897 C 267.494965 265.06897 253.964706 250.909561 253.964706 233.442963 C 253.964706 215.976379 267.494965 201.816986 284.184875 201.816986 C 300.875092 201.816986 314.40506 215.976379 314.40506 233.442963 Z"/>
        <path id="path3" fill="#ffffff" stroke="none" d="M 181.733215 200.430756 C 188.184753 201.95343 192.180099 208.417725 190.65741 214.868988 C 189.134735 221.320526 182.670715 225.315857 176.219177 223.793457 C 169.767914 222.270782 165.772583 215.806488 167.295258 209.355225 C 168.817657 202.903687 175.281967 198.908356 181.733215 200.430756 Z"/>
        <path id="path4" fill="#ffffff" stroke="none" d="M 196.336273 232.792267 C 196.336273 236.161835 193.605759 238.892059 190.236465 238.892059 C 186.866882 238.892059 184.136658 236.161835 184.136658 232.792267 C 184.136658 229.422974 186.866882 226.692474 190.236465 226.692474 C 193.605759 226.692474 196.336273 229.422974 196.336273 232.792267 Z"/>
        <path id="path5" fill="#ffffff" stroke="none" d="M 287.570374 220.023346 C 290.310791 226.639404 287.16925 234.224457 280.552917 236.964874 C 273.936859 239.705322 266.352112 236.563507 263.611664 229.947449 C 260.871246 223.33139 264.012756 215.746613 270.628815 213.00592 C 277.245178 210.265472 284.829926 213.407288 287.570374 220.023346 Z"/>
        <path id="path6" fill="#ffffff" stroke="none" d="M 294.165436 247.257446 C 294.165436 250.894241 291.214233 253.845428 287.577728 253.845428 C 283.940948 253.845428 280.989746 250.894241 280.989746 247.257446 C 280.989746 243.620941 283.940948 240.669769 287.577728 240.669769 C 291.214233 240.669769 294.165436 243.620941 294.165436 247.257446 Z"/>
        <linearGradient id="linearGradient2" x1="202.366323" y1="-27.04768" x2="185.798096" y2="352.185785" gradientUnits="userSpaceOnUse">
            <stop offset="1e-05" stop-color="#ffa75e" stop-opacity="1"/>
            <stop offset="1" stop-color="#f26563" stop-opacity="1"/>
        </linearGradient>
        <path id="path7" fill="url(#linearGradient2)" stroke="none" d="M 250.328201 30.302002 C 229.623642 48.72934 211.777527 71.141815 197.672302 95.691925 C 189.504333 109.878296 182.591293 124.773499 177.1073 140.040314 C 174.051727 139.180542 171.007507 138.239655 168.067947 137.089417 C 166.266998 136.380554 164.489594 135.602173 162.76976 134.70752 C 156.55394 131.500763 150.930405 126.748627 147.955948 120.428131 C 147.433167 119.312775 147.003433 118.139282 146.666443 116.930908 C 146.294571 115.559967 146.050613 114.154144 145.945953 112.748047 C 145.632217 108.402679 146.666443 104.011078 149.292267 100.548462 C 152.045746 96.935211 156.158813 94.669617 160.143936 92.461914 C 168.067947 88.070007 175.910553 83.434174 183.671738 78.589264 C 197.649033 69.875275 211.324234 60.498932 224.569702 50.599792 C 233.364822 44.03537 241.962814 37.249939 250.339828 30.278748 Z"/>
        <linearGradient id="linearGradient3" x1="327.743416" y1="-21.575286" x2="311.186808" y2="357.658179" gradientUnits="userSpaceOnUse">
            <stop offset="1e-05" stop-color="#ffa75e" stop-opacity="1"/>
            <stop offset="1" stop-color="#f26563" stop-opacity="1"/>
        </linearGradient>
        <path id="path8" fill="url(#linearGradient3)" stroke="none" d="M 372.510071 127.376068 C 372.475159 135.091034 365.178894 140.598267 358.370239 144.246399 C 350.527618 148.440857 342.289886 151.903198 333.796844 154.575287 C 331.809814 155.214355 329.799805 155.806915 327.778168 156.341339 C 324.931641 137.356598 320.656067 118.84787 314.683899 100.897064 C 306.155975 75.150208 294.130554 50.553558 277.817871 27.35083 C 276.900238 26.06131 275.77298 24.550812 274.518372 23.133362 C 280.978119 30.174347 287.217499 36.796936 293.294037 43.105804 C 298.348267 48.345825 303.297821 53.388458 308.224152 58.303131 C 326.430511 76.532745 343.951569 92.996307 363.215118 111.667603 C 366.480042 114.82785 369.907501 118.371613 371.534271 122.473022 C 371.720062 122.926025 371.871246 123.390961 371.998901 123.867218 C 372.324249 124.994202 372.510071 126.167694 372.498444 127.387695 Z"/>
        <path id="path9" fill="#ffb0b3" stroke="none" d="M 181.475937 396.371582 C 167.115128 401.402435 151.743652 402.761871 136.534988 403.377686 C 133.467499 403.505493 130.342148 403.610016 127.251686 403.900482 C 127.007736 403.923737 126.775139 403.935364 126.542824 403.970245 C 126.12471 404.005127 125.706314 404.051514 125.299545 404.10968 C 124.85817 404.156067 124.405167 404.214203 123.951881 404.295593 C 123.231667 404.388519 122.534439 404.504669 121.825569 404.644073 C 120.95417 404.806763 120.082771 405.004333 119.234634 405.213379 C 119.165138 405.236633 119.095352 405.248291 119.037209 405.259918 C 118.665329 405.352814 118.316711 405.457458 117.956749 405.573639 C 117.596504 405.678162 117.236252 405.782684 116.887634 405.910461 C 116.74836 405.957001 116.585541 406.00351 116.446266 406.061523 C 116.144165 406.154572 115.853699 406.259094 115.563232 406.386902 C 115.53997 406.386902 115.505081 406.410156 115.481819 406.421783 C 114.203941 406.909821 112.960663 407.502228 111.752274 408.199463 C 105.873161 411.580383 101.492897 417.436249 99.889656 424.012451 C 98.716156 428.868988 98.867065 434.167175 100.493851 438.884277 C 99.331985 437.211243 98.507103 435.294159 97.995667 433.330658 C 95.614067 423.86142 100.40081 413.602051 108.011093 407.502228 C 112.507378 403.888855 117.840446 401.530365 123.440727 400.066406 C 127.309837 399.055573 131.306595 398.451385 135.28009 398.149292 C 145.016678 397.428925 154.799515 398.300354 164.547455 398.172546 C 170.205887 398.091125 175.957062 397.638 181.46431 396.371582 Z"/>
        <path id="path10" fill="#ffb0b3" stroke="none" d="M 369.860962 445.332703 C 368.362396 446.71524 366.514923 447.877106 364.56308 448.562714 C 366.88681 446.750153 368.548187 443.950012 369.640289 441.138367 C 374.311005 429.031677 370.697754 414.194611 360.996063 405.585266 C 358.846497 403.668152 356.511139 402.111298 354.048126 400.79837 L 354.048126 400.79837 C 353.676239 400.577545 353.292999 400.379974 352.909515 400.205811 C 352.537628 400.00824 352.131134 399.822296 351.74765 399.648132 C 350.969269 399.276245 350.179016 398.93927 349.37738 398.637177 C 348.180634 398.149292 346.948975 397.707764 345.705994 397.324402 C 344.474335 396.906006 343.207794 396.545898 341.929932 396.208923 C 341.511505 396.092773 341.093414 395.98822 340.651764 395.883545 C 339.908264 395.686127 339.152893 395.511841 338.397797 395.337524 C 338.281494 395.31427 338.165466 395.291138 338.049164 395.256256 C 337.317352 395.08194 336.573578 394.91925 335.830109 394.768219 C 328.289612 393.129944 320.481598 391.933319 313.243195 389.574707 C 307.480377 387.692474 302.008026 385.020142 296.953796 381.697357 C 306.155975 385.798645 313.928802 386.588623 320.504883 387.587952 C 321.492584 387.739014 322.457001 387.878418 323.386292 387.994568 C 332.925446 389.237732 339.838501 389.156433 349.365753 392.897614 C 359.810944 397.022308 369.559143 404.098022 374.404053 414.241119 C 379.248932 424.360931 378.121979 437.757294 369.849609 445.34433 Z"/>
        <path id="path11" fill="#ffb0b3" stroke="none" d="M 436.424377 341.438477 C 437.330688 337.197784 436.645355 332.515411 434.623718 328.634674 C 431.347168 322.372345 423.934326 318.549744 416.93985 319.514191 C 411.026123 320.33905 405.971893 324.115143 401.533478 328.100281 C 400.7435 328.809143 399.965118 329.529358 399.19812 330.249817 C 398.245575 331.156128 397.292786 332.073761 396.351593 333.003296 C 395.45694 333.886353 394.573914 334.769379 393.690887 335.664032 C 392.668579 336.697968 391.657593 337.743835 390.635315 338.777771 C 389.752258 339.672424 388.880859 340.567078 387.986206 341.461731 C 386.289917 343.169647 384.593658 344.865936 382.850861 346.539246 C 382.351044 347.015503 381.851501 347.480133 381.328735 347.945068 C 379.736847 349.420654 378.098694 350.861328 376.414063 352.232269 C 367.397949 359.563721 356.267181 365.23349 344.671753 364.524902 C 333.866333 363.862579 324.583038 357.960205 316.275787 350.68689 C 322.213074 354.765076 329.149384 357.425781 336.317993 358.262299 C 347.123444 359.528809 358.358582 356.659058 367.235413 350.373169 C 369.860962 348.514343 372.254486 346.388062 374.543335 344.11084 C 381.81662 336.895691 387.904785 328.263092 396.316711 322.395599 C 403.532135 317.364624 412.710785 314.576263 421.27359 316.586243 C 429.848328 318.60791 437.284149 326.194946 437.505127 334.990051 C 437.562988 337.209412 437.168152 339.381958 436.436005 341.438477 Z"/>
        <path id="path12" fill="#ffb0b3" stroke="none" d="M 181.034561 342.065918 C 180.778702 342.379639 180.499863 342.670105 180.221024 342.960571 C 168.730286 355.439026 153.161377 364.850281 136.232895 366.197937 C 134.490097 366.337219 132.735672 366.383728 130.981232 366.325562 C 129.006119 366.256104 127.042343 366.081635 125.078857 365.779541 C 123.126999 365.489075 121.186775 365.070953 119.281151 364.548157 C 118.804886 364.420227 118.339973 364.280975 117.875336 364.129761 C 117.782295 364.106506 117.67791 364.083252 117.596504 364.04837 C 117.154846 363.909088 116.71347 363.769531 116.272095 363.618622 C 115.865334 363.479065 115.458565 363.339783 115.063713 363.188599 C 114.598793 363.014435 114.14579 362.828613 113.692505 362.642578 C 113.286018 362.480042 112.87925 362.3172 112.484398 362.131409 C 112.402985 362.096497 112.298317 362.049988 112.216911 362.003479 C 112.17067 361.980225 112.112518 361.957214 112.054375 361.922363 L 112.031113 361.922363 C 104.095467 358.29718 97.240562 352.54599 92.976601 344.924072 C 92.500053 344.075928 92.058685 343.216187 91.651917 342.344788 C 91.512634 342.054321 91.384705 341.763855 91.257065 341.461731 C 91.1175 341.171265 91.001488 340.880798 90.885185 340.578705 C 90.757256 340.276611 90.641235 339.974518 90.52494 339.695679 C 90.420547 339.428467 90.31588 339.149628 90.211212 338.894043 C 90.025414 338.394531 89.839615 337.894714 89.676796 337.371948 C 89.525894 336.9422 89.38633 336.488892 89.247055 336.047546 C 88.828659 334.699585 88.468407 333.328674 88.154686 331.946106 C 88.015404 331.318665 87.86422 330.679565 87.736572 330.040497 C 87.736572 330.017212 87.736572 330.00589 87.736572 329.994263 C 86.725609 325.067932 86.144676 320.002075 85.575371 315.005981 C 84.390244 304.723633 82.961174 294.104004 77.488823 285.320251 C 74.851357 281.102783 70.842972 277.75647 66.276917 275.723206 C 72.492737 276.013672 77.849068 280.452087 81.485573 285.529572 C 89.339813 296.509155 91.15239 310.48645 94.487083 323.569092 C 96.229889 330.377502 98.727791 337.40683 102.480598 343.332458 C 105.908051 348.80481 110.392982 353.347595 116.28344 356.008362 C 125.462364 360.156281 136.104965 358.727203 145.957581 356.64743 C 151.418579 355.485535 156.983688 354.044861 162.316757 352.139221 C 169.137054 349.699463 175.596817 346.481079 181.034561 342.042664 Z"/>
        <path id="path13" fill="#b05256" stroke="none" opacity="0.28" style="mix-blend-mode:multiply" d="M 333.785217 154.575287 C 331.798462 155.214355 329.788177 155.806915 327.766541 156.341339 C 320.818604 110.122223 305.493622 66.726654 277.817871 27.35083 C 276.900238 26.06131 275.77298 24.550812 274.518372 23.133362 C 280.978119 30.174347 287.217499 36.796936 293.294037 43.105804 C 298.824524 51.494446 305.238068 59.360321 310.001831 68.329895 C 315.996948 79.588623 320.946533 91.404694 324.769104 103.5578 C 328.940033 116.849487 331.775208 130.571198 333.122864 144.43219 C 333.448242 147.790161 333.692169 151.171082 333.77359 154.56366 Z"/>
        <path id="path14" fill="#b05256" stroke="none" opacity="0.28" style="mix-blend-mode:multiply" d="M 250.328201 30.302002 C 217.667984 59.383575 192.095276 98.352661 177.1073 140.040314 C 174.051727 139.180542 171.007507 138.239655 168.067947 137.089417 C 174.853348 116.710205 185.984131 97.934265 198.95047 80.796722 C 206.932343 70.270416 215.600113 60.301483 224.55806 50.61142 C 233.353195 44.046997 241.951187 37.261566 250.328201 30.290375 Z"/>
        <path id="path15" fill="#b05256" stroke="none" opacity="0.35" style="mix-blend-mode:multiply" d="M 201.413483 304.409912 C 197.637405 318.270935 190.689468 331.283752 181.092438 341.996155 C 181.069168 342.019409 181.057541 342.042664 181.034561 342.065918 C 175.608459 346.504333 169.137054 349.722717 162.316757 352.162476 C 169.764221 347.247803 176.398727 340.985474 181.824554 333.897949 C 193.872971 318.108093 202.505844 297.461975 204.666763 277.721558 C 204.922333 286.714722 203.783737 295.730804 201.413483 304.409912 Z"/>
        <path id="path16" fill="#b05256" stroke="none" opacity="0.21" style="mix-blend-mode:multiply" d="M 181.034561 342.065918 C 180.778702 342.379639 180.499863 342.670105 180.221024 342.960571 C 168.730286 355.439026 153.161377 364.850281 136.232895 366.197937 C 135.361496 366.2677 134.490097 366.31424 133.607071 366.337219 C 132.735672 366.360474 131.852631 366.360474 130.981232 366.337219 C 129.006119 366.290985 127.030716 366.104919 125.078857 365.791168 C 123.115372 365.512329 121.186775 365.094238 119.281151 364.559814 C 118.270477 364.280975 117.259514 363.967224 116.272095 363.618622 C 115.865334 363.479065 115.458565 363.328156 115.063713 363.188599 C 114.598793 363.014435 114.14579 362.828613 113.692505 362.642578 C 113.274391 362.480042 112.867622 362.305573 112.461136 362.119751 C 112.37973 362.0849 112.298317 362.038361 112.205559 362.003479 C 112.147415 361.980225 112.077629 361.957214 112.019478 361.922363 L 112.04274 361.922363 C 118.537682 363.525574 125.311172 364.036743 131.945679 363.35144 C 142.820587 362.236084 153.184357 358.192505 162.316757 352.150879 C 169.137054 349.711121 175.596817 346.492737 181.034561 342.054321 Z"/>
        <path id="path17" fill="#b05256" stroke="none" opacity="0.35" style="mix-blend-mode:multiply" d="M 217.551971 360.43512 C 216.773605 363.804443 215.657974 367.069336 214.24054 370.217957 C 212.82309 373.354919 211.103546 376.375916 209.16333 379.245667 C 201.855133 386.786194 192.420639 392.386475 182.498535 395.999878 C 182.161545 396.127655 181.812927 396.255432 181.475937 396.371582 C 175.968704 397.638 170.217514 398.091125 164.559082 398.172546 C 154.799515 398.311951 145.028305 397.428925 135.291718 398.149292 C 131.306595 398.451385 127.309837 399.043945 123.452354 400.066406 C 125.915367 398.579163 128.529572 397.347534 131.213547 396.38324 C 142.530121 392.339966 154.799515 392.246918 166.7668 391.003784 C 178.722458 389.772278 191.21254 387.018494 200.089081 378.908691 C 208.315186 371.379822 212.323578 360.133026 213.415665 349.025513 C 214.519379 337.929626 213.008896 326.764221 211.858658 315.668335 C 210.696793 304.572449 209.186584 291.582855 213.984955 281.091156 C 207.467041 306.965973 223.488953 334.420776 217.575226 360.43512 Z"/>
        <path id="path18" fill="#b05256" stroke="none" opacity="0.21" style="mix-blend-mode:multiply" d="M 181.475937 396.371582 C 167.115128 401.402435 151.743652 402.761871 136.534988 403.377686 C 133.467499 403.493835 130.342148 403.598389 127.251686 403.900482 C 127.007736 403.923737 126.775139 403.935364 126.542824 403.970245 C 126.12471 404.005127 125.706314 404.051514 125.299545 404.10968 C 124.85817 404.156067 124.405167 404.214203 123.951881 404.295593 C 123.231667 404.388519 122.534439 404.504669 121.825569 404.644073 C 120.95417 404.806763 120.082771 405.004333 119.234634 405.213379 C 119.165138 405.236633 119.095352 405.248291 119.037209 405.259918 C 118.665329 405.364441 118.316711 405.457458 117.956749 405.573639 C 117.596504 405.678162 117.236252 405.794312 116.887634 405.910461 C 116.74836 405.957001 116.585541 406.00351 116.446266 406.061523 C 116.144165 406.154572 115.842072 406.270721 115.563232 406.386902 C 115.53997 406.386902 115.505081 406.410156 115.481819 406.421783 C 117.805557 403.981873 120.512802 401.843933 123.452354 400.066406 C 127.321182 399.055573 131.318222 398.451385 135.291718 398.149292 C 145.028305 397.428925 154.811142 398.300354 164.559082 398.172546 C 170.217514 398.091125 175.968704 397.638 181.475937 396.371582 Z"/>
        <path id="path19" fill="#b05256" stroke="none" opacity="0.35" style="mix-blend-mode:multiply" d="M 234.096954 405.004333 C 225.987137 414.996368 214.356842 421.653839 202.145599 425.755249 C 193.617401 428.625031 184.589661 430.40274 176.816833 434.934052 C 176.305679 435.235992 175.794525 435.549744 175.294724 435.875092 C 168.219131 440.569061 162.607224 448.341888 163.49025 456.707428 C 164.082825 462.284302 167.673096 467.443054 172.692154 469.917847 C 177.711502 472.404266 185.066208 472.473907 189.852951 469.557617 C 187.610626 472.009125 184.822266 473.8797 181.754776 475.14624 C 178.478226 474.786011 175.271469 473.693909 172.285675 472.241577 C 168.404938 470.347717 164.687012 467.698639 162.677002 463.876038 C 160.701889 460.12323 160.573959 455.615204 161.550034 451.479004 C 163.513519 443.183289 169.601685 436.397858 176.747055 431.645874 C 177.223602 431.332153 177.688232 431.041687 178.176132 430.739563 C 185.92598 425.964325 194.674881 423.164307 203.191162 419.945923 C 211.696121 416.727539 220.235962 412.928223 226.77713 406.619354 C 235.479507 398.218933 237.361862 386.437561 236.594849 374.865417 C 236.490463 373.331665 236.339279 371.798218 236.165115 370.28772 C 235.328598 363.328156 233.818115 356.449707 232.853668 349.490143 C 229.809723 327.670532 232.609726 304.247101 240.266541 283.58905 C 235.72345 304.305237 232.179703 325.834686 236.374161 346.620361 C 236.920212 349.281067 237.570923 351.918549 238.326019 354.556 C 239.789993 359.668091 241.590942 364.710693 243.46167 369.718445 C 246.226776 381.976196 242.055573 395.221375 234.108582 404.992706 Z"/>
        <path id="path20" fill="#b05256" stroke="none" opacity="0.35" style="mix-blend-mode:multiply" d="M 323.397919 387.982941 C 322.468628 387.866791 321.504211 387.727356 320.51651 387.576324 C 313.94043 386.577148 306.155975 385.775391 296.965424 381.68573 C 286.764496 374.993347 278.22464 365.675171 272.182983 355.043884 C 266.72226 345.446869 263.236664 334.850769 261.5401 323.940674 C 261.5401 323.917419 261.516846 323.871216 261.5401 323.847931 C 260.180817 310.63736 261.028961 296.99707 261.923615 283.682098 C 262.214081 300.018005 264.619232 316.702271 268.348785 332.608459 C 270.881561 343.413574 274.332275 354.300415 281.152588 363.049316 C 288.762848 372.820526 299.974762 379.152649 311.48877 383.718842 C 315.416016 385.275696 319.401154 386.658386 323.421173 387.994568 Z"/>
        <path id="path21" fill="#b05256" stroke="none" opacity="0.21" style="mix-blend-mode:multiply" d="M 354.048126 400.786743 L 354.048126 400.786743 C 353.676239 400.589172 353.292999 400.403259 352.909515 400.205811 C 352.526001 400.00824 352.131134 399.833923 351.74765 399.648132 C 350.969269 399.287903 350.167389 398.950897 349.37738 398.637177 C 348.169006 398.160919 346.948975 397.719391 345.705994 397.324402 C 344.462708 396.917633 343.207794 396.545898 341.929932 396.208923 C 341.499878 396.10437 341.081787 395.98822 340.651764 395.883545 C 339.908264 395.686127 339.152893 395.511841 338.397797 395.337524 C 338.281494 395.31427 338.165466 395.291138 338.049164 395.256256 C 337.317352 395.08194 336.573578 394.91925 335.830109 394.768219 C 328.289612 393.129944 320.481598 391.933319 313.243195 389.574707 C 307.480377 387.692474 302.008026 385.020142 296.953796 381.697357 C 306.155975 385.798645 313.928802 386.588623 320.504883 387.587952 C 321.492584 387.739014 322.457001 387.878418 323.386292 387.994568 C 331.124481 390.573883 338.93222 392.95578 346.472717 396.057861 C 349.156708 397.161743 351.886902 398.416504 353.83905 400.565918 C 353.908539 400.647339 353.978333 400.71698 354.036469 400.79837 Z"/>
        <path id="path22" fill="#b05256" stroke="none" opacity="0.35" style="mix-blend-mode:multiply" d="M 374.543335 344.099182 C 372.254486 346.364807 369.860962 348.491089 367.235413 350.361542 C 358.358582 356.64743 347.123444 359.517212 336.317993 358.250671 C 329.149384 357.414154 322.213074 354.753418 316.275787 350.675262 C 312.534607 347.38739 308.990875 343.832001 305.58667 340.334778 C 304.785065 339.509888 303.983154 338.67337 303.181519 337.836853 C 295.745697 324.568146 291.771912 309.428986 290.981934 294.220337 C 295.304047 308.917847 300.788025 323.255371 310.38504 335.222656 C 319.982086 347.17804 334.947083 355.834167 350.179016 354.137604 C 359.079102 353.13855 366.898438 348.90921 374.566589 344.099182 Z"/>
        <path id="path23" fill="#b05256" stroke="none" opacity="0.21" style="mix-blend-mode:multiply" d="M 399.186768 330.261475 C 398.233948 331.167755 397.281158 332.085388 396.339966 333.014954 C 395.445313 333.897949 394.562286 334.769379 393.67926 335.675659 C 392.656952 336.709595 391.645966 337.755432 390.623657 338.789368 C 389.740631 339.684052 388.857605 340.590332 387.974579 341.473389 C 386.27829 343.181274 384.582031 344.877563 382.839203 346.550842 C 382.339691 347.02713 381.839874 347.49176 381.317108 347.956665 C 379.725494 349.432251 378.087067 350.872986 376.402435 352.243896 C 367.386322 359.575348 356.255554 365.245117 344.660126 364.53656 C 333.854706 363.874207 324.571411 357.971832 316.26416 350.698547 C 322.201447 354.776672 329.137756 357.437408 336.306366 358.273926 C 347.111786 359.540466 358.346954 356.670685 367.223785 350.384796 C 369.849609 348.526001 372.242859 346.399658 374.531708 344.122467 C 380.712921 340.253357 386.789459 335.98938 393.237885 332.747742 C 395.120239 331.806549 397.118622 330.93515 399.17514 330.284729 Z"/>
        <path id="path24" fill="#b05256" stroke="none" opacity="0.35" style="mix-blend-mode:multiply" d="M 293.654266 407.351196 C 294.026154 418.272766 289.85495 429.113068 282.907013 437.536621 C 275.959076 445.948517 266.36203 452.001801 255.997971 455.42926 C 251.269379 456.997894 246.331451 458.055084 241.893036 460.332458 C 237.45462 462.598022 233.434601 466.374084 232.435562 471.253876 C 231.436234 476.13382 233.492752 482.140717 238.430695 482.814545 C 236.013916 483.488373 233.469498 483.593048 231.006485 483.197906 C 229.402969 479.863342 228.740616 476.180328 229.426224 472.497162 C 230.716019 465.560852 236.304382 460.158142 242.369293 456.556366 C 248.434494 452.954468 255.21962 450.665619 261.284546 447.040619 C 274.66925 439.058594 283.848175 424.430725 285.219116 408.908203 C 286.741211 391.817017 279.525787 375.829865 273.309967 360.272308 C 276.458588 365.802795 279.932556 371.182373 283.127686 376.701263 C 288.576782 386.147095 293.294037 396.441376 293.654266 407.339691 Z"/>
        <path id="path25" fill="#b05256" stroke="none" opacity="0.28" style="mix-blend-mode:multiply" d="M 372.510071 127.376068 C 372.475159 135.091034 365.178894 140.598267 358.370239 144.246399 C 350.527618 148.440857 342.289886 151.903198 333.796844 154.575287 C 331.809814 155.214355 329.799805 155.806915 327.778168 156.341339 C 324.931641 137.356598 320.656067 118.84787 314.683899 100.897064 C 320.226044 108.879242 327.197235 115.873688 335.690552 120.47464 C 346.391296 126.249084 359.74115 127.817719 370.825409 122.79837 C 371.057739 122.693726 371.301941 122.589325 371.545898 122.48465 C 372.161713 124.041656 372.521698 125.668152 372.510071 127.387695 Z"/>
        <path id="path26" fill="#b05256" stroke="none" opacity="0.28" style="mix-blend-mode:multiply" d="M 197.660675 95.691925 C 189.492706 109.878296 182.579651 124.773499 177.095673 140.040314 C 174.0401 139.180542 170.99588 138.239655 168.05632 137.089417 C 166.255371 136.380554 164.477951 135.602173 162.758133 134.70752 C 156.542313 131.500763 150.918777 126.748627 147.944321 120.428131 C 147.421539 119.312775 146.991806 118.139282 146.654816 116.930908 C 160.899323 116.745087 175.445923 111.551575 187.424835 103.511261 C 191.014816 101.094788 194.430649 98.468964 197.672302 95.680298 Z"/>
        <path id="path27" fill="#b05256" stroke="none" opacity="0.28" style="mix-blend-mode:multiply" d="M 351.608093 324.998169 C 351.02713 325.079285 350.43457 325.137451 349.84201 325.18396 C 338.990356 326.00885 328.150055 321.384644 320.168152 313.983704 C 312.186005 306.582458 306.899445 296.625183 303.774109 286.203247 C 301.880402 279.894409 300.8927 272.493164 304.808044 267.195282 C 308.665497 261.943604 315.845764 260.642181 321.399536 257.249634 C 328.452148 252.97403 332.960327 244.82933 332.878937 236.591583 C 332.797516 229.016205 329.149384 221.97522 327.45282 214.597534 C 324.38562 201.236053 328.556824 187.247131 329.950989 173.537048 C 331.124481 184.679443 331.86795 195.972748 332.204956 207.382385 C 344.799683 223.055939 346.147369 240.414185 341.697327 253.903305 C 337.259186 267.3927 323.955872 276.118347 310.094574 279.208801 C 312.673889 288.434265 315.822784 298.786377 320.749115 307.000854 C 325.675415 315.20343 333.273773 322.279297 342.603607 324.405609 C 345.601318 325.090942 348.610657 325.242126 351.608093 324.998169 Z"/>
        <path id="path28" fill="#b05256" stroke="none" opacity="0.28" style="mix-blend-mode:multiply" d="M 446.974243 334.49054 C 445.289581 341.322449 439.852112 347.538269 432.88092 348.467834 C 434.519043 346.690125 435.622772 344.540588 436.238586 342.228455 C 441.560028 337.790344 443.639526 329.796539 442.814667 322.70932 C 441.513519 311.473877 434.054138 301.110107 423.736877 296.485901 C 418.822205 294.289795 413.338226 293.464935 407.970276 293.941467 C 412.792175 292.117279 417.997345 291.164459 423.039642 292.128906 C 433.519714 294.138916 440.804657 303.898499 444.638855 313.867371 C 447.160034 320.431824 448.647247 327.658875 446.974243 334.49054 Z"/>
        <path id="path29" fill="#b05256" stroke="none" opacity="0.28" style="mix-blend-mode:multiply" d="M 399.40744 423.86142 C 397.490204 439.244537 385.592682 452.896454 370.627991 456.928101 C 366.364014 458.066711 361.635132 458.450226 357.696259 456.463318 C 354.245544 454.732178 351.352509 449.933655 351.863647 446.041412 C 352.165741 446.657227 352.467834 447.273071 352.781586 447.842377 C 355.581848 452.861572 361.518829 455.626831 367.258392 455.533936 C 373.009857 455.440887 378.482208 452.791931 382.874115 449.097137 C 393.876953 439.848724 398.338348 424.082092 395.480194 410.000275 C 394.03949 402.866394 390.855988 396.162537 386.545502 390.306702 C 386.069244 389.667603 385.081543 388.668396 383.838257 387.471649 C 394.818146 395.802307 401.115356 410.139709 399.395813 423.86142 Z"/>
        <path id="path30" fill="#b05256" stroke="none" opacity="0.28" style="mix-blend-mode:multiply" d="M 234.096954 405.004333 C 225.987137 414.996368 214.356842 421.653839 202.145599 425.755249 C 193.617401 428.625031 184.589661 430.40274 176.816833 434.934052 C 176.305679 435.235992 175.794525 435.549744 175.294724 435.875092 C 175.643341 434.422729 176.131241 433.016937 176.747055 431.657501 C 177.270126 430.495636 177.874039 429.38028 178.559647 428.322937 C 182.382233 422.397461 188.238083 418.086975 194.314621 414.519958 C 200.391174 410.941467 206.827957 407.955383 212.614044 403.923737 C 224.104782 395.930084 232.342514 383.707214 236.153473 370.299377 C 236.409058 369.451233 236.629745 368.591431 236.838806 367.720032 C 237.91954 363.246765 238.268158 358.936279 238.302765 354.567627 C 239.766724 359.679749 241.567673 364.722351 243.438416 369.730042 C 246.203522 381.987823 242.032593 395.232971 234.085327 405.004333 Z"/>
        <path id="path31" fill="#b05256" stroke="none" opacity="0.28" style="mix-blend-mode:multiply" d="M 293.654266 407.351196 C 294.026154 418.272766 289.85495 429.113068 282.907013 437.536621 C 278.119965 443.345947 272.055054 448.028168 265.351074 451.490662 C 275.761353 436.142273 280.00235 416.413818 279.246948 397.614868 C 278.724182 384.392822 276.063446 371.449585 272.403687 358.703949 C 272.70578 359.226746 273.007874 359.761169 273.29834 360.283936 C 276.44696 365.814453 279.920929 371.194031 283.116058 376.712891 C 288.565155 386.158752 293.28241 396.453003 293.642639 407.351196 Z"/>
        <path id="path32" fill="#b05256" stroke="none" opacity="0.28" style="mix-blend-mode:multiply" d="M 194.709488 321.919067 C 191.08461 329.169098 186.506912 335.942871 181.092438 341.996155 C 181.069168 342.019409 181.057541 342.042664 181.034561 342.065918 C 175.608459 346.504333 169.137054 349.722717 162.316757 352.162476 C 156.983688 354.079742 151.418579 355.520447 145.957581 356.670685 C 136.104965 358.762085 125.462364 360.179565 116.28344 356.031616 C 110.392982 353.37088 105.908051 348.828064 102.480598 343.355713 C 104.397568 344.529236 106.384598 345.563171 108.417862 346.469452 C 123.4291 353.115295 140.996384 352.801575 156.507416 347.433899 C 171.112167 342.368042 183.985474 333.084717 194.698135 321.919067 Z"/>
        <path id="path33" fill="#b05256" stroke="none" opacity="0.21" style="mix-blend-mode:multiply" d="M 181.034561 342.065918 C 180.778702 342.379639 180.499863 342.670105 180.221024 342.960571 C 168.730286 355.439026 153.161377 364.850281 136.232895 366.197937 C 135.361496 366.2677 134.490097 366.31424 133.607071 366.337219 C 132.735672 366.360474 131.852631 366.360474 130.981232 366.337219 C 129.006119 366.290985 127.030716 366.104919 125.078857 365.791168 C 123.115372 365.512329 121.186775 365.094238 119.281151 364.559814 C 118.804886 364.431885 118.339973 364.292297 117.875336 364.141418 C 117.782295 364.118164 117.67791 364.09491 117.596504 364.059998 C 117.154846 363.920715 116.71347 363.781158 116.272095 363.630249 C 115.865334 363.490692 115.458565 363.35144 115.063713 363.200226 C 114.598793 363.026062 114.14579 362.839966 113.692505 362.654175 C 113.286018 362.491638 112.87925 362.328827 112.484398 362.143036 C 112.402985 362.108154 112.298317 362.061615 112.216911 362.015106 C 112.159042 361.991821 112.089264 361.968567 112.031113 361.93396 C 104.095467 358.308807 97.240562 352.557617 92.976601 344.93573 C 92.500053 344.087585 92.058685 343.227783 91.651917 342.356384 C 91.512634 342.065918 91.384705 341.775452 91.257065 341.473389 C 91.1175 341.182922 91.001488 340.892456 90.885185 340.590332 C 90.757256 340.288239 90.641235 339.986145 90.52494 339.707306 C 90.420547 339.440094 90.31588 339.161255 90.211212 338.905701 C 90.025414 338.406158 89.839615 337.906372 89.676796 337.383575 C 89.525894 336.953827 89.38633 336.500549 89.247055 336.059174 C 88.828659 334.711243 88.468407 333.340302 88.154686 331.957764 C 88.015404 331.330292 87.86422 330.691223 87.736572 330.052124 C 87.736572 330.02887 87.736572 330.017212 87.736572 330.00589 C 91.721695 335.327026 96.764297 339.893127 102.480598 343.355713 C 105.908051 348.828064 110.392982 353.37088 116.28344 356.031616 C 125.462364 360.179565 136.104965 358.750488 145.957581 356.670685 C 151.418579 355.50882 156.983688 354.068115 162.316757 352.162476 C 169.137054 349.722717 175.596817 346.504333 181.034561 342.065918 Z"/>
        <path id="path34" fill="#ffa75e" stroke="none" opacity="0.24" style="mix-blend-mode:screen" d="M 256.637054 24.887817 C 219.596878 68.237152 192.165054 119.75415 176.898254 174.687256 C 175.968704 178.021973 175.027512 181.484314 172.785187 184.121765 C 170.101212 187.282013 165.988159 188.734344 162.409805 190.837402 C 153.405334 196.08905 147.514587 205.743958 145.248993 215.910309 C 143.808289 222.335449 143.680359 228.946411 144.412491 235.499512 C 143.40152 232.164795 142.727554 228.702454 142.414108 225.158722 C 140.787323 206.801453 148.920395 190.082001 165.732574 182.564758 C 168.254028 168.262115 172.087967 153.994354 177.1073 140.028961 C 192.095276 98.329376 217.667984 59.371948 250.328201 30.290375 C 250.39798 30.232513 250.467758 30.174347 250.525635 30.116211 C 252.547272 28.326904 254.568909 26.584076 256.637054 24.87619 Z"/>
        <path id="path35" fill="#ffa75e" stroke="none" opacity="0.24" style="mix-blend-mode:screen" d="M 183.648773 78.600922 L 168.637253 90.04541 C 162.76976 94.53006 156.867676 99.038269 151.929733 104.533875 C 149.664154 107.055023 147.60762 109.808777 145.934311 112.759705 C 145.62059 108.414307 146.654816 104.02243 149.28064 100.560089 C 152.034119 96.946838 156.147171 94.681244 160.132584 92.473541 C 168.05632 88.081635 175.898926 83.445801 183.6604 78.600922 Z"/>
        <path id="path36" fill="#ffa75e" stroke="none" opacity="0.24" style="mix-blend-mode:screen" d="M 371.545898 122.473022 C 371.731689 122.926025 371.882874 123.390961 372.010529 123.867218 C 350.492737 102.047302 325.559113 83.062592 308.235779 58.314758 C 326.442139 76.544373 343.963196 93.007935 363.226746 111.67923 C 366.491669 114.839478 369.919128 118.38324 371.545898 122.48465 Z"/>
        <path id="path37" fill="#ffa75e" stroke="none" opacity="0.3" style="mix-blend-mode:screen" d="M 208.082581 152.007599 C 208.710037 155.772034 209.895172 159.745819 212.916138 162.06955 C 215.925186 164.39328 220.224319 164.509308 223.767792 163.149994 C 227.311539 161.79071 230.216217 159.141632 232.726028 156.283478 C 238.291138 149.95108 242.346039 142.294556 244.449081 134.126587 C 246.087494 127.782837 246.447464 120.672089 243.101425 115.048828 C 240.115341 110.017853 234.236221 106.857605 228.392288 107.136444 C 208.431198 108.088959 205.677719 137.635437 208.082581 152.019226 Z"/>
        <path id="path38" fill="#ffa75e" stroke="none" opacity="0.3" style="mix-blend-mode:screen" d="M 227.938995 98.434052 C 230.738998 101.268951 235.316971 102.302887 238.941849 100.653137 C 241.579315 99.45636 243.531158 97.004974 244.507233 94.262848 C 245.7854 90.649597 245.390274 86.40863 243.217438 83.248383 C 241.044891 80.088135 237.071396 78.170868 233.272064 78.705566 C 224.035278 80.006714 222.024994 92.461914 227.938995 98.445679 Z"/>
        <path id="path39" fill="#ffa75e" stroke="none" opacity="0.3" style="mix-blend-mode:screen" d="M 145.469681 323.092529 C 141.042908 324.812073 136.209641 325.439545 131.51564 324.71933 C 121.32605 323.139069 112.902512 315.645081 107.186218 307.059021 C 101.45829 298.472656 97.868019 288.666565 93.267067 279.429779 C 90.40892 273.689941 86.807022 267.834351 81.03257 265.010803 C 74.537636 261.850586 66.555756 263.314545 60.328018 266.974304 C 57.016869 268.914795 54.100571 271.41272 51.381699 274.131592 C 51.126122 274.178101 50.882175 274.24762 50.626598 274.317383 C 50.835655 273.794617 51.06797 273.27182 51.323547 272.772278 L 51.323547 272.772278 C 55.064728 265.138733 62.628494 259.491943 71.017143 258.190796 C 79.97509 256.796631 89.537521 260.421509 95.323593 267.3927 C 102.794327 276.373901 103.491554 289.084656 108.324821 299.715942 C 112.855995 309.673218 121.372566 317.899048 131.736328 321.361389 C 136.116592 322.825348 140.82222 323.394653 145.458054 323.080933 Z"/>
        <path id="path40" fill="#ffa75e" stroke="none" opacity="0.3" style="mix-blend-mode:screen" d="M 193.419968 330.307678 C 193.396713 336.570313 187.482697 344.157349 184.287567 348.061066 C 180.511505 352.696899 176.05011 356.775085 171.158691 360.214417 C 159.551651 368.393738 145.864822 373.157501 132.096588 376.63147 C 118.688591 380.024048 104.188507 382.708008 94.301003 392.36322 C 87.957253 398.579163 84.250969 407.072357 82.484909 415.774719 C 82.20607 413.276825 82.20607 410.743896 82.508163 408.24585 C 83.030952 403.807556 84.378616 399.520203 86.400253 395.55835 C 87.759827 392.862732 89.421219 390.318298 91.338188 387.959686 C 94.672882 383.823364 98.76268 380.245026 103.305473 377.479614 C 104.76944 376.584961 106.268295 375.771729 107.825302 375.051208 C 107.941315 374.993347 108.057617 374.946838 108.17363 374.888672 C 124.381905 367.499084 143.448044 369.079346 159.993027 362.480042 C 164.489594 360.679077 168.718658 358.29718 172.62265 355.450684 L 172.62265 355.450684 C 177.955444 351.546661 182.684326 346.771545 186.634567 341.450104 C 187.692047 340.032654 188.702713 338.557068 189.643906 337.058228 C 190.015778 336.465637 190.375732 335.884705 190.735992 335.280518 C 191.700424 333.642395 192.595093 331.981018 193.431595 330.284729 Z"/>
        <path id="path41" fill="#ffa75e" stroke="none" opacity="0.3" style="mix-blend-mode:screen" d="M 176.3871 408.617737 C 181.952209 405.039063 187.424835 401.251373 192.525314 397.057068 C 185.821304 403.656525 177.46756 409.524017 170.984238 415.344849 C 161.921616 423.489532 152.394363 432.389465 149.582733 444.240479 C 147.700378 452.152863 149.164337 460.332458 152.568817 467.814789 C 149.164337 463.86441 146.805725 458.973022 145.888077 453.849121 C 143.994095 443.322693 147.874832 432.261688 155.089981 424.523621 C 161.143265 418.028809 168.916092 413.439514 176.375473 408.629333 Z"/>
        <path id="path42" fill="#ffa75e" stroke="none" opacity="0.3" style="mix-blend-mode:screen" d="M 227.160645 412.080078 C 227.079224 412.149719 227.009445 412.219482 226.928314 412.277649 L 226.928314 412.277649 C 227.009445 412.196228 227.079224 412.138214 227.160645 412.080078 Z"/>
        <path id="path43" fill="#ffa75e" stroke="none" opacity="0.3" style="mix-blend-mode:screen" d="M 259.495209 415.728333 C 258.856415 424.268036 255.649643 432.993683 249.003799 438.396393 C 242.903992 443.357574 234.817154 444.926086 227.613647 448.167603 C 235.084366 443.380707 244.321442 440.069397 249.689117 433.028564 C 254.2668 427.021667 255.394073 419.016388 254.998932 411.475861 C 254.743347 406.479797 253.883591 401.588379 252.686829 396.778229 C 250.456131 387.831909 246.970535 379.10614 243.670731 370.334259 C 243.58931 370.101654 243.519531 369.904236 243.438416 369.706787 C 241.567673 364.687439 239.755096 359.644836 238.302765 354.544373 C 237.547668 351.918549 236.896942 349.281067 236.350906 346.608734 C 235.688568 343.355713 235.235565 340.067566 234.921829 336.779358 C 236.931839 341.101501 237.942795 348.932465 239.185791 352.10434 C 241.81163 358.80835 244.971863 365.280029 248.027725 371.798218 C 254.511032 385.65921 260.622467 400.461395 259.495209 415.728333 Z"/>
        <path id="path44" fill="#ffa75e" stroke="none" opacity="0.3" style="mix-blend-mode:screen" d="M 346.437836 374.516815 C 348.668518 375.248932 350.946014 375.876373 353.234863 376.445679 C 345.717621 376.561707 338.293121 376.03891 331.205902 373.610504 C 319.424408 369.590515 309.83902 360.551147 303.204803 350.024841 C 294.235199 335.780334 290.21521 318.549744 291.621002 301.772461 C 293.166382 314.401794 296.965424 326.775879 303.169891 337.836853 C 304.16922 339.637512 305.238068 341.391968 306.365051 343.111511 C 315.880646 357.553711 330.009155 369.114258 346.437836 374.505188 Z"/>
        <path id="path45" fill="#b05256" stroke="none" opacity="0.18" style="mix-blend-mode:multiply" d="M 148.722977 402.657349 C 144.66806 402.994171 140.589905 403.203369 136.534988 403.377686 C 129.424225 403.656525 122.023285 403.865601 115.470192 406.421783 C 114.192307 406.909821 112.949028 407.502228 111.740646 408.199463 C 105.861526 411.580383 101.48127 417.436249 99.878029 424.012451 C 98.704529 428.868988 98.855438 434.167175 100.482216 438.884277 C 101.074783 440.580688 101.82988 442.184082 102.805954 443.6828 C 91.431229 439.407196 83.786049 427.893066 82.484909 415.786346 C 82.20607 413.288452 82.20607 410.755524 82.508163 408.257477 C 83.030952 403.819214 84.378616 399.53183 86.400253 395.569977 C 87.318176 393.769043 88.364021 392.014587 89.525894 390.35321 C 109.928062 397.115204 131.260071 401.135223 152.719727 402.297089 C 151.383698 402.436523 150.059006 402.552795 148.722977 402.657349 Z"/>
        <path id="path46" fill="#b05256" stroke="none" opacity="0.18" style="mix-blend-mode:multiply" d="M 163.49025 456.707428 C 164.082825 462.284302 167.673096 467.443054 172.692154 469.917847 C 177.711502 472.404266 185.066208 472.473907 189.852951 469.557617 C 187.610626 472.009125 184.822266 473.8797 181.754776 475.14624 C 175.933807 477.527985 169.137054 477.690674 163.23468 475.425079 C 159.098358 473.844971 155.461853 471.16098 152.580444 467.791534 C 149.17598 463.841309 146.817352 458.949738 145.899704 453.825867 C 144.005722 443.299438 147.886459 432.238434 155.101608 424.500366 C 161.154892 418.005554 168.927719 413.416229 176.3871 408.606079 C 179.802917 406.398499 183.183853 404.132935 186.460388 401.73941 C 203.086777 400.275452 219.550354 397.033936 235.479507 391.956451 C 237.791611 391.224609 240.092087 390.434479 242.380936 389.63269 C 240.638123 395.209717 237.768356 400.48465 234.096954 405.004333 C 231.947388 407.664917 229.530899 410.081696 226.928314 412.289124 C 219.747772 418.354187 211.103546 422.745911 202.145599 425.755249 C 193.617401 428.625031 184.589661 430.40274 176.816833 434.934052 C 176.305679 435.235992 175.794525 435.549744 175.294724 435.875092 C 168.219131 440.569061 162.607224 448.341888 163.49025 456.707428 Z"/>
        <path id="path47" fill="#b05256" stroke="none" opacity="0.18" style="mix-blend-mode:multiply" d="M 293.654266 407.351196 C 294.026154 418.272766 289.85495 429.113068 282.907013 437.536621 C 278.119965 443.345947 272.055054 448.028168 265.351074 451.490662 C 262.34201 453.059143 259.193115 454.37207 255.986633 455.42926 C 251.257751 456.997894 246.319824 458.055084 241.881409 460.332458 C 237.442993 462.598022 233.422974 466.374084 232.423935 471.253876 C 231.424606 476.13382 233.481125 482.140717 238.419067 482.814545 C 236.002289 483.488373 233.45787 483.593048 230.994858 483.197906 C 226.893433 482.535706 223.001068 480.46756 220.282196 477.284058 C 215.960083 472.206696 214.902878 464.561646 217.691254 458.496613 C 219.759415 454.000183 223.37294 450.86319 227.555496 448.202484 C 227.555496 448.202484 227.578751 448.202484 227.602005 448.179199 C 235.073029 443.392334 244.309814 440.081024 249.67749 433.040192 C 254.255173 427.033295 255.382431 419.028015 254.987305 411.487488 C 254.73172 406.491425 253.871948 401.600006 252.675201 396.789856 C 251.838684 393.443665 250.839355 390.144012 249.724014 386.84433 C 260.285492 382.673126 270.498352 377.68869 280.316071 371.984009 C 281.257233 373.552643 282.198151 375.109375 283.104431 376.689636 C 288.553528 386.13562 293.270782 396.429749 293.631012 407.328064 Z"/>
        <path id="path48" fill="#b05256" stroke="none" opacity="0.18" style="mix-blend-mode:multiply" d="M 399.40744 423.86142 C 397.490204 439.244537 385.592682 452.896454 370.627991 456.928101 C 366.364014 458.066711 361.635132 458.450226 357.696259 456.463318 C 354.245544 454.732178 351.352509 449.933655 351.863647 446.041412 L 351.863647 446.041412 C 351.933441 445.483734 352.061371 444.949341 352.282043 444.449677 C 352.119507 448.678894 357.405792 451.502136 361.449066 450.247375 C 362.610931 449.875641 363.645142 449.306335 364.574707 448.562714 C 366.898438 446.750153 368.559814 443.950012 369.651917 441.138367 C 374.322632 429.031677 370.709381 414.194611 361.00769 405.585266 C 358.858124 403.668152 356.522766 402.111298 354.059753 400.79837 C 341.987793 394.326691 326.662811 393.931702 313.266449 389.56308 C 311.69812 389.051758 310.15274 388.482483 308.630615 387.855164 C 305.923676 386.739685 303.297821 385.450012 300.764771 383.997681 C 299.47525 383.277344 298.20871 382.487335 296.977051 381.674072 C 292.015869 378.432434 287.461426 374.54007 283.38327 370.206329 C 293.28241 364.25769 302.740143 357.588623 311.674835 350.280396 C 320.818604 361.341431 332.844025 370.043793 346.449463 374.505188 C 348.680145 375.237305 350.957642 375.864746 353.24649 376.434052 C 362.274231 378.699646 371.569153 380.186859 379.644073 384.718018 C 381.108032 385.54306 382.502228 386.460815 383.838257 387.460022 C 394.818146 395.790649 401.115356 410.128052 399.395813 423.849792 Z"/>
        <path id="path49" fill="#b05256" stroke="none" opacity="0.18" style="mix-blend-mode:multiply" d="M 446.974243 334.49054 C 445.289581 341.322449 439.852112 347.538269 432.88092 348.467834 C 434.519043 346.690125 435.622772 344.540588 436.238586 342.228455 C 436.30838 341.9729 436.366516 341.717316 436.424377 341.461731 C 436.424377 341.461731 436.424377 341.453979 436.424377 341.438477 C 437.330688 337.197784 436.645355 332.515411 434.623718 328.634674 C 431.347168 322.372345 423.934326 318.549744 416.93985 319.514191 C 411.026123 320.33905 405.971893 324.115143 401.533478 328.100281 C 400.7435 328.809143 399.965118 329.529358 399.19812 330.249817 C 391.773895 337.25592 385.058289 345.028748 377.215668 351.558289 C 376.948456 351.790894 376.681274 351.999939 376.414063 352.220642 C 367.397949 359.552094 356.267181 365.221863 344.671753 364.513306 C 333.866333 363.850952 324.583038 357.948547 316.275787 350.675262 C 315.450928 349.955078 314.649292 349.222931 313.847382 348.479462 C 313.952057 348.386414 314.056732 348.293671 314.161133 348.21225 C 323.20047 340.613586 331.693787 332.3526 339.52478 323.510925 C 340.523834 323.871216 341.558044 324.173279 342.603607 324.405609 C 343.475006 324.603027 344.358032 324.765869 345.229431 324.870239 C 347.355743 325.149078 349.482056 325.172333 351.608093 324.998169 C 351.631348 324.998169 351.666229 324.998169 351.689484 324.998169 C 360.33371 324.219543 368.827026 319.978821 376.111969 314.936218 C 385.941315 308.139465 394.794891 299.692688 405.727936 294.859406 C 406.459778 294.534058 407.215179 294.220337 407.970276 293.941467 C 412.792175 292.117279 417.997345 291.164459 423.039642 292.128906 C 433.519714 294.138916 440.804657 303.898499 444.638855 313.867371 C 447.160034 320.431824 448.647247 327.658875 446.974243 334.49054 Z"/>
    </g>
</svg>
