<?xml version="1.0" encoding="UTF-8"?>
<!-- Generated by Pixelmator Pro 3.6.14 -->
<svg width="500" height="500" viewBox="0 0 500 500" xmlns="http://www.w3.org/2000/svg">
    <g id="Group-copy">
        <path id="Path" fill="#eef5ff" stroke="none" d="M 465.876984 282.355103 C 458.367462 294.275574 448.512482 307.566833 437.306183 319.342834 C 436.765594 319.902527 436.23468 320.462402 435.68454 321.012665 C 424.275574 332.749786 411.515106 342.826721 398.426636 348.309418 C 346.651642 365.857239 290.301483 374.457367 234.173279 373.743103 C 195.911514 373.260498 157.746307 368.444 121.212341 359.177673 C 106.203011 355.374756 91.473579 350.818878 77.120598 345.510132 C 76.715164 337.933167 76.966133 330.38501 77.834862 322.962463 C 78.134079 320.259766 78.5298 317.566711 79.002754 314.893005 C 84.369492 284.565552 99.986923 256.650879 123.30687 235.850372 C 136.540207 224.04538 150.400909 212.134583 158.344742 196.294983 C 159.947052 193.109894 161.307999 189.798981 162.418045 186.401367 C 165.748047 176.295441 166.790573 165.455902 164.917953 155.012268 C 162.852356 155.629913 160.709564 155.987152 158.557129 156.06424 C 156.288788 156.170502 153.991547 155.958191 151.761856 155.465912 C 151.925995 155.060333 152.051468 154.645355 152.10939 154.240051 C 152.398941 152.49292 151.819763 150.678406 150.487808 149.433197 C 147.717545 146.836548 144.146225 145.01239 140.507294 144.04715 C 135.603897 142.743988 130.439941 142.782654 125.382141 143.284576 C 121.945923 143.612854 118.45179 144.674438 115.778084 146.86554 C 115.343719 145.089661 115.083084 143.284576 115.015572 141.479706 C 114.561882 130.784882 120.140945 119.906708 128.605988 113.179077 C 129.938004 112.126892 131.318283 111.161682 132.746857 110.273743 C 141.993729 104.559509 153.238693 102.29126 164.184372 102.194763 C 168.045303 102.165771 171.935211 102.387756 175.767151 101.837616 C 179.589539 101.27771 183.431137 99.8685 186.095184 97.059662 C 185.535278 100.312469 184.010254 103.381958 181.761307 105.78537 C 188.006317 106.576935 193.807373 110.476379 196.905731 115.968506 C 193.257126 115.968506 189.946442 116.982025 189.946442 116.982025 C 189.946442 116.982025 194.203033 123.352661 195.100754 124.954865 C 198.237747 130.562897 200.621841 136.56662 202.282013 142.763306 C 202.957733 145.244019 203.498215 147.763367 203.932632 150.292175 C 204.955719 156.228485 205.351501 162.280243 205.129517 168.303284 C 204.984695 172.618073 204.521408 176.932617 203.749176 181.160217 C 199.77243 203.148224 188.015991 220.589996 174.077988 237.510529 C 166.645767 246.544952 159.165222 255.743637 154.261826 266.361176 C 149.358444 276.988373 147.205994 289.353027 150.84494 300.472534 C 155.8255 292.654053 160.9702 284.961182 166.307953 277.442017 C 187.6492 247.346176 212.050262 219.808105 240.621063 196.22757 C 261.170746 179.278076 283.506195 163.931 299.953766 142.975647 C 304.625458 147.020142 306.082977 153.786407 304.171844 159.66452 C 308.785675 156.952393 313.071228 156.431122 318.3125 155.330627 C 326.845093 153.525787 335.416351 151.826965 344.045563 150.620422 C 350.387085 149.732239 356.757599 149.095276 363.157074 148.873291 C 363.321198 148.863647 363.475555 148.863647 363.639679 148.863647 L 363.649353 148.863647 C 373.060364 148.574036 382.577515 149.211212 391.776184 151.199432 C 397.181458 152.348236 402.48056 153.969757 407.567352 156.122192 C 387.114166 154.741974 366.120392 163.013855 351.98941 177.87854 C 368.369354 171.749237 386.139282 170.118042 403.291321 173.506012 C 420.443512 176.893982 436.630432 185.880341 447.749908 199.383911 C 450.259491 202.43396 452.508575 205.696564 454.284546 209.219543 C 432.489563 211.526337 411.254486 220.252075 393.359192 232.887024 C 411.592407 229.692047 430.259949 233.900574 445.703644 244.093231 C 441.44693 246.3423 437.267517 248.755371 433.145966 251.294052 C 430.395081 252.973541 427.682739 254.720428 424.989807 256.496521 C 423.831482 257.259094 422.682892 258.031342 421.543884 258.812988 C 410.057617 266.602478 398.928589 275.07724 387.731812 283.407043 C 395.222015 283.899353 402.644714 285.694763 409.961121 287.538269 C 419.516907 289.941711 429.16922 292.509338 439.014526 292.46106 C 448.869629 292.432068 459.139679 289.478394 465.944489 282.345459 Z"/>
        <path id="path1" fill="#f79628" stroke="none" d="M 151.742599 155.465912 C 151.732925 155.513977 151.713608 155.562286 151.694351 155.600922 C 144.802582 170.870941 132.930252 183.862915 118.278 192.019073 C 114.890091 193.920563 111.135323 195.561646 107.332314 196.169617 C 104.513855 196.62323 101.676071 196.497864 98.925133 195.47467 C 98.008148 195.136749 97.168404 194.557739 96.647202 193.737213 C 96.560303 193.602173 96.49279 193.466919 96.434875 193.331879 C 96.25148 192.955322 96.145264 192.578979 96.116333 192.212067 C 95.942604 190.455536 97.255302 188.814453 98.423248 187.405243 C 108.056236 176.015717 114.185432 161.691589 115.787743 146.855896 C 117.563736 145.398376 119.71624 144.44281 121.965187 143.873474 C 123.094551 143.574188 124.243179 143.390869 125.391808 143.274902 C 127.148476 143.101227 128.905197 142.985291 130.671585 142.965973 C 133.98233 142.917908 137.312378 143.197845 140.516953 144.037476 C 144.155838 145.002716 147.727203 146.826904 150.497406 149.423553 C 150.497406 149.423553 150.50385 149.429993 150.516739 149.442871 C 152.14798 150.977448 152.640259 153.390503 151.761856 155.456238 Z"/>
        <path id="path2" fill="#613b10" stroke="none" d="M 127.621483 154.201385 C 127.98822 153.187866 128.384003 152.135681 129.136841 151.354004 C 129.889755 150.581787 131.115616 150.147461 132.080841 150.63974 C 132.708206 150.95813 133.12326 151.60498 133.268066 152.290253 C 133.42247 152.975525 133.345291 153.689789 133.171555 154.375061 C 132.322159 157.898315 129.368546 160.49472 126.337708 162.47348 C 125.768196 162.840149 124.870544 163.110443 124.745056 162.174225 C 124.658218 161.527588 125.362816 160.388428 125.584801 159.780457 C 126.260475 157.927063 126.93615 156.06424 127.611824 154.21106 Z"/>
        <path id="path3" fill="#dde4ed" stroke="none" d="M 383.397949 138.979675 C 377.876831 141.112823 372.519897 143.661163 367.39444 146.614563 C 366.110748 147.338501 364.846222 148.0914 363.591492 148.873291 L 363.581848 148.873291 C 363.417694 148.873291 363.263245 148.873291 363.099213 148.882965 C 347.983673 149.394562 333.051575 152.212952 318.264191 155.340302 C 313.023041 156.45047 308.737366 156.961823 304.123535 159.674164 C 306.03479 153.796082 304.577271 147.029785 299.905457 142.985291 C 293.766602 150.813416 286.807343 157.850006 279.423309 164.481018 C 267.039429 175.629486 253.458572 185.61972 240.572754 196.237244 C 204.859222 225.715424 175.632004 261.39032 150.796631 300.482178 C 147.157745 289.362701 149.310196 276.998047 154.213577 266.37085 C 154.261826 266.264771 154.310089 266.168152 154.367996 266.06189 C 159.261719 255.57962 166.665085 246.467896 174.0298 237.520203 C 187.977341 220.589996 199.724243 203.157867 203.700989 181.169891 C 204.473099 176.932617 204.936386 172.627747 205.081207 168.312958 C 206.297394 165.648895 207.629425 163.023499 209.067612 160.465729 C 216.702621 146.788483 227.223663 134.71344 239.810181 125.398834 C 234.559387 132.9953 231.345215 141.971985 230.572983 151.180115 C 247.368027 130.389221 274.39447 118.314178 301.073486 119.684723 C 289.760895 123.516663 279.828735 131.257843 273.342407 141.286499 C 306.749054 122.850708 349.228851 121.962769 383.378723 138.979675 Z"/>
        <linearGradient id="linearGradient1" x1="249.25985" y1="314.893015" x2="249.25985" y2="404.089997" gradientUnits="userSpaceOnUse">
            <stop offset="1e-05" stop-color="#9ee3e8" stop-opacity="1"/>
            <stop offset="0.34" stop-color="#9bdfe6" stop-opacity="1"/>
            <stop offset="0.66" stop-color="#94d4e1" stop-opacity="1"/>
            <stop offset="0.97" stop-color="#88c1da" stop-opacity="1"/>
            <stop offset="1" stop-color="#87bfd9" stop-opacity="1"/>
        </linearGradient>
        <path id="path4" fill="url(#linearGradient1)" stroke="none" d="M 488 351.649078 C 488 380.615662 381.110352 404.089905 249.250168 404.089905 C 117.389999 404.089905 10.51001 380.615662 10.51001 351.649078 C 10.51001 337.344299 36.629154 324.362 78.993149 314.902679 C 78.066505 320.163147 77.439087 325.491211 77.139862 330.857971 C 76.85997 335.713104 76.850304 340.596985 77.110939 345.510132 C 177.687943 382.719788 296.855438 382.739136 398.426636 348.309418 C 409.507477 343.656921 420.366333 335.722778 430.366089 326.263458 L 430.375763 326.263458 C 432.730865 324.024048 435.047455 321.707581 437.306183 319.333191 C 469.062164 328.232574 488 339.467773 488 351.639404 Z"/>
        <path id="path5" fill="#2c3747" stroke="none" d="M 158.537796 156.06424 C 156.269531 156.170502 153.972275 155.958191 151.742599 155.465912 C 152.620926 153.390503 152.128647 150.977448 150.468475 149.433197 C 147.698273 146.836548 144.126907 145.01239 140.487976 144.04715 C 135.584641 142.743988 130.420624 142.782654 125.362816 143.284576 C 121.926598 143.612854 118.432465 144.674438 115.758759 146.86554 C 115.324394 145.089661 115.06382 143.284576 114.996246 141.479706 C 120.015457 132.503021 128.712143 125.775391 138.19072 121.595856 C 141.665588 120.061066 145.429947 118.796783 149.204025 119.279419 C 152.978058 119.771698 156.68457 122.483795 157.20578 126.248352 C 157.678726 129.588013 155.680695 132.696014 154.657547 135.890991 C 152.620926 142.242065 154.474152 149.307617 157.91037 155.021942 C 158.113098 155.349976 158.32547 155.707214 158.528137 156.044891 Z"/>
        <path id="path6" fill="#0b121c" stroke="none" d="M 149.358444 131.296478 C 150.671143 132.039734 152.341034 132.503021 153.67305 131.779114 C 154.696198 131.219177 155.265656 130.070618 155.526276 128.931732 C 156.288788 125.553406 154.551392 121.769531 151.501282 120.14801 C 148.595932 118.603546 144.155838 119.607422 143.866272 123.468353 C 143.634628 126.499329 146.964691 129.945007 149.368103 131.306152 Z"/>
        <path id="path7" fill="#ffffff" stroke="none" d="M 152.688507 123.391296 C 153.586166 124.94519 153.518585 126.673004 152.534088 127.242554 C 151.54953 127.81189 150.02446 127.010925 149.117142 125.456787 C 148.219482 123.902679 148.287048 122.17511 149.271606 121.60553 C 150.256104 121.03595 151.781189 121.837189 152.688507 123.391296 Z"/>
        <path id="path8" fill="#d1dced" stroke="none" opacity="0.58" style="mix-blend-mode:multiply" d="M 367.404114 146.614563 C 366.120392 147.338501 364.855896 148.0914 363.601044 148.873291 L 363.591492 148.873291 C 363.427368 148.873291 363.272888 148.873291 363.108887 148.882965 C 347.993347 149.394562 333.061249 152.212952 318.273834 155.340302 C 313.032715 156.45047 308.747009 156.961823 304.133179 159.674164 C 306.044312 153.796082 304.586945 147.029785 299.915131 142.985291 C 283.467682 163.940674 261.141876 179.28775 240.582413 196.237244 C 204.868881 225.715424 175.641663 261.39032 150.80629 300.482178 C 147.167404 289.362701 149.319855 276.998047 154.223251 266.37085 C 159.126572 255.753296 166.607117 246.564285 174.039459 237.520203 C 187.987 220.589996 199.733902 203.157867 203.710648 181.169891 C 204.482758 176.932617 204.94606 172.627747 205.090866 168.312958 C 206.307068 165.648895 207.639084 163.023499 209.077271 160.465729 C 215.187256 176.372711 215.428558 194.519104 209.598526 210.541809 C 240.225296 185.658356 270.852051 160.784332 301.469147 135.910309 C 304.123535 140.929474 306.787567 145.958282 309.441956 150.977448 C 322.038269 146.566498 334.953064 142.107025 348.302155 142.300018 C 354.817474 142.396637 361.506561 143.815491 367.39444 146.614563 Z"/>
        <path id="path9" fill="#d1dced" stroke="none" opacity="0.58" style="mix-blend-mode:multiply" d="M 279.432953 164.481018 C 267.049103 175.629486 253.468231 185.61972 240.582413 196.237244 C 204.868881 225.715424 175.641663 261.39032 150.80629 300.482178 C 147.167404 289.362701 149.319855 276.998047 154.223251 266.37085 C 154.2715 266.264771 154.319748 266.168152 154.377655 266.06189 C 156.829315 269.643097 161.578293 271.833954 165.265427 269.691162 C 167.041534 268.658539 168.219086 266.872772 169.358002 265.154633 C 197.031204 223.234711 235.225342 188.322388 279.432953 164.481018 Z"/>
        <path id="path10" fill="#d1dced" stroke="none" opacity="0.64" style="mix-blend-mode:multiply" d="M 445.655334 244.093231 C 441.398743 246.3423 437.219208 248.755371 433.097656 251.294052 C 430.597748 249.923264 428.136475 248.4561 425.704071 247.085541 C 411.93988 239.411987 396.525177 234.711212 380.830505 233.379303 C 396.766479 216.970398 418.532379 206.352844 441.263611 203.881805 C 412.962952 183.139008 375.618225 175.233826 341.333221 182.704681 C 351.632263 164.838257 371.236053 152.792206 391.737549 151.199432 C 397.142822 152.348236 402.442047 153.969757 407.528717 156.122192 C 387.075531 154.741974 366.081757 163.013855 351.950745 177.87854 C 368.330688 171.749237 386.100616 170.118042 403.252808 173.506012 C 420.404968 176.893982 436.591797 185.880341 447.711273 199.383911 C 450.220978 202.43396 452.46991 205.696564 454.245911 209.219543 C 432.45105 211.526337 411.215942 220.252075 393.320526 232.887024 C 411.553772 229.692047 430.221283 233.900574 445.664978 244.093231 Z"/>
        <path id="path11" fill="#d1dced" stroke="none" opacity="0.64" style="mix-blend-mode:multiply" d="M 465.876984 282.355103 C 458.367462 294.275574 448.512482 307.566833 437.306183 319.342834 C 436.765594 319.902527 436.23468 320.462402 435.68454 321.012665 C 438.338928 315.307983 440.597534 309.420227 442.46048 303.426178 C 441.900574 305.231018 428.078522 303.416504 426.389343 303.14624 C 420.887604 302.277374 415.501526 300.665527 410.318237 298.609436 C 404.990143 296.485992 393.021393 290.74292 387.442322 283.580994 L 387.442322 283.580994 C 387.509827 283.503662 387.596771 283.455383 387.67395 283.407043 C 395.164154 283.899353 402.586731 285.694763 409.903259 287.538269 C 419.458954 289.941711 429.111267 292.509338 438.956696 292.46106 C 448.811646 292.432068 459.081726 289.478394 465.886658 282.345459 Z"/>
        <path id="path12" fill="#d1dced" stroke="none" opacity="0.64" style="mix-blend-mode:multiply" d="M 465.876984 282.355103 C 458.367462 294.275574 448.512482 307.566833 437.306183 319.342834 C 436.765594 319.902527 436.23468 320.462402 435.68454 321.012665 C 424.275574 332.749786 411.515106 342.826721 398.426636 348.309418 C 346.651642 365.857239 290.301483 374.457367 234.173279 373.743103 C 264.713196 372.09259 295.185486 369.573242 325.310425 364.409424 C 345.96637 360.866852 367.732269 355.365082 382.008057 340.008362 C 347.558899 345.249481 311.082916 348.347839 278.602875 336.523743 C 277.801788 336.234375 276.990906 335.925415 276.189789 335.616486 C 279.394318 335.046936 282.569977 334.313568 285.764923 333.657043 C 293.177826 331.900513 300.56189 329.94104 307.772125 327.44101 C 315.03067 325.105225 322.115448 322.257629 329.094055 319.178589 C 332.549652 317.557068 336.034119 316.022278 339.402771 314.207733 C 341.082245 313.319824 342.810059 312.489594 344.460571 311.553345 L 349.46051 308.754028 C 356.110962 305.009033 362.529663 300.839172 368.861633 296.553619 C 375.145294 292.345093 381.274475 287.943848 387.442322 283.57132 C 387.509827 283.513336 387.596771 283.455383 387.67395 283.407043 C 395.164154 283.899353 402.586731 285.694763 409.903259 287.538269 C 419.458954 289.941711 429.111267 292.509338 438.956696 292.46106 C 448.811646 292.432068 459.081726 289.478394 465.886658 282.345459 Z"/>
        <path id="path13" fill="#bfcde0" stroke="none" d="M 387.664307 283.407043 C 387.596771 283.465027 387.509827 283.52301 387.432648 283.580994 C 381.477142 288.233215 375.42511 292.760315 369.286255 297.180908 C 363.031586 301.592102 356.661102 305.887329 350.05896 309.777222 C 336.873871 317.615051 322.820038 324.033722 308.25473 328.898529 C 298.55423 332.132141 288.65097 334.670593 278.602875 336.523743 C 273.554749 337.450562 268.458282 338.203247 263.361847 338.782471 C 248.120926 340.539246 232.696442 340.50061 217.474854 338.917511 L 223.208267 339.197449 L 226.065308 339.352051 L 228.932129 339.400116 L 234.665543 339.487061 L 240.399078 339.342407 L 243.256134 339.294067 C 244.202042 339.265076 245.157608 339.187805 246.113174 339.139709 L 251.827377 338.801819 C 253.738525 338.657104 255.630341 338.44455 257.531921 338.251556 C 259.433411 338.077881 261.334869 337.904205 263.226685 337.614594 L 268.892609 336.832703 C 270.774872 336.552734 272.657013 336.205383 274.529633 335.896454 C 275.079773 335.809509 275.639557 335.722778 276.180145 335.62616 C 279.384644 335.05658 282.560303 334.322998 285.75528 333.666687 C 293.168182 331.909912 300.552216 329.950714 307.762451 327.450684 C 315.021027 325.114899 322.105774 322.267273 329.084503 319.188232 C 332.539978 317.566711 336.024445 316.031921 339.393097 314.217407 C 341.072601 313.329224 342.800385 312.499268 344.450897 311.563019 L 349.450836 308.763702 C 356.101288 305.018707 362.519989 300.848846 368.851959 296.563293 C 375.13562 292.354767 381.264801 287.953491 387.432648 283.580994 C 387.500183 283.52301 387.587128 283.465027 387.664307 283.416748 Z"/>
        <path id="path14" fill="#d1dced" stroke="none" opacity="0.64" style="mix-blend-mode:multiply" d="M 121.212341 359.177673 C 106.203011 355.374756 91.473579 350.818878 77.120598 345.510132 C 76.715164 337.933167 76.966133 330.38501 77.834862 322.962463 C 86.54126 336.494751 99.504303 347.295898 113.644905 355.220398 C 116.135216 356.61026 118.654449 357.923096 121.212341 359.177673 Z"/>
        <path id="path15" fill="#adc7ed" stroke="none" opacity="0.64" style="mix-blend-mode:multiply" d="M 432.393066 347.826782 C 428.860413 352.07373 423.879791 354.815063 418.89917 357.208801 C 395.472992 368.444 369.66272 373.723785 343.958618 377.440002 C 265.282654 388.829773 184.63768 386.4841 106.762802 370.548157 C 93.375053 367.807037 79.871483 364.602417 67.941246 357.952087 C 63.047516 355.220398 58.018642 351.214539 57.507103 345.626038 C 57.034149 340.278625 61.126717 335.355865 66.01078 333.135803 C 69.495255 331.552917 73.317589 331.041321 77.159187 330.857971 C 76.879295 335.713104 76.869629 340.596985 77.130264 345.510132 C 177.707275 382.719788 296.874634 382.739136 398.445984 348.309418 C 409.526794 343.656921 420.385651 335.722778 430.385437 326.263458 L 430.395081 326.263458 C 432.730865 327.711304 434.584167 329.690063 435.68454 332.392517 C 437.76947 337.517975 435.94516 343.579651 432.412384 347.826782 Z"/>
        <path id="path16" fill="#ffffff" stroke="none" opacity="0.64" d="M 45.35482 350.548584 C 45.316231 353.3479 46.561359 355.953979 48.289158 357.990479 C 50.036224 360.046539 52.333477 361.542694 54.775482 362.68161 C 57.227146 363.83017 59.82362 364.718323 62.45874 365.586975 C 65.084137 366.46524 67.680611 367.382141 70.32534 368.202698 C 80.846375 371.580994 91.454254 374.669678 102.187614 377.237366 C 104.870987 377.90332 107.54464 378.559601 110.24733 379.138855 C 112.930641 379.766144 115.642937 380.297058 118.345573 380.876282 C 121.038605 381.474609 123.760559 381.947571 126.472855 382.488159 L 134.629013 383.936005 C 145.526505 385.760193 156.501175 387.208038 167.533691 388.453217 C 156.423935 388.491882 145.314117 387.719635 134.271881 386.329773 C 123.229637 384.968872 112.274292 382.845154 101.454033 380.248749 C 96.048759 378.907196 90.682083 377.430359 85.353989 375.827942 C 80.045219 374.148438 74.73645 372.45929 69.543503 370.480743 C 66.927765 369.534851 64.34095 368.521301 61.763744 367.47876 C 59.196255 366.445923 56.58046 365.403625 54.090149 364.023193 C 51.628819 362.633301 49.263992 360.866852 47.623146 358.511719 C 45.97258 356.204956 44.978367 353.328552 45.35482 350.548584 Z"/>
        <path id="path17" fill="#ffffff" stroke="none" opacity="0.64" d="M 221.210281 391.32959 C 231.538208 391.619202 241.837265 391.860504 252.126541 391.870178 C 254.703751 391.841187 257.271301 391.821869 259.848389 391.831543 L 267.560577 391.706177 L 275.272888 391.512939 L 282.975403 391.204224 L 290.677917 390.837311 L 298.370789 390.354706 L 306.06366 389.804688 C 308.621521 389.573029 311.189087 389.360474 313.756622 389.16748 C 324.007385 388.260223 334.248444 387.121307 344.508881 385.934082 C 334.470428 388.38559 324.277557 390.210022 314.017151 391.570892 C 311.449707 391.89917 308.882172 392.217773 306.314606 392.507141 L 298.592773 393.279358 L 290.851593 393.858612 L 283.100891 394.292908 L 275.340393 394.53421 L 267.579895 394.630829 L 259.819519 394.53421 C 257.232666 394.466583 254.645782 394.370209 252.068695 394.27359 C 241.73111 393.810303 231.422394 392.893372 221.200623 391.32959 Z"/>
        <path id="path18" fill="#ffffff" stroke="none" opacity="0.64" d="M 397.625427 375.075256 C 403.272125 373.299133 408.851074 371.503723 414.343292 369.486511 C 417.084503 368.463318 419.816193 367.440125 422.499451 366.310883 C 425.202148 365.210388 427.885498 364.071472 430.520569 362.826294 C 433.184631 361.639099 435.800354 360.365143 438.396881 359.023346 C 441.022278 357.729858 443.541534 356.359314 445.819458 354.718445 C 448.06839 353.048615 450.066498 351.050537 451.263367 348.512085 C 452.489227 346.012054 452.981506 343.048706 452.05481 340.201355 C 453.637817 342.768768 453.637817 346.147095 452.672577 349.071747 C 452.170624 350.53894 451.437042 351.94812 450.510468 353.212646 C 449.593536 354.477142 448.483521 355.587067 447.325287 356.600586 C 444.999023 358.637329 442.344666 360.142944 439.767456 361.610107 C 437.171021 363.057922 434.497314 364.370758 431.804291 365.635254 C 426.389343 368.096649 420.800629 370.181458 415.076874 371.773987 C 409.362671 373.386108 403.523102 374.544312 397.615875 375.065582 Z"/>
        <path id="path19" fill="#ffffff" stroke="none" opacity="0.64" d="M 37.343414 333.966003 C 34.302914 336.85202 31.619604 340.133728 30.152433 343.88858 C 28.666 347.623901 28.752838 351.764771 30.220007 355.4617 C 31.609941 359.197021 34.216076 362.411316 37.439915 364.872681 C 40.673473 367.353394 44.476486 369.119629 48.443569 370.528809 C 44.273766 369.959473 40.132946 368.569611 36.513332 366.185272 C 34.698692 365.007721 33.057789 363.540558 31.629265 361.870728 C 30.23933 360.171906 29.110027 358.251099 28.299208 356.195282 C 27.536695 354.119873 27.092669 351.909729 27.140919 349.670288 C 27.208492 347.440552 27.739357 345.230164 28.694925 343.251404 C 30.596462 339.27475 33.801033 336.186066 37.36274 333.966003 Z"/>
        <path id="path20" fill="#ffffff" stroke="none" opacity="0.64" d="M 461.629944 336.031494 C 464.525635 338.319183 466.272644 341.977448 466.745728 345.712769 C 467.247528 349.467651 466.57193 353.376892 464.85379 356.803284 C 463.106781 360.191223 460.47171 363.048279 457.411896 365.171997 C 454.352081 367.314758 450.896576 368.80127 447.325287 369.553925 C 450.616638 367.980713 453.715088 366.146851 456.437012 363.888123 C 459.139679 361.629395 461.46582 358.946045 463.019806 355.857361 C 464.59314 352.816956 465.297882 349.313049 465.153076 345.848022 C 464.988922 342.382751 463.88855 338.907837 461.629944 336.02182 Z"/>
        <path id="path21" fill="#eef5ff" stroke="none" style="mix-blend-mode:screen" d="M 292.367065 170.195343 C 293.409485 167.71463 294.461548 165.233917 295.504089 162.772522 C 250.553207 198.814331 207.397781 237.095306 166.269302 277.461334 C 187.61055 247.365494 212.011612 219.827423 240.582413 196.246918 C 261.132233 179.297394 283.467682 163.950317 299.915131 142.994965 C 304.586945 147.039459 306.044312 153.805725 304.133179 159.683838 C 308.747009 156.971497 313.032715 156.45047 318.273834 155.349976 C 326.806458 153.545105 335.377716 151.846283 344.006927 150.63974 C 326.362488 155.929199 309.094482 162.47348 292.37674 170.204987 Z"/>
        <path id="path22" fill="#d1dced" stroke="none" opacity="0.58" style="mix-blend-mode:multiply" d="M 203.913315 150.301819 C 203.005936 147.300079 201.982849 144.317444 200.814957 141.402435 C 196.828552 131.431519 190.959869 121.981873 182.581726 115.263885 C 184.029572 113.632721 185.950378 112.426178 188.05452 111.82785 C 184.241898 108.980225 179.348236 107.648315 174.618576 108.140594 C 175.612793 107.117401 176.58757 106.09433 177.581787 105.061462 C 162.533875 102.600189 146.829544 104.520996 132.737198 110.302704 C 141.98407 104.588501 153.229034 102.320251 164.174713 102.223724 C 168.035629 102.194763 171.925552 102.416748 175.757477 101.866608 C 179.57988 101.306702 183.421478 99.897491 186.085526 97.088654 C 185.52562 100.341461 184.000595 103.41095 181.751648 105.814362 C 187.996658 106.605804 193.797714 110.505371 196.896057 115.997498 C 193.247467 115.997498 189.936783 117.011017 189.936783 117.011017 C 189.936783 117.011017 194.193481 123.381653 195.09108 124.983826 C 198.228088 130.591888 200.612183 136.595581 202.272461 142.792297 C 202.948074 145.27301 203.488541 147.792145 203.922974 150.321136 Z"/>
        <path id="path23" fill="#c77920" stroke="none" opacity="0.36" style="mix-blend-mode:multiply" d="M 151.742599 155.465912 C 151.732925 155.513977 151.713608 155.562286 151.694351 155.600922 C 144.802582 170.870941 132.930252 183.862915 118.278 192.019073 C 112.370789 195.310669 105.372864 197.887756 98.925133 195.47467 C 98.008148 195.136749 97.168404 194.557739 96.647202 193.737213 C 96.560303 193.602173 96.49279 193.466919 96.434875 193.331879 C 103.046684 192.250732 109.436508 189.789337 115.189308 186.362946 C 123.50959 181.382202 130.555771 174.413269 136.250656 166.556396 C 139.030457 162.714783 141.607666 158.216675 141.067139 153.50647 C 140.632782 149.838531 138.248627 146.537506 135.06337 144.655121 C 133.702423 143.854156 132.215927 143.29425 130.661926 142.975647 C 133.972656 142.927551 137.302719 143.207275 140.507294 144.04715 C 144.146225 145.01239 147.717545 146.836548 150.487808 149.433197 C 152.138306 150.967773 152.640259 153.390503 151.761856 155.465912 Z"/>
        <path id="path24" fill="#c77920" stroke="none" opacity="0.36" style="mix-blend-mode:multiply" d="M 151.742599 155.465912 C 151.732925 155.513977 151.713608 155.562286 151.694351 155.600922 C 144.802582 170.870941 132.930252 183.862915 118.278 192.019073 C 114.890091 193.920563 111.135323 195.561646 107.332314 196.169617 C 117.293503 190.146576 126.501785 182.897675 134.667664 174.606262 C 141.694504 167.473328 148.16156 159.037201 150.487808 149.452545 C 152.118988 150.987091 152.611267 153.400177 151.732925 155.465912 Z"/>
        <path id="path25" fill="#f79628" stroke="none" opacity="0.5" style="mix-blend-mode:screen" d="M 121.945923 143.883148 C 117.032875 151.913696 116.231712 161.923248 112.814819 170.793671 C 109.513748 179.365021 103.596878 186.912964 96.106674 192.221741 C 95.932938 190.465179 97.245636 188.824097 98.413589 187.414917 C 108.046577 176.025146 114.175766 161.701263 115.778084 146.86554 C 117.554077 145.408051 119.706581 144.452484 121.955528 143.883148 Z"/>
        <path id="path26" fill="#d1dced" stroke="none" opacity="0.58" style="mix-blend-mode:multiply" d="M 165.96048 177.193268 C 165.458542 179.693054 164.811798 182.193085 163.624588 184.442139 C 163.277115 185.127441 162.862015 185.774048 162.398727 186.391937 C 165.728714 176.285767 166.77124 165.446228 164.898636 155.002625 C 162.833023 155.62027 160.690247 155.977509 158.537796 156.054565 C 156.269531 156.160828 153.972275 155.948517 151.742599 155.456238 C 151.906662 155.05069 152.03215 154.635712 152.090057 154.230377 C 157.051361 155.378937 162.389053 154.790039 166.964249 152.550903 C 167.948792 160.755341 167.610992 169.104492 165.96048 177.193268 Z"/>
        <path id="path27" fill="#eef5ff" stroke="none" style="mix-blend-mode:screen" d="M 252.502991 219.962463 C 249.684601 224.016632 247.425873 229.084076 248.873718 233.803955 C 250.582199 239.383026 256.827209 242.327026 262.637909 242.934998 C 269.742004 243.678253 277.07785 241.883057 283.02359 237.935181 C 290.108459 233.234375 295.233795 224.991516 294.509857 216.516754 C 293.805267 208.19635 285.871094 199.499603 277.193665 201.459045 C 267.551025 203.630829 257.975891 212.086273 252.493332 219.962463 Z"/>
        <path id="path28" fill="#eef5ff" stroke="none" style="mix-blend-mode:screen" d="M 278.67038 248.40802 C 276.517944 249.884613 274.326843 251.419418 272.869354 253.591187 C 271.411957 255.753296 270.842377 258.716614 272.126221 260.984772 C 273.149292 262.79953 275.118408 263.851715 277.039215 264.633362 C 280.948334 266.226135 285.224335 267.133423 289.403748 266.58316 C 293.592926 266.032898 297.666199 263.880463 299.982758 260.357483 C 302.299347 256.824799 302.550201 251.882706 300.108246 248.436768 C 295.677765 242.21109 283.863342 244.846146 278.67038 248.398361 Z"/>
    </g>
</svg>
