<?xml version="1.0" encoding="UTF-8"?>
<!-- Generated by Pixelmator Pro 3.6.14 -->
<svg width="500" height="500" viewBox="0 0 500 500" xmlns="http://www.w3.org/2000/svg">
    <g id="Group-copy">
        <path id="Path" fill="#f9c766" stroke="none" d="M 361.050049 322.580078 C 358.040039 323.610107 354.98999 324.48999 351.949951 325.300049 C 350.52002 325.679932 349.079956 326.040039 347.650024 326.389893 C 346.969971 326.550049 346.290039 326.709961 345.589966 326.879883 C 344.469971 327.149902 343.349976 327.389893 342.209961 327.629883 C 334.650024 329.25 327.02002 330.429932 319.349976 331.199951 C 318.160034 331.320068 316.97998 331.419922 315.790039 331.52002 C 314.339966 331.649902 312.890015 331.75 311.439941 331.840088 C 303.469971 332.360107 295.469971 332.449951 287.47998 332.129883 C 286.300049 332.100098 285.130005 332.040039 283.949951 331.969971 C 276.030029 331.550049 268.119995 330.72998 260.25 329.550049 C 259.079956 329.379883 257.910034 329.199951 256.76001 328.98999 C 249.550049 327.820068 242.380005 326.340088 235.25 324.560059 C 234.130005 324.290039 233.01001 324 231.890015 323.699951 C 229.130005 322.98999 226.369995 322.22998 223.630005 321.419922 C 220.699951 315.5 218.219971 309.370117 216.280029 303.040039 C 216.099976 302.439941 215.910034 301.840088 215.73999 301.23999 C 216.449951 301.439941 217.150024 301.620117 217.859985 301.810059 C 219.349976 302.199951 220.839966 302.580078 222.349976 302.949951 C 223.849976 303.330078 225.359985 303.699951 226.869995 304.060059 C 228 304.340088 229.119995 304.600098 230.27002 304.860107 C 231.25 305.090088 232.23999 305.310059 233.219971 305.530029 C 234.359985 305.780029 235.51001 306.040039 236.650024 306.280029 C 237.689941 306.51001 238.73999 306.72998 239.790039 306.949951 C 240.98999 307.199951 242.209961 307.449951 243.430054 307.689941 C 244.369995 307.889893 245.310059 308.070068 246.27002 308.25 C 246.619995 308.320068 246.959961 308.389893 247.319946 308.449951 C 248.199951 308.620117 249.079956 308.790039 249.959961 308.949951 C 250.040039 308.969971 250.130005 308.97998 250.22998 309 C 250.329956 309.02002 250.439941 309.050049 250.540039 309.060059 C 250.640015 309.070068 250.75 309.090088 250.849976 309.110107 L 250.849976 309.110107 C 252.380005 309.399902 253.930054 309.669922 255.469971 309.919922 C 256.180054 310.050049 256.880005 310.159912 257.589966 310.280029 C 257.930054 310.330078 258.25 310.379883 258.579956 310.429932 C 259.380005 310.570068 260.189941 310.699951 261 310.810059 C 261.349976 310.879883 261.709961 310.929932 262.060059 310.97998 C 262.459961 311.050049 262.859985 311.110107 263.26001 311.159912 C 265.26001 311.459961 267.280029 311.75 269.310059 312.02002 C 271.329956 312.300049 273.369995 312.550049 275.430054 312.790039 C 278.380005 313.149902 281.349976 313.47998 284.359985 313.77002 C 285.469971 313.889893 286.579956 313.98999 287.699951 314.090088 C 288.780029 314.179932 289.859985 314.280029 290.949951 314.370117 C 292.400024 314.5 293.849976 314.610107 295.310059 314.719971 C 300.72998 315.179932 306.27002 315.409912 311.869995 315.409912 L 313.079956 315.409912 C 313.73999 315.409912 314.400024 315.409912 315.060059 315.389893 C 315.449951 315.389893 315.859985 315.389893 316.25 315.379883 C 316.5 315.379883 316.76001 315.379883 317 315.370117 C 317.5 315.360107 318.01001 315.350098 318.5 315.340088 C 319.150024 315.320068 319.780029 315.310059 320.420044 315.280029 C 326.660034 315.060059 332.900024 314.560059 338.98999 313.800049 C 339.790039 313.699951 340.589966 313.590088 341.369995 313.48999 C 341.640015 313.459961 341.890015 313.419922 342.160034 313.370117 C 344.97998 312.97998 347.77002 312.530029 350.51001 312.01001 C 351.5 313.120117 352.51001 314.209961 353.540039 315.280029 C 355.949951 317.810059 358.449951 320.25 361.040039 322.590088 Z"/>
        <path id="path1" fill="#f9c766" stroke="none" d="M 174.459961 285.580078 C 174.280029 286.01001 174.089966 286.449951 173.900024 286.879883 C 172.180054 291.030029 170.939941 295.370117 170.170044 299.800049 C 164.339966 296.550049 158.819946 292.850098 153.949951 288.449951 C 153.140015 287.72998 152.349976 286.97998 151.579956 286.209961 C 149.160034 283.790039 146.930054 281.169922 144.969971 278.310059 C 143.410034 276.060059 141.209961 272.810059 139.76001 268 C 140.959961 268.129883 142.199951 268.25 143.469971 268.350098 C 144.97998 268.48999 146.550049 268.580078 148.140015 268.659912 L 148.150024 268.659912 C 148.150024 268.659912 148.160034 268.669922 148.160034 268.669922 C 149.140015 269.47998 150.160034 270.300049 151.199951 271.100098 C 152.949951 272.439941 154.76001 273.77002 156.650024 275.080078 C 157.52002 275.679932 158.410034 276.280029 159.310059 276.870117 C 163.97998 279.929932 169.060059 282.850098 174.469971 285.600098 Z"/>
        <path id="path2" fill="#f9ad66" stroke="none" opacity="0.48" style="mix-blend-mode:multiply" d="M 159.300049 276.860107 C 158.650024 279.22998 157.75 281.52002 156.650024 283.72998 C 155.849976 285.340088 154.969971 286.929932 153.939941 288.449951 C 153.130005 287.72998 152.339966 286.97998 151.569946 286.209961 C 152.26001 285.149902 152.910034 284.060059 153.48999 282.909912 C 154.76001 280.389893 155.77002 277.75 156.640015 275.070068 C 157.51001 275.669922 158.400024 276.27002 159.300049 276.860107 Z"/>
        <path id="path3" fill="#f9ad66" stroke="none" opacity="0.48" style="mix-blend-mode:multiply" d="M 236.709961 316.850098 C 236.430054 319.449951 235.959961 322.050049 235.25 324.570068 C 234.130005 324.300049 233.01001 324.01001 231.890015 323.709961 C 232.560059 321.389893 233.030029 319 233.310059 316.600098 C 233.73999 312.850098 233.650024 309.189941 233.209961 305.530029 C 234.349976 305.780029 235.5 306.040039 236.640015 306.280029 C 237.089966 309.810059 237.069946 313.389893 236.709961 316.840088 Z"/>
        <path id="path4" fill="#f9ad66" stroke="none" opacity="0.48" style="mix-blend-mode:multiply" d="M 261.319946 321.540039 C 261.150024 324.22998 260.790039 326.899902 260.26001 329.550049 C 259.089966 329.379883 257.920044 329.199951 256.77002 328.98999 C 257.290039 326.449951 257.650024 323.870117 257.829956 321.280029 C 258.099976 317.590088 258 313.909912 257.599976 310.26001 C 257.939941 310.310059 258.26001 310.360107 258.589966 310.409912 C 259.390015 310.550049 260.199951 310.679932 261.01001 310.790039 C 261.459961 314.350098 261.540039 317.959961 261.319946 321.530029 Z"/>
        <path id="path5" fill="#f9ad66" stroke="none" opacity="0.48" style="mix-blend-mode:multiply" d="M 288.48999 323.659912 C 288.420044 326.52002 288.069946 329.350098 287.47998 332.139893 C 286.300049 332.110107 285.130005 332.050049 283.949951 331.97998 C 284.589966 329.169922 284.939941 326.300049 285.040039 323.419922 C 285.140015 320.189941 284.910034 316.959961 284.359985 313.780029 C 285.469971 313.899902 286.579956 314 287.699951 314.100098 C 288.300049 317.23999 288.569946 320.449951 288.48999 323.659912 Z"/>
        <path id="path6" fill="#f9ad66" stroke="none" opacity="0.48" style="mix-blend-mode:multiply" d="M 319.540039 325.22998 C 319.589966 327.219971 319.52002 329.209961 319.349976 331.199951 C 318.160034 331.320068 316.97998 331.419922 315.790039 331.52002 C 315.97998 329.429932 316.060059 327.330078 316.02002 325.22998 C 315.969971 321.899902 315.650024 318.629883 315.060059 315.389893 C 315.449951 315.389893 315.859985 315.389893 316.25 315.379883 C 316.5 315.379883 316.76001 315.379883 317 315.370117 C 317.5 315.360107 318.01001 315.350098 318.5 315.340088 C 319.109985 318.610107 319.449951 321.939941 319.530029 325.23999 Z"/>
        <path id="path7" fill="#f9ad66" stroke="none" opacity="0.48" style="mix-blend-mode:multiply" d="M 345.589966 326.870117 C 344.469971 327.139893 343.349976 327.379883 342.209961 327.620117 C 342.069946 325.419922 341.75 323.23999 341.27002 321.090088 C 340.709961 318.570068 339.949951 316.139893 338.98999 313.790039 C 339.790039 313.689941 340.589966 313.580078 341.369995 313.47998 C 341.640015 313.449951 341.890015 313.409912 342.160034 313.360107 C 343.170044 315.719971 343.97998 318.169922 344.560059 320.639893 C 345.050049 322.689941 345.380005 324.77002 345.579956 326.860107 Z"/>
        <path id="path8" fill="#45a184" stroke="none" d="M 120.650024 351.72998 C 120.780029 355.679932 120.77002 360.409912 117.459961 362.590088 C 117.040039 362.870117 116.589966 363.080078 116.130005 363.22998 C 114.430054 363.800049 112.47998 363.610107 110.810059 362.919922 C 108.670044 362.040039 106.900024 360.469971 105.27002 358.840088 C 103.199951 356.77002 101.280029 354.540039 99.550049 352.189941 C 89.790039 339.080078 85.26001 322.100098 87.23999 305.860107 C 88.650024 294.27002 93.319946 283.189941 100.359985 273.870117 C 101.48999 272.370117 102.680054 270.909912 103.939941 269.5 C 106.630005 266.459961 109.619995 263.659912 112.819946 261.159912 C 120.420044 264.459961 129.099976 266.810059 139.75 267.98999 C 141.209961 272.800049 143.400024 276.050049 144.959961 278.300049 C 128.609985 298.929932 119.719971 325.409912 120.640015 351.72998 Z"/>
        <path id="path9" fill="#7bc980" stroke="none" d="M 148.140015 268.649902 C 145.209961 268.51001 142.420044 268.280029 139.76001 267.98999 C 135.349976 267.5 131.280029 266.810059 127.48999 265.929932 C 122.109985 264.689941 117.280029 263.090088 112.829956 261.149902 C 105.420044 257.939941 99.02002 253.820068 92.819946 249 C 78.26001 237.719971 67.079956 222.120117 61.060059 204.719971 C 58.969971 198.659912 57.440002 192.330078 54.22998 186.790039 C 49.299988 178.310059 40.340027 175.98999 32.179993 171.679932 C 25.059998 167.909912 17.98999 162.810059 15.23999 155.23999 C 14.710022 153.77002 14.359985 152.26001 14.190002 150.719971 C 14.109985 150.120117 14.070007 149.51001 14.059998 148.889893 C 14.01001 147.600098 14.080017 146.290039 14.26001 144.98999 L 14.26001 144.98999 C 14.700012 141.75 15.77002 138.580078 17.340027 135.72998 C 25.429993 120.929932 45.530029 111.459961 61.880005 110.939941 C 65.890015 110.810059 69.709961 111.209961 73.319946 112.060059 L 73.339966 112.060059 C 82.709961 114.280029 90.670044 119.560059 96.959961 126.73999 C 100.819946 131.149902 104.040039 136.27002 106.560059 141.840088 C 108.560059 146.280029 110.180054 150.860107 111.609985 155.51001 C 113.920044 162.97998 115.77002 170.620117 118.030029 178.110107 C 120.829956 187.439941 124.52002 196.879883 130.119995 204.840088 C 131.75 207.189941 133.579956 209.419922 135.589966 211.469971 C 133.859985 212.5 132.25 213.699951 130.869995 215.179932 C 129.310059 216.860107 128.180054 218.780029 127.390015 220.850098 C 124.890015 227.360107 125.859985 235.370117 128.150024 242.22998 C 130.709961 249.879883 136.060059 257.449951 143.599976 264.580078 C 145.030029 265.959961 146.560059 267.310059 148.160034 268.649902 Z"/>
        <linearGradient id="linearGradient1" x1="276.35" y1="194.72" x2="264.45" y2="285.23" gradientUnits="userSpaceOnUse">
            <stop offset="1e-05" stop-color="#fa5588" stop-opacity="1"/>
            <stop offset="1" stop-color="#fe7771" stop-opacity="1"/>
        </linearGradient>
        <path id="path10" fill="url(#linearGradient1)" stroke="none" d="M 330.27002 198.959961 L 302.369995 214.77002 L 247.410034 206.469971 L 245.359985 204.300049 L 223.650024 181.179932 C 238.23999 178.350098 253.02002 177.050049 267.959961 178.139893 C 275.390015 178.639893 282.76001 179.780029 290.060059 181.389893 C 294.869995 182.73999 299.579956 184.330078 304.189941 186.129883 C 313.22998 189.669922 321.900024 194.030029 330.27002 198.97998 Z"/>
        <linearGradient id="linearGradient2" x1="209.19" y1="185.89" x2="197.3" y2="276.41" gradientUnits="userSpaceOnUse">
            <stop offset="1e-05" stop-color="#fa5588" stop-opacity="1"/>
            <stop offset="1" stop-color="#fe7771" stop-opacity="1"/>
        </linearGradient>
        <path id="path11" fill="url(#linearGradient2)" stroke="none" d="M 245.359985 207.669922 L 227.660034 233.639893 L 182.709961 232.679932 L 180.890015 228.189941 L 168.599976 197.790039 C 185.839966 191.199951 203.390015 185.310059 221.199951 181.659912 C 221.22998 181.860107 221.319946 182.050049 221.469971 182.219971 L 221.97998 182.76001 L 245.369995 207.669922 Z"/>
        <linearGradient id="linearGradient3" x1="160" y1="179.43" x2="148.11" y2="269.95" gradientUnits="userSpaceOnUse">
            <stop offset="1e-05" stop-color="#fa5588" stop-opacity="1"/>
            <stop offset="1" stop-color="#fe7771" stop-opacity="1"/>
        </linearGradient>
        <path id="path12" fill="url(#linearGradient3)" stroke="none" d="M 180.650024 233.72998 L 166.859985 258.659912 L 138.280029 257.889893 C 138.050049 257.870117 137.849976 257.919922 137.680054 258.02002 C 137.609985 258.070068 137.550049 258.110107 137.48999 258.159912 C 137.459961 258.129883 137.430054 258.090088 137.400024 258.060059 C 135.150024 255.370117 133.199951 252.629883 131.619995 249.860107 C 130.160034 247.350098 128.97998 244.800049 128.140015 242.23999 C 125.119995 233.209961 124.390015 222.179932 130.859985 215.199951 C 132.23999 213.719971 133.839966 212.52002 135.579956 211.48999 C 137.969971 210.080078 140.599976 208.98999 143.180054 207.939941 C 150.069946 205.129883 157 202.310059 163.98999 199.590088 C 164.810059 199.27002 165.640015 198.949951 166.459961 198.629883 L 166.459961 198.649902 L 180.660034 233.73999 Z"/>
        <linearGradient id="linearGradient4" x1="219.13" y1="187.2" x2="207.24" y2="277.72" gradientUnits="userSpaceOnUse">
            <stop offset="1e-05" stop-color="#fa5588" stop-opacity="1"/>
            <stop offset="1" stop-color="#fe7771" stop-opacity="1"/>
        </linearGradient>
        <path id="path13" fill="url(#linearGradient4)" stroke="none" d="M 249.180054 268.659912 L 234.72998 291.02002 L 214.910034 295.810059 L 207.119995 297.689941 C 206.719971 297.790039 206.439941 298.080078 206.319946 298.449951 C 205.069946 298.060059 203.829956 297.649902 202.609985 297.25 L 202.599976 297.25 C 195.939941 295.02002 189.550049 292.570068 183.51001 289.879883 C 183.650024 289.570068 183.670044 289.209961 183.51001 288.899902 L 181.040039 284 L 168.839966 259.850098 L 182.609985 234.97998 L 217.469971 235.72998 L 227.630005 235.949951 L 249.180054 268.659912 Z"/>
        <linearGradient id="linearGradient5" x1="173.54" y1="181.21" x2="161.64" y2="271.73" gradientUnits="userSpaceOnUse">
            <stop offset="1e-05" stop-color="#fa5588" stop-opacity="1"/>
            <stop offset="1" stop-color="#fe7771" stop-opacity="1"/>
        </linearGradient>
        <path id="path14" fill="url(#linearGradient5)" stroke="none" d="M 183.130005 289.709961 C 180.150024 288.379883 177.26001 287 174.459961 285.580078 C 165.72998 281.149902 157.890015 276.27002 151.199951 271.080078 C 150.160034 270.280029 149.140015 269.459961 148.160034 268.649902 L 148.140015 268.649902 C 146.719971 267.449951 145.349976 266.23999 144.060059 265.030029 C 142.359985 263.449951 140.780029 261.830078 139.310059 260.209961 L 166.810059 260.949951 L 177.73999 282.570068 L 180.790039 288.620117 C 181.560059 288.98999 182.359985 289.350098 183.150024 289.709961 Z"/>
        <linearGradient id="linearGradient6" x1="276.8" y1="194.77" x2="264.91" y2="285.29" gradientUnits="userSpaceOnUse">
            <stop offset="1e-05" stop-color="#fa5588" stop-opacity="1"/>
            <stop offset="1" stop-color="#fe7771" stop-opacity="1"/>
        </linearGradient>
        <path id="path15" fill="url(#linearGradient6)" stroke="none" d="M 290.22998 299.330078 L 282.48999 306.159912 L 275.810059 312.070068 C 275.589966 312.25 275.469971 312.52002 275.439941 312.790039 C 273.390015 312.550049 271.349976 312.280029 269.319946 312.02002 C 267.300049 311.75 265.27002 311.459961 263.27002 311.159912 C 262.869995 311.100098 262.469971 311.040039 262.069946 310.97998 C 260.900024 310.810059 259.75 310.620117 258.589966 310.419922 C 257.550049 310.26001 256.51001 310.100098 255.47998 309.909912 C 254.650024 309.77002 253.819946 309.629883 252.97998 309.47998 C 252.26001 309.360107 251.560059 309.23999 250.849976 309.110107 L 250.849976 309.110107 C 250.849976 309.110107 245.52002 302.570068 245.52002 302.570068 L 243.25 299.800049 L 236.859985 291.959961 L 251.140015 269.879883 L 287.339966 273.76001 L 289.439941 292.439941 L 290.209961 299.330078 Z"/>
        <linearGradient id="linearGradient7" x1="243.37" y1="190.38" x2="231.48" y2="280.9" gradientUnits="userSpaceOnUse">
            <stop offset="1e-05" stop-color="#fa5588" stop-opacity="1"/>
            <stop offset="1" stop-color="#fe7771" stop-opacity="1"/>
        </linearGradient>
        <path id="path16" fill="url(#linearGradient7)" stroke="none" d="M 247.329956 308.459961 C 246.969971 308.399902 246.619995 308.330078 246.280029 308.26001 C 245.319946 308.090088 244.369995 307.899902 243.439941 307.699951 C 242.22998 307.469971 241.01001 307.209961 239.800049 306.959961 C 236.589966 306.300049 233.420044 305.600098 230.27002 304.870117 C 229.130005 304.620117 228 304.350098 226.869995 304.070068 C 225.359985 303.709961 223.849976 303.340088 222.349976 302.959961 C 220.849976 302.590088 219.359985 302.209961 217.859985 301.820068 C 217.150024 301.629883 216.449951 301.449951 215.73999 301.25 L 215.72998 301.25 C 213.660034 300.679932 211.599976 300.090088 209.569946 299.47998 L 210.77002 299.189941 L 219.569946 297.060059 L 235.01001 293.330078 L 240.359985 299.899902 L 242.060059 301.97998 L 247.329956 308.449951 Z"/>
        <linearGradient id="linearGradient8" x1="392.85" y1="210.02" x2="380.96" y2="300.54" gradientUnits="userSpaceOnUse">
            <stop offset="1e-05" stop-color="#fa5588" stop-opacity="1"/>
            <stop offset="1" stop-color="#fe7771" stop-opacity="1"/>
        </linearGradient>
        <path id="path17" fill="url(#linearGradient8)" stroke="none" d="M 403.800049 283.22998 C 402.640015 285.290039 401.310059 287.22998 399.900024 289.02002 C 397.219971 292.419922 393.609985 295.51001 389.26001 298.27002 C 381.290039 303.350098 370.839966 307.320068 359.119995 310.159912 L 368.130005 294.26001 L 375.579956 281.100098 L 390.369995 282.209961 L 390.380005 282.209961 L 403.800049 283.22998 Z"/>
        <linearGradient id="linearGradient9" x1="389.01" y1="209.52" x2="377.12" y2="300.04" gradientUnits="userSpaceOnUse">
            <stop offset="1e-05" stop-color="#fa5588" stop-opacity="1"/>
            <stop offset="1" stop-color="#fe7771" stop-opacity="1"/>
        </linearGradient>
        <path id="path18" fill="url(#linearGradient9)" stroke="none" d="M 406.839966 276.209961 C 406.839966 276.209961 406.839966 276.219971 406.829956 276.22998 C 406.339966 277.870117 405.699951 279.5 404.920044 281.090088 C 404.790039 281.02002 404.640015 280.969971 404.48999 280.959961 L 393.079956 280.100098 L 375.52002 278.77002 L 356.189941 254.429932 L 367.76001 225.820068 C 376.819946 233.280029 385.640015 241.090088 394.319946 248.889893 C 395.339966 249.800049 396.369995 250.72998 397.380005 251.639893 C 400.949951 254.850098 404.630005 258.219971 406.5 262.639893 C 406.810059 263.379883 407.069946 264.129883 407.26001 264.879883 C 408.25 268.580078 407.949951 272.439941 406.829956 276.199951 Z"/>
        <linearGradient id="linearGradient10" x1="337.31" y1="202.73" x2="325.42" y2="293.24" gradientUnits="userSpaceOnUse">
            <stop offset="1e-05" stop-color="#fa5588" stop-opacity="1"/>
            <stop offset="1" stop-color="#fe7771" stop-opacity="1"/>
        </linearGradient>
        <path id="path19" fill="url(#linearGradient10)" stroke="none" d="M 365.939941 224.340088 C 365.880005 224.429932 365.810059 224.51001 365.77002 224.620117 C 365.77002 224.629883 365.76001 224.639893 365.76001 224.639893 L 361.51001 235.159912 L 354.180054 253.26001 L 350.920044 252.449951 L 315.099976 243.48999 L 304.060059 216.47998 L 331.97998 200.649902 C 332.160034 200.550049 332.280029 200.409912 332.380005 200.25 C 341.119995 205.560059 349.560059 211.5 357.76001 217.840088 C 360.48999 219.939941 363.189941 222.110107 365.880005 224.290039 C 365.900024 224.310059 365.930054 224.320068 365.949951 224.350098 Z"/>
        <linearGradient id="linearGradient11" x1="312.65" y1="199.49" x2="300.76" y2="290" gradientUnits="userSpaceOnUse">
            <stop offset="1e-05" stop-color="#fa5588" stop-opacity="1"/>
            <stop offset="1" stop-color="#fe7771" stop-opacity="1"/>
        </linearGradient>
        <path id="path20" fill="url(#linearGradient11)" stroke="none" d="M 317 315.370117 C 315.290039 315.419922 313.579956 315.429932 311.869995 315.419922 C 306.27002 315.419922 300.73999 315.189941 295.310059 314.72998 C 289.469971 314.300049 283.76001 313.73999 278.140015 313.100098 L 285.880005 306.27002 L 291.589966 301.219971 L 300.459961 306.159912 L 317.01001 315.389893 Z"/>
        <linearGradient id="linearGradient12" x1="341.2" y1="203.24" x2="329.31" y2="293.75" gradientUnits="userSpaceOnUse">
            <stop offset="1e-05" stop-color="#fa5588" stop-opacity="1"/>
            <stop offset="1" stop-color="#fe7771" stop-opacity="1"/>
        </linearGradient>
        <path id="path21" fill="url(#linearGradient12)" stroke="none" d="M 373.540039 280 L 364.75 295.51001 L 356.579956 309.949951 C 356.430054 310.219971 356.410034 310.51001 356.47998 310.780029 C 354.530029 311.219971 352.540039 311.620117 350.51001 312.01001 C 347.52002 312.580078 344.459961 313.060059 341.380005 313.48999 C 334.540039 314.429932 327.47998 315.030029 320.430054 315.280029 C 320.420044 314.889893 320.219971 314.52002 319.859985 314.310059 L 304.890015 305.969971 L 292.52002 299.080078 L 291.699951 291.76001 L 289.609985 273.100098 L 314.630005 245.76001 L 349.349976 254.439941 L 354.209961 255.649902 L 373.550049 280 Z"/>
        <path id="path22" fill="#7bc980" stroke="none" d="M 485.319946 307.389893 C 483.719971 313.120117 481.099976 318.48999 477.689941 323.320068 C 472.390015 330.860107 465.199951 337.139893 457.040039 341.570068 C 454.01001 343.25 450.839966 344.649902 447.579956 345.76001 C 429.939941 351.830078 410.140015 350.110107 392.880005 343.040039 C 384.670044 339.679932 377 335.189941 369.920044 329.870117 C 366.859985 327.590088 363.910034 325.149902 361.050049 322.590088 C 358.849976 320.610107 356.72998 318.570068 354.680054 316.449951 C 353.26001 314.98999 351.869995 313.51001 350.52002 312.01001 C 363.869995 309.51001 376.060059 305.649902 385.52002 300.47998 C 386.829956 299.76001 388.079956 299.030029 389.280029 298.27002 C 391.030029 298.830078 392.810059 299.360107 394.599976 299.830078 C 396.579956 300.360107 398.589966 300.840088 400.640015 301.25 C 424.689941 306.209961 452.369995 303.919922 475.030029 297.850098 C 478.089966 297.030029 481.73999 296.219971 484.130005 298.300049 C 486.569946 300.419922 486.199951 304.280029 485.329956 307.389893 Z"/>
        <path id="path23" fill="#45a184" stroke="none" d="M 400.51001 377.469971 C 400.199951 382.399902 394.800049 385.22998 390.02002 386.5 C 388.390015 386.939941 386.73999 387.300049 385.079956 387.590088 C 374.180054 389.530029 362.780029 388.399902 352.349976 384.639893 C 342.920044 381.23999 334.27002 375.689941 327.47998 368.300049 C 320.790039 361 316.02002 352.050049 313.430054 342.5 C 313.160034 341.550049 312.930054 340.590088 312.709961 339.629883 C 312.130005 337.060059 311.699951 334.449951 311.439941 331.840088 C 323.619995 331.050049 335.709961 329.27002 347.640015 326.379883 C 357.459961 343.340088 372.209961 357.47998 389.819946 366.120117 C 394.790039 368.560059 400.859985 371.939941 400.5 377.459961 Z"/>
        <path id="path24" fill="#7bc980" stroke="none" d="M 269.030029 384.98999 C 267.829956 387.889893 264.02002 388.48999 260.880005 388.530029 C 252.209961 388.630127 243.47998 387.73999 235.030029 385.810059 C 228.079956 384.209961 221.319946 381.899902 214.900024 378.850098 C 212.75 377.820068 210.619995 376.709961 208.550049 375.51001 C 192.800049 366.399902 179.849976 352.139893 173.47998 335.100098 C 169.290039 323.909912 168.099976 311.540039 170.170044 299.800049 C 170.180054 299.709961 170.199951 299.610107 170.22998 299.52002 C 170.689941 296.879883 171.329956 294.280029 172.150024 291.73999 C 172.800049 289.649902 173.569946 287.600098 174.459961 285.590088 C 177.26001 287.01001 180.150024 288.389893 183.130005 289.719971 C 183.26001 289.780029 183.369995 289.840088 183.5 289.889893 C 185.290039 290.689941 187.109985 291.459961 188.959961 292.209961 C 189.890015 292.590088 190.819946 292.969971 191.76001 293.330078 C 195.099976 294.649902 198.52002 295.909912 202.030029 297.090088 C 204.5 297.919922 207.02002 298.719971 209.569946 299.47998 C 211.599976 300.090088 213.660034 300.679932 215.72998 301.25 L 215.73999 301.25 C 216.550049 304.060059 217.469971 306.820068 218.48999 309.550049 C 219.98999 313.600098 221.719971 317.560059 223.640015 321.439941 C 233.719971 341.959961 248.97998 360.120117 265.329956 376.340088 C 267.699951 378.699951 270.310059 381.909912 269.030029 384.98999 Z"/>
        <path id="path25" fill="#f9c766" stroke="none" d="M 406.829956 276.22998 C 406.030029 280.310059 404.530029 284.310059 402.550049 288.100098 C 400.349976 292.370117 397.569946 296.360107 394.579956 299.820068 C 393.099976 299.429932 391.619995 299 390.170044 298.540039 C 389.859985 298.459961 389.560059 298.360107 389.26001 298.26001 C 393.609985 295.5 397.209961 292.409912 399.900024 289.01001 C 402.869995 285.26001 405.449951 280.810059 406.829956 276.219971 Z"/>
        <path id="path26" fill="#1a3d32" stroke="none" d="M 46.330017 142.300049 C 46.549988 144.22998 47.26001 146.340088 49 147.209961 C 50.099976 147.76001 51.650024 147.850098 52.809998 147.429932 C 53.969971 147.01001 54.880005 146.409912 55.809998 145.600098 C 57.590027 144.060059 58.630005 142.73999 59.650024 140.610107 C 60.670044 138.47998 61.060059 136 60.420044 133.72998 C 59.780029 131.459961 58.01001 129.459961 55.73999 128.840088 C 48.25 126.800049 45.75 137.01001 46.340027 142.300049 Z"/>
        <path id="path27" fill="#ffffff" stroke="none" d="M 55.130005 137.51001 C 54.669983 139.949951 52.900024 141.669922 51.169983 141.350098 C 49.440002 141.030029 48.409973 138.780029 48.859985 136.340088 C 49.320007 133.899902 51.090027 132.179932 52.820007 132.5 C 54.549988 132.820068 55.580017 135.070068 55.130005 137.51001 Z"/>
        <path id="path28" fill="#1a3d32" stroke="none" d="M 53.030029 158.969971 C 52.859985 160.570068 50.880005 161.439941 49.530029 161.98999 C 47.909973 162.659912 46.169983 162.969971 44.419983 163.040039 C 40.890015 163.169922 37.419983 162.139893 34.299988 160.550049 C 30.789978 158.76001 27.609985 155.719971 24.219971 153.709961 C 22.51001 152.689941 20.690002 151.810059 18.799988 151.189941 C 17.27002 150.679932 15.73999 150.699951 14.179993 150.699951 C 14.099976 150.100098 14.059998 149.48999 14.049988 148.870117 C 16.950012 148.570068 20.059998 149.459961 22.640015 150.540039 C 26.090027 151.969971 29.159973 154.100098 32.320007 156.040039 C 35.400024 157.939941 38.530029 160.320068 42.169983 160.719971 C 43.679993 160.889893 45.419983 160.469971 46.890015 160.030029 C 48.380005 159.570068 49.469971 158.100098 50.969971 157.810059 C 51.640015 157.669922 53.159973 157.969971 53.039978 158.969971 Z"/>
        <linearGradient id="linearGradient13" x1="277.14" y1="194.82" x2="265.25" y2="285.34" gradientUnits="userSpaceOnUse">
            <stop offset="1e-05" stop-color="#fa5588" stop-opacity="1"/>
            <stop offset="1" stop-color="#fe7771" stop-opacity="1"/>
        </linearGradient>
        <path id="path29" fill="url(#linearGradient13)" stroke="none" d="M 312.890015 244.22998 L 287.939941 271.5 L 251.22998 267.560059 L 249.01001 264.189941 L 229.650024 234.810059 L 247.390015 208.800049 L 295.97998 216.129883 L 301.76001 217.01001 L 312.890015 244.22998 Z"/>
        <path id="path30" fill="#8f304e" stroke="none" d="M 404.5 280.959961 L 393.089966 280.100098 L 375.530029 278.77002 L 356.199951 254.429932 L 367.77002 225.820068 C 367.400024 225.51001 367.030029 225.199951 366.650024 224.889893 C 366.420044 224.689941 366.180054 224.51001 365.939941 224.320068 C 365.880005 224.409912 365.810059 224.48999 365.77002 224.600098 C 365.77002 224.610107 365.76001 224.620117 365.76001 224.620117 L 361.51001 235.139893 L 354.180054 253.23999 L 350.920044 252.429932 L 315.099976 243.469971 L 304.060059 216.459961 L 331.97998 200.629883 C 332.160034 200.530029 332.280029 200.389893 332.380005 200.22998 L 332.380005 200.22998 C 331.709961 199.810059 331.060059 199.409912 330.390015 199.02002 C 330.359985 199 330.310059 198.969971 330.27002 198.949951 L 302.369995 214.76001 L 247.410034 206.459961 L 223.650024 181.159912 C 222.829956 181.320068 222.01001 181.47998 221.199951 181.659912 C 221.22998 181.860107 221.319946 182.050049 221.469971 182.219971 L 245.369995 207.669922 L 227.670044 233.639893 L 182.719971 232.679932 L 168.609985 197.800049 C 167.890015 198.070068 167.180054 198.340088 166.459961 198.620117 L 166.459961 198.639893 L 180.660034 233.72998 L 166.869995 258.659912 L 138.290039 257.889893 C 138.060059 257.870117 137.859985 257.919922 137.689941 258.02002 C 137.619995 258.070068 137.560059 258.110107 137.5 258.159912 C 137.72998 258.429932 137.949951 258.689941 138.180054 258.959961 C 138.550049 259.389893 138.930054 259.820068 139.310059 260.22998 L 166.810059 260.969971 L 177.73999 282.590088 L 180.790039 288.639893 C 181.560059 289.01001 182.359985 289.370117 183.150024 289.72998 C 183.280029 289.790039 183.390015 289.850098 183.52002 289.899902 C 183.660034 289.590088 183.680054 289.22998 183.52002 288.919922 L 181.050049 284.02002 L 168.849976 259.870117 L 182.619995 235 L 227.640015 235.969971 L 249.189941 268.679932 L 234.73999 291.040039 L 214.920044 295.830078 L 207.130005 297.709961 C 206.72998 297.810059 206.449951 298.100098 206.329956 298.469971 L 206.319946 298.469971 C 206.869995 298.649902 207.430054 298.840088 208 299 C 208.52002 299.169922 209.050049 299.340088 209.579956 299.5 L 210.780029 299.209961 L 219.579956 297.080078 L 235.02002 293.350098 L 240.369995 299.919922 L 242.069946 302 L 247.339966 308.469971 C 246.97998 308.409912 246.630005 308.340088 246.290039 308.27002 C 246.640015 308.340088 247 308.409912 247.349976 308.47998 C 248.219971 308.639893 249.099976 308.800049 249.969971 308.969971 C 250.050049 308.98999 250.140015 309 250.23999 309.02002 C 250.339966 309.040039 250.449951 309.070068 250.550049 309.080078 C 250.650024 309.100098 250.76001 309.110107 250.859985 309.139893 L 250.859985 309.139893 C 250.859985 309.139893 245.530029 302.600098 245.530029 302.600098 L 243.26001 299.830078 L 236.869995 291.98999 L 251.150024 269.909912 L 287.349976 273.790039 L 289.449951 292.469971 L 290.219971 299.360107 L 282.47998 306.189941 L 275.800049 312.100098 C 275.579956 312.280029 275.459961 312.550049 275.430054 312.820068 C 276.319946 312.939941 277.22998 313.02002 278.140015 313.120117 L 285.880005 306.290039 L 291.589966 301.23999 L 300.459961 306.179932 L 317.01001 315.409912 C 318.150024 315.389893 319.300049 315.350098 320.430054 315.320068 C 320.420044 314.929932 320.219971 314.560059 319.859985 314.350098 L 304.890015 306.01001 L 292.52002 299.120117 L 291.699951 291.800049 L 289.609985 273.139893 L 314.630005 245.800049 L 349.349976 254.47998 L 354.209961 255.689941 L 373.550049 280.040039 L 364.76001 295.550049 L 356.589966 309.98999 C 356.439941 310.26001 356.420044 310.550049 356.48999 310.820068 C 357.380005 310.620117 358.26001 310.419922 359.140015 310.199951 L 368.150024 294.300049 L 375.599976 281.139893 L 390.390015 282.25 L 390.400024 282.25 L 403.819946 283.27002 C 404.209961 282.560059 404.589966 281.850098 404.939941 281.129883 C 404.810059 281.060059 404.660034 281.01001 404.51001 281 Z M 287.939941 271.5 L 251.22998 267.560059 L 229.650024 234.820068 L 247.390015 208.800049 L 301.77002 217.01001 L 312.890015 244.22998 L 287.939941 271.51001 Z"/>
        <path id="path31" fill="#44826f" stroke="none" opacity="0.25" style="mix-blend-mode:multiply" d="M 135.569946 211.469971 C 133.839966 212.5 132.22998 213.699951 130.849976 215.179932 C 129.290039 216.860107 128.160034 218.780029 127.369995 220.850098 C 126.339966 220.040039 125.359985 219.159912 124.439941 218.25 C 111.26001 204.949951 107.449951 185.199951 105.040039 166.639893 C 103.290039 153.27002 101.880005 139.399902 96.930054 126.75 C 100.790039 131.159912 104.01001 136.280029 106.530029 141.850098 C 111.76001 153.409912 114.349976 165.969971 118 178.120117 C 121.619995 190.199951 126.73999 202.47998 135.560059 211.47998 Z"/>
        <path id="path32" fill="#44826f" stroke="none" opacity="0.25" style="mix-blend-mode:multiply" d="M 148.140015 268.649902 C 145.209961 268.51001 142.420044 268.280029 139.76001 267.98999 C 135.349976 267.5 131.280029 266.810059 127.48999 265.929932 C 124.089966 261.330078 121.709961 255.929932 120.060059 250.419922 C 117.48999 241.830078 116.560059 232.600098 118.589966 223.870117 C 120.300049 216.52002 124.280029 209.560059 130.109985 204.840088 C 131.73999 207.189941 133.569946 209.419922 135.579956 211.469971 C 133.849976 212.5 132.23999 213.699951 130.859985 215.179932 C 129.300049 216.860107 128.170044 218.780029 127.380005 220.850098 C 124.880005 227.360107 125.849976 235.370117 128.140015 242.22998 C 131.180054 251.350098 138.199951 260.330078 148.140015 268.649902 Z"/>
        <path id="path33" fill="#44826f" stroke="none" opacity="0.25" style="mix-blend-mode:multiply" d="M 143.579956 264.580078 C 137.72998 263.5 132.060059 260.909912 127.390015 257.23999 C 117.5 249.469971 111.530029 237.649902 108.030029 225.570068 C 104.27002 212.610107 103.140015 198.929932 104.5 185.51001 C 105.26001 178.050049 106.890015 165.070068 111.579956 155.52002 C 113.890015 162.98999 115.73999 170.629883 118 178.120117 C 120.800049 187.449951 124.48999 196.889893 130.089966 204.850098 C 131.719971 207.199951 133.550049 209.429932 135.560059 211.47998 C 133.829956 212.51001 132.219971 213.709961 130.839966 215.189941 C 129.280029 216.870117 128.150024 218.790039 127.359985 220.860107 C 124.859985 227.370117 125.829956 235.379883 128.119995 242.23999 C 130.680054 249.889893 136.030029 257.459961 143.569946 264.590088 Z"/>
        <path id="path34" fill="#44826f" stroke="none" opacity="0.25" style="mix-blend-mode:multiply" d="M 215.73999 301.25 C 216.550049 304.060059 217.469971 306.820068 218.48999 309.550049 C 202.01001 305.98999 186.209961 300.580078 172.150024 291.72998 C 172.800049 289.639893 173.569946 287.590088 174.459961 285.580078 C 177.26001 287 180.150024 288.379883 183.130005 289.709961 C 183.26001 289.77002 183.369995 289.830078 183.5 289.879883 C 185.290039 290.679932 187.109985 291.449951 188.959961 292.199951 C 189.890015 292.580078 190.819946 292.959961 191.76001 293.320068 C 197.459961 295.570068 203.410034 297.629883 209.569946 299.469971 C 211.599976 300.080078 213.660034 300.669922 215.72998 301.23999 L 215.73999 301.23999 Z"/>
        <path id="path35" fill="#44826f" stroke="none" opacity="0.25" style="mix-blend-mode:multiply" d="M 400.619995 301.25 C 400.319946 301.409912 400.030029 301.570068 399.72998 301.73999 C 385.75 309.280029 370.400024 313.889893 354.670044 316.449951 C 353.25 314.98999 351.859985 313.51001 350.51001 312.01001 C 365.699951 309.169922 379.380005 304.560059 389.27002 298.27002 C 391.02002 298.830078 392.800049 299.360107 394.589966 299.830078 C 396.569946 300.360107 398.579956 300.840088 400.630005 301.25 Z"/>
        <path id="path36" fill="#44826f" stroke="none" opacity="0.25" style="mix-blend-mode:multiply" d="M 269.030029 384.98999 C 267.829956 387.889893 264.02002 388.48999 260.880005 388.530029 C 252.209961 388.630127 243.47998 387.73999 235.030029 385.810059 C 225.810059 374.320068 218.959961 360.840088 214.01001 346.889893 C 209.52002 334.290039 206.47998 321.22998 204 308.100098 C 203.339966 304.610107 202.569946 300.870117 202.030029 297.090088 C 204.5 297.919922 207.02002 298.719971 209.569946 299.47998 C 211.599976 300.090088 213.660034 300.679932 215.72998 301.25 L 215.73999 301.25 C 216.550049 304.060059 217.469971 306.820068 218.48999 309.550049 C 219.98999 313.600098 221.719971 317.560059 223.640015 321.439941 C 233.719971 341.959961 248.97998 360.120117 265.329956 376.340088 C 267.699951 378.699951 270.310059 381.909912 269.030029 384.98999 Z"/>
        <path id="path37" fill="#44826f" stroke="none" opacity="0.25" style="mix-blend-mode:multiply" d="M 485.319946 307.389893 C 483.719971 313.120117 481.099976 318.48999 477.689941 323.320068 C 459.099976 325.97998 439.890015 324.47998 421.949951 318.860107 C 408.910034 314.780029 396.569946 308.52002 385.52002 300.47998 C 386.829956 299.76001 388.079956 299.030029 389.280029 298.27002 C 391.030029 298.830078 392.810059 299.360107 394.599976 299.830078 C 396.579956 300.360107 398.589966 300.840088 400.640015 301.25 C 424.689941 306.209961 452.369995 303.919922 475.030029 297.850098 C 478.089966 297.030029 481.73999 296.219971 484.130005 298.300049 C 486.569946 300.419922 486.199951 304.280029 485.329956 307.389893 Z"/>
        <path id="path38" fill="#f9ad66" stroke="none" opacity="0.48" style="mix-blend-mode:multiply" d="M 151.199951 271.090088 C 157.890015 276.280029 165.72998 281.159912 174.459961 285.590088 C 174.280029 286.02002 174.089966 286.459961 173.900024 286.889893 C 173.400024 286.669922 172.920044 286.449951 172.430054 286.22998 C 162.069946 281.5 151.650024 276.090088 143.449951 268.340088 C 144.959961 268.47998 146.530029 268.570068 148.119995 268.649902 L 148.130005 268.649902 C 148.130005 268.649902 148.140015 268.659912 148.140015 268.659912 C 149.119995 269.469971 150.140015 270.290039 151.180054 271.090088 Z"/>
        <path id="path39" fill="#f9ad66" stroke="none" opacity="0.48" style="mix-blend-mode:multiply" d="M 350.51001 312 C 351.5 313.110107 352.51001 314.199951 353.540039 315.27002 C 328.920044 321.570068 302.77002 320.590088 277.52002 316.97998 C 256.780029 314.030029 236.27002 309.360107 216.290039 303.050049 C 216.109985 302.449951 215.920044 301.850098 215.75 301.25 C 216.459961 301.449951 217.160034 301.629883 217.869995 301.820068 C 219.359985 302.209961 220.849976 302.590088 222.359985 302.959961 C 223.859985 303.340088 225.369995 303.709961 226.880005 304.070068 C 228.01001 304.350098 229.130005 304.610107 230.280029 304.870117 C 233.430054 305.600098 236.589966 306.300049 239.810059 306.959961 C 241.01001 307.209961 242.22998 307.459961 243.449951 307.699951 C 244.390015 307.899902 245.329956 308.080078 246.290039 308.26001 C 246.640015 308.330078 246.97998 308.399902 247.339966 308.459961 C 248.219971 308.629883 249.099976 308.800049 249.97998 308.959961 C 250.060059 308.97998 250.150024 308.98999 250.25 309.01001 C 250.349976 309.030029 250.459961 309.060059 250.560059 309.070068 C 250.660034 309.080078 250.77002 309.100098 250.869995 309.120117 L 250.869995 309.120117 C 252.400024 309.409912 253.949951 309.679932 255.48999 309.929932 C 256.52002 310.110107 257.560059 310.280029 258.599976 310.439941 C 259.76001 310.639893 260.910034 310.820068 262.079956 311 C 262.47998 311.070068 262.880005 311.129883 263.280029 311.179932 C 265.280029 311.47998 267.300049 311.77002 269.329956 312.040039 C 271.349976 312.320068 273.390015 312.570068 275.449951 312.810059 C 280.540039 313.429932 285.709961 313.969971 290.969971 314.389893 C 292.420044 314.52002 293.869995 314.629883 295.329956 314.73999 C 300.75 315.199951 306.290039 315.429932 311.890015 315.429932 L 313.099976 315.429932 C 314.150024 315.429932 315.219971 315.419922 316.27002 315.399902 C 316.52002 315.399902 316.780029 315.399902 317.02002 315.389893 C 318.160034 315.370117 319.310059 315.330078 320.439941 315.300049 C 327.48999 315.050049 334.550049 314.439941 341.390015 313.51001 C 344.47998 313.080078 347.530029 312.600098 350.52002 312.030029 Z"/>
        <path id="path40" fill="#f9ad66" stroke="none" opacity="0.48" style="mix-blend-mode:multiply" d="M 406.829956 276.22998 C 406.030029 280.310059 404.530029 284.310059 402.550049 288.100098 C 398.77002 291.919922 394.609985 295.409912 390.180054 298.540039 C 389.869995 298.459961 389.569946 298.360107 389.27002 298.26001 C 393.619995 295.5 397.219971 292.409912 399.910034 289.01001 C 402.880005 285.26001 405.459961 280.810059 406.839966 276.219971 Z"/>
        <path id="path41" fill="#cc58b2" stroke="none" opacity="0.33" style="mix-blend-mode:multiply" d="M 140.430054 257.949951 L 138.160034 258.939941 C 137.930054 258.669922 137.709961 258.409912 137.47998 258.139893 C 137.449951 258.110107 137.420044 258.070068 137.390015 258.040039 C 137.47998 258.030029 137.579956 258.02002 137.670044 258.01001 C 138.599976 257.929932 139.51001 257.909912 140.430054 257.949951 Z"/>
        <path id="path42" fill="#b84fb3" stroke="none" opacity="0.35" style="mix-blend-mode:multiply" d="M 406.839966 276.209961 C 406.839966 276.209961 406.839966 276.219971 406.829956 276.22998 C 406.339966 277.870117 405.699951 279.5 404.920044 281.090088 C 404.569946 281.810059 404.189941 282.52002 403.800049 283.22998 C 402.640015 285.290039 401.310059 287.22998 399.900024 289.02002 C 397.219971 292.419922 393.609985 295.51001 389.26001 298.27002 C 381.290039 303.350098 370.839966 307.320068 359.119995 310.159912 C 358.23999 310.379883 357.359985 310.590088 356.469971 310.780029 C 354.52002 311.219971 352.530029 311.620117 350.5 312.01001 C 347.51001 312.580078 344.449951 313.060059 341.369995 313.48999 C 334.530029 314.429932 327.469971 315.030029 320.420044 315.280029 C 319.290039 315.310059 318.140015 315.350098 317 315.370117 C 315.290039 315.419922 313.579956 315.429932 311.869995 315.419922 C 306.27002 315.419922 300.73999 315.189941 295.310059 314.72998 C 289.469971 314.300049 283.76001 313.73999 278.140015 313.100098 C 277.23999 313 276.319946 312.909912 275.430054 312.800049 C 273.380005 312.560059 271.339966 312.290039 269.310059 312.030029 C 267.290039 311.76001 265.26001 311.469971 263.26001 311.169922 C 262.859985 311.110107 262.459961 311.050049 262.060059 310.98999 C 260.890015 310.820068 259.73999 310.629883 258.579956 310.429932 C 257.540039 310.27002 256.5 310.110107 255.469971 309.919922 C 253.920044 309.669922 252.369995 309.399902 250.849976 309.120117 C 250.75 309.100098 250.640015 309.090088 250.540039 309.060059 C 250.439941 309.050049 250.329956 309.030029 250.22998 309 C 250.140015 308.98999 250.040039 308.97998 249.959961 308.949951 C 249.079956 308.790039 248.199951 308.629883 247.339966 308.459961 C 246.97998 308.389893 246.619995 308.320068 246.280029 308.25 C 245.319946 308.080078 244.369995 307.889893 243.439941 307.689941 C 242.22998 307.459961 241.01001 307.199951 239.800049 306.949951 C 236.589966 306.290039 233.420044 305.590088 230.27002 304.860107 C 229.130005 304.610107 228 304.340088 226.869995 304.060059 C 225.359985 303.699951 223.849976 303.330078 222.349976 302.949951 C 220.849976 302.580078 219.359985 302.199951 217.859985 301.810059 C 217.150024 301.620117 216.449951 301.439941 215.73999 301.23999 L 215.72998 301.23999 C 213.660034 300.669922 211.599976 300.080078 209.569946 299.469971 C 208.469971 299.129883 207.400024 298.800049 206.310059 298.449951 L 206.319946 298.449951 C 198.319946 295.909912 190.660034 293.050049 183.51001 289.870117 C 183.380005 289.810059 183.27002 289.75 183.140015 289.699951 C 180.160034 288.370117 177.27002 286.98999 174.469971 285.570068 C 165.73999 281.139893 157.900024 276.26001 151.209961 271.070068 C 150.170044 270.27002 149.150024 269.449951 148.170044 268.639893 L 148.150024 268.639893 C 146.72998 267.439941 145.359985 266.22998 144.069946 265.02002 C 154.869995 271.629883 166.130005 277.5 177.73999 282.560059 C 178.839966 283.050049 179.939941 283.52002 181.050049 283.97998 C 192.079956 288.629883 203.400024 292.570068 214.930054 295.790039 C 216.47998 296.22998 218.040039 296.649902 219.589966 297.050049 C 227.01001 298.98999 234.52002 300.620117 242.079956 301.959961 L 245.550049 302.550049 C 257.780029 304.550049 270.130005 305.76001 282.51001 306.149902 C 283.640015 306.179932 284.76001 306.219971 285.900024 306.23999 C 290.77002 306.320068 295.619995 306.290039 300.47998 306.120117 C 301.959961 306.070068 303.430054 306.02002 304.910034 305.949951 C 314.589966 305.47998 324.23999 304.47998 333.819946 302.97998 C 344.310059 301.330078 354.810059 299.040039 364.780029 295.48999 C 365.910034 295.100098 367.030029 294.679932 368.160034 294.23999 C 373.47998 292.169922 378.640015 289.719971 383.550049 286.77002 C 385.900024 285.360107 388.189941 283.830078 390.400024 282.189941 L 390.410034 282.189941 C 391.319946 281.51001 392.23999 280.800049 393.119995 280.090088 C 398.550049 275.679932 403.400024 270.570068 407.310059 264.870117 C 408.300049 268.570068 408 272.429932 406.880005 276.189941 Z"/>
        <path id="path43" fill="#b84fb3" stroke="none" opacity="0.48" style="mix-blend-mode:multiply" d="M 249.180054 268.659912 L 234.72998 291.02002 L 214.910034 295.810059 L 207.119995 297.689941 C 206.719971 297.790039 206.439941 298.080078 206.319946 298.449951 C 205.069946 298.060059 203.829956 297.649902 202.609985 297.25 C 208.439941 296.709961 214.089966 295 219.099976 291.939941 C 230.069946 285.26001 236.97998 271.659912 234.150024 259.110107 C 232.77002 253.040039 229.339966 247.570068 225.150024 242.959961 C 222.780029 240.350098 220.180054 237.97998 217.459961 235.719971 L 227.619995 235.939941 L 249.170044 268.649902 Z"/>
        <path id="path44" fill="#b84fb3" stroke="none" opacity="0.48" style="mix-blend-mode:multiply" d="M 290.22998 299.330078 L 282.48999 306.159912 L 275.810059 312.070068 C 275.589966 312.25 275.469971 312.52002 275.439941 312.790039 C 273.390015 312.550049 271.349976 312.280029 269.319946 312.02002 C 267.300049 311.75 265.27002 311.459961 263.27002 311.159912 C 262.869995 311.100098 262.469971 311.040039 262.069946 310.97998 C 260.900024 310.810059 259.75 310.620117 258.589966 310.419922 C 257.550049 310.26001 256.51001 310.100098 255.47998 309.909912 C 254.650024 309.77002 253.819946 309.629883 252.97998 309.47998 C 256.920044 309.409912 260.839966 308.969971 264.660034 307.929932 C 270.380005 306.370117 275.829956 303.350098 279.609985 298.77002 C 283.380005 294.189941 285.319946 287.949951 284.050049 282.149902 C 283.22998 278.389893 280.939941 274.939941 277.829956 272.72998 L 287.349976 273.75 L 290.22998 299.330078 Z"/>
        <path id="path45" fill="#b84fb3" stroke="none" opacity="0.48" style="mix-blend-mode:multiply" d="M 180.650024 233.72998 L 166.859985 258.659912 L 138.280029 257.889893 C 138.050049 257.870117 137.849976 257.919922 137.680054 258.02002 C 137.609985 258.070068 137.550049 258.110107 137.48999 258.159912 C 137.459961 258.129883 137.430054 258.090088 137.400024 258.060059 C 135.150024 255.370117 133.199951 252.629883 131.619995 249.860107 C 137.119995 250.840088 142.699951 251.310059 148.219971 250.580078 C 156.410034 249.52002 164.550049 245.5 168.900024 238.5 C 173.140015 231.679932 173.27002 222.929932 171.089966 215.199951 C 169.530029 209.669922 166.890015 204.550049 163.97998 199.590088 C 164.800049 199.27002 165.630005 198.949951 166.449951 198.629883 L 166.449951 198.649902 L 180.650024 233.73999 Z"/>
        <path id="path46" fill="#b84fb3" stroke="none" opacity="0.48" style="mix-blend-mode:multiply" d="M 245.359985 207.669922 L 227.660034 233.639893 L 182.709961 232.679932 L 180.890015 228.189941 C 184.97998 228.070068 189.089966 227.949951 193.189941 227.820068 C 199.22998 227.649902 205.329956 227.449951 211.160034 225.840088 C 216.97998 224.22998 222.569946 221.040039 225.900024 215.98999 C 229.910034 209.899902 230.060059 201.870117 227.900024 194.899902 C 226.560059 190.580078 224.430054 186.580078 221.969971 182.76001 L 245.359985 207.669922 Z"/>
        <path id="path47" fill="#b84fb3" stroke="none" opacity="0.48" style="mix-blend-mode:multiply" d="M 330.27002 198.959961 L 302.369995 214.77002 L 247.410034 206.469971 L 245.359985 204.300049 C 254.48999 205.5 263.72998 205.98999 272.959961 205.719971 C 278.439941 205.560059 283.97998 205.120117 289.170044 203.350098 C 294.359985 201.580078 299.209961 198.330078 301.97998 193.600098 C 303.300049 191.350098 304.069946 188.72998 304.180054 186.120117 C 313.219971 189.659912 321.890015 194.02002 330.26001 198.969971 Z"/>
        <path id="path48" fill="#b84fb3" stroke="none" opacity="0.48" style="mix-blend-mode:multiply" d="M 365.939941 224.340088 C 365.880005 224.429932 365.810059 224.51001 365.77002 224.620117 L 354.170044 253.26001 L 319.72998 244.649902 C 325.880005 244.800049 332.040039 244.26001 338.069946 243.030029 C 345.410034 241.540039 353.219971 238.5 356.73999 231.879883 C 359.040039 227.560059 359.040039 222.47998 357.76001 217.830078 C 360.51001 219.959961 363.23999 222.129883 365.949951 224.340088 Z"/>
        <path id="path49" fill="#b84fb3" stroke="none" opacity="0.35" style="mix-blend-mode:multiply" d="M 406.839966 276.209961 C 406.839966 276.209961 406.839966 276.219971 406.829956 276.22998 C 406.339966 277.870117 405.699951 279.5 404.920044 281.090088 C 404.790039 281.02002 404.640015 280.969971 404.48999 280.959961 L 393.079956 280.100098 L 375.52002 278.77002 L 373.819946 276.629883 C 375.920044 275.810059 377.959961 274.810059 379.900024 273.620117 C 386.469971 269.610107 391.810059 263.310059 393.75 255.860107 C 394.390015 253.429932 394.5 251.139893 394.319946 248.889893 C 395.339966 249.800049 396.369995 250.72998 397.380005 251.639893 C 400.949951 254.850098 404.630005 258.219971 406.5 262.639893 C 406.810059 263.379883 407.069946 264.129883 407.26001 264.879883 C 408.25 268.580078 407.949951 272.439941 406.829956 276.199951 Z"/>
        <path id="path50" fill="#b84fb3" stroke="none" opacity="0.35" style="mix-blend-mode:multiply" d="M 373.540039 280 L 364.75 295.51001 L 356.579956 309.949951 C 356.430054 310.219971 356.410034 310.51001 356.47998 310.780029 C 354.530029 311.219971 352.540039 311.620117 350.51001 312.01001 C 347.52002 312.580078 344.459961 313.060059 341.380005 313.48999 C 334.540039 314.429932 327.47998 315.030029 320.430054 315.280029 C 320.420044 314.889893 320.219971 314.52002 319.859985 314.310059 L 304.890015 305.969971 L 301.930054 304.330078 C 309.780029 303.610107 317.599976 302.5 325.079956 300.060059 C 335.619995 296.610107 345.630005 290.199951 351.119995 280.570068 C 354.180054 275.209961 355.569946 268.810059 354.920044 262.659912 C 354.680054 260.320068 353.900024 257.899902 353.359985 255.439941 L 354.199951 255.649902 L 373.540039 280 Z"/>
        <path id="path51" fill="#b84fb3" stroke="none" opacity="0.48" style="mix-blend-mode:multiply" d="M 312.890015 244.22998 L 287.939941 271.51001 L 251.22998 267.570068 L 249.01001 264.209961 C 256.72998 265.550049 264.829956 264.77002 272.109985 261.870117 C 282.040039 257.919922 290.369995 250.090088 294.910034 240.419922 C 297.469971 234.949951 298.859985 228.820068 298.02002 222.850098 C 297.699951 220.530029 297 218.25 295.97998 216.139893 L 301.76001 217.02002 L 312.880005 244.23999 Z"/>
        <path id="path52" fill="#f06767" stroke="none" opacity="0.42" style="mix-blend-mode:screen" d="M 190.369995 210.620117 C 191.699951 215.360107 196.75 218.610107 201.660034 218.290039 C 206.569946 217.969971 210.98999 214.389893 212.77002 209.800049 C 214.540039 205.23999 213.680054 199.610107 210.189941 196.169922 C 200.75 186.879883 187.420044 200.070068 190.380005 210.620117 Z"/>
        <path id="path53" fill="#f06767" stroke="none" opacity="0.42" style="mix-blend-mode:screen" d="M 142.050049 230.459961 C 142.77002 234.77002 146.640015 238.629883 151 238.409912 C 153.709961 238.280029 156.22998 236.629883 157.72998 234.370117 C 159.22998 232.110107 159.780029 229.300049 159.599976 226.590088 C 159.390015 223.469971 158.119995 220.280029 155.609985 218.419922 C 147.73999 212.560059 140.880005 223.459961 142.040039 230.459961 Z"/>
        <path id="path54" fill="#f06767" stroke="none" opacity="0.42" style="mix-blend-mode:screen" d="M 188.780029 266.389893 C 189.290039 269.780029 190.98999 273.050049 193.75 275.080078 C 196.51001 277.100098 200.380005 277.699951 203.459961 276.219971 C 206.109985 274.939941 207.910034 272.330078 208.969971 269.580078 C 210.359985 265.939941 210.619995 261.790039 209.199951 258.159912 C 207.780029 254.530029 204.560059 251.540039 200.72998 250.860107 C 191.560059 249.22998 187.670044 259 188.780029 266.389893 Z"/>
        <path id="path55" fill="#f06767" stroke="none" opacity="0.42" style="mix-blend-mode:screen" d="M 252.680054 229.560059 C 251.780029 232.050049 251.449951 234.840088 252.280029 237.360107 C 253.599976 241.389893 257.890015 244.100098 262.130005 244.01001 C 266.369995 243.919922 270.359985 241.300049 272.550049 237.669922 C 274.390015 234.620117 275.060059 230.820068 274.069946 227.399902 C 273.079956 223.97998 270.359985 221.040039 266.930054 220.060059 C 260.160034 218.129883 254.76001 223.820068 252.680054 229.550049 Z"/>
        <path id="path56" fill="#f06767" stroke="none" opacity="0.42" style="mix-blend-mode:screen" d="M 256.02002 194.959961 C 259.119995 196.139893 262.73999 195.620117 265.550049 193.850098 C 267.050049 192.899902 268.390015 191.540039 268.839966 189.820068 C 269.609985 186.850098 267.430054 183.780029 264.709961 182.350098 C 260.609985 180.189941 254.23999 180.72998 251.319946 184.719971 C 248.459961 188.629883 252.150024 193.47998 256.030029 194.959961 Z"/>
        <path id="path57" fill="#f06767" stroke="none" opacity="0.42" style="mix-blend-mode:screen" d="M 252.27002 293.879883 C 254.51001 297.709961 259.469971 299.629883 263.77002 298.51001 C 268.060059 297.389893 271.410034 293.449951 272.02002 289.050049 C 272.459961 285.899902 271.48999 282.459961 269.050049 280.419922 C 267.170044 278.850098 264.670044 278.26001 262.22998 278.040039 C 260.709961 277.899902 259.140015 277.899902 257.680054 278.360107 C 252.140015 280.090088 249.5 289.139893 252.27002 293.879883 Z"/>
        <path id="path58" fill="#f06767" stroke="none" opacity="0.42" style="mix-blend-mode:screen" d="M 309.280029 275.360107 C 309.050049 278.409912 309.660034 281.639893 311.599976 284 C 313.420044 286.219971 316.280029 287.469971 319.150024 287.639893 C 324.449951 287.949951 329.75 284.439941 331.530029 279.439941 C 333.310059 274.439941 331.430054 268.370117 327.140015 265.25 C 323.469971 262.590088 317.709961 262.080078 313.73999 264.459961 C 310.369995 266.47998 309.560059 271.77002 309.280029 275.360107 Z"/>
        <path id="path59" fill="#f06767" stroke="none" opacity="0.42" style="mix-blend-mode:screen" d="M 319.910034 226.629883 C 320.099976 229.949951 322.579956 233.310059 325.900024 233.52002 C 327.790039 233.639893 329.619995 232.76001 331.150024 231.639893 C 333.670044 229.780029 335.680054 227.070068 336.180054 223.969971 C 336.680054 220.879883 335.459961 217.439941 332.819946 215.75 C 325.76001 211.22998 319.560059 220.5 319.910034 226.629883 Z"/>
        <path id="path60" fill="#f06767" stroke="none" opacity="0.42" style="mix-blend-mode:screen" d="M 368.290039 257.189941 C 369.069946 259.97998 371 262.419922 373.530029 263.830078 C 375.23999 264.780029 377.290039 265.27002 379.189941 264.790039 C 381.050049 264.330078 382.619995 262.969971 383.589966 261.310059 C 384.560059 259.649902 384.969971 257.719971 385.030029 255.800049 C 385.119995 253.209961 384.579956 250.540039 383.160034 248.370117 C 380.369995 244.090088 375 243.199951 370.930054 246.27002 C 367.829956 248.610107 367.310059 253.659912 368.300049 257.199951 Z"/>
        <path id="path61" fill="#b84fb3" stroke="none" opacity="0.35" style="mix-blend-mode:multiply" d="M 406.839966 276.209961 C 406.839966 276.209961 406.839966 276.219971 406.829956 276.22998 C 406.339966 277.870117 405.699951 279.5 404.920044 281.090088 C 404.569946 281.810059 404.189941 282.52002 403.800049 283.22998 C 402.640015 285.290039 401.310059 287.22998 399.900024 289.02002 C 397.219971 292.419922 393.609985 295.51001 389.26001 298.27002 C 381.290039 303.350098 370.839966 307.320068 359.119995 310.159912 C 358.23999 310.379883 357.359985 310.590088 356.469971 310.780029 C 354.52002 311.219971 352.530029 311.620117 350.5 312.01001 C 347.51001 312.580078 344.449951 313.060059 341.369995 313.48999 C 334.530029 314.429932 327.469971 315.030029 320.420044 315.280029 C 319.290039 315.310059 318.140015 315.350098 317 315.370117 C 315.290039 315.419922 313.579956 315.429932 311.869995 315.419922 C 306.27002 315.419922 300.73999 315.189941 295.310059 314.72998 C 289.469971 314.300049 283.76001 313.73999 278.140015 313.100098 C 277.23999 313 276.319946 312.909912 275.430054 312.800049 C 273.380005 312.560059 271.339966 312.290039 269.310059 312.030029 C 267.290039 311.76001 265.26001 311.469971 263.26001 311.169922 C 262.859985 311.110107 262.459961 311.050049 262.060059 310.98999 C 260.890015 310.820068 259.73999 310.629883 258.579956 310.429932 C 257.540039 310.27002 256.5 310.110107 255.469971 309.919922 C 254.640015 309.780029 253.810059 309.639893 252.969971 309.48999 C 252.25 309.370117 251.550049 309.25 250.839966 309.120117 C 250.73999 309.100098 250.630005 309.090088 250.530029 309.060059 C 250.430054 309.050049 250.319946 309.030029 250.219971 309 C 250.130005 308.98999 250.030029 308.97998 249.949951 308.949951 C 249.069946 308.790039 248.189941 308.629883 247.329956 308.459961 C 246.969971 308.389893 246.609985 308.320068 246.27002 308.25 C 245.310059 308.080078 244.359985 307.889893 243.430054 307.689941 C 242.219971 307.459961 241 307.199951 239.790039 306.949951 C 236.579956 306.290039 233.410034 305.590088 230.26001 304.860107 C 229.119995 304.610107 227.98999 304.340088 226.859985 304.060059 C 225.349976 303.699951 223.839966 303.330078 222.339966 302.949951 C 220.839966 302.580078 219.349976 302.199951 217.849976 301.810059 C 217.140015 301.620117 216.439941 301.439941 215.72998 301.23999 L 215.719971 301.23999 C 213.650024 300.669922 211.589966 300.080078 209.560059 299.469971 C 209.030029 299.310059 208.5 299.149902 207.97998 298.969971 C 208.910034 299.050049 209.839966 299.120117 210.77002 299.179932 C 220.630005 299.870117 230.5 300.169922 240.359985 299.889893 C 241.329956 299.870117 242.300049 299.830078 243.26001 299.790039 C 246.199951 299.669922 249.119995 299.5 252.050049 299.27002 C 264.650024 298.26001 277.300049 296.080078 289.449951 292.439941 C 290.199951 292.219971 290.949951 291.98999 291.689941 291.76001 C 308.439941 286.47998 324.160034 278.419922 337.359985 266.909912 C 341.699951 263.129883 345.709961 258.939941 349.339966 254.429932 C 349.869995 253.77002 350.390015 253.110107 350.900024 252.439941 C 355.02002 247.050049 358.589966 241.25 361.48999 235.149902 C 363.130005 231.72998 364.550049 228.209961 365.73999 224.629883 C 365.73999 224.629883 365.75 224.620117 365.75 224.610107 C 365.780029 224.51001 365.829956 224.389893 365.849976 224.27002 C 365.869995 224.290039 365.900024 224.300049 365.920044 224.330078 C 366.150024 224.51001 366.390015 224.699951 366.630005 224.899902 C 367.01001 225.199951 367.380005 225.51001 367.75 225.830078 C 376.810059 233.290039 385.630005 241.100098 394.310059 248.899902 C 395.329956 249.810059 396.359985 250.73999 397.369995 251.649902 C 400.939941 254.860107 404.619995 258.22998 406.48999 262.649902 C 406.800049 263.389893 407.060059 264.139893 407.25 264.889893 C 408.23999 268.590088 407.939941 272.449951 406.819946 276.209961 Z"/>
        <path id="path62" fill="#44826f" stroke="none" opacity="0.33" style="mix-blend-mode:multiply" d="M 120.650024 351.72998 C 120.780029 355.679932 120.77002 360.409912 117.459961 362.590088 C 117.040039 362.870117 116.589966 363.080078 116.130005 363.22998 C 115.119995 352.159912 117.25 340.939941 119.22998 329.929932 C 121.469971 317.370117 123.52002 304.370117 120.51001 291.969971 C 119.030029 285.899902 116.130005 280.070068 111.97998 275.389893 C 110.180054 273.360107 106.73999 271.530029 103.939941 269.48999 C 106.630005 266.449951 109.619995 263.649902 112.819946 261.149902 C 120.420044 264.449951 129.099976 266.800049 139.75 267.97998 C 141.209961 272.790039 143.400024 276.040039 144.959961 278.290039 C 128.609985 298.919922 119.719971 325.399902 120.640015 351.719971 Z"/>
        <path id="path63" fill="#44826f" stroke="none" opacity="0.33" style="mix-blend-mode:multiply" d="M 400.51001 377.469971 C 400.199951 382.399902 394.800049 385.22998 390.02002 386.5 C 388.390015 386.939941 386.73999 387.300049 385.079956 387.590088 C 382.050049 385.130127 379.23999 382.360107 376.77002 379.51001 C 366.699951 367.899902 358.930054 353.820068 346.069946 345.409912 C 334.550049 337.879883 324.560059 338.669922 312.709961 339.639893 C 312.130005 337.070068 311.699951 334.459961 311.439941 331.850098 C 323.619995 331.060059 335.709961 329.280029 347.640015 326.389893 C 357.459961 343.350098 372.209961 357.48999 389.819946 366.130127 C 394.790039 368.570068 400.859985 371.949951 400.5 377.469971 Z"/>
        <path id="path64" fill="#44826f" stroke="none" opacity="0.28" style="mix-blend-mode:multiply" d="M 88.280029 177.02002 C 89.48999 178.610107 91.540039 179.870117 93.430054 179.219971 C 95.099976 178.649902 95.969971 176.840088 96.52002 175.169922 C 97.27002 172.919922 97.76001 170.5 97.280029 168.169922 C 96.800049 165.840088 95.189941 163.639893 92.900024 163.02002 C 85.52002 161.040039 85.48999 173.320068 88.280029 177.01001 Z"/>
        <path id="path65" fill="#44826f" stroke="none" opacity="0.28" style="mix-blend-mode:multiply" d="M 88.099976 155.300049 C 88.25 156.52002 88.829956 157.699951 89.810059 158.439941 C 90.790039 159.179932 92.180054 159.389893 93.280029 158.850098 C 94.530029 158.22998 95.189941 156.810059 95.430054 155.429932 C 95.670044 154.080078 95.579956 152.629883 94.959961 151.409912 C 94.339966 150.189941 93.109985 149.22998 91.73999 149.139893 C 88.640015 148.949951 87.819946 152.929932 88.099976 155.290039 Z"/>
        <path id="path66" fill="#44826f" stroke="none" opacity="0.28" style="mix-blend-mode:multiply" d="M 79.550049 165.110107 C 80.319946 166.219971 81.709961 167.120117 82.98999 166.679932 C 84.160034 166.280029 84.73999 164.97998 85.050049 163.780029 C 85.369995 162.560059 85.540039 161.27002 85.25 160.040039 C 84.959961 158.810059 84.150024 157.659912 82.969971 157.219971 C 78.219971 155.449951 77.790039 162.590088 79.540039 165.100098 Z"/>
        <path id="path67" fill="#44826f" stroke="none" opacity="0.28" style="mix-blend-mode:multiply" d="M 92.329956 227.570068 C 93.079956 229.060059 94.430054 230.27002 96.040039 230.699951 C 97.650024 231.120117 99.5 230.679932 100.650024 229.469971 C 101.609985 228.449951 102 226.98999 101.97998 225.580078 C 101.930054 223.060059 100.439941 220.52002 98.109985 219.570068 C 96.060059 218.73999 93 219.399902 91.790039 221.389893 C 90.819946 222.98999 91.579956 226.070068 92.329956 227.580078 Z"/>
        <path id="path68" fill="#44826f" stroke="none" opacity="0.28" style="mix-blend-mode:multiply" d="M 98.880005 215.47998 C 100.369995 215 101.170044 213.360107 101.400024 211.820068 C 101.51001 211.060059 101.52002 210.23999 101.160034 209.560059 C 100.76001 208.800049 99.959961 208.320068 99.140015 208.050049 C 96.97998 207.340088 93.969971 208.550049 94.050049 211.149902 C 94.119995 213.409912 96.420044 216.280029 98.880005 215.47998 Z"/>
        <path id="path69" fill="#44826f" stroke="none" opacity="0.28" style="mix-blend-mode:multiply" d="M 191.01001 324.169922 C 192.27002 325.449951 194.25 326.080078 195.949951 325.47998 C 197.900024 324.790039 199.030029 322.709961 199.459961 320.689941 C 199.829956 318.969971 199.819946 317.129883 199.140015 315.51001 C 197.72998 312.110107 192.959961 310.790039 190.300049 313.679932 C 187.959961 316.22998 188.72998 321.879883 191 324.169922 Z"/>
        <path id="path70" fill="#44826f" stroke="none" opacity="0.28" style="mix-blend-mode:multiply" d="M 196.569946 338.280029 C 197.660034 339.560059 199.319946 340.290039 200.98999 340.439941 C 201.609985 340.5 202.26001 340.469971 202.829956 340.199951 C 203.599976 339.830078 204.099976 339.040039 204.420044 338.25 C 205.130005 336.5 205.189941 334.439941 204.369995 332.73999 C 203.550049 331.040039 201.780029 329.77002 199.890015 329.73999 C 195.420044 329.679932 194.040039 335.280029 196.569946 338.280029 Z"/>
        <path id="path71" fill="#44826f" stroke="none" opacity="0.28" style="mix-blend-mode:multiply" d="M 383.98999 323.070068 C 385.199951 325.070068 387.25 326.590088 389.550049 326.949951 C 391.849976 327.320068 394.359985 326.439941 395.790039 324.590088 C 397.109985 322.870117 397.390015 320.5 396.869995 318.399902 C 396.130005 315.419922 393.719971 312.850098 390.719971 312.189941 C 387.98999 311.590088 384.75 312.780029 383.189941 315.149902 C 381.75 317.340088 382.75 321 384 323.070068 Z"/>
        <path id="path72" fill="#44826f" stroke="none" opacity="0.28" style="mix-blend-mode:multiply" d="M 407.5 334.77002 C 408.97998 335.169922 410.609985 335.149902 411.98999 334.469971 C 413.550049 333.699951 414.660034 332.129883 415.01001 330.429932 C 415.359985 328.719971 415.01001 326.909912 414.160034 325.379883 C 412.829956 322.969971 410.209961 321.23999 407.459961 321.23999 C 404.410034 321.23999 400.780029 323.820068 401.22998 327.129883 C 401.709961 330.590088 404.040039 333.830078 407.5 334.76001 Z"/>
        <path id="path73" fill="#7bc980" stroke="none" opacity="0.47" style="mix-blend-mode:screen" d="M 73.290039 112.060059 C 53.450012 111.070068 31.830017 120.669922 19.719971 136.409912 C 17.650024 139.100098 15.820007 141.969971 14.23999 144.97998 C 14.679993 141.75 15.75 138.590088 17.320007 135.72998 C 25.409973 120.929932 45.51001 111.459961 61.859985 110.939941 C 65.869995 110.810059 69.689941 111.209961 73.300049 112.060059 Z"/>
        <path id="path74" fill="#7bc980" stroke="none" opacity="0.47" style="mix-blend-mode:screen" d="M 214.900024 378.850098 C 212.75 377.820068 210.619995 376.709961 208.550049 375.51001 C 192.800049 366.399902 179.849976 352.139893 173.47998 335.100098 C 169.290039 323.909912 168.099976 311.540039 170.170044 299.800049 C 170.180054 299.709961 170.199951 299.610107 170.22998 299.52002 C 175.189941 330.100098 191.349976 358.73999 214.900024 378.850098 Z"/>
        <path id="path75" fill="#7bc980" stroke="none" opacity="0.47" style="mix-blend-mode:screen" d="M 457.040039 341.570068 C 454.01001 343.25 450.839966 344.649902 447.579956 345.76001 C 429.939941 351.830078 410.140015 350.110107 392.880005 343.040039 C 384.670044 339.679932 377 335.189941 369.920044 329.870117 C 385.410034 337.97998 402.390015 343.320068 419.790039 344.76001 C 432.27002 345.790039 444.959961 344.77002 457.040039 341.570068 Z"/>
        <path id="path76" fill="#7bc980" stroke="none" opacity="0.19" style="mix-blend-mode:screen" d="M 352.349976 384.639893 C 342.920044 381.23999 334.27002 375.689941 327.47998 368.300049 C 320.790039 361 316.02002 352.050049 313.430054 342.5 C 322.680054 359.459961 336.22998 374.01001 352.349976 384.630127 Z"/>
        <path id="path77" fill="#7bc980" stroke="none" opacity="0.19" style="mix-blend-mode:screen" d="M 93.140015 318.209961 C 93.119995 329.780029 95.069946 341.570068 99.550049 352.179932 C 89.790039 339.070068 85.26001 322.090088 87.23999 305.850098 C 88.650024 294.26001 93.319946 283.179932 100.359985 273.860107 C 96.310059 288.360107 93.180054 303.179932 93.150024 318.209961 Z"/>
    </g>
</svg>
