<?xml version="1.0" encoding="UTF-8"?>
<!-- Generated by Pixelmator Pro 3.6.12 -->
<svg width="3456" height="2234" viewBox="0 0 3456 2234" xmlns="http://www.w3.org/2000/svg">
    <path id="Sun" fill="#ffffff" fill-rule="evenodd" stroke="#ffffff" stroke-width="3" stroke-linecap="round" stroke-linejoin="round" d="M 2031.496094 1142.503906 L 1965.186035 1142.503906 C 1951.100708 1142.503906 1939.682251 1131.085327 1939.682251 1117 C 1939.682251 1102.914673 1951.100708 1091.496094 1965.186035 1091.496094 L 2031.496094 1091.496094 C 2045.581421 1091.496094 2057 1102.914673 2057 1117 C 2057 1131.085327 2045.581421 1142.503906 2031.496094 1142.503906 Z M 1913.744629 967.317749 C 1907.329712 973.896606 1897.871948 976.515991 1888.986328 974.174561 C 1880.101196 971.833252 1873.161865 964.893311 1870.822021 956.007568 C 1868.481689 947.121826 1871.102539 937.664185 1877.682129 931.250244 L 1924.558228 884.361328 C 1934.518188 874.395874 1950.670776 874.391235 1960.635986 884.351074 C 1970.601685 894.310913 1970.606323 910.463501 1960.646362 920.428833 Z M 1728 1272.573608 C 1642.079102 1272.573608 1572.426392 1202.921021 1572.426392 1117 C 1572.426392 1031.078979 1642.079102 961.426392 1728 961.426392 C 1813.920898 961.426392 1883.573608 1031.078979 1883.573608 1117 C 1883.573608 1202.921021 1813.920898 1272.573608 1728 1272.573608 Z M 1728 905.317749 C 1713.914673 905.317749 1702.496094 893.899292 1702.496094 879.813965 L 1702.496094 813.503906 C 1702.496094 799.418457 1713.914673 788 1728 788 C 1742.085327 788 1753.503906 799.418457 1753.503906 813.503906 L 1753.503906 879.813965 C 1753.503906 893.899292 1742.085327 905.317749 1728 905.317749 Z M 1542.255371 967.317749 L 1495.353638 920.428833 C 1485.393677 910.463501 1485.398315 894.310913 1495.364014 884.351074 C 1505.329224 874.391235 1521.481812 874.395874 1531.441772 884.361328 L 1578.317871 931.250244 C 1584.897461 937.664185 1587.518311 947.121826 1585.177979 956.007568 C 1582.838135 964.893311 1575.898804 971.833252 1567.013672 974.174561 C 1558.128052 976.515991 1548.670288 973.896606 1542.255371 967.317749 Z M 1516.317749 1117 C 1516.317749 1131.085327 1504.899292 1142.503906 1490.813965 1142.503906 L 1424.503906 1142.503906 C 1410.418579 1142.503906 1399 1131.085327 1399 1117 C 1399 1102.914673 1410.418579 1091.496094 1424.503906 1091.496094 L 1490.813965 1091.496094 C 1504.899292 1091.496094 1516.317749 1102.914673 1516.317749 1117 Z M 1542.255371 1266.682251 C 1548.670288 1260.103394 1558.128052 1257.484131 1567.013672 1259.825439 C 1575.898804 1262.166748 1582.838135 1269.106689 1585.177979 1277.992432 C 1587.518311 1286.878174 1584.897461 1296.335693 1578.317871 1302.749756 L 1531.441772 1349.638672 C 1521.481812 1359.604004 1505.329224 1359.608643 1495.364014 1349.648926 C 1485.398315 1339.689209 1485.393677 1323.536621 1495.353638 1313.571167 Z M 1728 1328.682129 C 1742.085327 1328.682129 1753.503906 1340.100586 1753.503906 1354.186035 L 1753.503906 1420.496094 C 1753.503906 1434.581543 1742.085327 1446 1728 1446 C 1713.914673 1446 1702.496094 1434.581543 1702.496094 1420.496094 L 1702.496094 1354.186035 C 1702.496094 1340.100586 1713.914673 1328.682129 1728 1328.682129 Z M 1913.744629 1266.682251 L 1960.646362 1313.571167 C 1970.606323 1323.536621 1970.601685 1339.689209 1960.635986 1349.648926 C 1950.670776 1359.608643 1934.518188 1359.604004 1924.558228 1349.638672 L 1877.682129 1302.749756 C 1871.102539 1296.335693 1868.481689 1286.878174 1870.822021 1277.992432 C 1873.161865 1269.106689 1880.101196 1262.166748 1888.986328 1259.825439 C 1897.871948 1257.484131 1907.329712 1260.103394 1913.744629 1266.682251 Z"/>
</svg>
